<svg width="750" height="376" viewBox="0 0 750 376" fill="none" xmlns="http://www.w3.org/2000/svg">
<rect width="748" height="374" transform="translate(1 1)" fill="white"/>
<g opacity="0.5">
<path d="M1 1H188" stroke="black" stroke-opacity="0.1"/>
<path d="M1 18H188" stroke="black" stroke-opacity="0.1"/>
<path d="M1 35H188" stroke="black" stroke-opacity="0.1"/>
<path d="M1 52H188" stroke="black" stroke-opacity="0.1"/>
<path d="M1 69H188" stroke="black" stroke-opacity="0.1"/>
<path d="M1 86H188" stroke="black" stroke-opacity="0.1"/>
<path d="M1 103H188" stroke="black" stroke-opacity="0.1"/>
<path d="M1 120H188" stroke="black" stroke-opacity="0.1"/>
<path d="M1 137H188" stroke="black" stroke-opacity="0.1"/>
<path d="M1 154H188" stroke="black" stroke-opacity="0.1"/>
<path d="M1 171H188" stroke="black" stroke-opacity="0.1"/>
<path d="M1 188H188" stroke="black" stroke-opacity="0.1"/>
<path d="M188 1L188 188" stroke="black" stroke-opacity="0.1"/>
<path d="M171 1L171 188" stroke="black" stroke-opacity="0.1"/>
<path d="M154 1L154 188" stroke="black" stroke-opacity="0.1"/>
<path d="M137 1L137 188" stroke="black" stroke-opacity="0.1"/>
<path d="M120 1L120 188" stroke="black" stroke-opacity="0.1"/>
<path d="M103 1L103 188" stroke="black" stroke-opacity="0.1"/>
<path d="M86 1L86 188" stroke="black" stroke-opacity="0.1"/>
<path d="M69 1L69 188" stroke="black" stroke-opacity="0.1"/>
<path d="M52 1L52 188" stroke="black" stroke-opacity="0.1"/>
<path d="M35 1L35 188" stroke="black" stroke-opacity="0.1"/>
<path d="M18 1L18 188" stroke="black" stroke-opacity="0.1"/>
<path d="M1 1L0.999992 188" stroke="black" stroke-opacity="0.1"/>
</g>
<g opacity="0.5">
<path d="M1 188H188" stroke="black" stroke-opacity="0.1"/>
<path d="M1 205H188" stroke="black" stroke-opacity="0.1"/>
<path d="M1 222H188" stroke="black" stroke-opacity="0.1"/>
<path d="M1 239H188" stroke="black" stroke-opacity="0.1"/>
<path d="M1 256H188" stroke="black" stroke-opacity="0.1"/>
<path d="M1 273H188" stroke="black" stroke-opacity="0.1"/>
<path d="M1 290H188" stroke="black" stroke-opacity="0.1"/>
<path d="M1 307H188" stroke="black" stroke-opacity="0.1"/>
<path d="M1 324H188" stroke="black" stroke-opacity="0.1"/>
<path d="M1 341H188" stroke="black" stroke-opacity="0.1"/>
<path d="M1 358H188" stroke="black" stroke-opacity="0.1"/>
<path d="M1 375H188" stroke="black" stroke-opacity="0.1"/>
<path d="M188 188L188 375" stroke="black" stroke-opacity="0.1"/>
<path d="M171 188L171 375" stroke="black" stroke-opacity="0.1"/>
<path d="M154 188L154 375" stroke="black" stroke-opacity="0.1"/>
<path d="M137 188L137 375" stroke="black" stroke-opacity="0.1"/>
<path d="M120 188L120 375" stroke="black" stroke-opacity="0.1"/>
<path d="M103 188L103 375" stroke="black" stroke-opacity="0.1"/>
<path d="M86 188L86 375" stroke="black" stroke-opacity="0.1"/>
<path d="M69 188L69 375" stroke="black" stroke-opacity="0.1"/>
<path d="M52 188L52 375" stroke="black" stroke-opacity="0.1"/>
<path d="M35 188L35 375" stroke="black" stroke-opacity="0.1"/>
<path d="M18 188L18 375" stroke="black" stroke-opacity="0.1"/>
<path d="M1 188L0.999992 375" stroke="black" stroke-opacity="0.1"/>
</g>
<g opacity="0.5">
<path d="M188 1H375" stroke="black" stroke-opacity="0.1"/>
<path d="M188 18H375" stroke="black" stroke-opacity="0.1"/>
<path d="M188 35H375" stroke="black" stroke-opacity="0.1"/>
<path d="M188 52H375" stroke="black" stroke-opacity="0.1"/>
<path d="M188 69H375" stroke="black" stroke-opacity="0.1"/>
<path d="M188 86H375" stroke="black" stroke-opacity="0.1"/>
<path d="M188 103H375" stroke="black" stroke-opacity="0.1"/>
<path d="M188 120H375" stroke="black" stroke-opacity="0.1"/>
<path d="M188 137H375" stroke="black" stroke-opacity="0.1"/>
<path d="M188 154H375" stroke="black" stroke-opacity="0.1"/>
<path d="M188 171H375" stroke="black" stroke-opacity="0.1"/>
<path d="M188 188H375" stroke="black" stroke-opacity="0.1"/>
<path d="M375 1L375 188" stroke="black" stroke-opacity="0.1"/>
<path d="M358 1L358 188" stroke="black" stroke-opacity="0.1"/>
<path d="M341 1L341 188" stroke="black" stroke-opacity="0.1"/>
<path d="M324 1L324 188" stroke="black" stroke-opacity="0.1"/>
<path d="M307 1L307 188" stroke="black" stroke-opacity="0.1"/>
<path d="M290 1L290 188" stroke="black" stroke-opacity="0.1"/>
<path d="M273 1L273 188" stroke="black" stroke-opacity="0.1"/>
<path d="M256 1L256 188" stroke="black" stroke-opacity="0.1"/>
<path d="M239 1L239 188" stroke="black" stroke-opacity="0.1"/>
<path d="M222 1L222 188" stroke="black" stroke-opacity="0.1"/>
<path d="M205 1L205 188" stroke="black" stroke-opacity="0.1"/>
<path d="M188 1L188 188" stroke="black" stroke-opacity="0.1"/>
</g>
<g opacity="0.5">
<path d="M188 188H375" stroke="black" stroke-opacity="0.1"/>
<path d="M188 205H375" stroke="black" stroke-opacity="0.1"/>
<path d="M188 222H375" stroke="black" stroke-opacity="0.1"/>
<path d="M188 239H375" stroke="black" stroke-opacity="0.1"/>
<path d="M188 256H375" stroke="black" stroke-opacity="0.1"/>
<path d="M188 273H375" stroke="black" stroke-opacity="0.1"/>
<path d="M188 290H375" stroke="black" stroke-opacity="0.1"/>
<path d="M188 307H375" stroke="black" stroke-opacity="0.1"/>
<path d="M188 324H375" stroke="black" stroke-opacity="0.1"/>
<path d="M188 341H375" stroke="black" stroke-opacity="0.1"/>
<path d="M188 358H375" stroke="black" stroke-opacity="0.1"/>
<path d="M188 375H375" stroke="black" stroke-opacity="0.1"/>
<path d="M375 188L375 375" stroke="black" stroke-opacity="0.1"/>
<path d="M358 188L358 375" stroke="black" stroke-opacity="0.1"/>
<path d="M341 188L341 375" stroke="black" stroke-opacity="0.1"/>
<path d="M324 188L324 375" stroke="black" stroke-opacity="0.1"/>
<path d="M307 188L307 375" stroke="black" stroke-opacity="0.1"/>
<path d="M290 188L290 375" stroke="black" stroke-opacity="0.1"/>
<path d="M273 188L273 375" stroke="black" stroke-opacity="0.1"/>
<path d="M256 188L256 375" stroke="black" stroke-opacity="0.1"/>
<path d="M239 188L239 375" stroke="black" stroke-opacity="0.1"/>
<path d="M222 188L222 375" stroke="black" stroke-opacity="0.1"/>
<path d="M205 188L205 375" stroke="black" stroke-opacity="0.1"/>
<path d="M188 188L188 375" stroke="black" stroke-opacity="0.1"/>
</g>
<g opacity="0.5">
<path d="M375 1H562" stroke="black" stroke-opacity="0.1"/>
<path d="M375 18H562" stroke="black" stroke-opacity="0.1"/>
<path d="M375 35H562" stroke="black" stroke-opacity="0.1"/>
<path d="M375 52H562" stroke="black" stroke-opacity="0.1"/>
<path d="M375 69H562" stroke="black" stroke-opacity="0.1"/>
<path d="M375 86H562" stroke="black" stroke-opacity="0.1"/>
<path d="M375 103H562" stroke="black" stroke-opacity="0.1"/>
<path d="M375 120H562" stroke="black" stroke-opacity="0.1"/>
<path d="M375 137H562" stroke="black" stroke-opacity="0.1"/>
<path d="M375 154H562" stroke="black" stroke-opacity="0.1"/>
<path d="M375 171H562" stroke="black" stroke-opacity="0.1"/>
<path d="M375 188H562" stroke="black" stroke-opacity="0.1"/>
<path d="M562 1L562 188" stroke="black" stroke-opacity="0.1"/>
<path d="M545 1L545 188" stroke="black" stroke-opacity="0.1"/>
<path d="M528 1L528 188" stroke="black" stroke-opacity="0.1"/>
<path d="M511 1L511 188" stroke="black" stroke-opacity="0.1"/>
<path d="M494 1L494 188" stroke="black" stroke-opacity="0.1"/>
<path d="M477 1L477 188" stroke="black" stroke-opacity="0.1"/>
<path d="M460 1L460 188" stroke="black" stroke-opacity="0.1"/>
<path d="M443 1L443 188" stroke="black" stroke-opacity="0.1"/>
<path d="M426 1L426 188" stroke="black" stroke-opacity="0.1"/>
<path d="M409 1L409 188" stroke="black" stroke-opacity="0.1"/>
<path d="M392 1L392 188" stroke="black" stroke-opacity="0.1"/>
<path d="M375 1L375 188" stroke="black" stroke-opacity="0.1"/>
</g>
<g opacity="0.5">
<path d="M375 188H562" stroke="black" stroke-opacity="0.1"/>
<path d="M375 205H562" stroke="black" stroke-opacity="0.1"/>
<path d="M375 222H562" stroke="black" stroke-opacity="0.1"/>
<path d="M375 239H562" stroke="black" stroke-opacity="0.1"/>
<path d="M375 256H562" stroke="black" stroke-opacity="0.1"/>
<path d="M375 273H562" stroke="black" stroke-opacity="0.1"/>
<path d="M375 290H562" stroke="black" stroke-opacity="0.1"/>
<path d="M375 307H562" stroke="black" stroke-opacity="0.1"/>
<path d="M375 324H562" stroke="black" stroke-opacity="0.1"/>
<path d="M375 341H562" stroke="black" stroke-opacity="0.1"/>
<path d="M375 358H562" stroke="black" stroke-opacity="0.1"/>
<path d="M375 375H562" stroke="black" stroke-opacity="0.1"/>
<path d="M562 188L562 375" stroke="black" stroke-opacity="0.1"/>
<path d="M545 188L545 375" stroke="black" stroke-opacity="0.1"/>
<path d="M528 188L528 375" stroke="black" stroke-opacity="0.1"/>
<path d="M511 188L511 375" stroke="black" stroke-opacity="0.1"/>
<path d="M494 188L494 375" stroke="black" stroke-opacity="0.1"/>
<path d="M477 188L477 375" stroke="black" stroke-opacity="0.1"/>
<path d="M460 188L460 375" stroke="black" stroke-opacity="0.1"/>
<path d="M443 188L443 375" stroke="black" stroke-opacity="0.1"/>
<path d="M426 188L426 375" stroke="black" stroke-opacity="0.1"/>
<path d="M409 188L409 375" stroke="black" stroke-opacity="0.1"/>
<path d="M392 188L392 375" stroke="black" stroke-opacity="0.1"/>
<path d="M375 188L375 375" stroke="black" stroke-opacity="0.1"/>
</g>
<g opacity="0.5">
<path d="M562 1H749" stroke="black" stroke-opacity="0.1"/>
<path d="M562 18H749" stroke="black" stroke-opacity="0.1"/>
<path d="M562 35H749" stroke="black" stroke-opacity="0.1"/>
<path d="M562 52H749" stroke="black" stroke-opacity="0.1"/>
<path d="M562 69H749" stroke="black" stroke-opacity="0.1"/>
<path d="M562 86H749" stroke="black" stroke-opacity="0.1"/>
<path d="M562 103H749" stroke="black" stroke-opacity="0.1"/>
<path d="M562 120H749" stroke="black" stroke-opacity="0.1"/>
<path d="M562 137H749" stroke="black" stroke-opacity="0.1"/>
<path d="M562 154H749" stroke="black" stroke-opacity="0.1"/>
<path d="M562 171H749" stroke="black" stroke-opacity="0.1"/>
<path d="M562 188H749" stroke="black" stroke-opacity="0.1"/>
<path d="M749 1L749 188" stroke="black" stroke-opacity="0.1"/>
<path d="M732 1L732 188" stroke="black" stroke-opacity="0.1"/>
<path d="M715 1L715 188" stroke="black" stroke-opacity="0.1"/>
<path d="M698 1L698 188" stroke="black" stroke-opacity="0.1"/>
<path d="M681 1L681 188" stroke="black" stroke-opacity="0.1"/>
<path d="M664 1L664 188" stroke="black" stroke-opacity="0.1"/>
<path d="M647 1L647 188" stroke="black" stroke-opacity="0.1"/>
<path d="M630 1L630 188" stroke="black" stroke-opacity="0.1"/>
<path d="M613 1L613 188" stroke="black" stroke-opacity="0.1"/>
<path d="M596 1L596 188" stroke="black" stroke-opacity="0.1"/>
<path d="M579 1L579 188" stroke="black" stroke-opacity="0.1"/>
<path d="M562 1L562 188" stroke="black" stroke-opacity="0.1"/>
</g>
<g opacity="0.5">
<path d="M562 188H749" stroke="black" stroke-opacity="0.1"/>
<path d="M562 205H749" stroke="black" stroke-opacity="0.1"/>
<path d="M562 222H749" stroke="black" stroke-opacity="0.1"/>
<path d="M562 239H749" stroke="black" stroke-opacity="0.1"/>
<path d="M562 256H749" stroke="black" stroke-opacity="0.1"/>
<path d="M562 273H749" stroke="black" stroke-opacity="0.1"/>
<path d="M562 290H749" stroke="black" stroke-opacity="0.1"/>
<path d="M562 307H749" stroke="black" stroke-opacity="0.1"/>
<path d="M562 324H749" stroke="black" stroke-opacity="0.1"/>
<path d="M562 341H749" stroke="black" stroke-opacity="0.1"/>
<path d="M562 358H749" stroke="black" stroke-opacity="0.1"/>
<path d="M562 375H749" stroke="black" stroke-opacity="0.1"/>
<path d="M749 188L749 375" stroke="black" stroke-opacity="0.1"/>
<path d="M732 188L732 375" stroke="black" stroke-opacity="0.1"/>
<path d="M715 188L715 375" stroke="black" stroke-opacity="0.1"/>
<path d="M698 188L698 375" stroke="black" stroke-opacity="0.1"/>
<path d="M681 188L681 375" stroke="black" stroke-opacity="0.1"/>
<path d="M664 188L664 375" stroke="black" stroke-opacity="0.1"/>
<path d="M647 188L647 375" stroke="black" stroke-opacity="0.1"/>
<path d="M630 188L630 375" stroke="black" stroke-opacity="0.1"/>
<path d="M613 188L613 375" stroke="black" stroke-opacity="0.1"/>
<path d="M596 188L596 375" stroke="black" stroke-opacity="0.1"/>
<path d="M579 188L579 375" stroke="black" stroke-opacity="0.1"/>
<path d="M562 188L562 375" stroke="black" stroke-opacity="0.1"/>
</g>
<g filter="url(#filter0_d_900_1980)">
<rect x="84.2028" y="62.2028" width="207.327" height="64.9495" rx="8.41937" fill="white"/>
<rect x="84.2028" y="62.2028" width="207.327" height="64.9495" rx="8.41937" stroke="#CACACA" stroke-width="2.40554"/>
<path d="M128.191 102.049H118.403L116.527 107.178H112.18L120.874 84.6619H125.752L134.539 107.178H130.067L128.191 102.049ZM126.878 98.4529L123.313 88.6022L119.716 98.4529H126.878ZM136.802 84.6619H140.992V107.178H136.802V84.6619ZM151.424 90.9163H155.239V93.8246C156.219 91.7607 157.856 90.7287 160.149 90.7287H161.431V94.3562H159.993C158.513 94.3562 157.366 94.7315 156.553 95.482C155.761 96.2325 155.365 97.5043 155.365 99.2972V107.178H151.424V90.9163ZM171.264 107.553C169.617 107.553 168.189 107.188 166.979 106.458C165.77 105.708 164.842 104.697 164.196 103.425C163.55 102.133 163.227 100.673 163.227 99.047C163.227 97.4209 163.55 95.9719 164.196 94.7002C164.842 93.4076 165.77 92.3965 166.979 91.6668C168.189 90.9163 169.617 90.541 171.264 90.541C172.911 90.541 174.339 90.9059 175.548 91.6356C176.757 92.3652 177.685 93.3972 178.331 94.7315C178.977 96.0658 179.301 97.6085 179.301 99.3597V100.298H167.136C167.303 101.59 167.74 102.612 168.449 103.363C169.179 104.092 170.117 104.457 171.264 104.457C173.14 104.457 174.433 103.707 175.141 102.205H178.988C178.446 103.852 177.497 105.155 176.142 106.114C174.787 107.073 173.161 107.553 171.264 107.553ZM175.329 97.4834C175.121 96.2742 174.662 95.3361 173.953 94.6689C173.265 93.981 172.369 93.637 171.264 93.637C170.159 93.637 169.252 93.981 168.543 94.6689C167.855 95.3361 167.396 96.2742 167.167 97.4834H175.329ZM197.505 113.432H193.565V105.145C192.398 106.75 190.73 107.553 188.562 107.553C187.019 107.553 185.695 107.188 184.59 106.458C183.506 105.729 182.683 104.718 182.12 103.425C181.557 102.133 181.275 100.673 181.275 99.047C181.275 97.4209 181.557 95.9615 182.12 94.6689C182.683 93.3764 183.506 92.3652 184.59 91.6356C185.695 90.9059 187.019 90.541 188.562 90.541C189.708 90.541 190.709 90.7704 191.564 91.229C192.439 91.6877 193.159 92.334 193.722 93.1679V90.9163H197.505V113.432ZM185.278 99.047C185.278 100.673 185.622 101.955 186.31 102.893C187.019 103.811 188.072 104.269 189.469 104.269C190.845 104.269 191.877 103.811 192.564 102.893C193.273 101.955 193.628 100.673 193.628 99.047C193.628 97.4209 193.273 96.1492 192.564 95.2318C191.877 94.2937 190.845 93.8246 189.469 93.8246C188.072 93.8246 187.019 94.2937 186.31 95.2318C185.622 96.1492 185.278 97.4209 185.278 99.047ZM204.806 100.704C204.806 101.747 205.057 102.581 205.557 103.206C206.057 103.811 206.85 104.113 207.934 104.113C208.788 104.113 209.591 103.832 210.342 103.269C211.113 102.706 211.561 101.789 211.686 100.517V90.9163H215.627V107.178H211.811V104.957C211.207 105.75 210.477 106.386 209.622 106.865C208.768 107.324 207.788 107.553 206.683 107.553C204.848 107.553 203.42 106.98 202.399 105.833C201.398 104.666 200.897 103.112 200.897 101.174V90.9163H204.806V100.704ZM226.356 107.553C224.709 107.553 223.281 107.188 222.072 106.458C220.863 105.708 219.935 104.697 219.289 103.425C218.642 102.133 218.319 100.673 218.319 99.047C218.319 97.4209 218.642 95.9719 219.289 94.7002C219.935 93.4076 220.863 92.3965 222.072 91.6668C223.281 90.9163 224.709 90.541 226.356 90.541C228.003 90.541 229.431 90.9059 230.64 91.6356C231.849 92.3652 232.777 93.3972 233.424 94.7315C234.07 96.0658 234.393 97.6085 234.393 99.3597V100.298H222.228C222.395 101.59 222.833 102.612 223.542 103.363C224.271 104.092 225.209 104.457 226.356 104.457C228.232 104.457 229.525 103.707 230.234 102.205H234.08C233.538 103.852 232.59 105.155 231.234 106.114C229.879 107.073 228.253 107.553 226.356 107.553ZM230.421 97.4834C230.213 96.2742 229.754 95.3361 229.045 94.6689C228.357 93.981 227.461 93.637 226.356 93.637C225.251 93.637 224.344 93.981 223.635 94.6689C222.947 95.3361 222.489 96.2742 222.259 97.4834H230.421ZM243.404 107.553C238.671 107.553 236.191 105.645 235.961 101.83H239.776C239.901 102.873 240.266 103.613 240.871 104.051C241.496 104.488 242.382 104.707 243.529 104.707C244.488 104.707 245.249 104.54 245.812 104.207C246.396 103.873 246.687 103.404 246.687 102.8C246.687 102.383 246.594 102.049 246.406 101.799C246.239 101.549 245.885 101.33 245.343 101.142C244.801 100.934 243.977 100.736 242.872 100.548C241.204 100.256 239.891 99.8809 238.932 99.4223C237.994 98.9636 237.327 98.4112 236.931 97.7649C236.534 97.1186 236.336 96.3368 236.336 95.4195C236.336 93.8976 236.941 92.7092 238.15 91.8545C239.38 90.9789 241.017 90.541 243.06 90.541C245.353 90.541 247.104 91.031 248.314 92.0108C249.523 92.9907 250.148 94.3458 250.19 96.0762H246.531C246.489 95.0755 246.156 94.3771 245.53 93.981C244.905 93.5849 244.081 93.3868 243.06 93.3868C242.226 93.3868 241.538 93.5536 240.996 93.8871C240.454 94.2207 240.183 94.6794 240.183 95.2631C240.183 95.6801 240.287 96.0136 240.496 96.2638C240.725 96.514 241.121 96.7329 241.684 96.9205C242.247 97.0873 243.081 97.2645 244.186 97.4522C245.812 97.7232 247.094 98.0776 248.032 98.5154C248.97 98.9532 249.627 99.5057 250.002 100.173C250.398 100.819 250.596 101.611 250.596 102.549C250.596 104.134 249.929 105.364 248.595 106.24C247.282 107.115 245.551 107.553 243.404 107.553ZM258.441 85.9128V90.9163H262.569V93.9497H258.441V102.612C258.441 103.154 258.556 103.55 258.785 103.8C259.035 104.03 259.442 104.144 260.005 104.144H262.569V107.178H259.035C257.555 107.178 256.429 106.875 255.658 106.271C254.908 105.645 254.532 104.561 254.532 103.019V93.9497H251.687V90.9163H254.532V85.9128H258.441Z" fill="black"/>
</g>
<g filter="url(#filter1_d_900_1980)">
<rect x="290.703" y="156.203" width="169.327" height="64.9495" rx="8.41937" fill="white"/>
<rect x="290.703" y="156.203" width="169.327" height="64.9495" rx="8.41937" stroke="#CACACA" stroke-width="2.40554"/>
<path d="M330.501 201.553C328.145 201.553 326.123 201.032 324.434 199.989C322.766 198.947 321.505 197.55 320.65 195.799C319.795 194.027 319.368 192.067 319.368 189.92C319.368 187.772 319.795 185.823 320.65 184.072C321.505 182.3 322.766 180.893 324.434 179.85C326.123 178.808 328.145 178.287 330.501 178.287C332.294 178.287 333.889 178.641 335.285 179.35C336.703 180.059 337.85 181.039 338.725 182.289C339.601 183.54 340.164 184.958 340.414 186.542H336.161C335.869 185.187 335.223 184.103 334.222 183.29C333.221 182.456 331.981 182.039 330.501 182.039C328.27 182.039 326.581 182.779 325.435 184.26C324.309 185.74 323.746 187.627 323.746 189.92C323.746 192.213 324.309 194.1 325.435 195.58C326.581 197.06 328.27 197.8 330.501 197.8C332.085 197.8 333.378 197.331 334.378 196.393C335.4 195.455 336.036 194.225 336.286 192.703H340.508C340.299 194.392 339.768 195.914 338.913 197.269C338.058 198.603 336.911 199.656 335.473 200.427C334.034 201.178 332.377 201.553 330.501 201.553ZM343.204 178.662H347.145V186.98C348.437 185.354 350.105 184.541 352.148 184.541C353.983 184.541 355.401 185.125 356.401 186.292C357.423 187.439 357.934 188.982 357.934 190.921V201.178H354.025V191.39C354.025 190.347 353.774 189.524 353.274 188.919C352.774 188.294 351.981 187.981 350.897 187.981C350.043 187.981 349.23 188.262 348.458 188.825C347.708 189.388 347.27 190.306 347.145 191.577V201.178H343.204V178.662ZM371.54 199.301C370.873 200.114 370.112 200.698 369.257 201.053C368.423 201.386 367.464 201.553 366.38 201.553C364.587 201.553 363.149 201.126 362.065 200.271C360.981 199.395 360.438 198.186 360.438 196.643C360.438 195.226 360.939 194.131 361.94 193.36C362.961 192.568 364.546 191.984 366.693 191.609L371.415 190.764V189.826C371.415 189.075 371.175 188.513 370.696 188.137C370.216 187.762 369.466 187.574 368.444 187.574C367.485 187.574 366.693 187.783 366.067 188.2C365.442 188.617 365.108 189.253 365.067 190.107H361.189C361.21 188.273 361.898 186.886 363.253 185.948C364.608 185.01 366.328 184.541 368.413 184.541C370.685 184.541 372.395 184.968 373.541 185.823C374.688 186.678 375.261 187.866 375.261 189.388V201.178H371.54V199.301ZM364.473 196.518C364.473 197.185 364.702 197.707 365.161 198.082C365.64 198.457 366.338 198.645 367.256 198.645C368.402 198.645 369.382 198.332 370.195 197.707C371.008 197.06 371.415 196.112 371.415 194.861V193.422L367.412 194.235C366.391 194.444 365.64 194.704 365.161 195.017C364.702 195.33 364.473 195.83 364.473 196.518ZM389.022 191.39C389.022 190.347 388.772 189.524 388.272 188.919C387.771 188.294 386.979 187.981 385.895 187.981C385.04 187.981 384.227 188.262 383.456 188.825C382.705 189.388 382.268 190.306 382.142 191.577V201.178H378.202V184.916H382.017V187.137C382.622 186.344 383.352 185.719 384.206 185.26C385.061 184.781 386.041 184.541 387.146 184.541C388.981 184.541 390.398 185.125 391.399 186.292C392.421 187.439 392.931 188.982 392.931 190.921V201.178H389.022V191.39ZM403.629 207.807C401.378 207.807 399.616 207.307 398.345 206.306C397.094 205.306 396.406 203.919 396.281 202.147H400.127C400.356 203.878 401.566 204.743 403.755 204.743C406.527 204.743 407.914 203.408 407.914 200.74V198.801C406.746 200.365 405.078 201.146 402.91 201.146C401.367 201.146 400.044 200.792 398.939 200.083C397.855 199.354 397.031 198.363 396.468 197.112C395.905 195.862 395.624 194.433 395.624 192.828C395.624 191.244 395.905 189.826 396.468 188.575C397.031 187.303 397.855 186.313 398.939 185.604C400.044 184.895 401.367 184.541 402.91 184.541C405.162 184.541 406.871 185.375 408.039 187.043V184.916H411.854V200.74C411.854 203.075 411.093 204.837 409.571 206.025C408.049 207.213 406.069 207.807 403.629 207.807ZM399.627 192.828C399.627 194.413 399.971 195.663 400.659 196.581C401.367 197.477 402.42 197.925 403.817 197.925C405.193 197.925 406.225 197.477 406.913 196.581C407.622 195.663 407.976 194.413 407.976 192.828C407.976 191.244 407.622 190.003 406.913 189.107C406.225 188.189 405.193 187.731 403.817 187.731C402.42 187.731 401.367 188.189 400.659 189.107C399.971 190.003 399.627 191.244 399.627 192.828ZM422.595 201.553C420.948 201.553 419.52 201.188 418.311 200.458C417.101 199.708 416.174 198.697 415.527 197.425C414.881 196.133 414.558 194.673 414.558 193.047C414.558 191.421 414.881 189.972 415.527 188.7C416.174 187.408 417.101 186.397 418.311 185.667C419.52 184.916 420.948 184.541 422.595 184.541C424.242 184.541 425.67 184.906 426.879 185.636C428.088 186.365 429.016 187.397 429.662 188.731C430.309 190.066 430.632 191.609 430.632 193.36V194.298H418.467C418.634 195.59 419.072 196.612 419.78 197.363C420.51 198.092 421.448 198.457 422.595 198.457C424.471 198.457 425.764 197.707 426.473 196.205H430.319C429.777 197.852 428.828 199.155 427.473 200.114C426.118 201.073 424.492 201.553 422.595 201.553ZM426.66 191.483C426.452 190.274 425.993 189.336 425.284 188.669C424.596 187.981 423.7 187.637 422.595 187.637C421.49 187.637 420.583 187.981 419.874 188.669C419.186 189.336 418.728 190.274 418.498 191.483H426.66Z" fill="black"/>
</g>
<g filter="url(#filter2_d_900_1980)">
<rect x="476.203" y="249.203" width="172.327" height="64.9495" rx="8.41937" fill="white"/>
<rect x="476.203" y="249.203" width="172.327" height="64.9495" rx="8.41937" stroke="#CACACA" stroke-width="2.40554"/>
<path d="M516.001 294.553C513.645 294.553 511.623 294.032 509.934 292.989C508.266 291.947 507.005 290.55 506.15 288.799C505.295 287.027 504.868 285.067 504.868 282.92C504.868 280.772 505.295 278.823 506.15 277.072C507.005 275.3 508.266 273.893 509.934 272.85C511.623 271.808 513.645 271.287 516.001 271.287C517.794 271.287 519.389 271.641 520.785 272.35C522.203 273.059 523.35 274.039 524.225 275.289C525.101 276.54 525.664 277.958 525.914 279.542H521.661C521.369 278.187 520.723 277.103 519.722 276.29C518.721 275.456 517.481 275.039 516.001 275.039C513.77 275.039 512.081 275.779 510.935 277.26C509.809 278.74 509.246 280.627 509.246 282.92C509.246 285.213 509.809 287.1 510.935 288.58C512.081 290.06 513.77 290.8 516.001 290.8C517.585 290.8 518.878 290.331 519.878 289.393C520.9 288.455 521.536 287.225 521.786 285.703H526.008C525.799 287.392 525.268 288.914 524.413 290.269C523.558 291.603 522.411 292.656 520.973 293.427C519.534 294.178 517.877 294.553 516.001 294.553ZM536.241 294.553C534.552 294.553 533.083 294.188 531.832 293.458C530.602 292.729 529.653 291.718 528.986 290.425C528.34 289.133 528.016 287.673 528.016 286.047C528.016 284.421 528.34 282.962 528.986 281.669C529.653 280.376 530.602 279.365 531.832 278.636C533.083 277.906 534.552 277.541 536.241 277.541C537.93 277.541 539.389 277.906 540.619 278.636C541.87 279.365 542.819 280.376 543.465 281.669C544.132 282.962 544.466 284.421 544.466 286.047C544.466 287.673 544.132 289.133 543.465 290.425C542.819 291.718 541.87 292.729 540.619 293.458C539.389 294.188 537.93 294.553 536.241 294.553ZM532.019 286.047C532.019 287.673 532.363 288.955 533.051 289.893C533.76 290.811 534.823 291.269 536.241 291.269C537.659 291.269 538.711 290.811 539.399 289.893C540.108 288.955 540.463 287.673 540.463 286.047C540.463 284.421 540.108 283.149 539.399 282.232C538.711 281.294 537.659 280.825 536.241 280.825C534.823 280.825 533.76 281.294 533.051 282.232C532.363 283.149 532.019 284.421 532.019 286.047ZM567.508 284.39C567.508 283.368 567.268 282.545 566.789 281.919C566.33 281.294 565.642 280.981 564.725 280.981C563.828 280.981 563.026 281.315 562.317 281.982C561.608 282.628 561.254 283.712 561.254 285.234V294.178H557.313V284.39C557.313 283.368 557.074 282.545 556.594 281.919C556.136 281.294 555.448 280.981 554.53 280.981C553.634 280.981 552.831 281.315 552.122 281.982C551.434 282.628 551.09 283.712 551.09 285.234V294.178H547.15V277.916H550.965V280.168C551.486 279.355 552.143 278.719 552.935 278.26C553.748 277.781 554.697 277.541 555.781 277.541C556.907 277.541 557.876 277.812 558.689 278.354C559.523 278.896 560.159 279.647 560.597 280.606C561.181 279.688 561.921 278.948 562.817 278.385C563.735 277.822 564.787 277.541 565.976 277.541C567.664 277.541 568.988 278.125 569.947 279.292C570.927 280.439 571.417 281.982 571.417 283.921V294.178H567.508V284.39ZM595.146 284.39C595.146 283.368 594.906 282.545 594.427 281.919C593.968 281.294 593.28 280.981 592.363 280.981C591.466 280.981 590.664 281.315 589.955 281.982C589.246 282.628 588.892 283.712 588.892 285.234V294.178H584.951V284.39C584.951 283.368 584.711 282.545 584.232 281.919C583.773 281.294 583.085 280.981 582.168 280.981C581.272 280.981 580.469 281.315 579.76 281.982C579.072 282.628 578.728 283.712 578.728 285.234V294.178H574.788V277.916H578.603V280.168C579.124 279.355 579.781 278.719 580.573 278.26C581.386 277.781 582.335 277.541 583.419 277.541C584.545 277.541 585.514 277.812 586.327 278.354C587.161 278.896 587.797 279.647 588.235 280.606C588.819 279.688 589.559 278.948 590.455 278.385C591.372 277.822 592.425 277.541 593.614 277.541C595.302 277.541 596.626 278.125 597.585 279.292C598.565 280.439 599.055 281.982 599.055 283.921V294.178H595.146V284.39ZM602.394 277.916H606.303V294.178H602.394V277.916ZM602.394 271.662H606.335V275.321H602.394V271.662ZM615.23 272.913V277.916H619.358V280.95H615.23V289.612C615.23 290.154 615.344 290.55 615.574 290.8C615.824 291.03 616.231 291.144 616.793 291.144H619.358V294.178H615.824C614.344 294.178 613.218 293.875 612.447 293.271C611.696 292.645 611.321 291.561 611.321 290.019V280.95H608.475V277.916H611.321V272.913H615.23Z" fill="black"/>
</g>
<path d="M189 143.5C189 142.948 188.552 142.5 188 142.5C187.448 142.5 187 142.948 187 143.5H188H189ZM188 188H187V189H188V188ZM273.5 188L263.5 182.226V193.774L273.5 188ZM188 143.5H187V188H188H189V143.5H188ZM188 188V189H264.5V188V187H188V188Z" fill="black"/>
<path d="M376 238C376 237.448 375.552 237 375 237C374.448 237 374 237.448 374 238H375H376ZM375 282.5H374V283.5H375V282.5ZM460.5 282.5L450.5 276.726V288.274L460.5 282.5ZM375 238H374V282.5H375H376V238H375ZM375 282.5V283.5H451.5V282.5V281.5H375V282.5Z" fill="black"/>
<defs>
<filter id="filter0_d_900_1980" x="32.4837" y="20.1059" width="310.767" height="168.388" filterUnits="userSpaceOnUse" color-interpolation-filters="sRGB">
<feFlood flood-opacity="0" result="BackgroundImageFix"/>
<feColorMatrix in="SourceAlpha" type="matrix" values="0 0 0 0 0 0 0 0 0 0 0 0 0 0 0 0 0 0 127 0" result="hardAlpha"/>
<feOffset dy="9.62214"/>
<feGaussianBlur stdDeviation="25.2581"/>
<feComposite in2="hardAlpha" operator="out"/>
<feColorMatrix type="matrix" values="0 0 0 0 0 0 0 0 0 0 0 0 0 0 0 0 0 0 0.13 0"/>
<feBlend mode="normal" in2="BackgroundImageFix" result="effect1_dropShadow_900_1980"/>
<feBlend mode="normal" in="SourceGraphic" in2="effect1_dropShadow_900_1980" result="shape"/>
</filter>
<filter id="filter1_d_900_1980" x="238.984" y="114.106" width="272.767" height="168.388" filterUnits="userSpaceOnUse" color-interpolation-filters="sRGB">
<feFlood flood-opacity="0" result="BackgroundImageFix"/>
<feColorMatrix in="SourceAlpha" type="matrix" values="0 0 0 0 0 0 0 0 0 0 0 0 0 0 0 0 0 0 127 0" result="hardAlpha"/>
<feOffset dy="9.62214"/>
<feGaussianBlur stdDeviation="25.2581"/>
<feComposite in2="hardAlpha" operator="out"/>
<feColorMatrix type="matrix" values="0 0 0 0 0 0 0 0 0 0 0 0 0 0 0 0 0 0 0.13 0"/>
<feBlend mode="normal" in2="BackgroundImageFix" result="effect1_dropShadow_900_1980"/>
<feBlend mode="normal" in="SourceGraphic" in2="effect1_dropShadow_900_1980" result="shape"/>
</filter>
<filter id="filter2_d_900_1980" x="424.484" y="207.106" width="275.767" height="168.388" filterUnits="userSpaceOnUse" color-interpolation-filters="sRGB">
<feFlood flood-opacity="0" result="BackgroundImageFix"/>
<feColorMatrix in="SourceAlpha" type="matrix" values="0 0 0 0 0 0 0 0 0 0 0 0 0 0 0 0 0 0 127 0" result="hardAlpha"/>
<feOffset dy="9.62214"/>
<feGaussianBlur stdDeviation="25.2581"/>
<feComposite in2="hardAlpha" operator="out"/>
<feColorMatrix type="matrix" values="0 0 0 0 0 0 0 0 0 0 0 0 0 0 0 0 0 0 0.13 0"/>
<feBlend mode="normal" in2="BackgroundImageFix" result="effect1_dropShadow_900_1980"/>
<feBlend mode="normal" in="SourceGraphic" in2="effect1_dropShadow_900_1980" result="shape"/>
</filter>
</defs>
</svg>
