<svg width="748" height="412" viewBox="0 0 748 412" fill="none" xmlns="http://www.w3.org/2000/svg">
<g clip-path="url(#clip0_900_2864)">
<rect width="748" height="412" fill="white"/>
<g opacity="0.5">
<path d="M0 187H187" stroke="black" stroke-opacity="0.1"/>
<path d="M0 204H187" stroke="black" stroke-opacity="0.1"/>
<path d="M0 221H187" stroke="black" stroke-opacity="0.1"/>
<path d="M0 238H187" stroke="black" stroke-opacity="0.1"/>
<path d="M0 255H187" stroke="black" stroke-opacity="0.1"/>
<path d="M0 272H187" stroke="black" stroke-opacity="0.1"/>
<path d="M0 289H187" stroke="black" stroke-opacity="0.1"/>
<path d="M0 306H187" stroke="black" stroke-opacity="0.1"/>
<path d="M0 323H187" stroke="black" stroke-opacity="0.1"/>
<path d="M0 340H187" stroke="black" stroke-opacity="0.1"/>
<path d="M0 357H187" stroke="black" stroke-opacity="0.1"/>
<path d="M0 374H187" stroke="black" stroke-opacity="0.1"/>
<path d="M187 187L187 374" stroke="black" stroke-opacity="0.1"/>
<path d="M170 187L170 374" stroke="black" stroke-opacity="0.1"/>
<path d="M153 187L153 374" stroke="black" stroke-opacity="0.1"/>
<path d="M136 187L136 374" stroke="black" stroke-opacity="0.1"/>
<path d="M119 187L119 374" stroke="black" stroke-opacity="0.1"/>
<path d="M102 187L102 374" stroke="black" stroke-opacity="0.1"/>
<path d="M85 187L85 374" stroke="black" stroke-opacity="0.1"/>
<path d="M68 187L68 374" stroke="black" stroke-opacity="0.1"/>
<path d="M51 187L51 374" stroke="black" stroke-opacity="0.1"/>
<path d="M34 187L34 374" stroke="black" stroke-opacity="0.1"/>
<path d="M17 187L17 374" stroke="black" stroke-opacity="0.1"/>
<path d="M0 187L-8.17403e-06 374" stroke="black" stroke-opacity="0.1"/>
</g>
<g opacity="0.5">
<path d="M187 187H374" stroke="black" stroke-opacity="0.1"/>
<path d="M187 204H374" stroke="black" stroke-opacity="0.1"/>
<path d="M187 221H374" stroke="black" stroke-opacity="0.1"/>
<path d="M187 238H374" stroke="black" stroke-opacity="0.1"/>
<path d="M187 255H374" stroke="black" stroke-opacity="0.1"/>
<path d="M187 272H374" stroke="black" stroke-opacity="0.1"/>
<path d="M187 289H374" stroke="black" stroke-opacity="0.1"/>
<path d="M187 306H374" stroke="black" stroke-opacity="0.1"/>
<path d="M187 323H374" stroke="black" stroke-opacity="0.1"/>
<path d="M187 340H374" stroke="black" stroke-opacity="0.1"/>
<path d="M187 357H374" stroke="black" stroke-opacity="0.1"/>
<path d="M187 374H374" stroke="black" stroke-opacity="0.1"/>
<path d="M374 187L374 374" stroke="black" stroke-opacity="0.1"/>
<path d="M357 187L357 374" stroke="black" stroke-opacity="0.1"/>
<path d="M340 187L340 374" stroke="black" stroke-opacity="0.1"/>
<path d="M323 187L323 374" stroke="black" stroke-opacity="0.1"/>
<path d="M306 187L306 374" stroke="black" stroke-opacity="0.1"/>
<path d="M289 187L289 374" stroke="black" stroke-opacity="0.1"/>
<path d="M272 187L272 374" stroke="black" stroke-opacity="0.1"/>
<path d="M255 187L255 374" stroke="black" stroke-opacity="0.1"/>
<path d="M238 187L238 374" stroke="black" stroke-opacity="0.1"/>
<path d="M221 187L221 374" stroke="black" stroke-opacity="0.1"/>
<path d="M204 187L204 374" stroke="black" stroke-opacity="0.1"/>
<path d="M187 187L187 374" stroke="black" stroke-opacity="0.1"/>
</g>
<g opacity="0.5">
<path d="M374 187H561" stroke="black" stroke-opacity="0.1"/>
<path d="M374 204H561" stroke="black" stroke-opacity="0.1"/>
<path d="M374 221H561" stroke="black" stroke-opacity="0.1"/>
<path d="M374 238H561" stroke="black" stroke-opacity="0.1"/>
<path d="M374 255H561" stroke="black" stroke-opacity="0.1"/>
<path d="M374 272H561" stroke="black" stroke-opacity="0.1"/>
<path d="M374 289H561" stroke="black" stroke-opacity="0.1"/>
<path d="M374 306H561" stroke="black" stroke-opacity="0.1"/>
<path d="M374 323H561" stroke="black" stroke-opacity="0.1"/>
<path d="M374 340H561" stroke="black" stroke-opacity="0.1"/>
<path d="M374 357H561" stroke="black" stroke-opacity="0.1"/>
<path d="M374 374H561" stroke="black" stroke-opacity="0.1"/>
<path d="M561 187L561 374" stroke="black" stroke-opacity="0.1"/>
<path d="M544 187L544 374" stroke="black" stroke-opacity="0.1"/>
<path d="M527 187L527 374" stroke="black" stroke-opacity="0.1"/>
<path d="M510 187L510 374" stroke="black" stroke-opacity="0.1"/>
<path d="M493 187L493 374" stroke="black" stroke-opacity="0.1"/>
<path d="M476 187L476 374" stroke="black" stroke-opacity="0.1"/>
<path d="M459 187L459 374" stroke="black" stroke-opacity="0.1"/>
<path d="M442 187L442 374" stroke="black" stroke-opacity="0.1"/>
<path d="M425 187L425 374" stroke="black" stroke-opacity="0.1"/>
<path d="M408 187L408 374" stroke="black" stroke-opacity="0.1"/>
<path d="M391 187L391 374" stroke="black" stroke-opacity="0.1"/>
<path d="M374 187L374 374" stroke="black" stroke-opacity="0.1"/>
</g>
<g opacity="0.5">
<path d="M561 187H748" stroke="black" stroke-opacity="0.1"/>
<path d="M561 204H748" stroke="black" stroke-opacity="0.1"/>
<path d="M561 221H748" stroke="black" stroke-opacity="0.1"/>
<path d="M561 238H748" stroke="black" stroke-opacity="0.1"/>
<path d="M561 255H748" stroke="black" stroke-opacity="0.1"/>
<path d="M561 272H748" stroke="black" stroke-opacity="0.1"/>
<path d="M561 289H748" stroke="black" stroke-opacity="0.1"/>
<path d="M561 306H748" stroke="black" stroke-opacity="0.1"/>
<path d="M561 323H748" stroke="black" stroke-opacity="0.1"/>
<path d="M561 340H748" stroke="black" stroke-opacity="0.1"/>
<path d="M561 357H748" stroke="black" stroke-opacity="0.1"/>
<path d="M561 374H748" stroke="black" stroke-opacity="0.1"/>
<path d="M748 187L748 374" stroke="black" stroke-opacity="0.1"/>
<path d="M731 187L731 374" stroke="black" stroke-opacity="0.1"/>
<path d="M714 187L714 374" stroke="black" stroke-opacity="0.1"/>
<path d="M697 187L697 374" stroke="black" stroke-opacity="0.1"/>
<path d="M680 187L680 374" stroke="black" stroke-opacity="0.1"/>
<path d="M663 187L663 374" stroke="black" stroke-opacity="0.1"/>
<path d="M646 187L646 374" stroke="black" stroke-opacity="0.1"/>
<path d="M629 187L629 374" stroke="black" stroke-opacity="0.1"/>
<path d="M612 187L612 374" stroke="black" stroke-opacity="0.1"/>
<path d="M595 187L595 374" stroke="black" stroke-opacity="0.1"/>
<path d="M578 187L578 374" stroke="black" stroke-opacity="0.1"/>
<path d="M561 187L561 374" stroke="black" stroke-opacity="0.1"/>
</g>
<g opacity="0.5">
<path d="M0 0H187" stroke="black" stroke-opacity="0.1"/>
<path d="M0 17H187" stroke="black" stroke-opacity="0.1"/>
<path d="M0 34H187" stroke="black" stroke-opacity="0.1"/>
<path d="M0 51H187" stroke="black" stroke-opacity="0.1"/>
<path d="M0 68H187" stroke="black" stroke-opacity="0.1"/>
<path d="M0 85H187" stroke="black" stroke-opacity="0.1"/>
<path d="M0 102H187" stroke="black" stroke-opacity="0.1"/>
<path d="M0 119H187" stroke="black" stroke-opacity="0.1"/>
<path d="M0 136H187" stroke="black" stroke-opacity="0.1"/>
<path d="M0 153H187" stroke="black" stroke-opacity="0.1"/>
<path d="M0 170H187" stroke="black" stroke-opacity="0.1"/>
<path d="M0 187H187" stroke="black" stroke-opacity="0.1"/>
<path d="M187 0L187 187" stroke="black" stroke-opacity="0.1"/>
<path d="M170 0L170 187" stroke="black" stroke-opacity="0.1"/>
<path d="M153 0L153 187" stroke="black" stroke-opacity="0.1"/>
<path d="M136 0L136 187" stroke="black" stroke-opacity="0.1"/>
<path d="M119 0L119 187" stroke="black" stroke-opacity="0.1"/>
<path d="M102 0L102 187" stroke="black" stroke-opacity="0.1"/>
<path d="M85 0L85 187" stroke="black" stroke-opacity="0.1"/>
<path d="M68 0L68 187" stroke="black" stroke-opacity="0.1"/>
<path d="M51 0L51 187" stroke="black" stroke-opacity="0.1"/>
<path d="M34 0L34 187" stroke="black" stroke-opacity="0.1"/>
<path d="M17 0L17 187" stroke="black" stroke-opacity="0.1"/>
<path d="M0 0L-8.17403e-06 187" stroke="black" stroke-opacity="0.1"/>
</g>
<g opacity="0.5">
<path d="M187 0H374" stroke="black" stroke-opacity="0.1"/>
<path d="M187 17H374" stroke="black" stroke-opacity="0.1"/>
<path d="M187 34H374" stroke="black" stroke-opacity="0.1"/>
<path d="M187 51H374" stroke="black" stroke-opacity="0.1"/>
<path d="M187 68H374" stroke="black" stroke-opacity="0.1"/>
<path d="M187 85H374" stroke="black" stroke-opacity="0.1"/>
<path d="M187 102H374" stroke="black" stroke-opacity="0.1"/>
<path d="M187 119H374" stroke="black" stroke-opacity="0.1"/>
<path d="M187 136H374" stroke="black" stroke-opacity="0.1"/>
<path d="M187 153H374" stroke="black" stroke-opacity="0.1"/>
<path d="M187 170H374" stroke="black" stroke-opacity="0.1"/>
<path d="M187 187H374" stroke="black" stroke-opacity="0.1"/>
<path d="M374 0L374 187" stroke="black" stroke-opacity="0.1"/>
<path d="M357 0L357 187" stroke="black" stroke-opacity="0.1"/>
<path d="M340 0L340 187" stroke="black" stroke-opacity="0.1"/>
<path d="M323 0L323 187" stroke="black" stroke-opacity="0.1"/>
<path d="M306 0L306 187" stroke="black" stroke-opacity="0.1"/>
<path d="M289 0L289 187" stroke="black" stroke-opacity="0.1"/>
<path d="M272 0L272 187" stroke="black" stroke-opacity="0.1"/>
<path d="M255 0L255 187" stroke="black" stroke-opacity="0.1"/>
<path d="M238 0L238 187" stroke="black" stroke-opacity="0.1"/>
<path d="M221 0L221 187" stroke="black" stroke-opacity="0.1"/>
<path d="M204 0L204 187" stroke="black" stroke-opacity="0.1"/>
<path d="M187 0L187 187" stroke="black" stroke-opacity="0.1"/>
</g>
<g opacity="0.5">
<path d="M374 0H561" stroke="black" stroke-opacity="0.1"/>
<path d="M374 17H561" stroke="black" stroke-opacity="0.1"/>
<path d="M374 34H561" stroke="black" stroke-opacity="0.1"/>
<path d="M374 51H561" stroke="black" stroke-opacity="0.1"/>
<path d="M374 68H561" stroke="black" stroke-opacity="0.1"/>
<path d="M374 85H561" stroke="black" stroke-opacity="0.1"/>
<path d="M374 102H561" stroke="black" stroke-opacity="0.1"/>
<path d="M374 119H561" stroke="black" stroke-opacity="0.1"/>
<path d="M374 136H561" stroke="black" stroke-opacity="0.1"/>
<path d="M374 153H561" stroke="black" stroke-opacity="0.1"/>
<path d="M374 170H561" stroke="black" stroke-opacity="0.1"/>
<path d="M374 187H561" stroke="black" stroke-opacity="0.1"/>
<path d="M561 0L561 187" stroke="black" stroke-opacity="0.1"/>
<path d="M544 0L544 187" stroke="black" stroke-opacity="0.1"/>
<path d="M527 0L527 187" stroke="black" stroke-opacity="0.1"/>
<path d="M510 0L510 187" stroke="black" stroke-opacity="0.1"/>
<path d="M493 0L493 187" stroke="black" stroke-opacity="0.1"/>
<path d="M476 0L476 187" stroke="black" stroke-opacity="0.1"/>
<path d="M459 0L459 187" stroke="black" stroke-opacity="0.1"/>
<path d="M442 0L442 187" stroke="black" stroke-opacity="0.1"/>
<path d="M425 0L425 187" stroke="black" stroke-opacity="0.1"/>
<path d="M408 0L408 187" stroke="black" stroke-opacity="0.1"/>
<path d="M391 0L391 187" stroke="black" stroke-opacity="0.1"/>
<path d="M374 0L374 187" stroke="black" stroke-opacity="0.1"/>
</g>
<g opacity="0.5">
<path d="M561 0H748" stroke="black" stroke-opacity="0.1"/>
<path d="M561 17H748" stroke="black" stroke-opacity="0.1"/>
<path d="M561 34H748" stroke="black" stroke-opacity="0.1"/>
<path d="M561 51H748" stroke="black" stroke-opacity="0.1"/>
<path d="M561 68H748" stroke="black" stroke-opacity="0.1"/>
<path d="M561 85H748" stroke="black" stroke-opacity="0.1"/>
<path d="M561 102H748" stroke="black" stroke-opacity="0.1"/>
<path d="M561 119H748" stroke="black" stroke-opacity="0.1"/>
<path d="M561 136H748" stroke="black" stroke-opacity="0.1"/>
<path d="M561 153H748" stroke="black" stroke-opacity="0.1"/>
<path d="M561 170H748" stroke="black" stroke-opacity="0.1"/>
<path d="M561 187H748" stroke="black" stroke-opacity="0.1"/>
<path d="M748 0L748 187" stroke="black" stroke-opacity="0.1"/>
<path d="M731 0L731 187" stroke="black" stroke-opacity="0.1"/>
<path d="M714 0L714 187" stroke="black" stroke-opacity="0.1"/>
<path d="M697 0L697 187" stroke="black" stroke-opacity="0.1"/>
<path d="M680 0L680 187" stroke="black" stroke-opacity="0.1"/>
<path d="M663 0L663 187" stroke="black" stroke-opacity="0.1"/>
<path d="M646 0L646 187" stroke="black" stroke-opacity="0.1"/>
<path d="M629 0L629 187" stroke="black" stroke-opacity="0.1"/>
<path d="M612 0L612 187" stroke="black" stroke-opacity="0.1"/>
<path d="M595 0L595 187" stroke="black" stroke-opacity="0.1"/>
<path d="M578 0L578 187" stroke="black" stroke-opacity="0.1"/>
<path d="M561 0L561 187" stroke="black" stroke-opacity="0.1"/>
</g>
<g opacity="0.5">
<path d="M0 374H187" stroke="black" stroke-opacity="0.1"/>
<path d="M0 391H187" stroke="black" stroke-opacity="0.1"/>
<path d="M0 408H187" stroke="black" stroke-opacity="0.1"/>
<path d="M187 374L187 561" stroke="black" stroke-opacity="0.1"/>
<path d="M170 374L170 561" stroke="black" stroke-opacity="0.1"/>
<path d="M153 374L153 561" stroke="black" stroke-opacity="0.1"/>
<path d="M136 374L136 561" stroke="black" stroke-opacity="0.1"/>
<path d="M119 374L119 561" stroke="black" stroke-opacity="0.1"/>
<path d="M102 374L102 561" stroke="black" stroke-opacity="0.1"/>
<path d="M85 374L85 561" stroke="black" stroke-opacity="0.1"/>
<path d="M68 374L68 561" stroke="black" stroke-opacity="0.1"/>
<path d="M51 374L51 561" stroke="black" stroke-opacity="0.1"/>
<path d="M34 374L34 561" stroke="black" stroke-opacity="0.1"/>
<path d="M17 374L17 561" stroke="black" stroke-opacity="0.1"/>
<path d="M0 374L-8.17403e-06 561" stroke="black" stroke-opacity="0.1"/>
</g>
<g opacity="0.5">
<path d="M187 374H374" stroke="black" stroke-opacity="0.1"/>
<path d="M187 391H374" stroke="black" stroke-opacity="0.1"/>
<path d="M187 408H374" stroke="black" stroke-opacity="0.1"/>
<path d="M374 374L374 561" stroke="black" stroke-opacity="0.1"/>
<path d="M357 374L357 561" stroke="black" stroke-opacity="0.1"/>
<path d="M340 374L340 561" stroke="black" stroke-opacity="0.1"/>
<path d="M323 374L323 561" stroke="black" stroke-opacity="0.1"/>
<path d="M306 374L306 561" stroke="black" stroke-opacity="0.1"/>
<path d="M289 374L289 561" stroke="black" stroke-opacity="0.1"/>
<path d="M272 374L272 561" stroke="black" stroke-opacity="0.1"/>
<path d="M255 374L255 561" stroke="black" stroke-opacity="0.1"/>
<path d="M238 374L238 561" stroke="black" stroke-opacity="0.1"/>
<path d="M221 374L221 561" stroke="black" stroke-opacity="0.1"/>
<path d="M204 374L204 561" stroke="black" stroke-opacity="0.1"/>
<path d="M187 374L187 561" stroke="black" stroke-opacity="0.1"/>
</g>
<g opacity="0.5">
<path d="M374 374H561" stroke="black" stroke-opacity="0.1"/>
<path d="M374 391H561" stroke="black" stroke-opacity="0.1"/>
<path d="M374 408H561" stroke="black" stroke-opacity="0.1"/>
<path d="M561 374L561 561" stroke="black" stroke-opacity="0.1"/>
<path d="M544 374L544 561" stroke="black" stroke-opacity="0.1"/>
<path d="M527 374L527 561" stroke="black" stroke-opacity="0.1"/>
<path d="M510 374L510 561" stroke="black" stroke-opacity="0.1"/>
<path d="M493 374L493 561" stroke="black" stroke-opacity="0.1"/>
<path d="M476 374L476 561" stroke="black" stroke-opacity="0.1"/>
<path d="M459 374L459 561" stroke="black" stroke-opacity="0.1"/>
<path d="M442 374L442 561" stroke="black" stroke-opacity="0.1"/>
<path d="M425 374L425 561" stroke="black" stroke-opacity="0.1"/>
<path d="M408 374L408 561" stroke="black" stroke-opacity="0.1"/>
<path d="M391 374L391 561" stroke="black" stroke-opacity="0.1"/>
<path d="M374 374L374 561" stroke="black" stroke-opacity="0.1"/>
</g>
<g opacity="0.5">
<path d="M561 374H748" stroke="black" stroke-opacity="0.1"/>
<path d="M561 391H748" stroke="black" stroke-opacity="0.1"/>
<path d="M561 408H748" stroke="black" stroke-opacity="0.1"/>
<path d="M748 374L748 561" stroke="black" stroke-opacity="0.1"/>
<path d="M731 374L731 561" stroke="black" stroke-opacity="0.1"/>
<path d="M714 374L714 561" stroke="black" stroke-opacity="0.1"/>
<path d="M697 374L697 561" stroke="black" stroke-opacity="0.1"/>
<path d="M680 374L680 561" stroke="black" stroke-opacity="0.1"/>
<path d="M663 374L663 561" stroke="black" stroke-opacity="0.1"/>
<path d="M646 374L646 561" stroke="black" stroke-opacity="0.1"/>
<path d="M629 374L629 561" stroke="black" stroke-opacity="0.1"/>
<path d="M612 374L612 561" stroke="black" stroke-opacity="0.1"/>
<path d="M595 374L595 561" stroke="black" stroke-opacity="0.1"/>
<path d="M578 374L578 561" stroke="black" stroke-opacity="0.1"/>
<path d="M561 374L561 561" stroke="black" stroke-opacity="0.1"/>
</g>
<g opacity="0.7" filter="url(#filter0_f_900_2864)">
<rect x="102" y="88" width="555" height="356" rx="64" fill="white"/>
</g>
<rect x="164.5" y="108.5" width="50" height="335" rx="25" fill="white" stroke="#CACACA"/>
<rect x="231.5" y="108.5" width="51" height="335" rx="25.5" fill="#E0E0E0" stroke="white"/>
<path d="M283.688 138.905H334.056" stroke="#D7D4D4" stroke-width="1.29149" stroke-dasharray="3.87 3.87"/>
<path d="M353.43 144.905L352.498 142.357H347.634L346.702 144.905H344.542L348.862 133.718H351.286L355.652 144.905H353.43ZM348.287 140.57H351.845L350.074 135.675L348.287 140.57ZM356.776 144.905V133.718H358.858V144.905H356.776ZM360.472 139.545V137.136H362.694V139.545H360.472ZM360.472 144.905V142.497H362.694V144.905H360.472ZM367.671 144.905V133.718H369.754V144.905H367.671ZM376.879 141.689C376.879 142.668 377.314 143.383 378.433 143.383C379.101 143.383 380.158 143.01 380.298 141.596V136.825H382.256V144.905H380.36V143.802C379.801 144.548 378.961 145.092 377.812 145.092C375.947 145.092 374.937 143.818 374.937 141.922V136.825H376.879V141.689ZM383.935 136.825H385.815V137.944C386.359 137.136 387.214 136.639 388.379 136.639C390.726 136.639 392 138.457 392 140.865C392 143.274 390.726 145.092 388.379 145.092C387.261 145.092 386.437 144.641 385.893 143.895V148.013H383.935V136.825ZM385.862 140.865C385.862 142.419 386.515 143.46 387.929 143.46C389.358 143.46 390.011 142.419 390.011 140.865C390.011 139.311 389.358 138.27 387.929 138.27C386.515 138.27 385.862 139.311 385.862 140.865ZM401.066 144.905H399.186V143.787C398.642 144.595 397.787 145.092 396.622 145.092C394.276 145.092 393.001 143.274 393.001 140.865C393.001 138.457 394.276 136.639 396.622 136.639C397.741 136.639 398.564 137.089 399.108 137.835V133.718H401.066V144.905ZM394.99 140.865C394.99 142.419 395.643 143.46 397.073 143.46C398.487 143.46 399.139 142.419 399.139 140.865C399.139 139.311 398.487 138.27 397.073 138.27C395.643 138.27 394.99 139.311 394.99 140.865ZM407.832 144.905V143.973C407.133 144.812 406.279 145.092 405.269 145.092C403.513 145.092 402.316 144.222 402.316 142.652C402.316 141.223 403.326 140.508 405.424 140.151L407.77 139.731V139.265C407.77 138.535 407.335 138.146 406.294 138.146C405.408 138.146 404.663 138.519 404.616 139.405H402.689C402.72 137.478 404.336 136.639 406.279 136.639C408.578 136.639 409.682 137.571 409.682 139.047V144.905H407.832ZM404.321 142.59C404.321 143.227 404.756 143.647 405.704 143.647C406.729 143.647 407.77 143.103 407.77 141.767V141.052L405.781 141.456C404.865 141.642 404.321 141.86 404.321 142.59ZM411.966 134.339H413.909V136.825H415.96V138.333H413.909V142.637C413.909 143.165 414.111 143.398 414.685 143.398H415.96V144.905H414.204C412.836 144.905 411.966 144.47 411.966 142.839V138.333H410.552V136.825H411.966V134.339ZM420.849 145.092C418.347 145.092 416.855 143.274 416.855 140.865C416.855 138.457 418.347 136.639 420.849 136.639C423.35 136.639 424.842 138.395 424.842 141.021V141.487H418.798C418.969 142.745 419.683 143.553 420.849 143.553C421.797 143.553 422.434 143.149 422.776 142.435H424.687C424.158 144.035 422.776 145.092 420.849 145.092ZM418.813 140.088H422.869C422.667 138.907 421.968 138.177 420.849 138.177C419.73 138.177 419.031 138.907 418.813 140.088ZM433.888 144.905H432.008V143.787C431.464 144.595 430.609 145.092 429.444 145.092C427.098 145.092 425.823 143.274 425.823 140.865C425.823 138.457 427.098 136.639 429.444 136.639C430.563 136.639 431.386 137.089 431.93 137.835V133.718H433.888V144.905ZM427.812 140.865C427.812 142.419 428.465 143.46 429.894 143.46C431.308 143.46 431.961 142.419 431.961 140.865C431.961 139.311 431.308 138.27 429.894 138.27C428.465 138.27 427.812 139.311 427.812 140.865ZM439.781 134.339H441.723V136.825H443.774V138.333H441.723V142.637C441.723 143.165 441.925 143.398 442.5 143.398H443.774V144.905H442.018C440.651 144.905 439.781 144.47 439.781 142.839V138.333H438.367V136.825H439.781V134.339ZM445.012 144.905V133.718H446.969V137.851C447.529 137.152 448.337 136.639 449.456 136.639C451.32 136.639 452.33 137.913 452.33 139.809V144.905H450.388V140.042C450.388 139.063 449.953 138.348 448.834 138.348C448.166 138.348 447.109 138.721 446.969 140.135V144.905H445.012ZM457.662 145.092C455.16 145.092 453.668 143.274 453.668 140.865C453.668 138.457 455.16 136.639 457.662 136.639C460.163 136.639 461.655 138.395 461.655 141.021V141.487H455.61C455.781 142.745 456.496 143.553 457.662 143.553C458.609 143.553 459.246 143.149 459.588 142.435H461.5C460.971 144.035 459.588 145.092 457.662 145.092ZM455.626 140.088H459.682C459.48 138.907 458.78 138.177 457.662 138.177C456.543 138.177 455.844 138.907 455.626 140.088ZM474.084 144.905H472.204V143.787C471.66 144.595 470.806 145.092 469.64 145.092C467.294 145.092 466.02 143.274 466.02 140.865C466.02 138.457 467.294 136.639 469.64 136.639C470.759 136.639 471.583 137.089 472.127 137.835V133.718H474.084V144.905ZM468.009 140.865C468.009 142.419 468.662 143.46 470.091 143.46C471.505 143.46 472.158 142.419 472.158 140.865C472.158 139.311 471.505 138.27 470.091 138.27C468.662 138.27 468.009 139.311 468.009 140.865ZM479.515 145.092C476.92 145.092 475.428 143.274 475.428 140.865C475.428 138.457 476.92 136.639 479.515 136.639C482.11 136.639 483.601 138.457 483.601 140.865C483.601 143.274 482.11 145.092 479.515 145.092ZM477.417 140.865C477.417 142.419 478.07 143.46 479.515 143.46C480.96 143.46 481.612 142.419 481.612 140.865C481.612 139.311 480.96 138.27 479.515 138.27C478.07 138.27 477.417 139.311 477.417 140.865ZM488.587 145.092C486.116 145.092 484.624 143.274 484.624 140.865C484.624 138.457 486.116 136.639 488.587 136.639C490.809 136.639 492.083 137.897 492.331 139.715H490.374C490.187 138.814 489.55 138.27 488.587 138.27C487.266 138.27 486.613 139.311 486.613 140.865C486.613 142.419 487.266 143.46 488.587 143.46C489.581 143.46 490.203 142.885 490.374 141.922H492.331C492.098 143.787 490.762 145.092 488.587 145.092ZM495.481 141.689C495.481 142.668 495.916 143.383 497.035 143.383C497.703 143.383 498.76 143.01 498.9 141.596V136.825H500.858V144.905H498.962V143.802C498.402 144.548 497.563 145.092 496.414 145.092C494.549 145.092 493.539 143.818 493.539 141.922V136.825H495.481V141.689ZM512.653 140.042C512.653 139.063 512.218 138.348 511.27 138.348C510.555 138.348 509.545 138.783 509.545 140.461V144.905H507.587V140.042C507.587 139.063 507.152 138.348 506.204 138.348C505.505 138.348 504.495 138.783 504.495 140.461V144.905H502.537V136.825H504.433V137.944C504.915 137.198 505.692 136.639 506.826 136.639C507.96 136.639 508.799 137.214 509.219 138.162C509.763 137.307 510.648 136.639 511.891 136.639C513.585 136.639 514.595 137.913 514.595 139.809V144.905H512.653V140.042ZM519.921 145.092C517.42 145.092 515.928 143.274 515.928 140.865C515.928 138.457 517.42 136.639 519.921 136.639C522.423 136.639 523.915 138.395 523.915 141.021V141.487H517.87C518.041 142.745 518.756 143.553 519.921 143.553C520.869 143.553 521.506 143.149 521.848 142.435H523.759C523.231 144.035 521.848 145.092 519.921 145.092ZM517.886 140.088H521.941C521.739 138.907 521.04 138.177 519.921 138.177C518.803 138.177 518.103 138.907 517.886 140.088ZM530.614 140.042C530.614 139.063 530.179 138.348 529.06 138.348C528.392 138.348 527.336 138.721 527.196 140.135V144.905H525.238V136.825H527.134V137.929C527.693 137.183 528.532 136.639 529.682 136.639C531.547 136.639 532.557 137.913 532.557 139.809V144.905H530.614V140.042ZM535.06 134.339H537.002V136.825H539.053V138.333H537.002V142.637C537.002 143.165 537.204 143.398 537.779 143.398H539.053V144.905H537.297C535.93 144.905 535.06 144.47 535.06 142.839V138.333H533.646V136.825H535.06V134.339ZM551.055 144.905L549.424 139.218L547.777 144.905H545.757L542.929 136.825H545.026L546.844 142.606L548.476 136.825H550.356L551.988 142.606L553.806 136.825H555.903L553.075 144.905H551.055ZM556.815 144.905V136.825H558.757V144.905H556.815ZM556.815 135.536V133.718H558.773V135.536H556.815ZM561.251 134.339H563.193V136.825H565.244V138.333H563.193V142.637C563.193 143.165 563.395 143.398 563.97 143.398H565.244V144.905H563.488C562.121 144.905 561.251 144.47 561.251 142.839V138.333H559.837V136.825H561.251V134.339ZM566.482 144.905V133.718H568.439V137.851C568.999 137.152 569.807 136.639 570.926 136.639C572.79 136.639 573.8 137.913 573.8 139.809V144.905H571.858V140.042C571.858 139.063 571.423 138.348 570.304 138.348C569.636 138.348 568.579 138.721 568.439 140.135V144.905H566.482ZM578.677 144.905V142.497H580.899V144.905H578.677ZM582.183 144.905V142.497H584.405V144.905H582.183ZM585.688 144.905V142.497H587.91V144.905H585.688Z" fill="#A7A7A7"/>
<path d="M283.688 186.716H334.056" stroke="#FF611A" stroke-width="1.29149" stroke-dasharray="3.87 3.87"/>
<path d="M345.35 192.716V181.528H353.244V183.408H347.432V186.065H352.948V187.868H347.432V192.716H345.35ZM354.345 192.716V184.636H356.287V192.716H354.345ZM354.345 183.346V181.528H356.303V183.346H354.345ZM357.957 181.528H359.915V190.447C359.915 190.976 360.101 191.209 360.692 191.209H361.748V192.716H360.195C358.827 192.716 357.957 192.281 357.957 190.649V181.528ZM366.646 192.902C364.145 192.902 362.653 191.084 362.653 188.676C362.653 186.267 364.145 184.449 366.646 184.449C369.148 184.449 370.64 186.205 370.64 188.831V189.297H364.595C364.766 190.556 365.481 191.364 366.646 191.364C367.594 191.364 368.231 190.96 368.573 190.245H370.484C369.956 191.846 368.573 192.902 366.646 192.902ZM364.611 187.899H368.666C368.464 186.718 367.765 185.988 366.646 185.988C365.528 185.988 364.828 186.718 364.611 187.899ZM380.537 192.902C376.901 192.902 375.005 190.261 375.005 187.122C375.005 183.983 376.901 181.342 380.537 181.342C383.287 181.342 385.089 183.098 385.462 185.444H383.349C383.069 184.123 382.044 183.206 380.537 183.206C378.19 183.206 377.18 185.009 377.18 187.122C377.18 189.235 378.19 191.038 380.537 191.038C382.153 191.038 383.163 189.966 383.411 188.505H385.509C385.214 191.007 383.411 192.902 380.537 192.902ZM386.849 192.716V181.528H388.807V185.661C389.366 184.962 390.174 184.449 391.293 184.449C393.157 184.449 394.167 185.724 394.167 187.619V192.716H392.225V187.852C392.225 186.873 391.79 186.159 390.671 186.159C390.003 186.159 388.946 186.532 388.807 187.946V192.716H386.849ZM400.928 192.716V191.784C400.229 192.623 399.374 192.902 398.364 192.902C396.608 192.902 395.412 192.032 395.412 190.463C395.412 189.033 396.422 188.318 398.52 187.961L400.866 187.542V187.075C400.866 186.345 400.431 185.957 399.39 185.957C398.504 185.957 397.758 186.33 397.712 187.215H395.785C395.816 185.288 397.432 184.449 399.374 184.449C401.674 184.449 402.777 185.382 402.777 186.858V192.716H400.928ZM397.416 190.401C397.416 191.038 397.852 191.457 398.799 191.457C399.825 191.457 400.866 190.913 400.866 189.577V188.862L398.877 189.266C397.96 189.453 397.416 189.67 397.416 190.401ZM409.615 187.852C409.615 186.873 409.18 186.159 408.061 186.159C407.393 186.159 406.336 186.532 406.196 187.946V192.716H404.238V184.636H406.134V185.739C406.694 184.993 407.533 184.449 408.682 184.449C410.547 184.449 411.557 185.724 411.557 187.619V192.716H409.615V187.852ZM416.873 196.01C414.604 196.01 413.346 194.938 413.221 193.198H415.132C415.257 194.13 415.956 194.487 416.935 194.487C417.929 194.487 419.002 194.13 419.002 192.498V191.535C418.458 192.265 417.634 192.7 416.515 192.7C414.169 192.7 412.895 190.929 412.895 188.567C412.895 186.221 414.169 184.449 416.515 184.449C417.681 184.449 418.52 184.916 419.064 185.692V184.636H420.959V192.498C420.959 194.922 419.157 196.01 416.873 196.01ZM414.884 188.567C414.884 190.09 415.536 191.1 416.966 191.1C418.38 191.1 419.033 190.09 419.033 188.567C419.033 187.06 418.38 186.034 416.966 186.034C415.536 186.034 414.884 187.06 414.884 188.567ZM426.296 192.902C423.795 192.902 422.303 191.084 422.303 188.676C422.303 186.267 423.795 184.449 426.296 184.449C428.798 184.449 430.29 186.205 430.29 188.831V189.297H424.245C424.416 190.556 425.131 191.364 426.296 191.364C427.244 191.364 427.881 190.96 428.223 190.245H430.134C429.606 191.846 428.223 192.902 426.296 192.902ZM424.261 187.899H428.316C428.114 186.718 427.415 185.988 426.296 185.988C425.178 185.988 424.478 186.718 424.261 187.899ZM439.335 192.716H437.455V191.597C436.911 192.405 436.057 192.902 434.891 192.902C432.545 192.902 431.271 191.084 431.271 188.676C431.271 186.267 432.545 184.449 434.891 184.449C436.01 184.449 436.834 184.9 437.378 185.646V181.528H439.335V192.716ZM433.26 188.676C433.26 190.23 433.912 191.271 435.342 191.271C436.756 191.271 437.409 190.23 437.409 188.676C437.409 187.122 436.756 186.081 435.342 186.081C433.912 186.081 433.26 187.122 433.26 188.676Z" fill="black"/>
<path d="M283.688 234.526H334.056" stroke="#D7D4D4" stroke-width="1.29149" stroke-dasharray="3.87 3.87"/>
<path d="M352.498 237.978H347.634L346.702 240.526H344.542L348.862 229.339H351.286L355.652 240.526H353.43L352.498 237.978ZM351.845 236.191L350.074 231.297L348.287 236.191H351.845ZM356.776 229.339H358.858V240.526H356.776V229.339ZM360.472 232.757H362.694V235.166H360.472V232.757ZM360.472 238.118H362.694V240.526H360.472V238.118ZM367.671 229.339H369.754V240.526H367.671V229.339ZM375.761 231.405C375.761 230.639 375.947 230.105 376.32 229.805C376.703 229.494 377.263 229.339 377.998 229.339H379.754V230.846H378.48C378.2 230.846 377.998 230.908 377.874 231.032C377.76 231.146 377.703 231.338 377.703 231.607V232.446H379.754V233.954H377.703V240.526H375.761V233.954H374.347V232.446H375.761V231.405ZM384.736 240.713C383.897 240.713 383.167 240.532 382.545 240.169C381.934 239.806 381.463 239.304 381.131 238.662C380.81 238.02 380.65 237.294 380.65 236.486C380.65 235.678 380.81 234.953 381.131 234.311C381.463 233.669 381.934 233.166 382.545 232.804C383.167 232.441 383.897 232.26 384.736 232.26C385.575 232.26 386.3 232.441 386.912 232.804C387.533 233.166 388.005 233.669 388.326 234.311C388.657 234.953 388.823 235.678 388.823 236.486C388.823 237.294 388.657 238.02 388.326 238.662C388.005 239.304 387.533 239.806 386.912 240.169C386.3 240.532 385.575 240.713 384.736 240.713ZM382.639 236.486C382.639 237.294 382.809 237.931 383.151 238.398C383.504 238.853 384.032 239.081 384.736 239.081C385.441 239.081 385.964 238.853 386.306 238.398C386.658 237.931 386.834 237.294 386.834 236.486C386.834 235.678 386.658 235.046 386.306 234.591C385.964 234.125 385.441 233.891 384.736 233.891C384.032 233.891 383.504 234.125 383.151 234.591C382.809 235.046 382.639 235.678 382.639 236.486ZM392.099 237.31C392.099 237.828 392.223 238.242 392.472 238.553C392.721 238.853 393.114 239.004 393.653 239.004C394.078 239.004 394.476 238.864 394.849 238.584C395.233 238.304 395.455 237.849 395.518 237.217V232.446H397.475V240.526H395.58V239.423C395.279 239.817 394.917 240.133 394.492 240.371C394.067 240.599 393.58 240.713 393.031 240.713C392.12 240.713 391.41 240.428 390.903 239.858C390.405 239.278 390.157 238.506 390.157 237.543V232.446H392.099V237.31ZM404.531 235.663C404.531 235.145 404.407 234.736 404.158 234.435C403.91 234.125 403.516 233.969 402.978 233.969C402.553 233.969 402.149 234.109 401.766 234.389C401.393 234.668 401.175 235.124 401.113 235.756V240.526H399.155V232.446H401.051V233.55C401.351 233.156 401.714 232.845 402.138 232.617C402.563 232.379 403.05 232.26 403.599 232.26C404.511 232.26 405.215 232.55 405.712 233.13C406.22 233.7 406.474 234.466 406.474 235.43V240.526H404.531V235.663ZM413.996 240.526V239.408C413.716 239.822 413.359 240.143 412.924 240.371C412.499 240.599 412.002 240.713 411.432 240.713C410.665 240.713 410.008 240.532 409.459 240.169C408.92 239.806 408.511 239.304 408.231 238.662C407.951 238.02 407.812 237.294 407.812 236.486C407.812 235.678 407.951 234.953 408.231 234.311C408.511 233.669 408.92 233.166 409.459 232.804C410.008 232.441 410.665 232.26 411.432 232.26C412.509 232.26 413.338 232.659 413.918 233.456V229.339H415.876V240.526H413.996ZM409.8 236.486C409.8 237.294 409.971 237.931 410.313 238.398C410.665 238.853 411.189 239.081 411.883 239.081C412.566 239.081 413.079 238.853 413.421 238.398C413.773 237.931 413.949 237.294 413.949 236.486C413.949 235.678 413.773 235.046 413.421 234.591C413.079 234.125 412.566 233.891 411.883 233.891C411.189 233.891 410.665 234.125 410.313 234.591C409.971 235.046 409.8 235.678 409.8 236.486ZM420.572 242.034H421.847C422.23 242.034 422.494 241.966 422.639 241.832C422.794 241.707 422.939 241.453 423.074 241.07L423.261 240.604L420.199 232.446H422.297L424.286 238.6L426.259 232.446H428.373L425.047 241.443C424.778 242.168 424.457 242.712 424.084 243.075C423.711 243.448 423.167 243.634 422.453 243.634H420.572V242.034ZM433.036 240.713C432.197 240.713 431.467 240.532 430.845 240.169C430.234 239.806 429.762 239.304 429.431 238.662C429.11 238.02 428.949 237.294 428.949 236.486C428.949 235.678 429.11 234.953 429.431 234.311C429.762 233.669 430.234 233.166 430.845 232.804C431.467 232.441 432.197 232.26 433.036 232.26C433.875 232.26 434.6 232.441 435.211 232.804C435.833 233.166 436.304 233.669 436.625 234.311C436.957 234.953 437.123 235.678 437.123 236.486C437.123 237.294 436.957 238.02 436.625 238.662C436.304 239.304 435.833 239.806 435.211 240.169C434.6 240.532 433.875 240.713 433.036 240.713ZM430.938 236.486C430.938 237.294 431.109 237.931 431.451 238.398C431.803 238.853 432.331 239.081 433.036 239.081C433.74 239.081 434.263 238.853 434.605 238.398C434.957 237.931 435.134 237.294 435.134 236.486C435.134 235.678 434.957 235.046 434.605 234.591C434.263 234.125 433.74 233.891 433.036 233.891C432.331 233.891 431.803 234.125 431.451 234.591C431.109 235.046 430.938 235.678 430.938 236.486ZM440.399 237.31C440.399 237.828 440.523 238.242 440.772 238.553C441.02 238.853 441.414 239.004 441.953 239.004C442.377 239.004 442.776 238.864 443.149 238.584C443.532 238.304 443.755 237.849 443.817 237.217V232.446H445.775V240.526H443.879V239.423C443.579 239.817 443.216 240.133 442.792 240.371C442.367 240.599 441.88 240.713 441.331 240.713C440.419 240.713 439.71 240.428 439.202 239.858C438.705 239.278 438.456 238.506 438.456 237.543V232.446H440.399V237.31ZM456.681 240.526V239.408C456.401 239.822 456.044 240.143 455.609 240.371C455.184 240.599 454.687 240.713 454.117 240.713C453.351 240.713 452.693 240.532 452.144 240.169C451.605 239.806 451.196 239.304 450.916 238.662C450.637 238.02 450.497 237.294 450.497 236.486C450.497 235.678 450.637 234.953 450.916 234.311C451.196 233.669 451.605 233.166 452.144 232.804C452.693 232.441 453.351 232.26 454.117 232.26C455.195 232.26 456.023 232.659 456.603 233.456V229.339H458.561V240.526H456.681ZM452.486 236.486C452.486 237.294 452.657 237.931 452.998 238.398C453.351 238.853 453.874 239.081 454.568 239.081C455.251 239.081 455.764 238.853 456.106 238.398C456.458 237.931 456.634 237.294 456.634 236.486C456.634 235.678 456.458 235.046 456.106 234.591C455.764 234.125 455.251 233.891 454.568 233.891C453.874 233.891 453.351 234.125 452.998 234.591C452.657 235.046 452.486 235.678 452.486 236.486ZM463.991 240.713C463.152 240.713 462.422 240.532 461.8 240.169C461.189 239.806 460.718 239.304 460.386 238.662C460.065 238.02 459.905 237.294 459.905 236.486C459.905 235.678 460.065 234.953 460.386 234.311C460.718 233.669 461.189 233.166 461.8 232.804C462.422 232.441 463.152 232.26 463.991 232.26C464.83 232.26 465.556 232.441 466.167 232.804C466.788 233.166 467.26 233.669 467.581 234.311C467.912 234.953 468.078 235.678 468.078 236.486C468.078 237.294 467.912 238.02 467.581 238.662C467.26 239.304 466.788 239.806 466.167 240.169C465.556 240.532 464.83 240.713 463.991 240.713ZM461.894 236.486C461.894 237.294 462.065 237.931 462.406 238.398C462.759 238.853 463.287 239.081 463.991 239.081C464.696 239.081 465.219 238.853 465.561 238.398C465.913 237.931 466.089 237.294 466.089 236.486C466.089 235.678 465.913 235.046 465.561 234.591C465.219 234.125 464.696 233.891 463.991 233.891C463.287 233.891 462.759 234.125 462.406 234.591C462.065 235.046 461.894 235.678 461.894 236.486ZM473.063 240.713C472.255 240.713 471.551 240.532 470.95 240.169C470.36 239.796 469.904 239.294 469.583 238.662C469.262 238.02 469.101 237.294 469.101 236.486C469.101 235.678 469.262 234.958 469.583 234.327C469.904 233.684 470.36 233.182 470.95 232.819C471.551 232.446 472.255 232.26 473.063 232.26C474.141 232.26 475.001 232.54 475.643 233.099C476.295 233.648 476.684 234.394 476.808 235.337H474.85C474.757 234.881 474.555 234.529 474.244 234.28C473.934 234.021 473.54 233.891 473.063 233.891C472.421 233.891 471.929 234.125 471.587 234.591C471.256 235.057 471.09 235.689 471.09 236.486C471.09 237.284 471.256 237.916 471.587 238.382C471.929 238.848 472.421 239.081 473.063 239.081C473.55 239.081 473.949 238.947 474.26 238.677C474.571 238.408 474.767 238.03 474.85 237.543H476.808C476.684 238.496 476.295 239.263 475.643 239.843C474.99 240.423 474.13 240.713 473.063 240.713ZM479.958 237.31C479.958 237.828 480.082 238.242 480.331 238.553C480.579 238.853 480.973 239.004 481.512 239.004C481.937 239.004 482.335 238.864 482.708 238.584C483.092 238.304 483.314 237.849 483.376 237.217V232.446H485.334V240.526H483.439V239.423C483.138 239.817 482.776 240.133 482.351 240.371C481.926 240.599 481.439 240.713 480.89 240.713C479.979 240.713 479.269 240.428 478.761 239.858C478.264 239.278 478.016 238.506 478.016 237.543V232.446H479.958V237.31ZM497.13 235.663C497.13 235.155 497.01 234.746 496.772 234.435C496.544 234.125 496.202 233.969 495.747 233.969C495.301 233.969 494.902 234.135 494.55 234.466C494.198 234.788 494.022 235.326 494.022 236.082V240.526H492.064V235.663C492.064 235.155 491.945 234.746 491.707 234.435C491.479 234.125 491.137 233.969 490.681 233.969C490.236 233.969 489.837 234.135 489.485 234.466C489.143 234.788 488.972 235.326 488.972 236.082V240.526H487.014V232.446H488.91V233.565C489.169 233.161 489.495 232.845 489.889 232.617C490.293 232.379 490.764 232.26 491.303 232.26C491.862 232.26 492.344 232.395 492.748 232.664C493.162 232.933 493.478 233.306 493.696 233.783C493.986 233.327 494.353 232.959 494.799 232.679C495.255 232.4 495.778 232.26 496.368 232.26C497.207 232.26 497.865 232.55 498.342 233.13C498.828 233.7 499.072 234.466 499.072 235.43V240.526H497.13V235.663ZM504.398 240.713C503.58 240.713 502.87 240.532 502.269 240.169C501.669 239.796 501.208 239.294 500.887 238.662C500.565 238.02 500.405 237.294 500.405 236.486C500.405 235.678 500.565 234.958 500.887 234.327C501.208 233.684 501.669 233.182 502.269 232.819C502.87 232.446 503.58 232.26 504.398 232.26C505.217 232.26 505.926 232.441 506.527 232.804C507.128 233.166 507.589 233.679 507.91 234.342C508.231 235.005 508.392 235.772 508.392 236.642V237.108H502.347C502.43 237.75 502.648 238.258 503 238.631C503.362 238.993 503.828 239.175 504.398 239.175C505.331 239.175 505.973 238.802 506.325 238.056H508.236C507.967 238.874 507.496 239.522 506.822 239.998C506.149 240.475 505.341 240.713 504.398 240.713ZM506.418 235.709C506.315 235.109 506.087 234.642 505.735 234.311C505.393 233.969 504.947 233.798 504.398 233.798C503.849 233.798 503.399 233.969 503.046 234.311C502.705 234.642 502.477 235.109 502.363 235.709H506.418ZM515.091 235.663C515.091 235.145 514.967 234.736 514.718 234.435C514.469 234.125 514.076 233.969 513.537 233.969C513.112 233.969 512.708 234.109 512.325 234.389C511.952 234.668 511.735 235.124 511.672 235.756V240.526H509.715V232.446H511.61V233.55C511.911 233.156 512.273 232.845 512.698 232.617C513.123 232.379 513.61 232.26 514.159 232.26C515.07 232.26 515.775 232.55 516.272 233.13C516.779 233.7 517.033 234.466 517.033 235.43V240.526H515.091V235.663ZM521.479 229.96V232.446H523.53V233.954H521.479V238.258C521.479 238.527 521.536 238.724 521.65 238.848C521.774 238.962 521.976 239.019 522.256 239.019H523.53V240.526H521.774C521.039 240.526 520.479 240.376 520.096 240.076C519.723 239.765 519.537 239.226 519.537 238.46V233.954H518.123V232.446H519.537V229.96H521.479ZM533.232 239.594C532.901 239.998 532.523 240.288 532.098 240.464C531.684 240.63 531.207 240.713 530.669 240.713C529.778 240.713 529.063 240.5 528.524 240.076C527.986 239.641 527.716 239.04 527.716 238.273C527.716 237.569 527.965 237.025 528.462 236.642C528.97 236.248 529.757 235.958 530.824 235.772L533.17 235.352V234.886C533.17 234.513 533.051 234.233 532.813 234.047C532.575 233.86 532.202 233.767 531.694 233.767C531.218 233.767 530.824 233.871 530.513 234.078C530.202 234.285 530.037 234.601 530.016 235.026H528.089C528.1 234.114 528.441 233.425 529.115 232.959C529.788 232.493 530.643 232.26 531.679 232.26C532.808 232.26 533.657 232.472 534.227 232.897C534.797 233.322 535.082 233.912 535.082 234.668V240.526H533.232V239.594ZM529.721 238.211C529.721 238.543 529.835 238.802 530.063 238.988C530.301 239.175 530.648 239.268 531.104 239.268C531.673 239.268 532.16 239.112 532.564 238.802C532.968 238.48 533.17 238.009 533.17 237.388V236.673L531.181 237.077C530.674 237.18 530.301 237.31 530.063 237.465C529.835 237.621 529.721 237.869 529.721 238.211ZM541.919 235.663C541.919 235.145 541.795 234.736 541.546 234.435C541.297 234.125 540.904 233.969 540.365 233.969C539.94 233.969 539.536 234.109 539.153 234.389C538.78 234.668 538.563 235.124 538.501 235.756V240.526H536.543V232.446H538.438V233.55C538.739 233.156 539.101 232.845 539.526 232.617C539.951 232.379 540.438 232.26 540.987 232.26C541.898 232.26 542.603 232.55 543.1 233.13C543.608 233.7 543.861 234.466 543.861 235.43V240.526H541.919V235.663ZM551.384 240.526V239.408C551.104 239.822 550.746 240.143 550.311 240.371C549.887 240.599 549.389 240.713 548.82 240.713C548.053 240.713 547.395 240.532 546.846 240.169C546.308 239.806 545.898 239.304 545.619 238.662C545.339 238.02 545.199 237.294 545.199 236.486C545.199 235.678 545.339 234.953 545.619 234.311C545.898 233.669 546.308 233.166 546.846 232.804C547.395 232.441 548.053 232.26 548.82 232.26C549.897 232.26 550.726 232.659 551.306 233.456V229.339H553.264V240.526H551.384ZM547.188 236.486C547.188 237.294 547.359 237.931 547.701 238.398C548.053 238.853 548.576 239.081 549.27 239.081C549.954 239.081 550.467 238.853 550.809 238.398C551.161 237.931 551.337 237.294 551.337 236.486C551.337 235.678 551.161 235.046 550.809 234.591C550.467 234.125 549.954 233.891 549.27 233.891C548.576 233.891 548.053 234.125 547.701 234.591C547.359 235.046 547.188 235.678 547.188 236.486ZM564.082 234.839L562.435 240.526H560.415L557.587 232.446H559.685L561.503 238.227L563.134 232.446H565.014L566.646 238.227L568.464 232.446H570.562L567.734 240.526H565.714L564.082 234.839ZM571.473 232.446H573.416V240.526H571.473V232.446ZM571.473 229.339H573.431V231.157H571.473V229.339ZM577.043 229.339V238.258C577.043 238.527 577.1 238.724 577.214 238.848C577.328 238.962 577.53 239.019 577.82 239.019H578.877V240.526H577.323C576.587 240.526 576.028 240.376 575.645 240.076C575.272 239.765 575.085 239.226 575.085 238.46V229.339H577.043ZM582.081 229.339V238.258C582.081 238.527 582.138 238.724 582.252 238.848C582.366 238.962 582.568 239.019 582.858 239.019H583.915V240.526H582.361C581.625 240.526 581.066 240.376 580.683 240.076C580.31 239.765 580.123 239.226 580.123 238.46V229.339H582.081ZM588.358 238.118H590.58V240.526H588.358V238.118ZM591.864 238.118H594.086V240.526H591.864V238.118ZM595.369 238.118H597.591V240.526H595.369V238.118Z" fill="#A7A7A7"/>
<path d="M283.688 282.337H334.056" stroke="#D7D4D4" stroke-width="1.29149" stroke-dasharray="3.87 3.87"/>
<path d="M352.498 285.789H347.634L346.702 288.337H344.542L348.862 277.149H351.286L355.652 288.337H353.43L352.498 285.789ZM351.845 284.002L350.074 279.107L348.287 284.002H351.845ZM356.776 277.149H358.858V288.337H356.776V277.149ZM360.472 280.568H362.694V282.976H360.472V280.568ZM360.472 285.928H362.694V288.337H360.472V285.928ZM367.671 277.149H369.754V286.457H375.114V288.337H367.671V277.149ZM379.878 288.523C379.06 288.523 378.35 288.342 377.75 287.98C377.149 287.607 376.688 287.104 376.367 286.472C376.046 285.83 375.885 285.105 375.885 284.297C375.885 283.489 376.046 282.769 376.367 282.137C376.688 281.495 377.149 280.992 377.75 280.63C378.35 280.257 379.06 280.07 379.878 280.07C380.697 280.07 381.406 280.252 382.007 280.614C382.608 280.977 383.069 281.49 383.39 282.153C383.711 282.816 383.872 283.582 383.872 284.452V284.918H377.827C377.91 285.561 378.128 286.068 378.48 286.441C378.842 286.804 379.309 286.985 379.878 286.985C380.811 286.985 381.453 286.612 381.805 285.866H383.716C383.447 286.685 382.976 287.332 382.302 287.809C381.629 288.285 380.821 288.523 379.878 288.523ZM381.898 283.52C381.795 282.919 381.567 282.453 381.215 282.122C380.873 281.78 380.427 281.609 379.878 281.609C379.329 281.609 378.879 281.78 378.526 282.122C378.185 282.453 377.957 282.919 377.843 283.52H381.898ZM387.961 277.771V280.257H390.012V281.764H387.961V286.068C387.961 286.338 388.018 286.534 388.132 286.659C388.256 286.773 388.458 286.83 388.738 286.83H390.012V288.337H388.256C387.52 288.337 386.961 288.187 386.578 287.886C386.205 287.576 386.018 287.037 386.018 286.27V281.764H384.604V280.257H386.018V277.771H387.961ZM404.749 283.473C404.749 282.966 404.63 282.557 404.391 282.246C404.163 281.935 403.822 281.78 403.366 281.78C402.92 281.78 402.521 281.945 402.169 282.277C401.817 282.598 401.641 283.137 401.641 283.893V288.337H399.683V283.473C399.683 282.966 399.564 282.557 399.326 282.246C399.098 281.935 398.756 281.78 398.3 281.78C397.855 281.78 397.456 281.945 397.104 282.277C396.762 282.598 396.591 283.137 396.591 283.893V288.337H394.633V280.257H396.529V281.376C396.788 280.972 397.114 280.656 397.508 280.428C397.912 280.19 398.383 280.07 398.922 280.07C399.481 280.07 399.963 280.205 400.367 280.474C400.781 280.744 401.097 281.117 401.315 281.593C401.605 281.137 401.972 280.77 402.418 280.49C402.874 280.21 403.397 280.07 403.987 280.07C404.826 280.07 405.484 280.361 405.961 280.941C406.448 281.51 406.691 282.277 406.691 283.24V288.337H404.749V283.473ZM412.017 288.523C411.199 288.523 410.489 288.342 409.889 287.98C409.288 287.607 408.827 287.104 408.506 286.472C408.185 285.83 408.024 285.105 408.024 284.297C408.024 283.489 408.185 282.769 408.506 282.137C408.827 281.495 409.288 280.992 409.889 280.63C410.489 280.257 411.199 280.07 412.017 280.07C412.836 280.07 413.545 280.252 414.146 280.614C414.747 280.977 415.208 281.49 415.529 282.153C415.85 282.816 416.011 283.582 416.011 284.452V284.918H409.966C410.049 285.561 410.267 286.068 410.619 286.441C410.981 286.804 411.448 286.985 412.017 286.985C412.95 286.985 413.592 286.612 413.944 285.866H415.855C415.586 286.685 415.115 287.332 414.441 287.809C413.768 288.285 412.96 288.523 412.017 288.523ZM414.037 283.52C413.934 282.919 413.706 282.453 413.354 282.122C413.012 281.78 412.566 281.609 412.017 281.609C411.468 281.609 411.018 281.78 410.666 282.122C410.324 282.453 410.096 282.919 409.982 283.52H414.037ZM423.484 277.771V280.257H425.535V281.764H423.484V286.068C423.484 286.338 423.54 286.534 423.654 286.659C423.779 286.773 423.981 286.83 424.26 286.83H425.535V288.337H423.779C423.043 288.337 422.484 288.187 422.101 287.886C421.728 287.576 421.541 287.037 421.541 286.27V281.764H420.127V280.257H421.541V277.771H423.484ZM426.772 277.149H428.73V281.282C429.372 280.474 430.201 280.07 431.216 280.07C432.128 280.07 432.832 280.361 433.329 280.941C433.837 281.51 434.091 282.277 434.091 283.24V288.337H432.149V283.473C432.149 282.955 432.024 282.546 431.776 282.246C431.527 281.935 431.133 281.78 430.595 281.78C430.17 281.78 429.766 281.92 429.383 282.199C429.01 282.479 428.792 282.935 428.73 283.567V288.337H426.772V277.149ZM435.755 280.257H437.697V288.337H435.755V280.257ZM435.755 277.149H437.713V278.967H435.755V277.149ZM444.743 283.473C444.743 282.955 444.619 282.546 444.37 282.246C444.122 281.935 443.728 281.78 443.189 281.78C442.765 281.78 442.361 281.92 441.977 282.199C441.604 282.479 441.387 282.935 441.325 283.567V288.337H439.367V280.257H441.263V281.36C441.563 280.967 441.926 280.656 442.35 280.428C442.775 280.19 443.262 280.07 443.811 280.07C444.722 280.07 445.427 280.361 445.924 280.941C446.432 281.51 446.685 282.277 446.685 283.24V288.337H444.743V283.473ZM448.365 277.149H450.323V283.629L453.571 280.257H455.917L452.856 283.349L456.134 288.337H453.85L451.504 284.716L450.323 285.913V288.337H448.365V277.149ZM460.212 285.928H462.434V288.337H460.212V285.928ZM463.717 285.928H465.939V288.337H463.717V285.928ZM467.222 285.928H469.444V288.337H467.222V285.928Z" fill="#A7A7A7"/>
<path d="M283.688 330.147H334.056" stroke="#D7D4D4" stroke-width="1.29149" stroke-dasharray="3.87 3.87"/>
<path d="M345.35 324.96H350.058C350.939 324.96 351.685 325.115 352.296 325.426C352.907 325.737 353.368 326.167 353.679 326.716C353.989 327.265 354.145 327.886 354.145 328.58C354.145 329.274 353.989 329.896 353.679 330.445C353.368 330.984 352.907 331.408 352.296 331.719C351.685 332.03 350.939 332.185 350.058 332.185H347.432V336.147H345.35V324.96ZM349.949 330.367C350.644 330.367 351.161 330.212 351.503 329.901C351.856 329.59 352.032 329.15 352.032 328.58C352.032 328.011 351.856 327.57 351.503 327.259C351.161 326.938 350.644 326.778 349.949 326.778H347.432V330.367H349.949ZM355.453 328.067H357.349V329.513C357.836 328.487 358.649 327.974 359.788 327.974H360.426V329.777H359.711C358.975 329.777 358.406 329.963 358.002 330.336C357.608 330.709 357.411 331.341 357.411 332.232V336.147H355.453V328.067ZM365.404 336.334C364.565 336.334 363.835 336.153 363.213 335.79C362.602 335.428 362.131 334.925 361.799 334.283C361.478 333.641 361.318 332.915 361.318 332.107C361.318 331.299 361.478 330.574 361.799 329.932C362.131 329.29 362.602 328.787 363.213 328.425C363.835 328.062 364.565 327.881 365.404 327.881C366.243 327.881 366.968 328.062 367.58 328.425C368.201 328.787 368.673 329.29 368.994 329.932C369.325 330.574 369.491 331.299 369.491 332.107C369.491 332.915 369.325 333.641 368.994 334.283C368.673 334.925 368.201 335.428 367.58 335.79C366.968 336.153 366.243 336.334 365.404 336.334ZM363.307 332.107C363.307 332.915 363.478 333.553 363.819 334.019C364.172 334.474 364.7 334.702 365.404 334.702C366.109 334.702 366.632 334.474 366.974 334.019C367.326 333.553 367.502 332.915 367.502 332.107C367.502 331.299 367.326 330.668 366.974 330.212C366.632 329.746 366.109 329.513 365.404 329.513C364.7 329.513 364.172 329.746 363.819 330.212C363.478 330.668 363.307 331.299 363.307 332.107ZM380.94 331.284C380.94 330.776 380.821 330.367 380.583 330.056C380.355 329.746 380.013 329.59 379.557 329.59C379.112 329.59 378.713 329.756 378.361 330.087C378.009 330.409 377.833 330.947 377.833 331.703V336.147H375.875V331.284C375.875 330.776 375.756 330.367 375.517 330.056C375.289 329.746 374.948 329.59 374.492 329.59C374.046 329.59 373.648 329.756 373.295 330.087C372.954 330.409 372.783 330.947 372.783 331.703V336.147H370.825V328.067H372.72V329.186C372.979 328.782 373.306 328.466 373.699 328.238C374.103 328 374.575 327.881 375.113 327.881C375.673 327.881 376.154 328.016 376.558 328.285C376.973 328.554 377.289 328.927 377.506 329.404C377.796 328.948 378.164 328.58 378.61 328.301C379.065 328.021 379.588 327.881 380.179 327.881C381.018 327.881 381.676 328.171 382.152 328.751C382.639 329.321 382.883 330.087 382.883 331.051V336.147H380.94V331.284ZM386.438 328.067V329.186C386.717 328.772 387.069 328.451 387.494 328.223C387.929 327.995 388.432 327.881 389.001 327.881C389.768 327.881 390.421 328.062 390.959 328.425C391.508 328.787 391.923 329.29 392.202 329.932C392.482 330.574 392.622 331.299 392.622 332.107C392.622 332.915 392.482 333.641 392.202 334.283C391.923 334.925 391.508 335.428 390.959 335.79C390.421 336.153 389.768 336.334 389.001 336.334C387.924 336.334 387.095 335.935 386.515 335.137V339.255H384.557V328.067H386.438ZM386.484 332.107C386.484 332.915 386.655 333.553 386.997 334.019C387.349 334.474 387.867 334.702 388.551 334.702C389.245 334.702 389.763 334.474 390.105 334.019C390.457 333.553 390.633 332.915 390.633 332.107C390.633 331.299 390.457 330.668 390.105 330.212C389.763 329.746 389.245 329.513 388.551 329.513C387.867 329.513 387.349 329.746 386.997 330.212C386.655 330.668 386.484 331.299 386.484 332.107ZM396.731 325.581V328.067H398.782V329.575H396.731V333.879C396.731 334.148 396.788 334.345 396.902 334.469C397.027 334.583 397.229 334.64 397.508 334.64H398.782V336.147H397.027C396.291 336.147 395.732 335.997 395.348 335.697C394.975 335.386 394.789 334.847 394.789 334.081V329.575H393.375V328.067H394.789V325.581H396.731ZM399.834 328.378H402.056V330.787H399.834V328.378ZM399.834 333.739H402.056V336.147H399.834V333.739Z" fill="#A7A7A7"/>
<path d="M407.033 324.96H414.927V326.84H409.116V329.497H414.632V331.299H409.116V336.147H407.033V324.96ZM416.028 328.067H417.971V336.147H416.028V328.067ZM416.028 324.96H417.986V326.778H416.028V324.96ZM422.919 333.553L421.07 336.147H418.863L421.816 332.014L419.003 328.067H421.241L422.934 330.429L424.613 328.067H426.819L424.038 331.983L426.99 336.147H424.752L422.919 333.553ZM436.36 335.215C436.029 335.619 435.65 335.909 435.226 336.085C434.811 336.251 434.335 336.334 433.796 336.334C432.905 336.334 432.191 336.122 431.652 335.697C431.113 335.262 430.844 334.661 430.844 333.894C430.844 333.19 431.093 332.646 431.59 332.263C432.097 331.869 432.885 331.579 433.952 331.393L436.298 330.973V330.507C436.298 330.134 436.179 329.854 435.94 329.668C435.702 329.481 435.329 329.388 434.822 329.388C434.345 329.388 433.952 329.492 433.641 329.699C433.33 329.906 433.164 330.222 433.144 330.647H431.217C431.227 329.735 431.569 329.046 432.242 328.58C432.916 328.114 433.77 327.881 434.806 327.881C435.935 327.881 436.785 328.093 437.354 328.518C437.924 328.943 438.209 329.533 438.209 330.289V336.147H436.36V335.215ZM432.848 333.832C432.848 334.164 432.962 334.423 433.19 334.609C433.428 334.796 433.775 334.889 434.231 334.889C434.801 334.889 435.288 334.733 435.692 334.423C436.096 334.102 436.298 333.63 436.298 333.009V332.294L434.309 332.698C433.801 332.802 433.428 332.931 433.19 333.086C432.962 333.242 432.848 333.49 432.848 333.832ZM441.628 324.96V333.879C441.628 334.148 441.685 334.345 441.799 334.469C441.913 334.583 442.115 334.64 442.405 334.64H443.462V336.147H441.908C441.172 336.147 440.613 335.997 440.23 335.697C439.857 335.386 439.67 334.847 439.67 334.081V324.96H441.628ZM446.666 324.96V333.879C446.666 334.148 446.723 334.345 446.837 334.469C446.951 334.583 447.153 334.64 447.443 334.64H448.5V336.147H446.946C446.21 336.147 445.651 335.997 445.268 335.697C444.895 335.386 444.708 334.847 444.708 334.081V324.96H446.666ZM455.896 325.581V328.067H457.947V329.575H455.896V333.879C455.896 334.148 455.953 334.345 456.067 334.469C456.191 334.583 456.393 334.64 456.673 334.64H457.947V336.147H456.191C455.455 336.147 454.896 335.997 454.513 335.697C454.14 335.386 453.953 334.847 453.953 334.081V329.575H452.539V328.067H453.953V325.581H455.896ZM458.811 337.655H460.086C460.469 337.655 460.733 337.587 460.878 337.453C461.033 337.328 461.179 337.075 461.313 336.691L461.5 336.225L458.439 328.067H460.536L462.525 334.221L464.499 328.067H466.612L463.287 337.064C463.017 337.789 462.696 338.333 462.323 338.696C461.95 339.069 461.406 339.255 460.692 339.255H458.811V337.655ZM469.41 328.067V329.186C469.69 328.772 470.042 328.451 470.467 328.223C470.902 327.995 471.404 327.881 471.974 327.881C472.741 327.881 473.393 328.062 473.932 328.425C474.481 328.787 474.895 329.29 475.175 329.932C475.455 330.574 475.595 331.299 475.595 332.107C475.595 332.915 475.455 333.641 475.175 334.283C474.895 334.925 474.481 335.428 473.932 335.79C473.393 336.153 472.741 336.334 471.974 336.334C470.897 336.334 470.068 335.935 469.488 335.137V339.255H467.53V328.067H469.41ZM469.457 332.107C469.457 332.915 469.628 333.553 469.97 334.019C470.322 334.474 470.84 334.702 471.524 334.702C472.218 334.702 472.736 334.474 473.077 334.019C473.43 333.553 473.606 332.915 473.606 332.107C473.606 331.299 473.43 330.668 473.077 330.212C472.736 329.746 472.218 329.513 471.524 329.513C470.84 329.513 470.322 329.746 469.97 330.212C469.628 330.668 469.457 331.299 469.457 332.107ZM480.683 336.334C479.844 336.334 479.114 336.153 478.492 335.79C477.881 335.428 477.41 334.925 477.078 334.283C476.757 333.641 476.596 332.915 476.596 332.107C476.596 331.299 476.757 330.574 477.078 329.932C477.41 329.29 477.881 328.787 478.492 328.425C479.114 328.062 479.844 327.881 480.683 327.881C481.522 327.881 482.247 328.062 482.858 328.425C483.48 328.787 483.951 329.29 484.272 329.932C484.604 330.574 484.77 331.299 484.77 332.107C484.77 332.915 484.604 333.641 484.272 334.283C483.951 334.925 483.48 335.428 482.858 335.79C482.247 336.153 481.522 336.334 480.683 336.334ZM478.585 332.107C478.585 332.915 478.756 333.553 479.098 334.019C479.45 334.474 479.979 334.702 480.683 334.702C481.387 334.702 481.911 334.474 482.252 334.019C482.605 333.553 482.781 332.915 482.781 332.107C482.781 331.299 482.605 330.668 482.252 330.212C481.911 329.746 481.387 329.513 480.683 329.513C479.979 329.513 479.45 329.746 479.098 330.212C478.756 330.668 478.585 331.299 478.585 332.107ZM489.258 336.334C486.906 336.334 485.674 335.386 485.56 333.49H487.455C487.518 334.008 487.699 334.376 487.999 334.594C488.31 334.811 488.75 334.92 489.32 334.92C489.796 334.92 490.175 334.837 490.454 334.671C490.744 334.506 490.889 334.272 490.889 333.972C490.889 333.765 490.843 333.599 490.75 333.475C490.667 333.351 490.491 333.242 490.221 333.149C489.952 333.045 489.543 332.947 488.994 332.853C488.165 332.708 487.512 332.522 487.036 332.294C486.57 332.066 486.238 331.792 486.041 331.47C485.845 331.149 485.746 330.761 485.746 330.305C485.746 329.549 486.047 328.958 486.647 328.534C487.259 328.099 488.072 327.881 489.087 327.881C490.226 327.881 491.097 328.124 491.697 328.611C492.298 329.098 492.609 329.772 492.63 330.631H490.812C490.791 330.134 490.625 329.787 490.314 329.59C490.004 329.393 489.594 329.295 489.087 329.295C488.673 329.295 488.331 329.378 488.061 329.544C487.792 329.709 487.657 329.937 487.657 330.227C487.657 330.434 487.709 330.6 487.813 330.725C487.927 330.849 488.124 330.958 488.403 331.051C488.683 331.134 489.097 331.222 489.646 331.315C490.454 331.45 491.091 331.626 491.558 331.843C492.024 332.061 492.35 332.335 492.536 332.667C492.733 332.988 492.832 333.382 492.832 333.848C492.832 334.635 492.5 335.246 491.837 335.681C491.185 336.116 490.325 336.334 489.258 336.334ZM497.332 328.067H499.274V336.147H497.332V328.067ZM497.332 324.96H499.29V326.778H497.332V324.96ZM506.32 331.284C506.32 330.766 506.196 330.357 505.947 330.056C505.699 329.746 505.305 329.59 504.766 329.59C504.342 329.59 503.938 329.73 503.554 330.01C503.181 330.289 502.964 330.745 502.902 331.377V336.147H500.944V328.067H502.84V329.171C503.14 328.777 503.503 328.466 503.927 328.238C504.352 328 504.839 327.881 505.388 327.881C506.3 327.881 507.004 328.171 507.501 328.751C508.009 329.321 508.263 330.087 508.263 331.051V336.147H506.32V331.284ZM523.442 331.284C523.442 330.776 523.323 330.367 523.084 330.056C522.856 329.746 522.515 329.59 522.059 329.59C521.613 329.59 521.214 329.756 520.862 330.087C520.51 330.409 520.334 330.947 520.334 331.703V336.147H518.376V331.284C518.376 330.776 518.257 330.367 518.019 330.056C517.791 329.746 517.449 329.59 516.993 329.59C516.548 329.59 516.149 329.756 515.797 330.087C515.455 330.409 515.284 330.947 515.284 331.703V336.147H513.326V328.067H515.222V329.186C515.481 328.782 515.807 328.466 516.201 328.238C516.605 328 517.076 327.881 517.615 327.881C518.174 327.881 518.656 328.016 519.06 328.285C519.474 328.554 519.79 328.927 520.008 329.404C520.298 328.948 520.665 328.58 521.111 328.301C521.567 328.021 522.09 327.881 522.68 327.881C523.519 327.881 524.177 328.171 524.654 328.751C525.141 329.321 525.384 330.087 525.384 331.051V336.147H523.442V331.284ZM526.686 337.655H527.96C528.343 337.655 528.607 337.587 528.753 337.453C528.908 337.328 529.053 337.075 529.188 336.691L529.374 336.225L526.313 328.067H528.411L530.4 334.221L532.373 328.067H534.486L531.161 337.064C530.892 337.789 530.571 338.333 530.198 338.696C529.825 339.069 529.281 339.255 528.566 339.255H526.686V337.655ZM544.631 336.147V335.029C544.351 335.443 543.994 335.764 543.559 335.992C543.134 336.22 542.637 336.334 542.067 336.334C541.301 336.334 540.643 336.153 540.094 335.79C539.555 335.428 539.146 334.925 538.866 334.283C538.587 333.641 538.447 332.915 538.447 332.107C538.447 331.299 538.587 330.574 538.866 329.932C539.146 329.29 539.555 328.787 540.094 328.425C540.643 328.062 541.301 327.881 542.067 327.881C543.144 327.881 543.973 328.28 544.553 329.077V324.96H546.511V336.147H544.631ZM540.436 332.107C540.436 332.915 540.607 333.553 540.948 334.019C541.301 334.474 541.824 334.702 542.518 334.702C543.201 334.702 543.714 334.474 544.056 334.019C544.408 333.553 544.584 332.915 544.584 332.107C544.584 331.299 544.408 330.668 544.056 330.212C543.714 329.746 543.201 329.513 542.518 329.513C541.824 329.513 541.301 329.746 540.948 330.212C540.607 330.668 540.436 331.299 540.436 332.107ZM551.941 336.334C551.102 336.334 550.372 336.153 549.75 335.79C549.139 335.428 548.668 334.925 548.336 334.283C548.015 333.641 547.855 332.915 547.855 332.107C547.855 331.299 548.015 330.574 548.336 329.932C548.668 329.29 549.139 328.787 549.75 328.425C550.372 328.062 551.102 327.881 551.941 327.881C552.78 327.881 553.506 328.062 554.117 328.425C554.738 328.787 555.21 329.29 555.531 329.932C555.862 330.574 556.028 331.299 556.028 332.107C556.028 332.915 555.862 333.641 555.531 334.283C555.21 334.925 554.738 335.428 554.117 335.79C553.506 336.153 552.78 336.334 551.941 336.334ZM549.844 332.107C549.844 332.915 550.015 333.553 550.356 334.019C550.709 334.474 551.237 334.702 551.941 334.702C552.646 334.702 553.169 334.474 553.511 334.019C553.863 333.553 554.039 332.915 554.039 332.107C554.039 331.299 553.863 330.668 553.511 330.212C553.169 329.746 552.646 329.513 551.941 329.513C551.237 329.513 550.709 329.746 550.356 330.212C550.015 330.668 549.844 331.299 549.844 332.107ZM561.013 336.334C560.205 336.334 559.501 336.153 558.9 335.79C558.31 335.417 557.854 334.915 557.533 334.283C557.212 333.641 557.051 332.915 557.051 332.107C557.051 331.299 557.212 330.58 557.533 329.948C557.854 329.305 558.31 328.803 558.9 328.44C559.501 328.067 560.205 327.881 561.013 327.881C562.091 327.881 562.95 328.161 563.593 328.72C564.245 329.269 564.634 330.015 564.758 330.958H562.8C562.707 330.502 562.505 330.15 562.194 329.901C561.883 329.642 561.49 329.513 561.013 329.513C560.371 329.513 559.879 329.746 559.537 330.212C559.206 330.678 559.04 331.31 559.04 332.107C559.04 332.905 559.206 333.537 559.537 334.003C559.879 334.469 560.371 334.702 561.013 334.702C561.5 334.702 561.899 334.568 562.21 334.298C562.521 334.029 562.717 333.651 562.8 333.164H564.758C564.634 334.117 564.245 334.884 563.593 335.464C562.94 336.044 562.08 336.334 561.013 336.334ZM565.779 328.378V324.96H567.877V328.378L567.395 332.729H566.261L565.779 328.378ZM565.717 333.739H567.939V336.147H565.717V333.739Z" fill="#A7A7A7"/>
<path d="M283.688 377.958H334.056" stroke="#FF611A" stroke-width="1.29149" stroke-dasharray="3.87 3.87"/>
<path d="M344.581 383.958V372.77H352.474V374.65H346.663V377.308H352.179V379.11H346.663V383.958H344.581ZM353.576 383.958V375.878H355.518V383.958H353.576ZM353.576 374.588V372.77H355.533V374.588H353.576ZM357.187 372.77H359.145V381.689C359.145 382.218 359.332 382.451 359.922 382.451H360.979V383.958H359.425C358.058 383.958 357.187 383.523 357.187 381.891V372.77ZM365.877 384.144C363.375 384.144 361.883 382.326 361.883 379.918C361.883 377.51 363.375 375.692 365.877 375.692C368.379 375.692 369.87 377.447 369.87 380.073V380.54H363.826C363.997 381.798 364.711 382.606 365.877 382.606C366.825 382.606 367.462 382.202 367.804 381.487H369.715C369.187 383.088 367.804 384.144 365.877 384.144ZM363.841 379.141H367.897C367.695 377.96 366.996 377.23 365.877 377.23C364.758 377.23 364.059 377.96 363.841 379.141ZM379.767 384.144C376.131 384.144 374.235 381.503 374.235 378.364C374.235 375.225 376.131 372.584 379.767 372.584C382.517 372.584 384.32 374.34 384.693 376.686H382.579C382.3 375.365 381.274 374.448 379.767 374.448C377.421 374.448 376.411 376.251 376.411 378.364C376.411 380.477 377.421 382.28 379.767 382.28C381.383 382.28 382.393 381.208 382.642 379.747H384.739C384.444 382.249 382.642 384.144 379.767 384.144ZM386.079 383.958V372.77H388.037V376.904C388.596 376.204 389.404 375.692 390.523 375.692C392.388 375.692 393.398 376.966 393.398 378.861V383.958H391.456V379.094C391.456 378.116 391.02 377.401 389.902 377.401C389.234 377.401 388.177 377.774 388.037 379.188V383.958H386.079ZM400.159 383.958V383.026C399.459 383.865 398.605 384.144 397.595 384.144C395.839 384.144 394.642 383.274 394.642 381.705C394.642 380.275 395.652 379.561 397.75 379.203L400.096 378.784V378.318C400.096 377.587 399.661 377.199 398.62 377.199C397.735 377.199 396.989 377.572 396.942 378.457H395.015C395.046 376.531 396.662 375.692 398.605 375.692C400.904 375.692 402.008 376.624 402.008 378.1V383.958H400.159ZM396.647 381.643C396.647 382.28 397.082 382.699 398.03 382.699C399.055 382.699 400.096 382.156 400.096 380.819V380.104L398.108 380.508C397.191 380.695 396.647 380.912 396.647 381.643ZM408.845 379.094C408.845 378.116 408.41 377.401 407.291 377.401C406.623 377.401 405.567 377.774 405.427 379.188V383.958H403.469V375.878H405.365V376.981C405.924 376.235 406.763 375.692 407.913 375.692C409.778 375.692 410.788 376.966 410.788 378.861V383.958H408.845V379.094ZM416.103 387.252C413.835 387.252 412.576 386.18 412.452 384.44H414.363C414.487 385.372 415.186 385.729 416.165 385.729C417.16 385.729 418.232 385.372 418.232 383.74V382.777C417.688 383.507 416.865 383.942 415.746 383.942C413.4 383.942 412.125 382.171 412.125 379.809C412.125 377.463 413.4 375.692 415.746 375.692C416.911 375.692 417.75 376.158 418.294 376.935V375.878H420.19V383.74C420.19 386.164 418.387 387.252 416.103 387.252ZM414.114 379.809C414.114 381.332 414.767 382.342 416.196 382.342C417.61 382.342 418.263 381.332 418.263 379.809C418.263 378.302 417.61 377.276 416.196 377.276C414.767 377.276 414.114 378.302 414.114 379.809ZM425.527 384.144C423.025 384.144 421.533 382.326 421.533 379.918C421.533 377.51 423.025 375.692 425.527 375.692C428.029 375.692 429.52 377.447 429.52 380.073V380.54H423.476C423.647 381.798 424.361 382.606 425.527 382.606C426.475 382.606 427.112 382.202 427.454 381.487H429.365C428.837 383.088 427.454 384.144 425.527 384.144ZM423.491 379.141H427.547C427.345 377.96 426.646 377.23 425.527 377.23C424.408 377.23 423.709 377.96 423.491 379.141ZM438.566 383.958H436.686V382.839C436.142 383.647 435.287 384.144 434.122 384.144C431.776 384.144 430.501 382.326 430.501 379.918C430.501 377.51 431.776 375.692 434.122 375.692C435.241 375.692 436.064 376.142 436.608 376.888V372.77H438.566V383.958ZM432.49 379.918C432.49 381.472 433.143 382.513 434.572 382.513C435.986 382.513 436.639 381.472 436.639 379.918C436.639 378.364 435.986 377.323 434.572 377.323C433.143 377.323 432.49 378.364 432.49 379.918Z" fill="black"/>
<path d="M193.613 92.9014C193.073 93.4418 192.473 93.7592 191.813 93.8534C191.16 93.9414 190.475 93.822 189.758 93.4952C189.042 93.1685 188.326 92.6469 187.609 91.9306C186.887 91.2079 186.362 90.4884 186.035 89.7721C185.708 89.0557 185.589 88.3708 185.677 87.7173C185.765 87.0512 186.079 86.4479 186.62 85.9075C187.229 85.298 187.942 84.9869 188.759 84.9744C189.582 84.9555 190.421 85.2414 191.276 85.8321L190.296 86.9255C189.736 86.5548 189.218 86.3694 188.74 86.3694C188.263 86.3568 187.864 86.5108 187.543 86.8312C187.216 87.158 187.044 87.5319 187.025 87.9529C187.006 88.3739 187.132 88.8326 187.402 89.3291C187.672 89.8255 188.084 90.3502 188.637 90.9032C189.183 91.4499 189.705 91.8583 190.201 92.1285C190.691 92.3924 191.147 92.515 191.568 92.4961C191.989 92.4773 192.363 92.3045 192.69 91.9777C193.035 91.6321 193.199 91.2048 193.18 90.6958C193.161 90.1868 192.938 89.637 192.511 89.0463L193.585 88.066C194.239 88.9457 194.569 89.8098 194.575 90.6581C194.581 91.5064 194.261 92.2542 193.613 92.9014ZM197.229 88.984L190.537 82.2917L191.489 81.3397L194.26 84.1109L194.128 84.1674C193.921 83.8344 193.808 83.5076 193.789 83.1872C193.764 82.8604 193.817 82.5494 193.949 82.254C194.081 81.9587 194.276 81.6822 194.533 81.4246C194.885 81.0727 195.262 80.859 195.665 80.7836C196.067 80.6956 196.472 80.7365 196.88 80.9061C197.289 81.0632 197.679 81.3272 198.049 81.6979L201.282 84.9309L200.33 85.8829L197.342 82.895C196.89 82.4425 196.478 82.1943 196.108 82.1503C195.737 82.0938 195.394 82.2226 195.08 82.5368C194.722 82.895 194.546 83.2971 194.552 83.7433C194.559 84.1894 194.782 84.6324 195.222 85.0723L198.181 88.032L197.229 88.984ZM204.361 82.0786C204.047 82.3928 203.707 82.619 203.343 82.7573C202.978 82.8955 202.617 82.9364 202.259 82.8798C201.907 82.817 201.593 82.6473 201.316 82.3708C200.889 81.9435 200.685 81.4816 200.704 80.9852C200.729 80.4825 200.955 79.917 201.382 79.2886L202.664 77.328C202.275 76.9384 201.898 76.7311 201.533 76.7059C201.169 76.6808 200.817 76.8379 200.477 77.1772C200.163 77.4914 199.99 77.8088 199.959 78.1292C199.928 78.4497 200.009 78.7702 200.204 79.0907L199.139 80.0238C198.756 79.452 198.599 78.8362 198.668 78.1764C198.737 77.5166 199.057 76.9007 199.629 76.3289C200.27 75.688 200.939 75.3832 201.637 75.4146C202.341 75.4398 203.013 75.7728 203.654 76.4137L205.633 78.3932C205.746 78.5063 205.853 78.5628 205.954 78.5628C206.048 78.5565 206.142 78.5063 206.237 78.412L206.519 78.1292L207.302 78.9116C207.27 78.9556 207.214 79.0247 207.132 79.1189C207.057 79.2069 206.978 79.2917 206.896 79.3734C206.67 79.5996 206.441 79.7536 206.208 79.8353C205.976 79.917 205.74 79.9201 205.501 79.8447C205.263 79.7567 205.014 79.5965 204.757 79.364L204.908 79.2132C205.09 79.4708 205.19 79.7662 205.209 80.0992C205.228 80.4323 205.165 80.7716 205.021 81.1172C204.876 81.4628 204.656 81.7833 204.361 82.0786ZM203.72 81.1549C204.021 80.8533 204.223 80.5454 204.323 80.2312C204.424 79.917 204.427 79.6122 204.333 79.3169C204.245 79.0152 204.069 78.7325 203.805 78.4686L203.418 78.0821L202.306 79.7599C202.061 80.1181 201.938 80.4165 201.938 80.6553C201.938 80.8941 202.036 81.1109 202.231 81.3057C202.438 81.5131 202.674 81.6042 202.938 81.579C203.201 81.5539 203.462 81.4125 203.72 81.1549ZM208.599 77.6145L203.584 72.6L204.461 71.7234L205.799 73.0053L205.62 73.0336C205.375 72.6628 205.234 72.3015 205.196 71.9496C205.158 71.5852 205.209 71.2396 205.347 70.9128C205.479 70.5798 205.677 70.2813 205.941 70.0174C206.318 69.6403 206.714 69.4141 207.128 69.3387C207.537 69.257 207.948 69.2979 208.363 69.4612C208.772 69.6183 209.155 69.876 209.513 70.2341L212.746 73.4672L211.794 74.4192L208.806 71.4312C208.372 70.9976 207.961 70.7557 207.571 70.7054C207.188 70.6489 206.83 70.7871 206.497 71.1202C206.264 71.3527 206.104 71.6134 206.016 71.9025C205.934 72.1853 205.938 72.4838 206.025 72.7979C206.107 73.1059 206.293 73.4043 206.582 73.6934L209.551 76.6625L208.599 77.6145ZM217.917 71.3501C217.54 71.7271 217.144 72.0036 216.729 72.1795C216.315 72.3555 215.9 72.4309 215.485 72.4057C215.077 72.3743 214.69 72.2518 214.326 72.0381L215.259 70.973C215.536 71.1113 215.821 71.1521 216.117 71.0956C216.412 71.039 216.729 70.8411 217.069 70.5018C217.49 70.0807 217.722 69.6723 217.766 69.2764C217.817 68.8742 217.669 68.5004 217.323 68.1547L216.588 67.4195C216.726 67.7966 216.742 68.1893 216.635 68.5978C216.535 68.9999 216.318 69.3675 215.985 69.7006C215.57 70.1153 215.096 70.3824 214.562 70.5018C214.027 70.6211 213.49 70.5929 212.95 70.4169C212.403 70.2347 211.894 69.9079 211.423 69.4366C210.933 68.9465 210.593 68.4312 210.405 67.8908C210.223 67.3441 210.188 66.8069 210.301 66.279C210.414 65.7512 210.675 65.283 211.083 64.8746C211.435 64.5227 211.825 64.2965 212.252 64.1959C212.68 64.0828 213.091 64.1048 213.487 64.2619L212.714 63.4702L213.628 62.5559L218.209 67.1368C218.63 67.5578 218.894 68.0039 219.001 68.4752C219.114 68.9528 219.076 69.4366 218.888 69.9268C218.706 70.4106 218.382 70.8851 217.917 71.3501ZM215.268 68.7203C215.658 68.3307 215.834 67.8783 215.796 67.363C215.759 66.8477 215.495 66.3387 215.005 65.836C214.671 65.4904 214.332 65.2579 213.987 65.1385C213.641 65.0065 213.305 64.9783 212.978 65.0537C212.658 65.1228 212.365 65.2893 212.101 65.5532C211.693 65.9617 211.517 66.4204 211.574 66.9294C211.63 67.4258 211.91 67.9254 212.412 68.4281C212.909 68.9245 213.408 69.1979 213.911 69.2481C214.42 69.2921 214.873 69.1162 215.268 68.7203ZM222.343 64.0959C221.872 64.5672 221.354 64.872 220.788 65.0102C220.229 65.1422 219.654 65.1076 219.063 64.9065C218.479 64.6992 217.923 64.3316 217.395 63.8037C216.867 63.2759 216.503 62.7229 216.302 62.1448C216.107 61.5604 216.069 60.9886 216.188 60.4293C216.314 59.8638 216.61 59.3485 217.075 58.8835C217.521 58.4374 218.02 58.1514 218.573 58.0258C219.12 57.8938 219.685 57.9315 220.27 58.1389C220.854 58.3337 221.423 58.7076 221.976 59.2605L222.24 59.5245L218.677 63.0874C219.186 63.5335 219.682 63.766 220.166 63.7849C220.65 63.7912 221.087 63.5995 221.476 63.2099C221.772 62.9146 221.948 62.6004 222.004 62.2673C222.054 61.928 222.004 61.6075 221.853 61.3059L222.918 60.3728C223.252 60.9949 223.374 61.639 223.286 62.305C223.198 62.9586 222.884 63.5555 222.343 64.0959ZM217.913 62.3239L220.449 59.7884C219.984 59.3988 219.535 59.2134 219.101 59.2323C218.674 59.2448 218.29 59.4208 217.951 59.7601C217.599 60.112 217.417 60.5079 217.404 60.9477C217.392 61.3876 217.561 61.8463 217.913 62.3239ZM228.099 58.3405C227.653 58.7866 227.194 59.0946 226.723 59.2642C226.251 59.4339 225.802 59.481 225.375 59.4056C224.941 59.3239 224.555 59.1385 224.216 58.8495L225.13 57.8221C225.45 58.042 225.793 58.1331 226.157 58.0954C226.515 58.0514 226.88 57.8441 227.251 57.4733C227.596 57.1277 227.813 56.8167 227.901 56.5402C227.989 56.2637 227.932 56.0249 227.731 55.8238C227.606 55.6981 227.471 55.6259 227.326 55.607C227.175 55.5819 226.984 55.629 226.751 55.7484C226.519 55.8552 226.204 56.0438 225.808 56.314C225.218 56.7161 224.718 56.9958 224.31 57.1529C223.901 57.2974 223.54 57.3319 223.226 57.2565C222.905 57.1748 222.604 56.9926 222.321 56.7098C222.032 56.4208 221.843 56.0877 221.755 55.7107C221.674 55.3274 221.711 54.9252 221.869 54.5042C222.019 54.0769 222.308 53.6496 222.736 53.2223C223.182 52.7762 223.628 52.4871 224.074 52.3552C224.514 52.2169 224.938 52.1886 225.347 52.2703C225.755 52.352 226.126 52.5154 226.459 52.7605L225.545 53.7879C225.343 53.6622 225.136 53.5868 224.922 53.5616C224.703 53.5302 224.479 53.5585 224.253 53.6465C224.021 53.7282 223.801 53.8727 223.593 54.0801C223.26 54.4131 223.081 54.7242 223.056 55.0132C223.031 55.3023 223.113 55.541 223.301 55.7296C223.452 55.8804 223.612 55.9652 223.782 55.9841C223.945 55.9966 224.146 55.9464 224.385 55.8332C224.618 55.7139 224.913 55.5316 225.271 55.2866C225.862 54.8593 226.361 54.5733 226.77 54.4288C227.172 54.278 227.524 54.2403 227.826 54.3157C228.127 54.3911 228.416 54.5671 228.693 54.8435C228.994 55.1452 229.167 55.4939 229.211 55.8898C229.255 56.2731 229.183 56.6784 228.994 57.1057C228.806 57.5205 228.507 57.932 228.099 58.3405Z" fill="#A7A7A7"/>
<path d="M258.917 92.9297C258.383 93.4638 257.796 93.7812 257.155 93.8817C256.52 93.9759 255.844 93.8597 255.128 93.5329C254.412 93.2062 253.683 92.6721 252.941 91.9306C252.187 91.1765 251.647 90.4413 251.32 89.7249C250.993 89.0086 250.877 88.3331 250.971 87.6984C251.072 87.0575 251.389 86.4699 251.923 85.9358C252.457 85.4017 253.045 85.0843 253.686 84.9838C254.327 84.8833 255.002 84.9995 255.712 85.3326C256.429 85.6593 257.164 86.1997 257.918 86.9538C258.66 87.6953 259.194 88.4242 259.52 89.1405C259.853 89.8506 259.97 90.5261 259.869 91.1671C259.769 91.808 259.451 92.3956 258.917 92.9297ZM257.993 92.006C258.308 91.6918 258.477 91.3336 258.502 90.9314C258.534 90.523 258.414 90.0706 258.144 89.5741C257.874 89.0777 257.456 88.5467 256.891 87.9812C256.325 87.4156 255.794 86.9978 255.298 86.7276C254.795 86.4511 254.339 86.3285 253.931 86.36C253.523 86.3788 253.161 86.5453 252.847 86.8595C252.533 87.1737 252.363 87.5382 252.338 87.9529C252.313 88.3551 252.439 88.8075 252.715 89.3102C252.985 89.8066 253.403 90.3376 253.969 90.9032C254.534 91.4687 255.065 91.8866 255.562 92.1568C256.058 92.427 256.507 92.5495 256.909 92.5244C257.318 92.493 257.679 92.3202 257.993 92.006ZM263.777 90.5958L257.349 84.1674L258.254 83.2626L259.413 84.3842L259.243 84.4408C258.979 83.9255 258.888 83.426 258.97 82.9421C259.052 82.4457 259.287 82.0027 259.677 81.6131C260.161 81.1292 260.679 80.8559 261.232 80.793C261.779 80.7239 262.326 80.8119 262.872 81.057C263.419 81.302 263.928 81.6602 264.399 82.1315C264.871 82.6028 265.229 83.1118 265.474 83.6585C265.719 84.2051 265.81 84.755 265.747 85.308C265.678 85.8546 265.402 86.3699 264.918 86.8538C264.66 87.1114 264.38 87.3094 264.079 87.4476C263.771 87.5796 263.46 87.6455 263.146 87.6455C262.831 87.633 262.527 87.5481 262.231 87.391L262.222 87.1365L264.729 89.6438L263.777 90.5958ZM263.862 86.1563C264.264 85.7541 264.428 85.2891 264.352 84.7613C264.277 84.2334 263.959 83.6899 263.4 83.1306C262.841 82.5714 262.297 82.254 261.769 82.1786C261.242 82.1032 260.777 82.2666 260.374 82.6688C260.111 82.9327 259.947 83.228 259.884 83.5548C259.815 83.8752 259.853 84.2209 259.997 84.5916C260.148 84.9561 260.418 85.3331 260.808 85.7227C261.198 86.1123 261.575 86.3825 261.939 86.5333C262.304 86.6841 262.649 86.7281 262.976 86.6653C263.303 86.5899 263.598 86.4202 263.862 86.1563ZM270.437 81.334C269.966 81.8053 269.448 82.11 268.882 82.2483C268.323 82.3802 267.748 82.3457 267.157 82.1446C266.573 81.9372 266.017 81.5696 265.489 81.0418C264.961 80.5139 264.597 79.961 264.396 79.3829C264.201 78.7985 264.163 78.2266 264.282 77.6674C264.408 77.1018 264.703 76.5866 265.168 76.1215C265.615 75.6754 266.114 75.3895 266.667 75.2638C267.214 75.1318 267.779 75.1695 268.364 75.3769C268.948 75.5717 269.517 75.9456 270.07 76.4986L270.334 76.7625L266.771 80.3254C267.28 80.7716 267.776 81.0041 268.26 81.0229C268.744 81.0292 269.181 80.8376 269.57 80.448C269.866 80.1526 270.042 79.8384 270.098 79.5054C270.148 79.1661 270.098 78.8456 269.947 78.544L271.012 77.6108C271.345 78.2329 271.468 78.877 271.38 79.5431C271.292 80.1966 270.978 80.7936 270.437 81.334ZM266.007 79.5619L268.543 77.0264C268.078 76.6368 267.629 76.4514 267.195 76.4703C266.768 76.4829 266.384 76.6588 266.045 76.9981C265.693 77.35 265.511 77.7459 265.498 78.1858C265.486 78.6257 265.655 79.0844 266.007 79.5619ZM275.241 76.3043L270.226 71.2898L270.98 70.5358L272.347 71.7328L272.253 71.8082C271.882 71.3118 271.697 70.8562 271.697 70.4415C271.697 70.0268 271.879 69.6372 272.244 69.2727L273.309 68.2076L274.138 69.0371L273.111 70.0645C272.872 70.3033 272.718 70.5515 272.649 70.8091C272.573 71.0605 272.583 71.3212 272.677 71.5915C272.771 71.8491 272.95 72.1099 273.214 72.3738L276.193 75.3523L275.241 76.3043ZM273.968 77.5768L273.167 76.7756L276.956 72.9865L277.758 73.7876L273.968 77.5768ZM269.755 73.3635L268.954 72.5623L270.764 70.7526L271.565 71.5538L269.755 73.3635ZM281.185 70.5866C280.871 70.9008 280.531 71.127 280.167 71.2652C279.802 71.4035 279.441 71.4443 279.083 71.3878C278.731 71.3249 278.417 71.1553 278.14 70.8788C277.713 70.4515 277.509 69.9896 277.528 69.4932C277.553 68.9905 277.779 68.4249 278.206 67.7966L279.488 65.836C279.099 65.4464 278.722 65.239 278.357 65.2139C277.993 65.1888 277.641 65.3459 277.301 65.6852C276.987 65.9994 276.814 66.3167 276.783 66.6372C276.752 66.9577 276.833 67.2781 277.028 67.5986L275.963 68.5318C275.58 67.9599 275.423 67.3441 275.492 66.6843C275.561 66.0245 275.881 65.4087 276.453 64.8369C277.094 64.1959 277.763 63.8912 278.461 63.9226C279.165 63.9477 279.837 64.2808 280.478 64.9217L282.457 66.9011C282.57 67.0142 282.677 67.0708 282.778 67.0708C282.872 67.0645 282.966 67.0142 283.061 66.92L283.343 66.6372L284.126 67.4195C284.094 67.4635 284.038 67.5326 283.956 67.6269C283.881 67.7149 283.802 67.7997 283.72 67.8814C283.494 68.1076 283.265 68.2616 283.032 68.3433C282.8 68.4249 282.564 68.4281 282.325 68.3527C282.087 68.2647 281.838 68.1045 281.581 67.872L281.732 67.7212C281.914 67.9788 282.014 68.2741 282.033 68.6072C282.052 68.9402 281.989 69.2795 281.845 69.6252C281.7 69.9708 281.48 70.2912 281.185 70.5866ZM280.544 69.6629C280.846 69.3612 281.047 69.0533 281.147 68.7391C281.248 68.4249 281.251 68.1202 281.157 67.8248C281.069 67.5232 280.893 67.2404 280.629 66.9765L280.242 66.5901L279.13 68.2679C278.885 68.626 278.762 68.9245 278.762 69.1633C278.762 69.4021 278.86 69.6189 279.055 69.8137C279.262 70.021 279.498 70.1122 279.762 70.087C280.026 70.0619 280.286 69.9205 280.544 69.6629ZM288.213 63.3324C287.704 63.8414 287.207 64.1054 286.724 64.1242C286.24 64.1305 285.753 63.8886 285.263 63.3984L280.512 58.6479L281.464 57.6959L286.167 62.3993C286.4 62.6318 286.626 62.7512 286.846 62.7575C287.072 62.7575 287.295 62.6475 287.515 62.4276L288.807 61.1363L289.608 61.9374L288.213 63.3324ZM280.908 62.2108L280.107 61.4096L284.593 56.9229L285.394 57.7241L280.908 62.2108ZM293.092 58.4536L288.077 53.4391L289.039 52.4777L294.053 57.4922L293.092 58.4536ZM291.131 60.4142L290.33 59.613L294.93 55.0132L295.731 55.8144L291.131 60.4142ZM287.012 56.1066L286.211 55.3054L288.954 52.5625L289.755 53.3637L287.012 56.1066ZM287.295 52.7699L286.305 51.7802L287.285 50.7999L288.275 51.7896L287.295 52.7699ZM299.102 52.6699C298.637 53.1349 298.121 53.4365 297.556 53.5748C296.996 53.7067 296.422 53.6722 295.831 53.4711C295.246 53.2637 294.69 52.8961 294.162 52.3683C293.628 51.8341 293.261 51.278 293.06 50.6999C292.859 50.1092 292.824 49.5343 292.956 48.975C293.094 48.4095 293.396 47.8942 293.861 47.4292C294.326 46.9642 294.838 46.6657 295.397 46.5337C295.963 46.3955 296.538 46.43 297.122 46.6374C297.707 46.8322 298.266 47.1967 298.8 47.7308C299.328 48.2586 299.692 48.8179 299.893 49.4086C300.101 49.993 300.135 50.5679 299.997 51.1335C299.865 51.6927 299.567 52.2049 299.102 52.6699ZM298.225 51.7933C298.646 51.3723 298.816 50.8947 298.734 50.3606C298.659 49.8202 298.348 49.2766 297.801 48.7299C297.254 48.1832 296.711 47.8722 296.17 47.7968C295.636 47.7151 295.158 47.8848 294.737 48.3058C294.316 48.7268 294.144 49.2075 294.219 49.7479C294.301 50.282 294.615 50.8224 295.162 51.3691C295.708 51.9158 296.249 52.23 296.783 52.3117C297.323 52.3871 297.804 52.2143 298.225 51.7933ZM302.661 48.8844L297.646 43.8699L298.523 42.9933L299.861 44.2752L299.682 44.3035C299.437 43.9328 299.296 43.5714 299.258 43.2196C299.22 42.8551 299.271 42.5095 299.409 42.1827C299.541 41.8497 299.739 41.5512 300.003 41.2873C300.38 40.9102 300.776 40.684 301.19 40.6086C301.599 40.5269 302.01 40.5678 302.425 40.7312C302.834 40.8883 303.217 41.1459 303.575 41.5041L306.808 44.7371L305.856 45.6891L302.868 42.7011C302.435 42.2676 302.023 42.0256 301.633 41.9754C301.25 41.9188 300.892 42.057 300.559 42.3901C300.326 42.6226 300.166 42.8834 300.078 43.1724C299.996 43.4552 300 43.7537 300.088 44.0679C300.169 44.3758 300.355 44.6743 300.644 44.9633L303.613 47.9324L302.661 48.8844ZM310.669 41.1024C310.223 41.5486 309.764 41.8565 309.293 42.0262C308.822 42.1958 308.372 42.243 307.945 42.1676C307.511 42.0859 307.125 41.9005 306.786 41.6114L307.7 40.584C308.02 40.804 308.363 40.8951 308.727 40.8574C309.085 40.8134 309.45 40.606 309.821 40.2353C310.166 39.8897 310.383 39.5786 310.471 39.3021C310.559 39.0256 310.502 38.7869 310.301 38.5858C310.176 38.4601 310.041 38.3878 309.896 38.369C309.745 38.3438 309.554 38.391 309.321 38.5104C309.089 38.6172 308.774 38.8057 308.379 39.0759C307.788 39.4781 307.288 39.7577 306.88 39.9148C306.471 40.0593 306.11 40.0939 305.796 40.0185C305.475 39.9368 305.174 39.7546 304.891 39.4718C304.602 39.1827 304.413 38.8497 304.325 38.4727C304.244 38.0894 304.281 37.6872 304.439 37.2662C304.589 36.8389 304.878 36.4116 305.306 35.9843C305.752 35.5381 306.198 35.2491 306.644 35.1171C307.084 34.9789 307.508 34.9506 307.917 35.0323C308.325 35.114 308.696 35.2773 309.029 35.5224L308.115 36.5498C307.914 36.4241 307.706 36.3487 307.493 36.3236C307.273 36.2922 307.05 36.3205 306.823 36.4084C306.591 36.4901 306.371 36.6347 306.164 36.842C305.83 37.1751 305.651 37.4861 305.626 37.7752C305.601 38.0642 305.683 38.303 305.871 38.4915C306.022 38.6423 306.182 38.7272 306.352 38.746C306.515 38.7586 306.716 38.7083 306.955 38.5952C307.188 38.4758 307.483 38.2936 307.841 38.0485C308.432 37.6212 308.932 37.3353 309.34 37.1908C309.742 37.04 310.094 37.0023 310.396 37.0777C310.697 37.1531 310.986 37.329 311.263 37.6055C311.564 37.9071 311.737 38.2559 311.781 38.6518C311.825 39.0351 311.753 39.4404 311.564 39.8677C311.376 40.2824 311.077 40.694 310.669 41.1024Z" fill="#A7A7A7"/>
<path d="M257 139L257 342C257 361.882 240.882 378 221 378L190 378" stroke="black" stroke-width="2" stroke-linecap="round"/>
<path d="M257 145L257 152C257 171.882 240.882 188 221 188L190 188" stroke="black" stroke-width="2" stroke-linecap="round"/>
<path d="M190 484L190 187" stroke="black" stroke-width="2" stroke-linecap="round"/>
<rect width="10" height="10" rx="5" transform="matrix(-1 0 0 1 262 277)" fill="#E0E0E0"/>
<rect width="10" height="10" rx="5" transform="matrix(-1 0 0 1 262 325)" fill="#E0E0E0"/>
<rect width="10" height="10" rx="5" transform="matrix(-1 0 0 1 262 229)" fill="#E0E0E0"/>
<rect width="10" height="10" rx="5" transform="matrix(-1 0 0 1 262 134)" fill="#E0E0E0"/>
<rect x="-1.7929" y="1.7929" width="13.4142" height="13.4142" rx="6.7071" transform="matrix(-1 0 0 1 194.414 369)" fill="white" stroke="#FF611A" stroke-width="3.58579"/>
<rect x="-1.7929" y="1.7929" width="13.4142" height="13.4142" rx="6.7071" transform="matrix(-1 0 0 1 194.414 178)" fill="white" stroke="#FF611A" stroke-width="3.58579"/>
<path d="M78.0671 108.635H77.4023" stroke="black" stroke-width="2" stroke-linecap="round"/>
<path d="M262 139C262 141.761 259.761 144 257 144C254.239 144 252 141.761 252 139C252 136.239 254.239 134 257 134C259.761 134 262 136.239 262 139ZM254.25 139C254.25 140.519 255.481 141.75 257 141.75C258.519 141.75 259.75 140.519 259.75 139C259.75 137.481 258.519 136.25 257 136.25C255.481 136.25 254.25 137.481 254.25 139Z" fill="black"/>
<path d="M262 234C262 236.761 259.761 239 257 239C254.239 239 252 236.761 252 234C252 231.239 254.239 229 257 229C259.761 229 262 231.239 262 234ZM254.25 234C254.25 235.519 255.481 236.75 257 236.75C258.519 236.75 259.75 235.519 259.75 234C259.75 232.481 258.519 231.25 257 231.25C255.481 231.25 254.25 232.481 254.25 234Z" fill="black"/>
<path d="M262 282C262 284.761 259.761 287 257 287C254.239 287 252 284.761 252 282C252 279.239 254.239 277 257 277C259.761 277 262 279.239 262 282ZM254.25 282C254.25 283.519 255.481 284.75 257 284.75C258.519 284.75 259.75 283.519 259.75 282C259.75 280.481 258.519 279.25 257 279.25C255.481 279.25 254.25 280.481 254.25 282Z" fill="black"/>
<path d="M262 330C262 332.761 259.761 335 257 335C254.239 335 252 332.761 252 330C252 327.239 254.239 325 257 325C259.761 325 262 327.239 262 330ZM254.25 330C254.25 331.519 255.481 332.75 257 332.75C258.519 332.75 259.75 331.519 259.75 330C259.75 328.481 258.519 327.25 257 327.25C255.481 327.25 254.25 328.481 254.25 330Z" fill="black"/>
</g>
<defs>
<filter id="filter0_f_900_2864" x="18" y="4" width="723" height="524" filterUnits="userSpaceOnUse" color-interpolation-filters="sRGB">
<feFlood flood-opacity="0" result="BackgroundImageFix"/>
<feBlend mode="normal" in="SourceGraphic" in2="BackgroundImageFix" result="shape"/>
<feGaussianBlur stdDeviation="42" result="effect1_foregroundBlur_900_2864"/>
</filter>
<clipPath id="clip0_900_2864">
<rect width="748" height="412" fill="white"/>
</clipPath>
</defs>
</svg>
