<svg width="748" height="374" viewBox="0 0 748 374" fill="none" xmlns="http://www.w3.org/2000/svg">
<path d="M206.312 34.457H459.471C463.256 34.457 466.325 37.5259 466.325 41.3115V338.797H199.457V41.3115C199.457 37.5259 202.526 34.457 206.312 34.457Z" fill="url(#paint0_linear_956_495)" stroke="url(#paint1_linear_956_495)" stroke-width="0.913934"/>
<rect x="341" y="46" width="106.93" height="30.1598" rx="7.31147" fill="#C8C6C6"/>
<rect x="334.07" y="150.405" width="106.93" height="29.2459" rx="7.31147" fill="#C8C6C6"/>
<rect x="218" y="91" width="169.992" height="47.5246" rx="7.31147" fill="white"/>
<rect x="218" y="191.532" width="169.992" height="88.6516" rx="7.31147" fill="white"/>
<rect x="231" y="204" width="122.467" height="19.1926" fill="#FF611A"/>
<rect x="231" y="225.935" width="131.606" height="19.1926" fill="#FF611A"/>
<rect x="231" y="247.868" width="95.963" height="19.1926" fill="#FF611A"/>
<path d="M346.603 269.803H354.829M344.547 253.353C346.183 253.353 347.752 254.002 348.909 255.159C350.066 256.316 350.716 257.885 350.716 259.522M350.716 259.522V280.085M350.716 259.522C350.716 257.885 351.366 256.316 352.523 255.159C353.68 254.002 355.249 253.353 356.885 253.353M350.716 280.085C350.716 281.721 350.066 283.29 348.909 284.447C347.752 285.604 346.183 286.254 344.547 286.254M350.716 280.085C350.716 281.721 351.366 283.29 352.523 284.447C353.68 285.604 355.249 286.254 356.885 286.254" stroke="black" stroke-width="4.1127" stroke-linecap="round" stroke-linejoin="round"/>
<rect x="412.859" y="207.656" width="112.475" height="41.2376" rx="11.3659" fill="#FF8751"/>
<path d="M438.183 237.031C436.211 237.031 434.637 236.57 433.459 235.648C432.296 234.712 431.693 233.371 431.651 231.626H434.481C434.552 233.669 435.814 234.69 438.268 234.69C439.204 234.69 439.956 234.499 440.523 234.116C441.105 233.733 441.396 233.194 441.396 232.499C441.396 232.116 441.297 231.797 441.098 231.541C440.899 231.272 440.523 231.031 439.97 230.818C439.417 230.605 438.609 230.392 437.545 230.179C435.63 229.825 434.232 229.293 433.353 228.584C432.488 227.86 432.055 226.825 432.055 225.477C432.055 224.64 432.289 223.903 432.757 223.264C433.225 222.612 433.892 222.108 434.757 221.754C435.623 221.385 436.616 221.2 437.736 221.2C439.736 221.2 441.254 221.661 442.289 222.583C443.339 223.491 443.892 224.74 443.949 226.328H441.183C441.126 225.378 440.821 224.676 440.268 224.222C439.715 223.768 438.871 223.541 437.736 223.541C436.899 223.541 436.233 223.711 435.736 224.052C435.24 224.378 434.991 224.825 434.991 225.392C434.991 225.803 435.076 226.144 435.247 226.413C435.431 226.669 435.779 226.903 436.289 227.116C436.814 227.328 437.58 227.534 438.587 227.733C440.077 228.002 441.233 228.35 442.055 228.775C442.892 229.187 443.481 229.683 443.821 230.265C444.162 230.832 444.332 231.534 444.332 232.371C444.332 233.35 444.07 234.187 443.545 234.882C443.034 235.577 442.311 236.109 441.375 236.478C440.453 236.846 439.389 237.031 438.183 237.031ZM449.789 222.307V225.711H452.598V227.775H449.789V233.669C449.789 234.038 449.867 234.307 450.023 234.477C450.194 234.633 450.47 234.712 450.853 234.712H452.598V236.775H450.194C449.186 236.775 448.421 236.57 447.896 236.158C447.385 235.733 447.13 234.995 447.13 233.946V227.775H445.193V225.711H447.13V222.307H449.789ZM454.293 225.711H456.888V227.69C457.555 226.286 458.669 225.584 460.229 225.584H461.101V228.052H460.123C459.115 228.052 458.335 228.307 457.782 228.818C457.243 229.328 456.974 230.194 456.974 231.414V236.775H454.293V225.711ZM467.77 241.286C466.238 241.286 465.039 240.946 464.174 240.265C463.323 239.584 462.855 238.641 462.77 237.435H465.387C465.543 238.612 466.366 239.201 467.855 239.201C469.742 239.201 470.685 238.293 470.685 236.478V235.158C469.891 236.222 468.756 236.754 467.281 236.754C466.231 236.754 465.33 236.513 464.578 236.031C463.841 235.534 463.28 234.86 462.897 234.009C462.514 233.158 462.323 232.187 462.323 231.094C462.323 230.016 462.514 229.052 462.897 228.201C463.28 227.335 463.841 226.662 464.578 226.179C465.33 225.697 466.231 225.456 467.281 225.456C468.812 225.456 469.976 226.023 470.77 227.158V225.711H473.366V236.478C473.366 238.066 472.848 239.265 471.813 240.073C470.777 240.882 469.43 241.286 467.77 241.286ZM465.046 231.094C465.046 232.172 465.28 233.024 465.749 233.648C466.231 234.258 466.947 234.563 467.898 234.563C468.834 234.563 469.536 234.258 470.004 233.648C470.486 233.024 470.727 232.172 470.727 231.094C470.727 230.016 470.486 229.172 470.004 228.562C469.536 227.938 468.834 227.626 467.898 227.626C466.947 227.626 466.231 227.938 465.749 228.562C465.28 229.172 465.046 230.016 465.046 231.094ZM479.924 227.967H483.733V224.137H486.052V227.967H489.882V230.286H486.052V234.094H483.733V230.286H479.924V227.967ZM501.432 237.031C500.325 237.031 499.361 236.782 498.538 236.286C497.729 235.775 497.105 235.087 496.666 234.222C496.226 233.343 496.006 232.35 496.006 231.243C496.006 230.137 496.226 229.151 496.666 228.286C497.105 227.406 497.729 226.718 498.538 226.222C499.361 225.711 500.325 225.456 501.432 225.456C502.907 225.456 504.084 225.839 504.964 226.605C505.857 227.357 506.389 228.378 506.559 229.669H503.878C503.751 229.045 503.474 228.562 503.049 228.222C502.623 227.867 502.084 227.69 501.432 227.69C500.552 227.69 499.878 228.009 499.41 228.648C498.956 229.286 498.729 230.151 498.729 231.243C498.729 232.336 498.956 233.201 499.41 233.839C499.878 234.477 500.552 234.797 501.432 234.797C502.098 234.797 502.644 234.612 503.07 234.243C503.495 233.875 503.765 233.357 503.878 232.69H506.559C506.389 233.995 505.857 235.045 504.964 235.839C504.07 236.634 502.893 237.031 501.432 237.031Z" fill="black"/>
<rect x="435.66" y="256.29" width="112.475" height="41.2376" rx="11.3659" fill="#FF8751"/>
<path d="M460.984 285.665C459.012 285.665 457.438 285.204 456.26 284.281C455.097 283.345 454.494 282.005 454.452 280.26H457.282C457.352 282.303 458.615 283.324 461.069 283.324C462.005 283.324 462.757 283.133 463.324 282.75C463.906 282.367 464.197 281.828 464.197 281.132C464.197 280.749 464.097 280.43 463.899 280.175C463.7 279.905 463.324 279.664 462.771 279.452C462.218 279.239 461.409 279.026 460.345 278.813C458.43 278.459 457.033 277.927 456.154 277.217C455.289 276.494 454.856 275.459 454.856 274.111C454.856 273.274 455.09 272.536 455.558 271.898C456.026 271.246 456.693 270.742 457.558 270.387C458.423 270.019 459.416 269.834 460.537 269.834C462.537 269.834 464.055 270.295 465.09 271.217C466.14 272.125 466.693 273.373 466.75 274.962H463.984C463.927 274.012 463.622 273.31 463.069 272.856C462.516 272.402 461.672 272.175 460.537 272.175C459.7 272.175 459.033 272.345 458.537 272.685C458.04 273.012 457.792 273.458 457.792 274.026C457.792 274.437 457.877 274.778 458.047 275.047C458.232 275.303 458.579 275.537 459.09 275.749C459.615 275.962 460.381 276.168 461.388 276.366C462.877 276.636 464.033 276.983 464.856 277.409C465.693 277.82 466.282 278.317 466.622 278.898C466.963 279.466 467.133 280.168 467.133 281.005C467.133 281.984 466.87 282.82 466.346 283.516C465.835 284.211 465.112 284.742 464.175 285.111C463.253 285.48 462.189 285.665 460.984 285.665ZM472.59 270.941V274.345H475.399V276.409H472.59V282.303C472.59 282.672 472.668 282.941 472.824 283.111C472.994 283.267 473.271 283.345 473.654 283.345H475.399V285.409H472.994C471.987 285.409 471.221 285.204 470.696 284.792C470.186 284.367 469.93 283.629 469.93 282.579V276.409H467.994V274.345H469.93V270.941H472.59ZM477.093 274.345H479.689V276.324C480.356 274.92 481.469 274.217 483.03 274.217H483.902V276.686H482.923C481.916 276.686 481.136 276.941 480.583 277.452C480.044 277.962 479.774 278.827 479.774 280.047V285.409H477.093V274.345ZM490.571 289.92C489.039 289.92 487.84 289.58 486.975 288.899C486.124 288.218 485.656 287.274 485.571 286.069H488.188C488.344 287.246 489.166 287.835 490.656 287.835C492.542 287.835 493.486 286.927 493.486 285.111V283.792C492.691 284.856 491.557 285.388 490.081 285.388C489.032 285.388 488.131 285.147 487.379 284.664C486.641 284.168 486.081 283.494 485.698 282.643C485.315 281.792 485.124 280.82 485.124 279.728C485.124 278.65 485.315 277.686 485.698 276.834C486.081 275.969 486.641 275.295 487.379 274.813C488.131 274.331 489.032 274.09 490.081 274.09C491.613 274.09 492.776 274.657 493.571 275.792V274.345H496.167V285.111C496.167 286.7 495.649 287.899 494.613 288.707C493.578 289.516 492.23 289.92 490.571 289.92ZM487.847 279.728C487.847 280.806 488.081 281.657 488.549 282.281C489.032 282.891 489.748 283.196 490.698 283.196C491.635 283.196 492.337 282.891 492.805 282.281C493.287 281.657 493.528 280.806 493.528 279.728C493.528 278.65 493.287 277.806 492.805 277.196C492.337 276.572 491.635 276.26 490.698 276.26C489.748 276.26 489.032 276.572 488.549 277.196C488.081 277.806 487.847 278.65 487.847 279.728ZM502.725 276.6H506.534V272.771H508.853V276.6H512.683V278.92H508.853V282.728H506.534V278.92H502.725V276.6ZM518.211 274.345H521.083L523.956 282.898L526.764 274.345H529.658L525.445 285.409H522.424L518.211 274.345Z" fill="black"/>
<g clip-path="url(#clip0_956_495)">
<path d="M245.849 58.2786C246.53 56.2358 246.295 53.998 245.207 52.1398C243.57 49.2898 240.279 47.8236 237.065 48.5136C235.636 46.903 233.582 45.987 231.428 46.0001C228.143 45.9926 225.229 48.1076 224.218 51.2333C222.108 51.6655 220.286 52.9864 219.22 54.8586C217.571 57.7011 217.947 61.2842 220.15 63.7217C219.47 65.7645 219.704 68.0023 220.792 69.8605C222.429 72.7105 225.72 74.1767 228.934 73.4867C230.362 75.0973 232.417 76.0133 234.571 75.9992C237.858 76.0076 240.773 73.8908 241.784 70.7623C243.894 70.3301 245.716 69.0092 246.782 67.137C248.429 64.2945 248.052 60.7142 245.85 58.2767L245.849 58.2786ZM234.573 74.0389C233.257 74.0408 231.983 73.5805 230.974 72.7376C231.02 72.7133 231.099 72.6692 231.151 72.6373L237.125 69.1873C237.43 69.0139 237.618 68.6886 237.616 68.337V59.9155L240.14 61.3733C240.168 61.3864 240.185 61.4126 240.189 61.4426V68.4167C240.185 71.518 237.674 74.0323 234.573 74.0389ZM222.494 68.8798C221.835 67.7417 221.598 66.4076 221.824 65.113C221.868 65.1392 221.945 65.187 222.001 65.2189L227.975 68.6689C228.277 68.8461 228.652 68.8461 228.956 68.6689L236.249 64.4576V67.3733C236.251 67.4033 236.237 67.4323 236.213 67.4511L230.175 70.9376C227.485 72.4864 224.05 71.5658 222.495 68.8798H222.494ZM220.922 55.8401C221.578 54.7001 222.614 53.8283 223.848 53.3755C223.848 53.427 223.845 53.518 223.845 53.5817V60.4826C223.843 60.8333 224.03 61.1586 224.335 61.332L231.628 65.5423L229.103 67.0001C229.078 67.017 229.046 67.0198 229.018 67.0076L222.979 63.5183C220.295 61.9639 219.374 58.5298 220.921 55.8411L220.922 55.8401ZM241.665 60.6673L234.372 56.4561L236.897 54.9992C236.922 54.9823 236.954 54.9795 236.982 54.9917L243.021 58.4783C245.71 60.0317 246.632 63.4714 245.078 66.1601C244.421 67.2983 243.386 68.1701 242.153 68.6239V61.5167C242.156 61.1661 241.97 60.8417 241.666 60.6673H241.665ZM244.177 56.8855C244.133 56.8583 244.055 56.8114 244 56.7795L238.026 53.3295C237.724 53.1523 237.349 53.1523 237.045 53.3295L229.752 57.5408V54.6251C229.75 54.5951 229.764 54.5661 229.788 54.5473L235.826 51.0636C238.516 49.512 241.955 50.4355 243.505 53.1261C244.16 54.2623 244.398 55.5926 244.175 56.8855H244.177ZM228.38 62.082L225.854 60.6242C225.827 60.6111 225.809 60.5848 225.805 60.5548V53.5808C225.807 50.4758 228.326 47.9595 231.431 47.9614C232.745 47.9614 234.016 48.4226 235.025 49.2626C234.98 49.287 234.901 49.3311 234.848 49.363L228.875 52.813C228.569 52.9864 228.381 53.3108 228.383 53.6623L228.38 62.0801V62.082ZM229.751 59.1251L233 57.2492L236.248 59.1242V62.8751L233 64.7501L229.751 62.8751V59.1251Z" fill="#5E5D5D"/>
</g>
<defs>
<linearGradient id="paint0_linear_956_495" x1="332.891" y1="34" x2="332.891" y2="339.254" gradientUnits="userSpaceOnUse">
<stop stop-color="#E0E0E0"/>
<stop offset="0.807692" stop-color="#E0E0E0"/>
<stop offset="1" stop-color="#F0F0F0" stop-opacity="0"/>
</linearGradient>
<linearGradient id="paint1_linear_956_495" x1="332.891" y1="34" x2="332.891" y2="339.254" gradientUnits="userSpaceOnUse">
<stop stop-color="#E9E9E9"/>
<stop offset="1" stop-color="#ECECEC" stop-opacity="0"/>
</linearGradient>
<clipPath id="clip0_956_495">
<rect width="30" height="30" fill="white" transform="translate(218 46)"/>
</clipPath>
</defs>
</svg>
