<svg width="517" height="275" viewBox="0 0 517 275" fill="none" xmlns="http://www.w3.org/2000/svg">
<g clip-path="url(#clip0_1451_1428)">
<path d="M124.63 270.968L123.166 264.872L123.298 264.86V272H122.086V263.48H123.766L125.35 269.948H124.87L126.454 263.48H128.134V272H126.922V264.86L127.054 264.872L125.59 270.968H124.63ZM131.562 272.144C131.162 272.144 130.802 272.072 130.482 271.928C130.162 271.784 129.906 271.58 129.714 271.316C129.53 271.052 129.438 270.744 129.438 270.392C129.438 269.848 129.602 269.424 129.93 269.12C130.266 268.816 130.77 268.6 131.442 268.472L133.506 268.04C133.506 267.544 133.398 267.172 133.182 266.924C132.966 266.676 132.642 266.552 132.21 266.552C131.81 266.552 131.498 266.644 131.274 266.828C131.05 267.012 130.898 267.268 130.818 267.596L129.546 267.512C129.666 266.904 129.958 266.412 130.422 266.036C130.886 265.66 131.482 265.472 132.21 265.472C133.026 265.472 133.646 265.704 134.07 266.168C134.502 266.632 134.718 267.272 134.718 268.088V270.608C134.718 270.752 134.75 270.856 134.814 270.92C134.878 270.976 134.97 271.004 135.09 271.004H135.45V272C135.402 272.008 135.322 272.016 135.21 272.024C135.106 272.032 135.002 272.036 134.898 272.036C134.61 272.036 134.366 271.988 134.166 271.892C133.966 271.796 133.814 271.648 133.71 271.448C133.614 271.24 133.558 270.98 133.542 270.668H133.734C133.686 270.948 133.562 271.2 133.362 271.424C133.162 271.648 132.906 271.824 132.594 271.952C132.282 272.08 131.938 272.144 131.562 272.144ZM131.742 271.148C132.126 271.148 132.45 271.08 132.714 270.944C132.978 270.808 133.174 270.616 133.302 270.368C133.438 270.12 133.506 269.828 133.506 269.492V269L131.73 269.36C131.346 269.432 131.078 269.544 130.926 269.696C130.774 269.848 130.698 270.048 130.698 270.296C130.698 270.56 130.79 270.768 130.974 270.92C131.158 271.072 131.414 271.148 131.742 271.148ZM139.549 272V265.616H140.773V272H139.549ZM137.053 272V270.98H142.909V272H137.053ZM137.173 266.636V265.616H140.665V266.636H137.173ZM139.477 264.692V263.432H140.725V264.692H139.477ZM144.416 272V265.616H145.532L145.568 267.284L145.436 267.188C145.516 266.796 145.656 266.476 145.856 266.228C146.064 265.972 146.316 265.784 146.612 265.664C146.908 265.536 147.224 265.472 147.56 265.472C148.04 265.472 148.436 265.58 148.748 265.796C149.06 266.004 149.296 266.292 149.456 266.66C149.616 267.02 149.696 267.428 149.696 267.884V272H148.484V268.196C148.484 267.644 148.376 267.228 148.16 266.948C147.952 266.668 147.636 266.528 147.212 266.528C146.916 266.528 146.648 266.592 146.408 266.72C146.176 266.848 145.988 267.04 145.844 267.296C145.7 267.544 145.628 267.852 145.628 268.22V272H144.416ZM161.183 272.144C160.639 272.144 160.167 272.012 159.767 271.748C159.367 271.476 159.059 271.092 158.843 270.596C158.627 270.092 158.519 269.496 158.519 268.808C158.519 268.12 158.627 267.528 158.843 267.032C159.059 266.528 159.367 266.144 159.767 265.88C160.167 265.608 160.639 265.472 161.183 265.472C161.631 265.472 162.023 265.576 162.359 265.784C162.695 265.992 162.939 266.236 163.091 266.516V263.48H164.303V272H163.175L163.139 271.016C162.963 271.36 162.707 271.636 162.371 271.844C162.035 272.044 161.639 272.144 161.183 272.144ZM161.387 271.028C161.739 271.028 162.039 270.94 162.287 270.764C162.543 270.58 162.739 270.324 162.875 269.996C163.019 269.66 163.091 269.264 163.091 268.808C163.091 268.336 163.019 267.936 162.875 267.608C162.739 267.28 162.543 267.028 162.287 266.852C162.031 266.676 161.723 266.588 161.363 266.588C160.875 266.588 160.491 266.784 160.211 267.176C159.931 267.568 159.791 268.112 159.791 268.808C159.791 269.496 159.931 270.04 160.211 270.44C160.491 270.832 160.883 271.028 161.387 271.028ZM169.002 272.144C168.41 272.144 167.89 272.008 167.442 271.736C167.002 271.464 166.658 271.076 166.41 270.572C166.17 270.068 166.05 269.48 166.05 268.808C166.05 268.128 166.17 267.54 166.41 267.044C166.658 266.54 167.002 266.152 167.442 265.88C167.89 265.608 168.41 265.472 169.002 265.472C169.594 265.472 170.11 265.608 170.55 265.88C170.998 266.152 171.342 266.54 171.582 267.044C171.83 267.54 171.954 268.128 171.954 268.808C171.954 269.48 171.83 270.068 171.582 270.572C171.342 271.076 170.998 271.464 170.55 271.736C170.11 272.008 169.594 272.144 169.002 272.144ZM169.002 271.028C169.538 271.028 169.95 270.832 170.238 270.44C170.534 270.048 170.682 269.504 170.682 268.808C170.682 268.112 170.534 267.568 170.238 267.176C169.95 266.784 169.538 266.588 169.002 266.588C168.466 266.588 168.05 266.784 167.754 267.176C167.466 267.568 167.322 268.112 167.322 268.808C167.322 269.504 167.466 270.048 167.754 270.44C168.05 270.832 168.466 271.028 169.002 271.028ZM176.462 272.144C175.87 272.144 175.346 272.008 174.89 271.736C174.442 271.456 174.094 271.068 173.846 270.572C173.606 270.068 173.486 269.48 173.486 268.808C173.486 268.136 173.606 267.552 173.846 267.056C174.094 266.56 174.442 266.172 174.89 265.892C175.346 265.612 175.87 265.472 176.462 265.472C176.95 265.472 177.386 265.564 177.77 265.748C178.154 265.924 178.47 266.184 178.718 266.528C178.966 266.872 179.13 267.284 179.21 267.764L177.974 267.848C177.878 267.44 177.698 267.128 177.434 266.912C177.17 266.696 176.85 266.588 176.474 266.588C175.938 266.588 175.514 266.788 175.202 267.188C174.898 267.58 174.746 268.12 174.746 268.808C174.746 269.496 174.898 270.04 175.202 270.44C175.514 270.832 175.938 271.028 176.474 271.028C176.858 271.028 177.186 270.916 177.458 270.692C177.738 270.46 177.922 270.12 178.01 269.672L179.246 269.744C179.166 270.232 178.998 270.656 178.742 271.016C178.486 271.368 178.162 271.644 177.77 271.844C177.386 272.044 176.95 272.144 176.462 272.144ZM183.081 272.144C182.465 272.144 181.973 271.936 181.605 271.52C181.237 271.096 181.053 270.504 181.053 269.744V265.616H182.265V269.432C182.265 270.008 182.365 270.428 182.565 270.692C182.765 270.956 183.069 271.088 183.477 271.088C183.917 271.088 184.269 270.94 184.533 270.644C184.805 270.348 184.941 269.928 184.941 269.384V265.616H186.153V272H185.013L185.001 270.332L185.169 270.404C185.057 270.956 184.821 271.384 184.461 271.688C184.101 271.992 183.641 272.144 183.081 272.144ZM187.78 272V265.616H188.836L188.884 267.056L188.752 267.02C188.832 266.532 188.988 266.152 189.22 265.88C189.46 265.608 189.76 265.472 190.12 265.472C190.504 265.472 190.792 265.608 190.984 265.88C191.184 266.152 191.308 266.556 191.356 267.092H191.224C191.296 266.58 191.46 266.184 191.716 265.904C191.972 265.616 192.292 265.472 192.676 265.472C193.18 265.472 193.544 265.648 193.768 266C194 266.344 194.116 266.908 194.116 267.692V272H192.94V267.896C192.94 267.384 192.884 267.028 192.772 266.828C192.668 266.628 192.504 266.528 192.28 266.528C192.136 266.528 192.004 266.576 191.884 266.672C191.772 266.768 191.684 266.92 191.62 267.128C191.556 267.328 191.524 267.592 191.524 267.92V272H190.372V267.896C190.372 267.4 190.32 267.048 190.216 266.84C190.12 266.632 189.956 266.528 189.724 266.528C189.572 266.528 189.44 266.576 189.328 266.672C189.216 266.768 189.124 266.92 189.052 267.128C188.988 267.328 188.956 267.592 188.956 267.92V272H187.78ZM198.348 272.144C197.748 272.144 197.224 272.008 196.776 271.736C196.336 271.464 195.992 271.076 195.744 270.572C195.504 270.068 195.384 269.48 195.384 268.808C195.384 268.136 195.504 267.552 195.744 267.056C195.992 266.56 196.332 266.172 196.764 265.892C197.204 265.612 197.72 265.472 198.312 265.472C198.88 265.472 199.38 265.608 199.812 265.88C200.244 266.144 200.58 266.528 200.82 267.032C201.068 267.528 201.192 268.128 201.192 268.832V269.168H196.656C196.696 269.776 196.864 270.24 197.16 270.56C197.464 270.872 197.864 271.028 198.36 271.028C198.736 271.028 199.048 270.94 199.296 270.764C199.544 270.58 199.716 270.344 199.812 270.056L201.084 270.14C200.9 270.748 200.568 271.236 200.088 271.604C199.616 271.964 199.036 272.144 198.348 272.144ZM196.656 268.196H199.884C199.836 267.652 199.668 267.248 199.38 266.984C199.1 266.72 198.744 266.588 198.312 266.588C197.864 266.588 197.496 266.724 197.208 266.996C196.92 267.268 196.736 267.668 196.656 268.196ZM202.939 272V265.616H204.055L204.091 267.284L203.959 267.188C204.039 266.796 204.179 266.476 204.379 266.228C204.587 265.972 204.839 265.784 205.135 265.664C205.431 265.536 205.747 265.472 206.083 265.472C206.563 265.472 206.959 265.58 207.271 265.796C207.583 266.004 207.819 266.292 207.979 266.66C208.139 267.02 208.219 267.428 208.219 267.884V272H207.007V268.196C207.007 267.644 206.899 267.228 206.683 266.948C206.475 266.668 206.159 266.528 205.735 266.528C205.439 266.528 205.171 266.592 204.931 266.72C204.699 266.848 204.511 267.04 204.367 267.296C204.223 267.544 204.151 267.852 204.151 268.22V272H202.939ZM213.806 272C213.158 272 212.674 271.852 212.354 271.556C212.042 271.252 211.886 270.788 211.886 270.164V264.116H213.098V270.104C213.098 270.4 213.166 270.62 213.302 270.764C213.446 270.908 213.658 270.98 213.938 270.98H215.582V272H213.806ZM209.87 266.636V265.616H215.582V266.636H209.87Z" fill="#929292"/>
<path d="M294.436 231V222.48H299.668V223.668H295.696V226.152H299.524V227.304H295.696V229.812H299.764V231H294.436ZM301.259 231L303.587 227.724L301.379 224.616H302.747L304.307 226.896L305.831 224.616H307.223L305.027 227.748L307.331 231H305.951L304.307 228.552L302.651 231H301.259ZM308.874 232.8V224.616H310.026L310.05 226.068L309.906 225.996C310.066 225.5 310.326 225.124 310.686 224.868C311.054 224.604 311.486 224.472 311.982 224.472C312.598 224.472 313.102 224.628 313.494 224.94C313.886 225.244 314.178 225.648 314.37 226.152C314.562 226.656 314.658 227.208 314.658 227.808C314.658 228.408 314.562 228.96 314.37 229.464C314.178 229.968 313.886 230.376 313.494 230.688C313.102 230.992 312.598 231.144 311.982 231.144C311.654 231.144 311.35 231.092 311.07 230.988C310.79 230.876 310.55 230.72 310.35 230.52C310.158 230.312 310.018 230.064 309.93 229.776L310.086 229.608V232.8H308.874ZM311.754 230.028C312.266 230.028 312.666 229.836 312.954 229.452C313.242 229.068 313.386 228.52 313.386 227.808C313.386 227.096 313.242 226.548 312.954 226.164C312.666 225.78 312.266 225.588 311.754 225.588C311.418 225.588 311.126 225.672 310.878 225.84C310.63 226 310.434 226.244 310.29 226.572C310.154 226.9 310.086 227.312 310.086 227.808C310.086 228.304 310.154 228.716 310.29 229.044C310.426 229.372 310.618 229.62 310.866 229.788C311.122 229.948 311.418 230.028 311.754 230.028ZM319.01 231.144C318.41 231.144 317.886 231.008 317.438 230.736C316.998 230.464 316.654 230.076 316.406 229.572C316.166 229.068 316.046 228.48 316.046 227.808C316.046 227.136 316.166 226.552 316.406 226.056C316.654 225.56 316.994 225.172 317.426 224.892C317.866 224.612 318.382 224.472 318.974 224.472C319.542 224.472 320.042 224.608 320.474 224.88C320.906 225.144 321.242 225.528 321.482 226.032C321.73 226.528 321.854 227.128 321.854 227.832V228.168H317.318C317.358 228.776 317.526 229.24 317.822 229.56C318.126 229.872 318.526 230.028 319.022 230.028C319.398 230.028 319.71 229.94 319.958 229.764C320.206 229.58 320.378 229.344 320.474 229.056L321.746 229.14C321.562 229.748 321.23 230.236 320.75 230.604C320.278 230.964 319.698 231.144 319.01 231.144ZM317.318 227.196H320.546C320.498 226.652 320.33 226.248 320.042 225.984C319.762 225.72 319.406 225.588 318.974 225.588C318.526 225.588 318.158 225.724 317.87 225.996C317.582 226.268 317.398 226.668 317.318 227.196ZM325.269 231V224.616H326.229L326.337 226.248L326.229 226.236C326.309 225.684 326.481 225.276 326.745 225.012C327.009 224.748 327.373 224.616 327.837 224.616H329.193V225.672H327.885C327.581 225.672 327.325 225.732 327.117 225.852C326.909 225.964 326.749 226.136 326.637 226.368C326.533 226.592 326.481 226.872 326.481 227.208V231H325.269ZM323.649 231V229.98H328.473V231H323.649ZM323.649 225.636V224.616H325.953V225.636H323.649ZM333.364 231V224.616H334.588V231H333.364ZM330.868 231V229.98H336.724V231H330.868ZM330.988 225.636V224.616H334.48V225.636H330.988ZM333.292 223.692V222.432H334.54V223.692H333.292ZM337.704 231V224.616H338.76L338.808 226.056L338.676 226.02C338.756 225.532 338.912 225.152 339.144 224.88C339.384 224.608 339.684 224.472 340.044 224.472C340.428 224.472 340.716 224.608 340.908 224.88C341.108 225.152 341.232 225.556 341.28 226.092H341.148C341.22 225.58 341.384 225.184 341.64 224.904C341.896 224.616 342.216 224.472 342.6 224.472C343.104 224.472 343.468 224.648 343.692 225C343.924 225.344 344.04 225.908 344.04 226.692V231H342.864V226.896C342.864 226.384 342.808 226.028 342.696 225.828C342.592 225.628 342.428 225.528 342.204 225.528C342.06 225.528 341.928 225.576 341.808 225.672C341.696 225.768 341.608 225.92 341.544 226.128C341.48 226.328 341.448 226.592 341.448 226.92V231H340.296V226.896C340.296 226.4 340.244 226.048 340.14 225.84C340.044 225.632 339.88 225.528 339.648 225.528C339.496 225.528 339.364 225.576 339.252 225.672C339.14 225.768 339.048 225.92 338.976 226.128C338.912 226.328 338.88 226.592 338.88 226.92V231H337.704ZM348.271 231.144C347.671 231.144 347.147 231.008 346.699 230.736C346.259 230.464 345.915 230.076 345.667 229.572C345.427 229.068 345.307 228.48 345.307 227.808C345.307 227.136 345.427 226.552 345.667 226.056C345.915 225.56 346.255 225.172 346.687 224.892C347.127 224.612 347.643 224.472 348.235 224.472C348.803 224.472 349.303 224.608 349.735 224.88C350.167 225.144 350.503 225.528 350.743 226.032C350.991 226.528 351.115 227.128 351.115 227.832V228.168H346.579C346.619 228.776 346.787 229.24 347.083 229.56C347.387 229.872 347.787 230.028 348.283 230.028C348.659 230.028 348.971 229.94 349.219 229.764C349.467 229.58 349.639 229.344 349.735 229.056L351.007 229.14C350.823 229.748 350.491 230.236 350.011 230.604C349.539 230.964 348.959 231.144 348.271 231.144ZM346.579 227.196H349.807C349.759 226.652 349.591 226.248 349.303 225.984C349.023 225.72 348.667 225.588 348.235 225.588C347.787 225.588 347.419 225.724 347.131 225.996C346.843 226.268 346.659 226.668 346.579 227.196ZM352.862 231V224.616H353.978L354.014 226.284L353.882 226.188C353.962 225.796 354.102 225.476 354.302 225.228C354.51 224.972 354.762 224.784 355.058 224.664C355.354 224.536 355.67 224.472 356.006 224.472C356.486 224.472 356.882 224.58 357.194 224.796C357.506 225.004 357.742 225.292 357.902 225.66C358.062 226.02 358.142 226.428 358.142 226.884V231H356.93V227.196C356.93 226.644 356.822 226.228 356.606 225.948C356.398 225.668 356.082 225.528 355.658 225.528C355.362 225.528 355.094 225.592 354.854 225.72C354.622 225.848 354.434 226.04 354.29 226.296C354.146 226.544 354.074 226.852 354.074 227.22V231H352.862ZM363.73 231C363.082 231 362.598 230.852 362.278 230.556C361.966 230.252 361.81 229.788 361.81 229.164V223.116H363.022V229.104C363.022 229.4 363.09 229.62 363.226 229.764C363.37 229.908 363.582 229.98 363.862 229.98H365.506V231H363.73ZM359.794 225.636V224.616H365.506V225.636H359.794ZM374.844 231V222.48H377.316C378.252 222.48 378.964 222.684 379.452 223.092C379.94 223.5 380.184 224.068 380.184 224.796C380.184 225.148 380.104 225.464 379.944 225.744C379.784 226.016 379.548 226.236 379.236 226.404C378.932 226.564 378.568 226.648 378.144 226.656V226.584C378.664 226.584 379.1 226.672 379.452 226.848C379.812 227.016 380.084 227.256 380.268 227.568C380.452 227.872 380.544 228.228 380.544 228.636C380.544 229.388 380.284 229.972 379.764 230.388C379.252 230.796 378.532 231 377.604 231H374.844ZM376.104 229.824H377.616C378.168 229.824 378.576 229.716 378.84 229.5C379.104 229.276 379.236 228.968 379.236 228.576C379.236 228.16 379.096 227.836 378.816 227.604C378.544 227.372 378.144 227.256 377.616 227.256H376.104V229.824ZM376.104 226.092H377.34C377.868 226.092 378.256 225.988 378.504 225.78C378.752 225.564 378.876 225.264 378.876 224.88C378.876 224.488 378.752 224.188 378.504 223.98C378.256 223.764 377.868 223.656 377.34 223.656H376.104V226.092ZM383.792 231V224.616H384.752L384.86 226.248L384.752 226.236C384.832 225.684 385.004 225.276 385.268 225.012C385.532 224.748 385.896 224.616 386.36 224.616H387.716V225.672H386.408C386.104 225.672 385.848 225.732 385.64 225.852C385.432 225.964 385.272 226.136 385.16 226.368C385.056 226.592 385.004 226.872 385.004 227.208V231H383.792ZM382.172 231V229.98H386.996V231H382.172ZM382.172 225.636V224.616H384.476V225.636H382.172ZM391.215 231.144C390.815 231.144 390.455 231.072 390.135 230.928C389.815 230.784 389.559 230.58 389.367 230.316C389.183 230.052 389.091 229.744 389.091 229.392C389.091 228.848 389.255 228.424 389.583 228.12C389.919 227.816 390.423 227.6 391.095 227.472L393.159 227.04C393.159 226.544 393.051 226.172 392.835 225.924C392.619 225.676 392.295 225.552 391.863 225.552C391.463 225.552 391.151 225.644 390.927 225.828C390.703 226.012 390.551 226.268 390.471 226.596L389.199 226.512C389.319 225.904 389.611 225.412 390.075 225.036C390.539 224.66 391.135 224.472 391.863 224.472C392.679 224.472 393.299 224.704 393.723 225.168C394.155 225.632 394.371 226.272 394.371 227.088V229.608C394.371 229.752 394.403 229.856 394.467 229.92C394.531 229.976 394.623 230.004 394.743 230.004H395.103V231C395.055 231.008 394.975 231.016 394.863 231.024C394.759 231.032 394.655 231.036 394.551 231.036C394.263 231.036 394.019 230.988 393.819 230.892C393.619 230.796 393.467 230.648 393.363 230.448C393.267 230.24 393.211 229.98 393.195 229.668H393.387C393.339 229.948 393.215 230.2 393.015 230.424C392.815 230.648 392.559 230.824 392.247 230.952C391.935 231.08 391.591 231.144 391.215 231.144ZM391.395 230.148C391.779 230.148 392.103 230.08 392.367 229.944C392.631 229.808 392.827 229.616 392.955 229.368C393.091 229.12 393.159 228.828 393.159 228.492V228L391.383 228.36C390.999 228.432 390.731 228.544 390.579 228.696C390.427 228.848 390.351 229.048 390.351 229.296C390.351 229.56 390.443 229.768 390.627 229.92C390.811 230.072 391.067 230.148 391.395 230.148ZM396.754 231V224.616H397.87L397.906 226.284L397.774 226.188C397.854 225.796 397.994 225.476 398.194 225.228C398.402 224.972 398.654 224.784 398.95 224.664C399.246 224.536 399.562 224.472 399.898 224.472C400.378 224.472 400.774 224.58 401.086 224.796C401.398 225.004 401.634 225.292 401.794 225.66C401.954 226.02 402.034 226.428 402.034 226.884V231H400.822V227.196C400.822 226.644 400.714 226.228 400.498 225.948C400.29 225.668 399.974 225.528 399.55 225.528C399.254 225.528 398.986 225.592 398.746 225.72C398.514 225.848 398.326 226.04 398.182 226.296C398.038 226.544 397.966 226.852 397.966 227.22V231H396.754ZM406.854 231.144C406.262 231.144 405.738 231.008 405.282 230.736C404.834 230.456 404.486 230.068 404.238 229.572C403.998 229.068 403.878 228.48 403.878 227.808C403.878 227.136 403.998 226.552 404.238 226.056C404.486 225.56 404.834 225.172 405.282 224.892C405.738 224.612 406.262 224.472 406.854 224.472C407.342 224.472 407.778 224.564 408.162 224.748C408.546 224.924 408.862 225.184 409.11 225.528C409.358 225.872 409.522 226.284 409.602 226.764L408.366 226.848C408.27 226.44 408.09 226.128 407.826 225.912C407.562 225.696 407.242 225.588 406.866 225.588C406.33 225.588 405.906 225.788 405.594 226.188C405.29 226.58 405.138 227.12 405.138 227.808C405.138 228.496 405.29 229.04 405.594 229.44C405.906 229.832 406.33 230.028 406.866 230.028C407.25 230.028 407.578 229.916 407.85 229.692C408.13 229.46 408.314 229.12 408.402 228.672L409.638 228.744C409.558 229.232 409.39 229.656 409.134 230.016C408.878 230.368 408.554 230.644 408.162 230.844C407.778 231.044 407.342 231.144 406.854 231.144ZM411.541 231V222.48H412.753V226.008L412.633 225.96C412.713 225.616 412.849 225.336 413.041 225.12C413.233 224.896 413.465 224.732 413.737 224.628C414.009 224.524 414.309 224.472 414.637 224.472C415.085 224.472 415.461 224.576 415.765 224.784C416.077 224.984 416.309 225.268 416.461 225.636C416.621 225.996 416.701 226.412 416.701 226.884V231H415.489V227.196C415.489 226.62 415.385 226.2 415.177 225.936C414.977 225.664 414.677 225.528 414.277 225.528C413.821 225.528 413.453 225.672 413.173 225.96C412.893 226.248 412.753 226.672 412.753 227.232V231H411.541Z" fill="#FF611A"/>
<rect width="180.296" height="180.296" transform="matrix(0.898794 0.438371 -0.857167 0.515038 161.543 50)" fill="white"/>
<path d="M161.543 50.001L323.592 129.038" stroke="black" stroke-opacity="0.1" stroke-width="0.964149"/>
<path d="M147.492 58.4424L309.541 137.479" stroke="black" stroke-opacity="0.1" stroke-width="0.964149"/>
<path d="M133.445 66.8848L295.494 145.921" stroke="black" stroke-opacity="0.1" stroke-width="0.964149"/>
<path d="M119.395 75.3262L281.443 154.363" stroke="black" stroke-opacity="0.1" stroke-width="0.964149"/>
<path d="M105.344 83.7676L267.393 162.804" stroke="black" stroke-opacity="0.1" stroke-width="0.964149"/>
<path d="M91.2969 92.21L253.346 171.246" stroke="black" stroke-opacity="0.1" stroke-width="0.964149"/>
<path d="M77.2461 100.651L239.295 179.688" stroke="black" stroke-opacity="0.1" stroke-width="0.964149"/>
<path d="M63.1953 109.093L225.244 188.129" stroke="black" stroke-opacity="0.1" stroke-width="0.964149"/>
<path d="M49.1484 117.535L211.197 196.572" stroke="black" stroke-opacity="0.1" stroke-width="0.964149"/>
<path d="M35.0977 125.977L197.147 205.013" stroke="black" stroke-opacity="0.1" stroke-width="0.964149"/>
<path d="M21.0469 134.419L183.096 213.455" stroke="black" stroke-opacity="0.1" stroke-width="0.964149"/>
<path d="M7 142.86L169.049 221.897" stroke="black" stroke-width="0.964149" stroke-linecap="round"/>
<path d="M7 142.86L88.0263 182.38" stroke="black" stroke-width="0.964149" stroke-linecap="square"/>
<path d="M323.598 129.037L169.054 221.896" stroke="black" stroke-width="0.964149"/>
<path d="M323.598 129.037L246.324 175.468" stroke="#EDEDED" stroke-width="0.964149"/>
<path d="M308.867 121.852L154.323 214.711" stroke="black" stroke-opacity="0.1" stroke-width="0.964149"/>
<path d="M294.133 114.667L139.589 207.526" stroke="black" stroke-opacity="0.1" stroke-width="0.964149"/>
<path d="M279.402 107.481L124.859 200.341" stroke="black" stroke-opacity="0.1" stroke-width="0.964149"/>
<path d="M264.672 100.297L110.128 193.156" stroke="black" stroke-opacity="0.1" stroke-width="0.964149"/>
<path d="M249.938 93.1113L95.3937 185.971" stroke="black" stroke-opacity="0.1" stroke-width="0.964149"/>
<path d="M235.207 85.9258L80.6632 178.785" stroke="black" stroke-opacity="0.1" stroke-width="0.964149"/>
<path d="M220.477 78.7412L65.9328 171.6" stroke="black" stroke-opacity="0.1" stroke-width="0.964149"/>
<path d="M205.742 71.5557L51.1984 164.415" stroke="black" stroke-opacity="0.1" stroke-width="0.964149"/>
<path d="M191.012 64.3711L36.4679 157.23" stroke="black" stroke-opacity="0.1" stroke-width="0.964149"/>
<path d="M176.281 57.1855L21.7374 150.045" stroke="black" stroke-opacity="0.1" stroke-width="0.964149"/>
<path d="M161.547 50.001L7.00307 142.86" stroke="black" stroke-opacity="0.1" stroke-width="0.964149"/>
<path d="M98.5021 140.706L133.165 157.612L163.743 139.239L147.278 131.208L153.477 127.484L139.014 136.174L148.979 141.035L149.561 154.364L157.413 149.646L176.044 158.733L184.721 153.519L202.498 152.743L212.002 147.032L184.272 133.507L195.015 127.052L204.114 131.49L208.66 128.759L188.295 118.826L167.221 131.489" stroke="black" stroke-width="0.964149"/>
<rect x="0.0200672" y="0.459614" width="4.82075" height="4.82075" rx="2.41037" transform="matrix(0.898794 0.438371 -0.857167 0.515038 167.912 128.697)" fill="white" stroke="black" stroke-width="0.964149"/>
<rect x="0.0200672" y="0.459614" width="4.82075" height="4.82075" rx="2.41037" transform="matrix(0.898794 0.438371 -0.857167 0.515038 154.994 124.196)" fill="white" stroke="black" stroke-width="0.964149"/>
<rect x="0.0200672" y="0.459614" width="4.82075" height="4.82075" rx="2.41037" transform="matrix(0.898794 0.438371 -0.857167 0.515038 176.755 156.401)" fill="white" stroke="black" stroke-width="0.964149"/>
<rect x="0.0200672" y="0.459614" width="4.82075" height="4.82075" rx="2.41037" transform="matrix(0.898794 0.438371 -0.857167 0.515038 97.9155 137.739)" fill="white" stroke="black" stroke-width="0.964149"/>
<mask id="path-34-inside-1_1451_1428" fill="white">
<path d="M202.766 139.377L207.098 141.49L201.313 144.966L196.981 142.853L202.766 139.377Z"/>
</mask>
<path d="M202.766 139.377L207.098 141.49L201.313 144.966L196.981 142.853L202.766 139.377Z" fill="white"/>
<path d="M207.098 141.49L206.232 141.068L200.447 144.544L201.313 144.966L202.18 145.389L207.965 141.913L207.098 141.49ZM196.981 142.853L197.847 143.276L203.632 139.8L202.766 139.377L201.899 138.954L196.114 142.43L196.981 142.853Z" fill="black" mask="url(#path-34-inside-1_1451_1428)"/>
<mask id="path-36-inside-2_1451_1428" fill="white">
<path d="M193.234 134.728L197.567 136.841L191.782 140.317L187.449 138.204L193.234 134.728Z"/>
</mask>
<path d="M193.234 134.728L197.567 136.841L191.782 140.317L187.449 138.204L193.234 134.728Z" fill="white"/>
<path d="M197.567 136.841L196.701 136.418L190.916 139.894L191.782 140.317L192.649 140.739L198.434 137.263L197.567 136.841ZM187.449 138.204L188.316 138.626L194.101 135.15L193.234 134.728L192.368 134.305L186.583 137.781L187.449 138.204Z" fill="black" mask="url(#path-36-inside-2_1451_1428)"/>
<mask id="path-38-inside-3_1451_1428" fill="white">
<path d="M166.785 150.618L171.118 152.731L165.333 156.207L161 154.094L166.785 150.618Z"/>
</mask>
<path d="M166.785 150.618L171.118 152.731L165.333 156.207L161 154.094L166.785 150.618Z" fill="white"/>
<path d="M171.118 152.731L170.251 152.309L164.466 155.785L165.333 156.207L166.2 156.63L171.985 153.154L171.118 152.731ZM161 154.094L161.867 154.517L167.652 151.041L166.785 150.618L165.919 150.196L160.134 153.672L161 154.094Z" fill="black" mask="url(#path-38-inside-3_1451_1428)"/>
<g filter="url(#filter0_d_1451_1428)">
<rect width="180.296" height="180.296" transform="matrix(0.898794 0.438371 -0.857167 0.515038 348.543 9)" fill="white"/>
<path d="M348.547 9L510.596 88.0365" stroke="black" stroke-opacity="0.1" stroke-width="0.964149"/>
<path d="M334.496 17.4414L496.545 96.4779" stroke="black" stroke-opacity="0.1" stroke-width="0.964149"/>
<path d="M320.449 25.8838L482.498 104.92" stroke="black" stroke-opacity="0.1" stroke-width="0.964149"/>
<path d="M306.398 34.3252L468.447 113.362" stroke="black" stroke-opacity="0.1" stroke-width="0.964149"/>
<path d="M292.348 42.7666L454.397 121.803" stroke="black" stroke-opacity="0.1" stroke-width="0.964149"/>
<path d="M278.301 51.209L440.35 130.246" stroke="black" stroke-opacity="0.1" stroke-width="0.964149"/>
<path d="M264.25 59.6504L426.299 138.687" stroke="black" stroke-opacity="0.1" stroke-width="0.964149"/>
<path d="M250.199 68.0918L412.248 147.128" stroke="black" stroke-opacity="0.1" stroke-width="0.964149"/>
<path d="M236.152 76.5342L398.201 155.571" stroke="black" stroke-opacity="0.1" stroke-width="0.964149"/>
<path d="M222.102 84.9756L384.15 164.012" stroke="black" stroke-opacity="0.1" stroke-width="0.964149"/>
<path d="M208.051 93.418L370.1 172.455" stroke="black" stroke-opacity="0.1" stroke-width="0.964149"/>
<path d="M194.004 101.859L356.053 180.896" stroke="black" stroke-width="0.964149"/>
<path d="M194.004 101.859L275.03 141.379" stroke="black" stroke-width="0.964149"/>
<path d="M510.594 88.0371L356.05 180.896" stroke="black" stroke-width="0.964149"/>
<path d="M510.594 88.0371L433.32 134.468" stroke="#EDEDED" stroke-width="0.964149"/>
<path d="M495.863 80.8516L341.319 173.711" stroke="black" stroke-opacity="0.1" stroke-width="0.964149"/>
<path d="M481.129 73.667L326.585 166.526" stroke="black" stroke-opacity="0.1" stroke-width="0.964149"/>
<path d="M466.398 66.4814L311.855 159.341" stroke="black" stroke-opacity="0.1" stroke-width="0.964149"/>
<path d="M451.668 59.2969L297.124 152.156" stroke="black" stroke-opacity="0.1" stroke-width="0.964149"/>
<path d="M436.934 52.1113L282.39 144.971" stroke="black" stroke-opacity="0.1" stroke-width="0.964149"/>
<path d="M422.203 44.9258L267.659 137.785" stroke="black" stroke-opacity="0.1" stroke-width="0.964149"/>
<path d="M407.473 37.7412L252.929 130.6" stroke="black" stroke-opacity="0.1" stroke-width="0.964149"/>
<path d="M392.738 30.5557L238.194 123.415" stroke="black" stroke-opacity="0.1" stroke-width="0.964149"/>
<path d="M378.008 23.3711L223.464 116.23" stroke="black" stroke-opacity="0.1" stroke-width="0.964149"/>
<path d="M363.277 16.1855L208.734 109.045" stroke="black" stroke-opacity="0.1" stroke-width="0.964149"/>
<path d="M348.543 9.00098L193.999 101.86" stroke="black" stroke-opacity="0.1" stroke-width="0.964149"/>
<path d="M285.505 99.7062L302.836 108.159M374.977 70.4728L375.298 77.8266L395.662 87.759L391.117 90.4902L382.018 86.0523L371.274 92.5078L399.005 106.033L389.501 111.743L371.724 112.519L363.046 117.733L344.415 108.646L336.564 113.364L335.982 100.035L326.016 95.1745L340.479 86.4845L334.281 90.2088L350.746 98.2392L320.168 116.612L313.668 113.443M374.977 70.4728L374.536 60.3612L381.147 56.3887L390.679 61.0379L374.977 70.4728ZM302.836 108.159L291.679 114.863L302.511 120.146L313.668 113.443M302.836 108.159L313.668 113.443" stroke="black" stroke-width="0.964149"/>
<path d="M291.679 114.863L302.836 108.159L313.668 113.442L302.511 120.146L291.679 114.863Z" stroke="#FF611A" stroke-width="0.964149"/>
<path d="M375.299 77.8266L374.978 70.4728M374.978 70.4728L374.537 60.3613L381.148 56.3887L390.681 61.0379L374.978 70.4728Z" stroke="#FF611A" stroke-width="0.964149"/>
<rect x="0.0200672" y="0.459614" width="4.82075" height="4.82075" rx="2.41037" transform="matrix(0.898794 0.438371 -0.857167 0.515038 341.994 83.1965)" fill="white" stroke="black" stroke-width="0.964149"/>
<rect x="0.0200672" y="0.459614" width="4.82075" height="4.82075" rx="2.41037" transform="matrix(0.898794 0.438371 -0.857167 0.515038 363.755 115.402)" fill="white" stroke="black" stroke-width="0.964149"/>
<rect x="0.0200672" y="0.459614" width="4.82075" height="4.82075" rx="2.41037" transform="matrix(0.898794 0.438371 -0.857167 0.515038 284.912 96.7405)" fill="white" stroke="black" stroke-width="0.964149"/>
<mask id="path-72-inside-4_1451_1428" fill="white">
<path d="M389.766 98.3779L394.098 100.491L388.313 103.967L383.981 101.854L389.766 98.3779Z"/>
</mask>
<path d="M389.766 98.3779L394.098 100.491L388.313 103.967L383.981 101.854L389.766 98.3779Z" fill="white"/>
<path d="M394.098 100.491L393.232 100.069L387.447 103.545L388.313 103.967L389.18 104.39L394.965 100.914L394.098 100.491ZM383.981 101.854L384.847 102.277L390.632 98.8006L389.766 98.3779L388.899 97.9553L383.114 101.431L383.981 101.854Z" fill="black" mask="url(#path-72-inside-4_1451_1428)"/>
<mask id="path-74-inside-5_1451_1428" fill="white">
<path d="M380.23 93.7285L384.563 95.8418L378.778 99.3178L374.445 97.2045L380.23 93.7285Z"/>
</mask>
<path d="M380.23 93.7285L384.563 95.8418L378.778 99.3178L374.445 97.2045L380.23 93.7285Z" fill="white"/>
<path d="M384.563 95.8418L383.697 95.4191L377.912 98.8952L378.778 99.3178L379.645 99.7405L385.43 96.2644L384.563 95.8418ZM374.445 97.2045L375.312 97.6272L381.097 94.1512L380.23 93.7285L379.364 93.3059L373.579 96.7819L374.445 97.2045Z" fill="black" mask="url(#path-74-inside-5_1451_1428)"/>
<mask id="path-76-inside-6_1451_1428" fill="white">
<path d="M387.051 55.6709L391.384 57.7842L385.599 61.2602L381.266 59.1469L387.051 55.6709Z"/>
</mask>
<path d="M387.051 55.6709L391.384 57.7842L385.599 61.2602L381.266 59.1469L387.051 55.6709Z" fill="white"/>
<path d="M391.384 57.7842L390.517 57.3615L384.732 60.8375L385.599 61.2602L386.465 61.6828L392.25 58.2068L391.384 57.7842ZM381.266 59.1469L382.132 59.5696L387.917 56.0936L387.051 55.6709L386.184 55.2482L380.399 58.7243L381.266 59.1469Z" fill="#FF611A" mask="url(#path-76-inside-6_1451_1428)"/>
<mask id="path-78-inside-7_1451_1428" fill="white">
<path d="M298.039 114.815L302.372 116.929L296.587 120.405L292.254 118.291L298.039 114.815Z"/>
</mask>
<path d="M298.039 114.815L302.372 116.929L296.587 120.405L292.254 118.291L298.039 114.815Z" fill="white"/>
<path d="M302.372 116.929L301.505 116.506L295.72 119.982L296.587 120.405L297.453 120.827L303.238 117.351L302.372 116.929ZM292.254 118.291L293.121 118.714L298.906 115.238L298.039 114.815L297.172 114.393L291.387 117.869L292.254 118.291Z" fill="#FF611A" mask="url(#path-78-inside-7_1451_1428)"/>
<mask id="path-80-inside-8_1451_1428" fill="white">
<path d="M353.785 109.619L358.118 111.732L352.333 115.208L348 113.095L353.785 109.619Z"/>
</mask>
<path d="M353.785 109.619L358.118 111.732L352.333 115.208L348 113.095L353.785 109.619Z" fill="white"/>
<path d="M358.118 111.732L357.251 111.31L351.466 114.786L352.333 115.208L353.2 115.631L358.985 112.155L358.118 111.732ZM348 113.095L348.867 113.518L354.652 110.042L353.785 109.619L352.919 109.196L347.134 112.673L348 113.095Z" fill="black" mask="url(#path-80-inside-8_1451_1428)"/>
<path d="M373.645 78.8203L354.223 90.4898" stroke="#ABA9A9" stroke-width="0.964149" stroke-dasharray="1.93 1.93"/>
<rect x="0.0200672" y="0.459614" width="4.82075" height="4.82075" rx="2.41037" transform="matrix(0.898794 0.438371 -0.857167 0.515038 376.439 75.7063)" fill="white" stroke="#FF611A" stroke-width="0.964149"/>
<rect x="0.0200672" y="0.459614" width="4.82075" height="4.82075" rx="2.41037" transform="matrix(0.898794 0.438371 -0.857167 0.515038 355.74 87.2014)" fill="white" stroke="#ABA9A9" stroke-width="0.964149"/>
</g>
<path d="M169 249V222" stroke="black" stroke-linecap="round"/>
<path d="M356 208L356 181" stroke="black"/>
</g>
<defs>
<filter id="filter0_d_1451_1428" x="145.566" y="-3.24805" width="397.461" height="252.393" filterUnits="userSpaceOnUse" color-interpolation-filters="sRGB">
<feFlood flood-opacity="0" result="BackgroundImageFix"/>
<feColorMatrix in="SourceAlpha" type="matrix" values="0 0 0 0 0 0 0 0 0 0 0 0 0 0 0 0 0 0 127 0" result="hardAlpha"/>
<feOffset dx="-8" dy="28"/>
<feGaussianBlur stdDeviation="20"/>
<feComposite in2="hardAlpha" operator="out"/>
<feColorMatrix type="matrix" values="0 0 0 0 0 0 0 0 0 0 0 0 0 0 0 0 0 0 0.1 0"/>
<feBlend mode="normal" in2="BackgroundImageFix" result="effect1_dropShadow_1451_1428"/>
<feBlend mode="normal" in="SourceGraphic" in2="effect1_dropShadow_1451_1428" result="shape"/>
</filter>
<clipPath id="clip0_1451_1428">
<rect width="517" height="275" fill="white"/>
</clipPath>
</defs>
</svg>
