<svg width="146" height="168" viewBox="0 0 146 168" fill="none" xmlns="http://www.w3.org/2000/svg">
<path d="M5.13349 164V163.14C4.9186 163.459 4.64402 163.706 4.30974 163.881C3.98343 164.056 3.6014 164.143 3.16366 164.143C2.5747 164.143 2.06931 164.004 1.64749 163.725C1.23363 163.447 0.919252 163.061 0.704362 162.567C0.489472 162.074 0.382027 161.517 0.382027 160.896C0.382027 160.275 0.489472 159.718 0.704362 159.225C0.919252 158.731 1.23363 158.345 1.64749 158.067C2.06931 157.788 2.5747 157.649 3.16366 157.649C3.99139 157.649 4.6281 157.955 5.0738 158.568V155.404H6.57803V164H5.13349ZM1.91013 160.896C1.91013 161.517 2.04146 162.006 2.3041 162.364C2.5747 162.715 2.97663 162.89 3.50987 162.89C4.03516 162.89 4.42913 162.715 4.69177 162.364C4.96237 162.006 5.09767 161.517 5.09767 160.896C5.09767 160.275 4.96237 159.79 4.69177 159.44C4.42913 159.081 4.03516 158.902 3.50987 158.902C2.97663 158.902 2.5747 159.081 2.3041 159.44C2.04146 159.79 1.91013 160.275 1.91013 160.896ZM10.7501 164.143C10.1054 164.143 9.54433 164.004 9.0668 163.725C8.59722 163.447 8.23509 163.061 7.98041 162.567C7.73368 162.074 7.61032 161.517 7.61032 160.896C7.61032 160.275 7.73368 159.718 7.98041 159.225C8.23509 158.731 8.59722 158.345 9.0668 158.067C9.54433 157.788 10.1054 157.649 10.7501 157.649C11.3948 157.649 11.9519 157.788 12.4215 158.067C12.899 158.345 13.2611 158.731 13.5079 159.225C13.7625 159.718 13.8899 160.275 13.8899 160.896C13.8899 161.517 13.7625 162.074 13.5079 162.567C13.2611 163.061 12.899 163.447 12.4215 163.725C11.9519 164.004 11.3948 164.143 10.7501 164.143ZM9.13843 160.896C9.13843 161.517 9.26975 162.006 9.53239 162.364C9.803 162.715 10.2089 162.89 10.7501 162.89C11.2913 162.89 11.6932 162.715 11.9559 162.364C12.2265 162.006 12.3618 161.517 12.3618 160.896C12.3618 160.275 12.2265 159.79 11.9559 159.44C11.6932 159.081 11.2913 158.902 10.7501 158.902C10.2089 158.902 9.803 159.081 9.53239 159.44C9.26975 159.79 9.13843 160.275 9.13843 160.896ZM17.7202 164.143C17.0994 164.143 16.5582 164.004 16.0966 163.725C15.643 163.439 15.2928 163.053 15.046 162.567C14.7993 162.074 14.676 161.517 14.676 160.896C14.676 160.275 14.7993 159.722 15.046 159.237C15.2928 158.743 15.643 158.357 16.0966 158.079C16.5582 157.792 17.0994 157.649 17.7202 157.649C18.548 157.649 19.2085 157.864 19.702 158.293C20.2034 158.715 20.5019 159.288 20.5974 160.013H19.0931C19.0215 159.662 18.8663 159.392 18.6275 159.201C18.3888 159.002 18.0863 158.902 17.7202 158.902C17.2268 158.902 16.8487 159.081 16.5861 159.44C16.3314 159.798 16.2041 160.283 16.2041 160.896C16.2041 161.509 16.3314 161.994 16.5861 162.353C16.8487 162.711 17.2268 162.89 17.7202 162.89C18.0943 162.89 18.4007 162.786 18.6395 162.579C18.8783 162.372 19.0295 162.082 19.0931 161.708H20.5974C20.5019 162.44 20.2034 163.029 19.702 163.475C19.2006 163.92 18.54 164.143 17.7202 164.143ZM23.0174 161.529C23.0174 161.927 23.1129 162.245 23.3039 162.484C23.4949 162.715 23.7974 162.83 24.2112 162.83C24.5376 162.83 24.844 162.723 25.1305 162.508C25.425 162.293 25.5961 161.943 25.6438 161.457V157.792H27.1481V164H25.6916V163.152C25.4608 163.455 25.1822 163.698 24.8559 163.881C24.5296 164.056 24.1555 164.143 23.7337 164.143C23.0333 164.143 22.4881 163.924 22.0982 163.487C21.7161 163.041 21.5251 162.448 21.5251 161.708V157.792H23.0174V161.529ZM36.2105 160.263C36.2105 159.873 36.119 159.559 35.9359 159.32C35.7608 159.081 35.4982 158.962 35.148 158.962C34.8057 158.962 34.4993 159.089 34.2287 159.344C33.9581 159.591 33.8228 160.005 33.8228 160.586V164H32.3186V160.263C32.3186 159.873 32.2271 159.559 32.044 159.32C31.8689 159.081 31.6063 158.962 31.2561 158.962C30.9138 158.962 30.6074 159.089 30.3368 159.344C30.0742 159.591 29.9429 160.005 29.9429 160.586V164H28.4386V157.792H29.8951V158.652C30.0941 158.341 30.3448 158.098 30.6472 157.923C30.9576 157.74 31.3197 157.649 31.7336 157.649C32.1634 157.649 32.5335 157.752 32.8439 157.959C33.1622 158.166 33.405 158.453 33.5721 158.819C33.795 158.469 34.0775 158.186 34.4197 157.971C34.7699 157.756 35.1718 157.649 35.6255 157.649C36.2702 157.649 36.7756 157.872 37.1417 158.317C37.5157 158.755 37.7028 159.344 37.7028 160.084V164H36.2105V160.263ZM41.7951 164.143C41.1664 164.143 40.6212 164.004 40.1596 163.725C39.6979 163.439 39.3438 163.053 39.097 162.567C38.8503 162.074 38.727 161.517 38.727 160.896C38.727 160.275 38.8503 159.722 39.097 159.237C39.3438 158.743 39.6979 158.357 40.1596 158.079C40.6212 157.792 41.1664 157.649 41.7951 157.649C42.4239 157.649 42.969 157.788 43.4307 158.067C43.8923 158.345 44.2464 158.739 44.4932 159.249C44.7399 159.758 44.8633 160.347 44.8633 161.015V161.374H40.2192C40.2829 161.867 40.4501 162.257 40.7207 162.544C40.9992 162.822 41.3574 162.961 41.7951 162.961C42.5114 162.961 43.0049 162.675 43.2755 162.102H44.7439C44.5369 162.731 44.1748 163.228 43.6575 163.594C43.1402 163.96 42.5194 164.143 41.7951 164.143ZM43.3471 160.299C43.2675 159.837 43.0924 159.479 42.8218 159.225C42.5592 158.962 42.2169 158.831 41.7951 158.831C41.3733 158.831 41.0271 158.962 40.7565 159.225C40.4938 159.479 40.3187 159.837 40.2312 160.299H43.3471ZM50.0105 160.263C50.0105 159.865 49.915 159.551 49.7239 159.32C49.5329 159.081 49.2305 158.962 48.8166 158.962C48.4903 158.962 48.1799 159.069 47.8854 159.284C47.5989 159.499 47.4318 159.849 47.384 160.335V164H45.8798V157.792H47.3363V158.64C47.5671 158.337 47.8456 158.098 48.172 157.923C48.4983 157.74 48.8723 157.649 49.2942 157.649C49.9945 157.649 50.5357 157.872 50.9178 158.317C51.3078 158.755 51.5028 159.344 51.5028 160.084V164H50.0105V160.263ZM54.9183 155.882V157.792H56.4942V158.95H54.9183V162.257C54.9183 162.464 54.9621 162.615 55.0497 162.711C55.1452 162.798 55.3004 162.842 55.5152 162.842H56.4942V164H55.1452C54.5801 164 54.1503 163.885 53.8558 163.654C53.5693 163.415 53.426 163.001 53.426 162.412V158.95H52.3396V157.792H53.426V155.882H54.9183ZM57.3018 162.15H59.009V164H57.3018V162.15ZM67.91 160.263C67.91 159.873 67.8185 159.559 67.6355 159.32C67.4604 159.081 67.1977 158.962 66.8475 158.962C66.5053 158.962 66.1989 159.089 65.9283 159.344C65.6577 159.591 65.5224 160.005 65.5224 160.586V164H64.0181V160.263C64.0181 159.873 63.9266 159.559 63.7436 159.32C63.5685 159.081 63.3058 158.962 62.9556 158.962C62.6134 158.962 62.307 159.089 62.0364 159.344C61.7737 159.591 61.6424 160.005 61.6424 160.586V164H60.1382V157.792H61.5947V158.652C61.7936 158.341 62.0443 158.098 62.3468 157.923C62.6572 157.74 63.0193 157.649 63.4332 157.649C63.8629 157.649 64.233 157.752 64.5434 157.959C64.8618 158.166 65.1045 158.453 65.2717 158.819C65.4945 158.469 65.7771 158.186 66.1193 157.971C66.4695 157.756 66.8714 157.649 67.3251 157.649C67.9697 157.649 68.4751 157.872 68.8412 158.317C69.2153 158.755 69.4023 159.344 69.4023 160.084V164H67.91V160.263ZM75.178 164V163.14C74.9631 163.459 74.6885 163.706 74.3542 163.881C74.0279 164.056 73.6459 164.143 73.2082 164.143C72.6192 164.143 72.1138 164.004 71.692 163.725C71.2781 163.447 70.9637 163.061 70.7489 162.567C70.534 162.074 70.4265 161.517 70.4265 160.896C70.4265 160.275 70.534 159.718 70.7489 159.225C70.9637 158.731 71.2781 158.345 71.692 158.067C72.1138 157.788 72.6192 157.649 73.2082 157.649C74.0359 157.649 74.6726 157.955 75.1183 158.568V155.404H76.6225V164H75.178ZM71.9546 160.896C71.9546 161.517 72.086 162.006 72.3486 162.364C72.6192 162.715 73.0211 162.89 73.5544 162.89C74.0797 162.89 74.4736 162.715 74.7363 162.364C75.0069 162.006 75.1422 161.517 75.1422 160.896C75.1422 160.275 75.0069 159.79 74.7363 159.44C74.4736 159.081 74.0797 158.902 73.5544 158.902C73.0211 158.902 72.6192 159.081 72.3486 159.44C72.086 159.79 71.9546 160.275 71.9546 160.896Z" fill="#A7A7A7"/>
<path d="M67.1335 132V131.14C66.9186 131.459 66.644 131.706 66.3097 131.881C65.9834 132.056 65.6014 132.143 65.1637 132.143C64.5747 132.143 64.0693 132.004 63.6475 131.725C63.2336 131.447 62.9193 131.061 62.7044 130.567C62.4895 130.074 62.382 129.517 62.382 128.896C62.382 128.275 62.4895 127.718 62.7044 127.225C62.9193 126.731 63.2336 126.345 63.6475 126.067C64.0693 125.788 64.5747 125.649 65.1637 125.649C65.9914 125.649 66.6281 125.955 67.0738 126.568V123.404H68.578V132H67.1335ZM63.9101 128.896C63.9101 129.517 64.0415 130.006 64.3041 130.364C64.5747 130.715 64.9766 130.89 65.5099 130.89C66.0352 130.89 66.4291 130.715 66.6918 130.364C66.9624 130.006 67.0977 129.517 67.0977 128.896C67.0977 128.275 66.9624 127.79 66.6918 127.44C66.4291 127.081 66.0352 126.902 65.5099 126.902C64.9766 126.902 64.5747 127.081 64.3041 127.44C64.0415 127.79 63.9101 128.275 63.9101 128.896ZM72.7501 132.143C72.1054 132.143 71.5443 132.004 71.0668 131.725C70.5972 131.447 70.2351 131.061 69.9804 130.567C69.7337 130.074 69.6103 129.517 69.6103 128.896C69.6103 128.275 69.7337 127.718 69.9804 127.225C70.2351 126.731 70.5972 126.345 71.0668 126.067C71.5443 125.788 72.1054 125.649 72.7501 125.649C73.3948 125.649 73.9519 125.788 74.4215 126.067C74.899 126.345 75.2611 126.731 75.5079 127.225C75.7625 127.718 75.8899 128.275 75.8899 128.896C75.8899 129.517 75.7625 130.074 75.5079 130.567C75.2611 131.061 74.899 131.447 74.4215 131.725C73.9519 132.004 73.3948 132.143 72.7501 132.143ZM71.1384 128.896C71.1384 129.517 71.2697 130.006 71.5324 130.364C71.803 130.715 72.2089 130.89 72.7501 130.89C73.2913 130.89 73.6932 130.715 73.9559 130.364C74.2265 130.006 74.3618 129.517 74.3618 128.896C74.3618 128.275 74.2265 127.79 73.9559 127.44C73.6932 127.081 73.2913 126.902 72.7501 126.902C72.2089 126.902 71.803 127.081 71.5324 127.44C71.2697 127.79 71.1384 128.275 71.1384 128.896ZM79.7202 132.143C79.0994 132.143 78.5582 132.004 78.0966 131.725C77.643 131.439 77.2928 131.053 77.046 130.567C76.7993 130.074 76.676 129.517 76.676 128.896C76.676 128.275 76.7993 127.722 77.046 127.237C77.2928 126.743 77.643 126.357 78.0966 126.079C78.5582 125.792 79.0994 125.649 79.7202 125.649C80.548 125.649 81.2085 125.864 81.702 126.293C82.2034 126.715 82.5019 127.288 82.5974 128.013H81.0931C81.0215 127.662 80.8663 127.392 80.6275 127.201C80.3888 127.002 80.0863 126.902 79.7202 126.902C79.2268 126.902 78.8487 127.081 78.5861 127.44C78.3314 127.798 78.2041 128.283 78.2041 128.896C78.2041 129.509 78.3314 129.994 78.5861 130.353C78.8487 130.711 79.2268 130.89 79.7202 130.89C80.0943 130.89 80.4007 130.786 80.6395 130.579C80.8783 130.372 81.0295 130.082 81.0931 129.708H82.5974C82.5019 130.44 82.2034 131.029 81.702 131.475C81.2006 131.92 80.54 132.143 79.7202 132.143ZM85.0174 129.529C85.0174 129.927 85.1129 130.245 85.3039 130.484C85.4949 130.715 85.7974 130.83 86.2112 130.83C86.5376 130.83 86.844 130.723 87.1305 130.508C87.425 130.293 87.5961 129.943 87.6438 129.457V125.792H89.1481V132H87.6916V131.152C87.4608 131.455 87.1822 131.698 86.8559 131.881C86.5296 132.056 86.1555 132.143 85.7337 132.143C85.0333 132.143 84.4881 131.924 84.0982 131.487C83.7161 131.041 83.5251 130.448 83.5251 129.708V125.792H85.0174V129.529ZM98.2105 128.263C98.2105 127.873 98.119 127.559 97.9359 127.32C97.7608 127.081 97.4982 126.962 97.148 126.962C96.8057 126.962 96.4993 127.089 96.2287 127.344C95.9581 127.591 95.8228 128.005 95.8228 128.586V132H94.3186V128.263C94.3186 127.873 94.2271 127.559 94.044 127.32C93.8689 127.081 93.6063 126.962 93.2561 126.962C92.9138 126.962 92.6074 127.089 92.3368 127.344C92.0742 127.591 91.9429 128.005 91.9429 128.586V132H90.4386V125.792H91.8951V126.652C92.0941 126.341 92.3448 126.098 92.6472 125.923C92.9576 125.74 93.3197 125.649 93.7336 125.649C94.1634 125.649 94.5335 125.752 94.8439 125.959C95.1622 126.166 95.405 126.453 95.5721 126.819C95.795 126.469 96.0775 126.186 96.4197 125.971C96.7699 125.756 97.1718 125.649 97.6255 125.649C98.2702 125.649 98.7756 125.872 99.1417 126.317C99.5157 126.755 99.7028 127.344 99.7028 128.084V132H98.2105V128.263ZM103.795 132.143C103.166 132.143 102.621 132.004 102.16 131.725C101.698 131.439 101.344 131.053 101.097 130.567C100.85 130.074 100.727 129.517 100.727 128.896C100.727 128.275 100.85 127.722 101.097 127.237C101.344 126.743 101.698 126.357 102.16 126.079C102.621 125.792 103.166 125.649 103.795 125.649C104.424 125.649 104.969 125.788 105.431 126.067C105.892 126.345 106.246 126.739 106.493 127.249C106.74 127.758 106.863 128.347 106.863 129.015V129.374H102.219C102.283 129.867 102.45 130.257 102.721 130.544C102.999 130.822 103.357 130.961 103.795 130.961C104.511 130.961 105.005 130.675 105.275 130.102H106.744C106.537 130.731 106.175 131.228 105.657 131.594C105.14 131.96 104.519 132.143 103.795 132.143ZM105.347 128.299C105.268 127.837 105.092 127.479 104.822 127.225C104.559 126.962 104.217 126.831 103.795 126.831C103.373 126.831 103.027 126.962 102.756 127.225C102.494 127.479 102.319 127.837 102.231 128.299H105.347ZM112.01 128.263C112.01 127.865 111.915 127.551 111.724 127.32C111.533 127.081 111.23 126.962 110.817 126.962C110.49 126.962 110.18 127.069 109.885 127.284C109.599 127.499 109.432 127.849 109.384 128.335V132H107.88V125.792H109.336V126.64C109.567 126.337 109.846 126.098 110.172 125.923C110.498 125.74 110.872 125.649 111.294 125.649C111.995 125.649 112.536 125.872 112.918 126.317C113.308 126.755 113.503 127.344 113.503 128.084V132H112.01V128.263ZM116.918 123.882V125.792H118.494V126.95H116.918V130.257C116.918 130.464 116.962 130.615 117.05 130.711C117.145 130.798 117.3 130.842 117.515 130.842H118.494V132H117.145C116.58 132 116.15 131.885 115.856 131.654C115.569 131.415 115.426 131.001 115.426 130.412V126.95H114.34V125.792H115.426V123.882H116.918ZM119.302 130.15H121.009V132H119.302V130.15ZM129.91 128.263C129.91 127.873 129.819 127.559 129.635 127.32C129.46 127.081 129.198 126.962 128.848 126.962C128.505 126.962 128.199 127.089 127.928 127.344C127.658 127.591 127.522 128.005 127.522 128.586V132H126.018V128.263C126.018 127.873 125.927 127.559 125.744 127.32C125.568 127.081 125.306 126.962 124.956 126.962C124.613 126.962 124.307 127.089 124.036 127.344C123.774 127.591 123.642 128.005 123.642 128.586V132H122.138V125.792H123.595V126.652C123.794 126.341 124.044 126.098 124.347 125.923C124.657 125.74 125.019 125.649 125.433 125.649C125.863 125.649 126.233 125.752 126.543 125.959C126.862 126.166 127.105 126.453 127.272 126.819C127.495 126.469 127.777 126.186 128.119 125.971C128.469 125.756 128.871 125.649 129.325 125.649C129.97 125.649 130.475 125.872 130.841 126.317C131.215 126.755 131.402 127.344 131.402 128.084V132H129.91V128.263ZM137.178 132V131.14C136.963 131.459 136.689 131.706 136.354 131.881C136.028 132.056 135.646 132.143 135.208 132.143C134.619 132.143 134.114 132.004 133.692 131.725C133.278 131.447 132.964 131.061 132.749 130.567C132.534 130.074 132.427 129.517 132.427 128.896C132.427 128.275 132.534 127.718 132.749 127.225C132.964 126.731 133.278 126.345 133.692 126.067C134.114 125.788 134.619 125.649 135.208 125.649C136.036 125.649 136.673 125.955 137.118 126.568V123.404H138.623V132H137.178ZM133.955 128.896C133.955 129.517 134.086 130.006 134.349 130.364C134.619 130.715 135.021 130.89 135.554 130.89C136.08 130.89 136.474 130.715 136.736 130.364C137.007 130.006 137.142 129.517 137.142 128.896C137.142 128.275 137.007 127.79 136.736 127.44C136.474 127.081 136.08 126.902 135.554 126.902C135.021 126.902 134.619 127.081 134.349 127.44C134.086 127.79 133.955 128.275 133.955 128.896Z" fill="#A7A7A7"/>
<path d="M30.5014 13.1496H32.2086V15H30.5014V13.1496ZM34.842 6.40439V13.257C34.842 13.4639 34.8858 13.6152 34.9733 13.7107C35.0609 13.7982 35.2161 13.842 35.4389 13.842H36.2507V15H35.0569C34.4918 15 34.0621 14.8846 33.7676 14.6538C33.4811 14.415 33.3378 14.0012 33.3378 13.4122V6.40439H34.842ZM40.0139 15.1433C39.3852 15.1433 38.84 15.004 38.3784 14.7254C37.9168 14.4389 37.5626 14.0529 37.3159 13.5674C37.0691 13.0739 36.9458 12.5168 36.9458 11.896C36.9458 11.2752 37.0691 10.7221 37.3159 10.2366C37.5626 9.74315 37.9168 9.35714 38.3784 9.07858C38.84 8.79206 39.3852 8.6488 40.0139 8.6488C40.6427 8.6488 41.1879 8.78808 41.6495 9.06664C42.1111 9.34521 42.4653 9.73917 42.712 10.2485C42.9587 10.7579 43.0821 11.3469 43.0821 12.0154V12.3736H38.4381C38.5017 12.867 38.6689 13.257 38.9395 13.5435C39.218 13.8221 39.5762 13.9614 40.0139 13.9614C40.7302 13.9614 41.2237 13.6748 41.4943 13.1018H42.9627C42.7558 13.7306 42.3936 14.228 41.8763 14.5941C41.359 14.9602 40.7382 15.1433 40.0139 15.1433ZM41.5659 11.2991C41.4863 10.8375 41.3112 10.4793 41.0406 10.2247C40.778 9.96202 40.4358 9.8307 40.0139 9.8307C39.5921 9.8307 39.2459 9.96202 38.9753 10.2247C38.7127 10.4793 38.5376 10.8375 38.45 11.2991H41.5659ZM46.8922 17.5309C46.0326 17.5309 45.3601 17.3399 44.8746 16.9579C44.3971 16.5759 44.1344 16.0466 44.0867 15.3701H45.5551C45.6426 16.0307 46.1043 16.361 46.9399 16.361C47.9985 16.361 48.5277 15.8516 48.5277 14.8329V14.0927C48.082 14.6896 47.4453 14.9881 46.6176 14.9881C46.0287 14.9881 45.5233 14.8528 45.1014 14.5822C44.6876 14.3036 44.3732 13.9255 44.1583 13.448C43.9434 12.9705 43.836 12.4253 43.836 11.8125C43.836 11.2076 43.9434 10.6664 44.1583 10.1888C44.3732 9.70336 44.6876 9.32531 45.1014 9.05471C45.5233 8.7841 46.0287 8.6488 46.6176 8.6488C47.4772 8.6488 48.1298 8.96716 48.5755 9.60387V8.79206H50.032V14.8329C50.032 15.7243 49.7415 16.3968 49.1605 16.8504C48.5795 17.3041 47.8234 17.5309 46.8922 17.5309ZM45.3641 11.8125C45.3641 12.4173 45.4954 12.8949 45.7581 13.2451C46.0287 13.5873 46.4306 13.7584 46.9638 13.7584C47.4891 13.7584 47.8831 13.5873 48.1457 13.2451C48.4163 12.8949 48.5516 12.4173 48.5516 11.8125C48.5516 11.2076 48.4163 10.734 48.1457 10.3918C47.8831 10.0416 47.4891 9.86651 46.9638 9.86651C46.4306 9.86651 46.0287 10.0416 45.7581 10.3918C45.4954 10.734 45.3641 11.2076 45.3641 11.8125ZM51.315 8.79206H52.8073V15H51.315V8.79206ZM51.315 6.40439H52.8192V7.80118H51.315V6.40439ZM56.215 6.88193V8.79206H57.7909V9.95008H56.215V13.257C56.215 13.4639 56.2588 13.6152 56.3463 13.7107C56.4418 13.7982 56.597 13.842 56.8119 13.842H57.7909V15H56.4418C55.8768 15 55.447 14.8846 55.1525 14.6538C54.866 14.415 54.7227 14.0012 54.7227 13.4122V9.95008H53.6363V8.79206H54.7227V6.88193H56.215Z" fill="#A7A7A7"/>
<path d="M86.5014 102.15H88.2086V104H86.5014V102.15ZM90.842 95.4044V102.257C90.842 102.464 90.8858 102.615 90.9733 102.711C91.0609 102.798 91.2161 102.842 91.4389 102.842H92.2507V104H91.0569C90.4918 104 90.0621 103.885 89.7676 103.654C89.4811 103.415 89.3378 103.001 89.3378 102.412V95.4044H90.842ZM96.0139 104.143C95.3852 104.143 94.84 104.004 94.3784 103.725C93.9168 103.439 93.5626 103.053 93.3159 102.567C93.0691 102.074 92.9458 101.517 92.9458 100.896C92.9458 100.275 93.0691 99.7221 93.3159 99.2366C93.5626 98.7431 93.9168 98.3571 94.3784 98.0786C94.84 97.7921 95.3852 97.6488 96.0139 97.6488C96.6427 97.6488 97.1879 97.7881 97.6495 98.0666C98.1111 98.3452 98.4653 98.7392 98.712 99.2485C98.9587 99.7579 99.0821 100.347 99.0821 101.015V101.374H94.4381C94.5017 101.867 94.6689 102.257 94.9395 102.544C95.218 102.822 95.5762 102.961 96.0139 102.961C96.7302 102.961 97.2237 102.675 97.4943 102.102H98.9627C98.7558 102.731 98.3936 103.228 97.8763 103.594C97.359 103.96 96.7382 104.143 96.0139 104.143ZM97.5659 100.299C97.4863 99.8375 97.3112 99.4793 97.0406 99.2247C96.778 98.962 96.4358 98.8307 96.0139 98.8307C95.5921 98.8307 95.2459 98.962 94.9753 99.2247C94.7127 99.4793 94.5376 99.8375 94.45 100.299H97.5659ZM102.892 106.531C102.033 106.531 101.36 106.34 100.875 105.958C100.397 105.576 100.134 105.047 100.087 104.37H101.555C101.643 105.031 102.104 105.361 102.94 105.361C103.998 105.361 104.528 104.852 104.528 103.833V103.093C104.082 103.69 103.445 103.988 102.618 103.988C102.029 103.988 101.523 103.853 101.101 103.582C100.688 103.304 100.373 102.926 100.158 102.448C99.9434 101.97 99.836 101.425 99.836 100.812C99.836 100.208 99.9434 99.6664 100.158 99.1888C100.373 98.7034 100.688 98.3253 101.101 98.0547C101.523 97.7841 102.029 97.6488 102.618 97.6488C103.477 97.6488 104.13 97.9672 104.576 98.6039V97.7921H106.032V103.833C106.032 104.724 105.741 105.397 105.16 105.85C104.579 106.304 103.823 106.531 102.892 106.531ZM101.364 100.812C101.364 101.417 101.495 101.895 101.758 102.245C102.029 102.587 102.431 102.758 102.964 102.758C103.489 102.758 103.883 102.587 104.146 102.245C104.416 101.895 104.552 101.417 104.552 100.812C104.552 100.208 104.416 99.734 104.146 99.3918C103.883 99.0416 103.489 98.8665 102.964 98.8665C102.431 98.8665 102.029 99.0416 101.758 99.3918C101.495 99.734 101.364 100.208 101.364 100.812ZM107.315 97.7921H108.807V104H107.315V97.7921ZM107.315 95.4044H108.819V96.8012H107.315V95.4044ZM112.215 95.8819V97.7921H113.791V98.9501H112.215V102.257C112.215 102.464 112.259 102.615 112.346 102.711C112.442 102.798 112.597 102.842 112.812 102.842H113.791V104H112.442C111.877 104 111.447 103.885 111.153 103.654C110.866 103.415 110.723 103.001 110.723 102.412V98.9501H109.636V97.7921H110.723V95.8819H112.215Z" fill="#A7A7A7"/>
<path d="M48.6447 37.4044H50.1489V40.5681C50.5946 39.9552 51.2313 39.6488 52.059 39.6488C52.648 39.6488 53.1494 39.7881 53.5633 40.0666C53.9851 40.3452 54.3034 40.7312 54.5183 41.2247C54.7332 41.7181 54.8407 42.2752 54.8407 42.896C54.8407 43.5168 54.7332 44.0739 54.5183 44.5674C54.3034 45.0609 53.9851 45.4469 53.5633 45.7254C53.1494 46.004 52.648 46.1433 52.059 46.1433C51.6213 46.1433 51.2353 46.0557 50.901 45.8806C50.5747 45.7055 50.3041 45.4588 50.0892 45.1404V46H48.6447V37.4044ZM50.125 42.896C50.125 43.5168 50.2563 44.0063 50.519 44.3644C50.7896 44.7146 51.1875 44.8897 51.7128 44.8897C52.2461 44.8897 52.644 44.7146 52.9067 44.3644C53.1773 44.0063 53.3126 43.5168 53.3126 42.896C53.3126 42.2752 53.1773 41.7897 52.9067 41.4396C52.644 41.0814 52.2461 40.9023 51.7128 40.9023C51.1875 40.9023 50.7896 41.0814 50.519 41.4396C50.2563 41.7897 50.125 42.2752 50.125 42.896ZM55.873 39.7921H57.3294V40.9023C57.7035 40.1144 58.3283 39.7204 59.2038 39.7204H59.6932V41.1053H59.1441C58.579 41.1053 58.1412 41.2485 57.8309 41.5351C57.5284 41.8216 57.3772 42.3071 57.3772 42.9915V46H55.873V39.7921ZM64.5451 45.2837C64.2905 45.5941 64 45.8169 63.6736 45.9522C63.3553 46.0796 62.9892 46.1433 62.5753 46.1433C61.8909 46.1433 61.3417 45.9801 60.9278 45.6538C60.514 45.3195 60.307 44.8579 60.307 44.2689C60.307 43.7277 60.498 43.3099 60.8801 43.0154C61.2701 42.713 61.8749 42.4901 62.6947 42.3469L64.4974 42.0245V41.6664C64.4974 41.3799 64.4059 41.165 64.2228 41.0217C64.0398 40.8785 63.7532 40.8068 63.3632 40.8068C62.9971 40.8068 62.6947 40.8864 62.4559 41.0456C62.2172 41.2048 62.0898 41.4475 62.0739 41.7738H60.5936C60.6015 41.0734 60.8642 40.5442 61.3815 40.186C61.8988 39.8279 62.5554 39.6488 63.3513 39.6488C64.2188 39.6488 64.8715 39.812 65.3092 40.1383C65.7469 40.4646 65.9658 40.9182 65.9658 41.4992V46H64.5451V45.2837ZM61.8471 44.2212C61.8471 44.4759 61.9346 44.6748 62.1097 44.8181C62.2928 44.9614 62.5594 45.033 62.9096 45.033C63.3473 45.033 63.7214 44.9136 64.0318 44.6748C64.3422 44.4281 64.4974 44.066 64.4974 43.5885V43.0393L62.9693 43.3497C62.5793 43.4293 62.2928 43.5288 62.1097 43.6481C61.9346 43.7675 61.8471 43.9585 61.8471 44.2212ZM71.2191 42.2633C71.2191 41.8654 71.1236 41.551 70.9326 41.3202C70.7416 41.0814 70.4392 40.962 70.0253 40.962C69.699 40.962 69.3886 41.0695 69.0941 41.2844C68.8076 41.4992 68.6405 41.8494 68.5927 42.3349V46H67.0885V39.7921H68.545V40.6397C68.7758 40.3372 69.0543 40.0985 69.3806 39.9234C69.707 39.7403 70.081 39.6488 70.5028 39.6488C71.2032 39.6488 71.7444 39.8717 72.1265 40.3173C72.5164 40.7551 72.7114 41.344 72.7114 42.0842V46H71.2191V42.2633ZM76.8075 46.1433C76.1867 46.1433 75.6455 46.004 75.1839 45.7254C74.7302 45.4389 74.38 45.0529 74.1333 44.5674C73.8866 44.0739 73.7632 43.5168 73.7632 42.896C73.7632 42.2752 73.8866 41.7221 74.1333 41.2366C74.38 40.7431 74.7302 40.3571 75.1839 40.0786C75.6455 39.7921 76.1867 39.6488 76.8075 39.6488C77.6352 39.6488 78.2958 39.8637 78.7893 40.2935C79.2907 40.7153 79.5891 41.2883 79.6846 42.0126H78.1804C78.1088 41.6624 77.9536 41.3918 77.7148 41.2008C77.476 41.0018 77.1736 40.9023 76.8075 40.9023C76.314 40.9023 75.936 41.0814 75.6734 41.4396C75.4187 41.7977 75.2913 42.2832 75.2913 42.896C75.2913 43.5089 75.4187 43.9944 75.6734 44.3525C75.936 44.7107 76.314 44.8897 76.8075 44.8897C77.1816 44.8897 77.488 44.7863 77.7268 44.5793C77.9655 44.3724 78.1167 44.0819 78.1804 43.7078H79.6846C79.5891 44.4401 79.2907 45.029 78.7893 45.4747C78.2879 45.9204 77.6273 46.1433 76.8075 46.1433ZM80.6124 37.4044H82.1166V40.58C82.6101 39.9592 83.2468 39.6488 84.0267 39.6488C84.7271 39.6488 85.2683 39.8717 85.6504 40.3173C86.0403 40.7551 86.2353 41.344 86.2353 42.0842V46H84.743V42.2633C84.743 41.8654 84.6475 41.551 84.4565 41.3202C84.2655 41.0814 83.9631 40.962 83.5492 40.962C83.2229 40.962 82.9125 41.0695 82.618 41.2844C82.3315 41.4992 82.1644 41.8494 82.1166 42.3349V46H80.6124V37.4044ZM90.3314 46.1433C89.7027 46.1433 89.1575 46.004 88.6958 45.7254C88.2342 45.4389 87.8801 45.0529 87.6333 44.5674C87.3866 44.0739 87.2632 43.5168 87.2632 42.896C87.2632 42.2752 87.3866 41.7221 87.6333 41.2366C87.8801 40.7431 88.2342 40.3571 88.6958 40.0786C89.1575 39.7921 89.7027 39.6488 90.3314 39.6488C90.9602 39.6488 91.5053 39.7881 91.967 40.0666C92.4286 40.3452 92.7827 40.7392 93.0295 41.2485C93.2762 41.7579 93.3996 42.3469 93.3996 43.0154V43.3736H88.7555C88.8192 43.867 88.9863 44.257 89.257 44.5435C89.5355 44.8221 89.8937 44.9614 90.3314 44.9614C91.0477 44.9614 91.5412 44.6748 91.8118 44.1018H93.2802C93.0732 44.7306 92.7111 45.228 92.1938 45.5941C91.6765 45.9602 91.0557 46.1433 90.3314 46.1433ZM91.8834 42.2991C91.8038 41.8375 91.6287 41.4793 91.3581 41.2247C91.0955 40.962 90.7532 40.8307 90.3314 40.8307C89.9096 40.8307 89.5634 40.962 89.2928 41.2247C89.0301 41.4793 88.855 41.8375 88.7675 42.2991H91.8834ZM96.8396 46.1433C95.0329 46.1433 94.0858 45.415 93.9982 43.9585H95.4547C95.5025 44.3565 95.6418 44.639 95.8726 44.8062C96.1113 44.9733 96.4496 45.0569 96.8873 45.0569C97.2534 45.0569 97.5439 44.9932 97.7588 44.8659C97.9817 44.7385 98.0931 44.5594 98.0931 44.3286C98.0931 44.1695 98.0573 44.0421 97.9857 43.9466C97.922 43.8511 97.7867 43.7675 97.5797 43.6959C97.3728 43.6163 97.0584 43.5407 96.6366 43.4691C95.9999 43.3576 95.4985 43.2144 95.1324 43.0393C94.7742 42.8642 94.5196 42.6533 94.3683 42.4066C94.2171 42.1598 94.1415 41.8614 94.1415 41.5112C94.1415 40.9302 94.3723 40.4765 94.8339 40.1502C95.3035 39.8159 95.9283 39.6488 96.7082 39.6488C97.5837 39.6488 98.2523 39.8358 98.7139 40.2099C99.1755 40.584 99.4143 41.1013 99.4302 41.7619H98.0334C98.0175 41.3799 97.8901 41.1132 97.6514 40.962C97.4126 40.8108 97.0982 40.7352 96.7082 40.7352C96.3899 40.7352 96.1272 40.7989 95.9203 40.9262C95.7134 41.0535 95.6099 41.2286 95.6099 41.4515C95.6099 41.6107 95.6497 41.738 95.7293 41.8335C95.8169 41.929 95.9681 42.0126 96.183 42.0842C96.3979 42.1479 96.7162 42.2155 97.138 42.2872C97.7588 42.3906 98.2483 42.5259 98.6064 42.6931C98.9646 42.8602 99.2153 43.0711 99.3586 43.3258C99.5098 43.5725 99.5854 43.875 99.5854 44.2331C99.5854 44.838 99.3307 45.3076 98.8213 45.6418C98.3199 45.9761 97.6593 46.1433 96.8396 46.1433Z" fill="#A7A7A7"/>
<path d="M74.4165 71.2633C74.4165 70.8733 74.325 70.5589 74.1419 70.3202C73.9669 70.0814 73.7042 69.962 73.354 69.962C73.0118 69.962 72.7054 70.0894 72.4348 70.344C72.1642 70.5908 72.0289 71.0046 72.0289 71.5856V75H70.5246V71.2633C70.5246 70.8733 70.4331 70.5589 70.25 70.3202C70.075 70.0814 69.8123 69.962 69.4621 69.962C69.1199 69.962 68.8135 70.0894 68.5429 70.344C68.2802 70.5908 68.1489 71.0046 68.1489 71.5856V75H66.6447V68.7921H68.1011V69.6516C68.3001 69.3412 68.5508 69.0985 68.8533 68.9234C69.1637 68.7403 69.5258 68.6488 69.9397 68.6488C70.3694 68.6488 70.7395 68.7523 71.0499 68.9592C71.3683 69.1661 71.611 69.4527 71.7782 69.8188C72.001 69.4686 72.2835 69.186 72.6258 68.9711C72.976 68.7562 73.3779 68.6488 73.8316 68.6488C74.4762 68.6488 74.9816 68.8717 75.3477 69.3173C75.7218 69.7551 75.9088 70.344 75.9088 71.0842V75H74.4165V71.2633ZM81.0995 74.2837C80.8448 74.5941 80.5543 74.8169 80.228 74.9522C79.9096 75.0796 79.5435 75.1433 79.1297 75.1433C78.4452 75.1433 77.896 74.9801 77.4822 74.6538C77.0683 74.3195 76.8614 73.8579 76.8614 73.2689C76.8614 72.7277 77.0524 72.3099 77.4344 72.0154C77.8244 71.713 78.4293 71.4901 79.249 71.3469L81.0517 71.0245V70.6664C81.0517 70.3799 80.9602 70.165 80.7771 70.0217C80.5941 69.8785 80.3076 69.8068 79.9176 69.8068C79.5515 69.8068 79.249 69.8864 79.0103 70.0456C78.7715 70.2048 78.6442 70.4475 78.6282 70.7738H77.1479C77.1559 70.0734 77.4185 69.5442 77.9358 69.186C78.4532 68.8279 79.1098 68.6488 79.9057 68.6488C80.7732 68.6488 81.4258 68.812 81.8635 69.1383C82.3013 69.4646 82.5201 69.9182 82.5201 70.4992V75H81.0995V74.2837ZM78.4014 73.2212C78.4014 73.4759 78.489 73.6748 78.6641 73.8181C78.8471 73.9614 79.1137 74.033 79.4639 74.033C79.9017 74.033 80.2757 73.9136 80.5861 73.6748C80.8965 73.4281 81.0517 73.066 81.0517 72.5885V72.0393L79.5236 72.3497C79.1336 72.4293 78.8471 72.5288 78.6641 72.6481C78.489 72.7675 78.4014 72.9585 78.4014 73.2212ZM83.6309 68.7921H85.1232V75H83.6309V68.7921ZM83.6309 66.4044H85.1351V67.8012H83.6309V66.4044ZM90.5366 71.2633C90.5366 70.8654 90.4411 70.551 90.25 70.3202C90.059 70.0814 89.7566 69.962 89.3427 69.962C89.0164 69.962 88.706 70.0695 88.4115 70.2844C88.125 70.4992 87.9579 70.8494 87.9101 71.3349V75H86.4059V68.7921H87.8624V69.6397C88.0932 69.3372 88.3717 69.0985 88.6981 68.9234C89.0244 68.7403 89.3984 68.6488 89.8203 68.6488C90.5206 68.6488 91.0618 68.8717 91.4439 69.3173C91.8339 69.7551 92.0289 70.344 92.0289 71.0842V75H90.5366V71.2633Z" fill="#A7A7A7"/>
<path d="M4.33464 16.6663C3.8763 16.6663 3.48408 16.5033 3.15797 16.1772C2.83186 15.8511 2.66852 15.4586 2.66797 14.9997V4.99967C2.66797 4.54134 2.8313 4.14912 3.15797 3.82301C3.48464 3.4969 3.87686 3.33356 4.33464 3.33301H9.33464L11.0013 4.99967H17.668C18.1263 4.99967 18.5188 5.16301 18.8455 5.48967C19.1721 5.81634 19.3352 6.20856 19.3346 6.66634V14.9997C19.3346 15.458 19.1716 15.8505 18.8455 16.1772C18.5194 16.5038 18.1269 16.6669 17.668 16.6663H4.33464ZM4.33464 14.9997H17.668V6.66634H10.3138L8.64714 4.99967H4.33464V14.9997Z" fill="#A7A7A7"/>
<path d="M60.3346 105.666C59.8763 105.666 59.4841 105.503 59.158 105.177C58.8319 104.851 58.6685 104.459 58.668 104V93.9997C58.668 93.5413 58.8313 93.1491 59.158 92.823C59.4846 92.4969 59.8769 92.3336 60.3346 92.333H65.3346L67.0013 93.9997H73.668C74.1263 93.9997 74.5188 94.163 74.8455 94.4897C75.1721 94.8163 75.3352 95.2086 75.3346 95.6663V104C75.3346 104.458 75.1716 104.851 74.8455 105.177C74.5194 105.504 74.1269 105.667 73.668 105.666H60.3346ZM60.3346 104H73.668V95.6663H66.3138L64.6471 93.9997H60.3346V104Z" fill="#A7A7A7"/>
<path d="M22.3346 47.6663C21.8763 47.6663 21.4841 47.5033 21.158 47.1772C20.8319 46.8511 20.6685 46.4586 20.668 45.9997V35.9997C20.668 35.5413 20.8313 35.1491 21.158 34.823C21.4846 34.4969 21.8769 34.3336 22.3346 34.333H27.3346L29.0013 35.9997H35.668C36.1263 35.9997 36.5188 36.163 36.8455 36.4897C37.1721 36.8163 37.3352 37.2086 37.3346 37.6663V45.9997C37.3346 46.458 37.1716 46.8505 36.8455 47.1772C36.5194 47.5038 36.1269 47.6669 35.668 47.6663H22.3346ZM22.3346 45.9997H35.668V37.6663H28.3138L26.6471 35.9997H22.3346V45.9997Z" fill="#A7A7A7"/>
<path d="M40.3346 76.6663C39.8763 76.6663 39.4841 76.5033 39.158 76.1772C38.8319 75.8511 38.6685 75.4586 38.668 74.9997V64.9997C38.668 64.5413 38.8313 64.1491 39.158 63.823C39.4846 63.4969 39.8769 63.3336 40.3346 63.333H45.3346L47.0013 64.9997H53.668C54.1263 64.9997 54.5188 65.163 54.8455 65.4897C55.1721 65.8163 55.3352 66.2086 55.3346 66.6663V74.9997C55.3346 75.458 55.1716 75.8505 54.8455 76.1772C54.5194 76.5038 54.1269 76.6669 53.668 76.6663H40.3346ZM40.3346 74.9997H53.668V66.6663H46.3138L44.6471 64.9997H40.3346V74.9997Z" fill="#A7A7A7"/>
<path d="M9.5 31V147" stroke="black" stroke-opacity="0.04"/>
<path d="M29 60L29 147" stroke="black" stroke-opacity="0.04"/>
<path d="M47 89L47 147" stroke="black" stroke-opacity="0.04"/>
</svg>
