<svg width="152" height="137" viewBox="0 0 152 137" fill="none" xmlns="http://www.w3.org/2000/svg">
<path d="M5.35937 136.865L5.35938 17.793" stroke="url(#paint0_linear_794_2151)" stroke-width="0.918334"/>
<path d="M27.843 23.4587C26.9437 23.4587 26.1716 23.2597 25.527 22.8618C24.8903 22.4638 24.4088 21.9306 24.0824 21.262C23.7561 20.5855 23.593 19.8374 23.593 19.0176C23.593 18.1979 23.7561 17.4537 24.0824 16.7852C24.4088 16.1087 24.8903 15.5714 25.527 15.1735C26.1716 14.7755 26.9437 14.5766 27.843 14.5766C28.5275 14.5766 29.1363 14.7119 29.6696 14.9825C30.2108 15.2531 30.6485 15.6271 30.9828 16.1047C31.3171 16.5822 31.532 17.1234 31.6275 17.7283H30.0039C29.8924 17.211 29.6457 16.7971 29.2637 16.4867C28.8817 16.1683 28.4081 16.0092 27.843 16.0092C26.9914 16.0092 26.3467 16.2917 25.909 16.8568C25.4792 17.4219 25.2643 18.1421 25.2643 19.0176C25.2643 19.8931 25.4792 20.6134 25.909 21.1785C26.3467 21.7435 26.9914 22.0261 27.843 22.0261C28.4479 22.0261 28.9413 21.847 29.3234 21.4889C29.7134 21.1307 29.9561 20.6611 30.0516 20.0801H31.6633C31.5837 20.7248 31.3807 21.3058 31.0544 21.8231C30.7281 22.3325 30.2904 22.7344 29.7412 23.0289C29.192 23.3154 28.5593 23.4587 27.843 23.4587ZM32.6928 14.7198H34.197V17.8954C34.6905 17.2746 35.3272 16.9642 36.1071 16.9642C36.8075 16.9642 37.3487 17.1871 37.7308 17.6328C38.1207 18.0705 38.3157 18.6595 38.3157 19.3997V23.3154H36.8234V19.5787C36.8234 19.1808 36.7279 18.8664 36.5369 18.6356C36.3459 18.3968 36.0435 18.2774 35.6296 18.2774C35.3033 18.2774 34.9929 18.3849 34.6984 18.5998C34.4119 18.8147 34.2448 19.1649 34.197 19.6504V23.3154H32.6928V14.7198ZM43.5101 22.5991C43.2554 22.9095 42.9649 23.1324 42.6386 23.2677C42.3203 23.395 41.9542 23.4587 41.5403 23.4587C40.8558 23.4587 40.3067 23.2955 39.8928 22.9692C39.479 22.6349 39.272 22.1733 39.272 21.5844C39.272 21.0432 39.463 20.6253 39.8451 20.3308C40.235 20.0284 40.8399 19.8056 41.6597 19.6623L43.4624 19.34V18.9818C43.4624 18.6953 43.3708 18.4804 43.1878 18.3371C43.0047 18.1939 42.7182 18.1223 42.3282 18.1223C41.9621 18.1223 41.6597 18.2018 41.4209 18.361C41.1822 18.5202 41.0548 18.7629 41.0389 19.0893H39.5585C39.5665 18.3889 39.8291 17.8596 40.3465 17.5015C40.8638 17.1433 41.5204 16.9642 42.3163 16.9642C43.1838 16.9642 43.8364 17.1274 44.2742 17.4537C44.7119 17.78 44.9308 18.2337 44.9308 18.8147V23.3154H43.5101V22.5991ZM40.8121 21.5366C40.8121 21.7913 40.8996 21.9903 41.0747 22.1335C41.2578 22.2768 41.5244 22.3484 41.8746 22.3484C42.3123 22.3484 42.6864 22.229 42.9968 21.9903C43.3072 21.7435 43.4624 21.3814 43.4624 20.9039V20.3547L41.9343 20.6651C41.5443 20.7447 41.2578 20.8442 41.0747 20.9636C40.8996 21.083 40.8121 21.274 40.8121 21.5366ZM50.1841 19.5787C50.1841 19.1808 50.0886 18.8664 49.8976 18.6356C49.7066 18.3968 49.4042 18.2774 48.9903 18.2774C48.664 18.2774 48.3536 18.3849 48.0591 18.5998C47.7726 18.8147 47.6054 19.1649 47.5577 19.6504V23.3154H46.0535V17.1075H47.5099V17.9551C47.7407 17.6527 48.0193 17.4139 48.3456 17.2388C48.6719 17.0558 49.046 16.9642 49.4678 16.9642C50.1682 16.9642 50.7094 17.1871 51.0914 17.6328C51.4814 18.0705 51.6764 18.6595 51.6764 19.3997V23.3154H50.1841V19.5787ZM55.7605 25.8464C54.901 25.8464 54.2285 25.6553 53.743 25.2733C53.2654 24.8913 53.0028 24.362 52.955 23.6855H54.4235C54.511 24.3461 54.9726 24.6764 55.8083 24.6764C56.8668 24.6764 57.3961 24.167 57.3961 23.1483V22.4081C56.9504 23.005 56.3137 23.3035 55.486 23.3035C54.897 23.3035 54.3916 23.1682 53.9698 22.8976C53.5559 22.619 53.2416 22.241 53.0267 21.7634C52.8118 21.2859 52.7043 20.7407 52.7043 20.1279C52.7043 19.523 52.8118 18.9818 53.0267 18.5043C53.2416 18.0188 53.5559 17.6407 53.9698 17.3701C54.3916 17.0995 54.897 16.9642 55.486 16.9642C56.3455 16.9642 56.9982 17.2826 57.4439 17.9193V17.1075H58.9003V23.1483C58.9003 24.0397 58.6098 24.7122 58.0288 25.1659C57.4478 25.6195 56.6917 25.8464 55.7605 25.8464ZM54.2324 20.1279C54.2324 20.7328 54.3638 21.2103 54.6264 21.5605C54.897 21.9027 55.2989 22.0738 55.8322 22.0738C56.3575 22.0738 56.7514 21.9027 57.0141 21.5605C57.2847 21.2103 57.42 20.7328 57.42 20.1279C57.42 19.523 57.2847 19.0495 57.0141 18.7072C56.7514 18.357 56.3575 18.1819 55.8322 18.1819C55.2989 18.1819 54.897 18.357 54.6264 18.7072C54.3638 19.0495 54.2324 19.523 54.2324 20.1279ZM63.0008 23.4587C62.372 23.4587 61.8268 23.3194 61.3652 23.0408C60.9036 22.7543 60.5494 22.3683 60.3027 21.8828C60.056 21.3894 59.9326 20.8323 59.9326 20.2115C59.9326 19.5907 60.056 19.0375 60.3027 18.552C60.5494 18.0586 60.9036 17.6726 61.3652 17.394C61.8268 17.1075 62.372 16.9642 63.0008 16.9642C63.6295 16.9642 64.1747 17.1035 64.6363 17.3821C65.0979 17.6606 65.4521 18.0546 65.6988 18.564C65.9456 19.0733 66.0689 19.6623 66.0689 20.3308V20.689H61.4249C61.4886 21.1824 61.6557 21.5724 61.9263 21.859C62.2049 22.1375 62.563 22.2768 63.0008 22.2768C63.7171 22.2768 64.2105 21.9903 64.4811 21.4172H65.9495C65.7426 22.046 65.3805 22.5434 64.8632 22.9095C64.3458 23.2756 63.725 23.4587 63.0008 23.4587ZM64.5528 19.6145C64.4732 19.1529 64.2981 18.7948 64.0275 18.5401C63.7648 18.2774 63.4226 18.1461 63.0008 18.1461C62.579 18.1461 62.2327 18.2774 61.9621 18.5401C61.6995 18.7948 61.5244 19.1529 61.4369 19.6145H64.5528Z" fill="#A7A7A7"/>
<path d="M27.843 59.6765C26.9437 59.6765 26.1716 59.4775 25.527 59.0795C24.8903 58.6816 24.4088 58.1484 24.0824 57.4798C23.7561 56.8033 23.593 56.0552 23.593 55.2354C23.593 54.4156 23.7561 53.6715 24.0824 53.0029C24.4088 52.3264 24.8903 51.7892 25.527 51.3913C26.1716 50.9933 26.9437 50.7943 27.843 50.7943C28.5275 50.7943 29.1363 50.9296 29.6696 51.2002C30.2108 51.4708 30.6485 51.8449 30.9828 52.3224C31.3171 52.8 31.532 53.3412 31.6275 53.9461H30.0039C29.8924 53.4287 29.6457 53.0149 29.2637 52.7045C28.8817 52.3861 28.4081 52.2269 27.843 52.2269C26.9914 52.2269 26.3467 52.5095 25.909 53.0746C25.4792 53.6396 25.2643 54.3599 25.2643 55.2354C25.2643 56.1109 25.4792 56.8312 25.909 57.3962C26.3467 57.9613 26.9914 58.2439 27.843 58.2439C28.4479 58.2439 28.9413 58.0648 29.3234 57.7066C29.7134 57.3485 29.9561 56.8789 30.0516 56.2979H31.6633C31.5837 56.9426 31.3807 57.5236 31.0544 58.0409C30.7281 58.5503 30.2904 58.9522 29.7412 59.2467C29.192 59.5332 28.5593 59.6765 27.843 59.6765ZM32.6928 50.9376H34.197V54.1132C34.6905 53.4924 35.3272 53.182 36.1071 53.182C36.8075 53.182 37.3487 53.4049 37.7308 53.8506C38.1207 54.2883 38.3157 54.8772 38.3157 55.6174V59.5332H36.8234V55.7965C36.8234 55.3986 36.7279 55.0842 36.5369 54.8534C36.3459 54.6146 36.0435 54.4952 35.6296 54.4952C35.3033 54.4952 34.9929 54.6027 34.6984 54.8176C34.4119 55.0324 34.2448 55.3826 34.197 55.8681V59.5332H32.6928V50.9376ZM43.5101 58.8169C43.2554 59.1273 42.9649 59.3501 42.6386 59.4854C42.3203 59.6128 41.9542 59.6765 41.5403 59.6765C40.8558 59.6765 40.3067 59.5133 39.8928 59.187C39.479 58.8527 39.272 58.3911 39.272 57.8021C39.272 57.2609 39.463 56.8431 39.8451 56.5486C40.235 56.2462 40.8399 56.0233 41.6597 55.8801L43.4624 55.5577V55.1996C43.4624 54.9131 43.3708 54.6982 43.1878 54.5549C43.0047 54.4117 42.7182 54.34 42.3282 54.34C41.9621 54.34 41.6597 54.4196 41.4209 54.5788C41.1822 54.738 41.0548 54.9807 41.0389 55.307H39.5585C39.5665 54.6066 39.8291 54.0774 40.3465 53.7192C40.8638 53.3611 41.5204 53.182 42.3163 53.182C43.1838 53.182 43.8364 53.3452 44.2742 53.6715C44.7119 53.9978 44.9308 54.4514 44.9308 55.0324V59.5332H43.5101V58.8169ZM40.8121 57.7544C40.8121 58.0091 40.8996 58.208 41.0747 58.3513C41.2578 58.4946 41.5244 58.5662 41.8746 58.5662C42.3123 58.5662 42.6864 58.4468 42.9968 58.208C43.3072 57.9613 43.4624 57.5992 43.4624 57.1217V56.5725L41.9343 56.8829C41.5443 56.9625 41.2578 57.062 41.0747 57.1813C40.8996 57.3007 40.8121 57.4917 40.8121 57.7544ZM50.1841 55.7965C50.1841 55.3986 50.0886 55.0842 49.8976 54.8534C49.7066 54.6146 49.4042 54.4952 48.9903 54.4952C48.664 54.4952 48.3536 54.6027 48.0591 54.8176C47.7726 55.0324 47.6054 55.3826 47.5577 55.8681V59.5332H46.0535V53.3253H47.5099V54.1729C47.7407 53.8704 48.0193 53.6317 48.3456 53.4566C48.6719 53.2735 49.046 53.182 49.4678 53.182C50.1682 53.182 50.7094 53.4049 51.0914 53.8506C51.4814 54.2883 51.6764 54.8772 51.6764 55.6174V59.5332H50.1841V55.7965ZM55.7605 62.0641C54.901 62.0641 54.2285 61.8731 53.743 61.4911C53.2654 61.1091 53.0028 60.5798 52.955 59.9033H54.4235C54.511 60.5639 54.9726 60.8942 55.8083 60.8942C56.8668 60.8942 57.3961 60.3848 57.3961 59.3661V58.6259C56.9504 59.2228 56.3137 59.5213 55.486 59.5213C54.897 59.5213 54.3916 59.386 53.9698 59.1154C53.5559 58.8368 53.2416 58.4588 53.0267 57.9812C52.8118 57.5037 52.7043 56.9585 52.7043 56.3457C52.7043 55.7408 52.8118 55.1996 53.0267 54.7221C53.2416 54.2366 53.5559 53.8585 53.9698 53.5879C54.3916 53.3173 54.897 53.182 55.486 53.182C56.3455 53.182 56.9982 53.5004 57.4439 54.1371V53.3253H58.9003V59.3661C58.9003 60.2575 58.6098 60.93 58.0288 61.3836C57.4478 61.8373 56.6917 62.0641 55.7605 62.0641ZM54.2324 56.3457C54.2324 56.9505 54.3638 57.4281 54.6264 57.7783C54.897 58.1205 55.2989 58.2916 55.8322 58.2916C56.3575 58.2916 56.7514 58.1205 57.0141 57.7783C57.2847 57.4281 57.42 56.9505 57.42 56.3457C57.42 55.7408 57.2847 55.2672 57.0141 54.925C56.7514 54.5748 56.3575 54.3997 55.8322 54.3997C55.2989 54.3997 54.897 54.5748 54.6264 54.925C54.3638 55.2672 54.2324 55.7408 54.2324 56.3457ZM63.0008 59.6765C62.372 59.6765 61.8268 59.5372 61.3652 59.2586C60.9036 58.9721 60.5494 58.5861 60.3027 58.1006C60.056 57.6072 59.9326 57.05 59.9326 56.4292C59.9326 55.8084 60.056 55.2553 60.3027 54.7698C60.5494 54.2764 60.9036 53.8903 61.3652 53.6118C61.8268 53.3253 62.372 53.182 63.0008 53.182C63.6295 53.182 64.1747 53.3213 64.6363 53.5998C65.0979 53.8784 65.4521 54.2724 65.6988 54.7817C65.9456 55.2911 66.0689 55.8801 66.0689 56.5486V56.9068H61.4249C61.4886 57.4002 61.6557 57.7902 61.9263 58.0767C62.2049 58.3553 62.563 58.4946 63.0008 58.4946C63.7171 58.4946 64.2105 58.208 64.4811 57.635H65.9495C65.7426 58.2638 65.3805 58.7612 64.8632 59.1273C64.3458 59.4934 63.725 59.6765 63.0008 59.6765ZM64.5528 55.8323C64.4732 55.3707 64.2981 55.0126 64.0275 54.7579C63.7648 54.4952 63.4226 54.3639 63.0008 54.3639C62.579 54.3639 62.2327 54.4952 61.9621 54.7579C61.6995 55.0126 61.5244 55.3707 61.4369 55.8323H64.5528Z" fill="#A7A7A7"/>
<path d="M27.843 96.2556C26.9437 96.2556 26.1716 96.0566 25.527 95.6586C24.8903 95.2607 24.4088 94.7275 24.0824 94.0589C23.7561 93.3824 23.593 92.6343 23.593 91.8145C23.593 90.9947 23.7561 90.2506 24.0824 89.582C24.4088 88.9055 24.8903 88.3683 25.527 87.9704C26.1716 87.5724 26.9437 87.3734 27.843 87.3734C28.5275 87.3734 29.1363 87.5087 29.6696 87.7793C30.2108 88.0499 30.6485 88.424 30.9828 88.9015C31.3171 89.3791 31.532 89.9203 31.6275 90.5252H30.0039C29.8924 90.0078 29.6457 89.594 29.2637 89.2836C28.8817 88.9652 28.4081 88.806 27.843 88.806C26.9914 88.806 26.3467 89.0886 25.909 89.6537C25.4792 90.2187 25.2643 90.939 25.2643 91.8145C25.2643 92.69 25.4792 93.4103 25.909 93.9753C26.3467 94.5404 26.9914 94.823 27.843 94.823C28.4479 94.823 28.9413 94.6439 29.3234 94.2857C29.7134 93.9276 29.9561 93.458 30.0516 92.877H31.6633C31.5837 93.5217 31.3807 94.1027 31.0544 94.62C30.7281 95.1294 30.2904 95.5313 29.7412 95.8258C29.192 96.1123 28.5593 96.2556 27.843 96.2556ZM32.6928 87.5167H34.197V90.6923C34.6905 90.0715 35.3272 89.7611 36.1071 89.7611C36.8075 89.7611 37.3487 89.984 37.7308 90.4297C38.1207 90.8674 38.3157 91.4564 38.3157 92.1965V96.1123H36.8234V92.3756C36.8234 91.9777 36.7279 91.6633 36.5369 91.4325C36.3459 91.1937 36.0435 91.0743 35.6296 91.0743C35.3033 91.0743 34.9929 91.1818 34.6984 91.3967C34.4119 91.6115 34.2448 91.9617 34.197 92.4472V96.1123H32.6928V87.5167ZM43.5101 95.396C43.2554 95.7064 42.9649 95.9293 42.6386 96.0646C42.3203 96.1919 41.9542 96.2556 41.5403 96.2556C40.8558 96.2556 40.3067 96.0924 39.8928 95.7661C39.479 95.4318 39.272 94.9702 39.272 94.3812C39.272 93.84 39.463 93.4222 39.8451 93.1277C40.235 92.8253 40.8399 92.6024 41.6597 92.4592L43.4624 92.1368V91.7787C43.4624 91.4922 43.3708 91.2773 43.1878 91.134C43.0047 90.9908 42.7182 90.9191 42.3282 90.9191C41.9621 90.9191 41.6597 90.9987 41.4209 91.1579C41.1822 91.3171 41.0548 91.5598 41.0389 91.8861H39.5585C39.5665 91.1857 39.8291 90.6565 40.3465 90.2983C40.8638 89.9402 41.5204 89.7611 42.3163 89.7611C43.1838 89.7611 43.8364 89.9243 44.2742 90.2506C44.7119 90.5769 44.9308 91.0306 44.9308 91.6115V96.1123H43.5101V95.396ZM40.8121 94.3335C40.8121 94.5882 40.8996 94.7871 41.0747 94.9304C41.2578 95.0737 41.5244 95.1453 41.8746 95.1453C42.3123 95.1453 42.6864 95.0259 42.9968 94.7871C43.3072 94.5404 43.4624 94.1783 43.4624 93.7008V93.1516L41.9343 93.462C41.5443 93.5416 41.2578 93.6411 41.0747 93.7605C40.8996 93.8798 40.8121 94.0708 40.8121 94.3335ZM50.1841 92.3756C50.1841 91.9777 50.0886 91.6633 49.8976 91.4325C49.7066 91.1937 49.4042 91.0743 48.9903 91.0743C48.664 91.0743 48.3536 91.1818 48.0591 91.3967C47.7726 91.6115 47.6054 91.9617 47.5577 92.4472V96.1123H46.0535V89.9044H47.5099V90.752C47.7407 90.4496 48.0193 90.2108 48.3456 90.0357C48.6719 89.8526 49.046 89.7611 49.4678 89.7611C50.1682 89.7611 50.7094 89.984 51.0914 90.4297C51.4814 90.8674 51.6764 91.4564 51.6764 92.1965V96.1123H50.1841V92.3756ZM55.7605 98.6432C54.901 98.6432 54.2285 98.4522 53.743 98.0702C53.2654 97.6882 53.0028 97.1589 52.955 96.4824H54.4235C54.511 97.143 54.9726 97.4733 55.8083 97.4733C56.8668 97.4733 57.3961 96.9639 57.3961 95.9452V95.205C56.9504 95.8019 56.3137 96.1004 55.486 96.1004C54.897 96.1004 54.3916 95.9651 53.9698 95.6945C53.5559 95.4159 53.2416 95.0379 53.0267 94.5603C52.8118 94.0828 52.7043 93.5376 52.7043 92.9248C52.7043 92.3199 52.8118 91.7787 53.0267 91.3012C53.2416 90.8157 53.5559 90.4376 53.9698 90.167C54.3916 89.8964 54.897 89.7611 55.486 89.7611C56.3455 89.7611 56.9982 90.0795 57.4439 90.7162V89.9044H58.9003V95.9452C58.9003 96.8366 58.6098 97.5091 58.0288 97.9627C57.4478 98.4164 56.6917 98.6432 55.7605 98.6432ZM54.2324 92.9248C54.2324 93.5296 54.3638 94.0072 54.6264 94.3574C54.897 94.6996 55.2989 94.8707 55.8322 94.8707C56.3575 94.8707 56.7514 94.6996 57.0141 94.3574C57.2847 94.0072 57.42 93.5296 57.42 92.9248C57.42 92.3199 57.2847 91.8463 57.0141 91.5041C56.7514 91.1539 56.3575 90.9788 55.8322 90.9788C55.2989 90.9788 54.897 91.1539 54.6264 91.5041C54.3638 91.8463 54.2324 92.3199 54.2324 92.9248ZM63.0008 96.2556C62.372 96.2556 61.8268 96.1163 61.3652 95.8377C60.9036 95.5512 60.5494 95.1652 60.3027 94.6797C60.056 94.1863 59.9326 93.6291 59.9326 93.0083C59.9326 92.3875 60.056 91.8344 60.3027 91.3489C60.5494 90.8555 60.9036 90.4694 61.3652 90.1909C61.8268 89.9044 62.372 89.7611 63.0008 89.7611C63.6295 89.7611 64.1747 89.9004 64.6363 90.1789C65.0979 90.4575 65.4521 90.8515 65.6988 91.3608C65.9456 91.8702 66.0689 92.4592 66.0689 93.1277V93.4859H61.4249C61.4886 93.9793 61.6557 94.3693 61.9263 94.6558C62.2049 94.9344 62.563 95.0737 63.0008 95.0737C63.7171 95.0737 64.2105 94.7871 64.4811 94.2141H65.9495C65.7426 94.8429 65.3805 95.3403 64.8632 95.7064C64.3458 96.0725 63.725 96.2556 63.0008 96.2556ZM64.5528 92.4114C64.4732 91.9498 64.2981 91.5917 64.0275 91.337C63.7648 91.0743 63.4226 90.943 63.0008 90.943C62.579 90.943 62.2327 91.0743 61.9621 91.337C61.6995 91.5917 61.5244 91.9498 61.4369 92.4114H64.5528Z" fill="#A7A7A7"/>
<rect x="-0.982172" y="0.982172" width="7.20259" height="7.20259" rx="3.6013" transform="matrix(-1 0 0 1 7.45753 51.3906)" fill="white" stroke="#FF611A" stroke-width="1.96434"/>
<rect x="-0.982172" y="0.982172" width="7.20259" height="7.20259" rx="3.6013" transform="matrix(-1 0 0 1 7.45753 13)" fill="white" stroke="#FF611A" stroke-width="1.96434"/>
<rect width="7.93814" height="7.93814" rx="3.96907" transform="matrix(-1 0 0 1 9.32422 89.2363)" fill="#DCDCDC"/>
<defs>
<linearGradient id="paint0_linear_794_2151" x1="5.85938" y1="17.793" x2="5.85937" y2="136.865" gradientUnits="userSpaceOnUse">
<stop stop-color="#CECECE"/>
<stop offset="1" stop-color="#CECECE" stop-opacity="0"/>
</linearGradient>
</defs>
</svg>
