<svg width="294" height="353" viewBox="0 0 294 353" fill="none" xmlns="http://www.w3.org/2000/svg">
<path d="M8 0.5H286C290.142 0.500001 293.5 3.85787 293.5 8V352.5H0.5V8C0.5 3.85786 3.85786 0.5 8 0.5Z" fill="white" stroke="url(#paint0_linear_794_2168)"/>
<path d="M32.2234 26.4044H33.6798L30.552 35H29.0955L32.2234 26.4044Z" fill="black"/>
<path d="M42.3371 28.4339L40.7373 35H38.9466L36.4992 26.4044H38.1945L39.9017 33.0182L41.5133 26.4044H43.1728L44.7844 33.0182L46.4916 26.4044H48.1869L45.7395 35H43.9368L42.3371 28.4339ZM48.9512 28.7921H50.4077V29.9023C50.7818 29.1144 51.4065 28.7204 52.282 28.7204H52.7715V30.1053H52.2223C51.6572 30.1053 51.2195 30.2485 50.9091 30.5351C50.6067 30.8216 50.4554 31.3071 50.4554 31.9915V35H48.9512V28.7921ZM53.7076 28.7921H55.1999V35H53.7076V28.7921ZM53.7076 26.4044H55.2118V27.8012H53.7076V26.4044ZM58.6076 26.8819V28.7921H60.1835V29.9501H58.6076V33.257C58.6076 33.4639 58.6514 33.6152 58.739 33.7107C58.8345 33.7982 58.9897 33.842 59.2046 33.842H60.1835V35H58.8345C58.2694 35 57.8396 34.8846 57.5451 34.6538C57.2586 34.415 57.1154 34.0012 57.1154 33.4122V29.9501H56.029V28.7921H57.1154V26.8819H58.6076ZM63.9399 35.1433C63.3111 35.1433 62.766 35.004 62.3043 34.7254C61.8427 34.4389 61.4885 34.0529 61.2418 33.5674C60.9951 33.0739 60.8717 32.5168 60.8717 31.896C60.8717 31.2752 60.9951 30.7221 61.2418 30.2366C61.4885 29.7431 61.8427 29.3571 62.3043 29.0786C62.766 28.7921 63.3111 28.6488 63.9399 28.6488C64.5686 28.6488 65.1138 28.7881 65.5754 29.0666C66.0371 29.3452 66.3912 29.7392 66.638 30.2485C66.8847 30.7579 67.008 31.3469 67.008 32.0154V32.3736H62.364C62.4277 32.867 62.5948 33.257 62.8654 33.5435C63.144 33.8221 63.5021 33.9614 63.9399 33.9614C64.6562 33.9614 65.1496 33.6748 65.4202 33.1018H66.8887C66.6817 33.7306 66.3196 34.228 65.8023 34.5941C65.2849 34.9602 64.6641 35.1433 63.9399 35.1433ZM65.4919 31.2991C65.4123 30.8375 65.2372 30.4793 64.9666 30.2247C64.7039 29.962 64.3617 29.8307 63.9399 29.8307C63.5181 29.8307 63.1719 29.962 62.9013 30.2247C62.6386 30.4793 62.4635 30.8375 62.376 31.2991H65.4919ZM73.0479 35.1433C71.2412 35.1433 70.2941 34.415 70.2066 32.9585H71.6631C71.7108 33.3565 71.8501 33.639 72.0809 33.8062C72.3197 33.9733 72.6579 34.0569 73.0957 34.0569C73.4618 34.0569 73.7523 33.9932 73.9672 33.8659C74.19 33.7385 74.3014 33.5594 74.3014 33.3286C74.3014 33.1695 74.2656 33.0421 74.194 32.9466C74.1303 32.8511 73.995 32.7675 73.7881 32.6959C73.5812 32.6163 73.2668 32.5407 72.845 32.4691C72.2082 32.3576 71.7068 32.2144 71.3407 32.0393C70.9826 31.8642 70.7279 31.6533 70.5767 31.4066C70.4255 31.1598 70.3498 30.8614 70.3498 30.5112C70.3498 29.9302 70.5807 29.4765 71.0423 29.1502C71.5118 28.8159 72.1366 28.6488 72.9166 28.6488C73.7921 28.6488 74.4606 28.8358 74.9222 29.2099C75.3838 29.584 75.6226 30.1013 75.6385 30.7619H74.2417C74.2258 30.3799 74.0985 30.1132 73.8597 29.962C73.621 29.8108 73.3066 29.7352 72.9166 29.7352C72.5982 29.7352 72.3356 29.7989 72.1287 29.9262C71.9217 30.0535 71.8183 30.2286 71.8183 30.4515C71.8183 30.6107 71.8581 30.738 71.9376 30.8335C72.0252 30.929 72.1764 31.0126 72.3913 31.0842C72.6062 31.1479 72.9246 31.2155 73.3464 31.2872C73.9672 31.3906 74.4566 31.5259 74.8148 31.6931C75.1729 31.8602 75.4236 32.0711 75.5669 32.3258C75.7181 32.5725 75.7937 32.875 75.7937 33.2331C75.7937 33.838 75.539 34.3076 75.0297 34.6418C74.5283 34.9761 73.8677 35.1433 73.0479 35.1433ZM79.5407 35.1433C78.896 35.1433 78.3349 35.004 77.8574 34.7254C77.3878 34.4469 77.0257 34.0609 76.771 33.5674C76.5243 33.0739 76.4009 32.5168 76.4009 31.896C76.4009 31.2752 76.5243 30.7181 76.771 30.2247C77.0257 29.7312 77.3878 29.3452 77.8574 29.0666C78.3349 28.7881 78.896 28.6488 79.5407 28.6488C80.1854 28.6488 80.7425 28.7881 81.2121 29.0666C81.6896 29.3452 82.0517 29.7312 82.2984 30.2247C82.5531 30.7181 82.6805 31.2752 82.6805 31.896C82.6805 32.5168 82.5531 33.0739 82.2984 33.5674C82.0517 34.0609 81.6896 34.4469 81.2121 34.7254C80.7425 35.004 80.1854 35.1433 79.5407 35.1433ZM77.929 31.896C77.929 32.5168 78.0603 33.0063 78.323 33.3644C78.5936 33.7146 78.9995 33.8897 79.5407 33.8897C80.0819 33.8897 80.4838 33.7146 80.7465 33.3644C81.0171 33.0063 81.1524 32.5168 81.1524 31.896C81.1524 31.2752 81.0171 30.7897 80.7465 30.4396C80.4838 30.0814 80.0819 29.9023 79.5407 29.9023C78.9995 29.9023 78.5936 30.0814 78.323 30.4396C78.0603 30.7897 77.929 31.2752 77.929 31.896ZM91.4772 31.2633C91.4772 30.8733 91.3856 30.5589 91.2026 30.3202C91.0275 30.0814 90.7648 29.962 90.4147 29.962C90.0724 29.962 89.766 30.0894 89.4954 30.344C89.2248 30.5908 89.0895 31.0046 89.0895 31.5856V35H87.5853V31.2633C87.5853 30.8733 87.4937 30.5589 87.3107 30.3202C87.1356 30.0814 86.8729 29.962 86.5228 29.962C86.1805 29.962 85.8741 30.0894 85.6035 30.344C85.3409 30.5908 85.2095 31.0046 85.2095 31.5856V35H83.7053V28.7921H85.1618V29.6516C85.3608 29.3412 85.6115 29.0985 85.9139 28.9234C86.2243 28.7403 86.5864 28.6488 87.0003 28.6488C87.4301 28.6488 87.8002 28.7523 88.1106 28.9592C88.4289 29.1661 88.6717 29.4527 88.8388 29.8188C89.0616 29.4686 89.3442 29.186 89.6864 28.9711C90.0366 28.7562 90.4385 28.6488 90.8922 28.6488C91.5369 28.6488 92.0422 28.8717 92.4084 29.3173C92.7824 29.7551 92.9695 30.344 92.9695 31.0842V35H91.4772V31.2633ZM97.0618 35.1433C96.433 35.1433 95.8879 35.004 95.4262 34.7254C94.9646 34.4389 94.6105 34.0529 94.3637 33.5674C94.117 33.0739 93.9936 32.5168 93.9936 31.896C93.9936 31.2752 94.117 30.7221 94.3637 30.2366C94.6105 29.7431 94.9646 29.3571 95.4262 29.0786C95.8879 28.7921 96.433 28.6488 97.0618 28.6488C97.6905 28.6488 98.2357 28.7881 98.6973 29.0666C99.159 29.3452 99.5131 29.7392 99.7599 30.2485C100.007 30.7579 100.13 31.3469 100.13 32.0154V32.3736H95.4859C95.5496 32.867 95.7167 33.257 95.9873 33.5435C96.2659 33.8221 96.6241 33.9614 97.0618 33.9614C97.7781 33.9614 98.2715 33.6748 98.5421 33.1018H100.011C99.8036 33.7306 99.4415 34.228 98.9242 34.5941C98.4068 34.9602 97.7861 35.1433 97.0618 35.1433ZM98.6138 31.2991C98.5342 30.8375 98.3591 30.4793 98.0885 30.2247C97.8258 29.962 97.4836 29.8307 97.0618 29.8307C96.64 29.8307 96.2938 29.962 96.0232 30.2247C95.7605 30.4793 95.5854 30.8375 95.4979 31.2991H98.6138ZM105.871 26.8819V28.7921H107.447V29.9501H105.871V33.257C105.871 33.4639 105.915 33.6152 106.003 33.7107C106.098 33.7982 106.253 33.842 106.468 33.842H107.447V35H106.098C105.533 35 105.103 34.8846 104.809 34.6538C104.522 34.415 104.379 34.0012 104.379 33.4122V29.9501H103.293V28.7921H104.379V26.8819H105.871ZM111.204 35.1433C110.575 35.1433 110.03 35.004 109.568 34.7254C109.106 34.4389 108.752 34.0529 108.506 33.5674C108.259 33.0739 108.135 32.5168 108.135 31.896C108.135 31.2752 108.259 30.7221 108.506 30.2366C108.752 29.7431 109.106 29.3571 109.568 29.0786C110.03 28.7921 110.575 28.6488 111.204 28.6488C111.832 28.6488 112.378 28.7881 112.839 29.0666C113.301 29.3452 113.655 29.7392 113.902 30.2485C114.148 30.7579 114.272 31.3469 114.272 32.0154V32.3736H109.628C109.691 32.867 109.859 33.257 110.129 33.5435C110.408 33.8221 110.766 33.9614 111.204 33.9614C111.92 33.9614 112.413 33.6748 112.684 33.1018H114.152C113.945 33.7306 113.583 34.228 113.066 34.5941C112.549 34.9602 111.928 35.1433 111.204 35.1433ZM112.756 31.2991C112.676 30.8375 112.501 30.4793 112.23 30.2247C111.968 29.962 111.625 29.8307 111.204 29.8307C110.782 29.8307 110.436 29.962 110.165 30.2247C109.902 30.4793 109.727 30.8375 109.64 31.2991H112.756ZM117.807 33.0063L116.387 35H114.691L116.96 31.8244L114.799 28.7921H116.518L117.819 30.6067L119.109 28.7921H120.804L118.667 31.8005L120.935 35H119.216L117.807 33.0063ZM123.756 26.8819V28.7921H125.331V29.9501H123.756V33.257C123.756 33.4639 123.799 33.6152 123.887 33.7107C123.982 33.7982 124.138 33.842 124.352 33.842H125.331V35H123.982C123.417 35 122.988 34.8846 122.693 34.6538C122.407 34.415 122.263 34.0012 122.263 33.4122V29.9501H121.177V28.7921H122.263V26.8819H123.756ZM126.139 33.1496H127.846V35H126.139V33.1496ZM128.832 33.1496H130.539V35H128.832V33.1496ZM131.525 33.1496H133.232V35H131.525V33.1496Z" fill="#BFBFBF"/>
<path d="M70.1589 245.042H66.4222L65.7059 247H64.0465L67.3653 238.404H69.2277L72.5824 247H70.8752L70.1589 245.042ZM69.6575 243.669L68.2965 239.909L66.9236 243.669H69.6575ZM74.8549 238.404V245.257C74.8549 245.464 74.8986 245.615 74.9862 245.711C75.0737 245.798 75.2289 245.842 75.4518 245.842H76.2636V247H75.0698C74.5047 247 74.0749 246.885 73.7804 246.654C73.4939 246.415 73.3506 246.001 73.3506 245.412V238.404H74.8549ZM78.7255 238.404V245.257C78.7255 245.464 78.7693 245.615 78.8568 245.711C78.9444 245.798 79.0996 245.842 79.3224 245.842H80.1342V247H78.9404C78.3753 247 77.9455 246.885 77.6511 246.654C77.3645 246.415 77.2213 246.001 77.2213 245.412V238.404H78.7255ZM86.4973 247.143C85.8765 247.143 85.3353 247.004 84.8737 246.725C84.42 246.439 84.0698 246.053 83.8231 245.567C83.5764 245.074 83.453 244.517 83.453 243.896C83.453 243.275 83.5764 242.722 83.8231 242.237C84.0698 241.743 84.42 241.357 84.8737 241.079C85.3353 240.792 85.8765 240.649 86.4973 240.649C87.325 240.649 87.9856 240.864 88.479 241.293C88.9805 241.715 89.2789 242.288 89.3744 243.013H87.8702C87.7986 242.662 87.6434 242.392 87.4046 242.201C87.1658 242.002 86.8634 241.902 86.4973 241.902C86.0038 241.902 85.6258 242.081 85.3631 242.44C85.1085 242.798 84.9811 243.283 84.9811 243.896C84.9811 244.509 85.1085 244.994 85.3631 245.353C85.6258 245.711 86.0038 245.89 86.4973 245.89C86.8713 245.89 87.1778 245.786 87.4165 245.579C87.6553 245.372 87.8065 245.082 87.8702 244.708H89.3744C89.2789 245.44 88.9805 246.029 88.479 246.475C87.9776 246.92 87.317 247.143 86.4973 247.143ZM90.3022 238.404H91.8064V241.58C92.2998 240.959 92.9366 240.649 93.7165 240.649C94.4169 240.649 94.9581 240.872 95.3401 241.317C95.7301 241.755 95.9251 242.344 95.9251 243.084V247H94.4328V243.263C94.4328 242.865 94.3373 242.551 94.1463 242.32C93.9553 242.081 93.6529 241.962 93.239 241.962C92.9127 241.962 92.6023 242.069 92.3078 242.284C92.0213 242.499 91.8541 242.849 91.8064 243.335V247H90.3022V238.404ZM101.12 246.284C100.865 246.594 100.574 246.817 100.248 246.952C99.9297 247.08 99.5635 247.143 99.1497 247.143C98.4652 247.143 97.9161 246.98 97.5022 246.654C97.0883 246.32 96.8814 245.858 96.8814 245.269C96.8814 244.728 97.0724 244.31 97.4544 244.015C97.8444 243.713 98.4493 243.49 99.2691 243.347L101.072 243.025V242.666C101.072 242.38 100.98 242.165 100.797 242.022C100.614 241.878 100.328 241.807 99.9376 241.807C99.5715 241.807 99.2691 241.886 99.0303 242.046C98.7915 242.205 98.6642 242.448 98.6483 242.774H97.1679C97.1759 242.073 97.4385 241.544 97.9558 241.186C98.4732 240.828 99.1298 240.649 99.9257 240.649C100.793 240.649 101.446 240.812 101.884 241.138C102.321 241.465 102.54 241.918 102.54 242.499V247H101.12V246.284ZM98.4214 245.221C98.4214 245.476 98.509 245.675 98.6841 245.818C98.8671 245.961 99.1338 246.033 99.484 246.033C99.9217 246.033 100.296 245.914 100.606 245.675C100.917 245.428 101.072 245.066 101.072 244.588V244.039L99.5436 244.35C99.1537 244.429 98.8671 244.529 98.6841 244.648C98.509 244.768 98.4214 244.959 98.4214 245.221ZM107.794 243.263C107.794 242.865 107.698 242.551 107.507 242.32C107.316 242.081 107.014 241.962 106.6 241.962C106.273 241.962 105.963 242.069 105.668 242.284C105.382 242.499 105.215 242.849 105.167 243.335V247H103.663V240.792H105.119V241.64C105.35 241.337 105.629 241.098 105.955 240.923C106.281 240.74 106.655 240.649 107.077 240.649C107.778 240.649 108.319 240.872 108.701 241.317C109.091 241.755 109.286 242.344 109.286 243.084V247H107.794V243.263ZM113.37 249.531C112.51 249.531 111.838 249.34 111.352 248.958C110.875 248.576 110.612 248.047 110.564 247.37H112.033C112.12 248.031 112.582 248.361 113.418 248.361C114.476 248.361 115.005 247.852 115.005 246.833V246.093C114.56 246.69 113.923 246.988 113.095 246.988C112.506 246.988 112.001 246.853 111.579 246.582C111.165 246.304 110.851 245.926 110.636 245.448C110.421 244.97 110.314 244.425 110.314 243.812C110.314 243.208 110.421 242.666 110.636 242.189C110.851 241.703 111.165 241.325 111.579 241.055C112.001 240.784 112.506 240.649 113.095 240.649C113.955 240.649 114.608 240.967 115.053 241.604V240.792H116.51V246.833C116.51 247.724 116.219 248.397 115.638 248.85C115.057 249.304 114.301 249.531 113.37 249.531ZM111.842 243.812C111.842 244.417 111.973 244.895 112.236 245.245C112.506 245.587 112.908 245.758 113.442 245.758C113.967 245.758 114.361 245.587 114.623 245.245C114.894 244.895 115.029 244.417 115.029 243.812C115.029 243.208 114.894 242.734 114.623 242.392C114.361 242.042 113.967 241.867 113.442 241.867C112.908 241.867 112.506 242.042 112.236 242.392C111.973 242.734 111.842 243.208 111.842 243.812ZM120.61 247.143C119.981 247.143 119.436 247.004 118.975 246.725C118.513 246.439 118.159 246.053 117.912 245.567C117.665 245.074 117.542 244.517 117.542 243.896C117.542 243.275 117.665 242.722 117.912 242.237C118.159 241.743 118.513 241.357 118.975 241.079C119.436 240.792 119.981 240.649 120.61 240.649C121.239 240.649 121.784 240.788 122.246 241.067C122.707 241.345 123.061 241.739 123.308 242.249C123.555 242.758 123.678 243.347 123.678 244.015V244.374H119.034C119.098 244.867 119.265 245.257 119.536 245.544C119.814 245.822 120.172 245.961 120.61 245.961C121.326 245.961 121.82 245.675 122.091 245.102H123.559C123.352 245.731 122.99 246.228 122.473 246.594C121.955 246.96 121.334 247.143 120.61 247.143ZM122.162 243.299C122.083 242.837 121.907 242.479 121.637 242.225C121.374 241.962 121.032 241.831 120.61 241.831C120.188 241.831 119.842 241.962 119.572 242.225C119.309 242.479 119.134 242.837 119.046 243.299H122.162ZM127.118 247.143C125.312 247.143 124.365 246.415 124.277 244.959H125.733C125.781 245.356 125.921 245.639 126.151 245.806C126.39 245.973 126.728 246.057 127.166 246.057C127.532 246.057 127.823 245.993 128.038 245.866C128.26 245.739 128.372 245.559 128.372 245.329C128.372 245.169 128.336 245.042 128.264 244.947C128.201 244.851 128.065 244.768 127.859 244.696C127.652 244.616 127.337 244.541 126.915 244.469C126.279 244.358 125.777 244.214 125.411 244.039C125.053 243.864 124.798 243.653 124.647 243.407C124.496 243.16 124.42 242.861 124.42 242.511C124.42 241.93 124.651 241.477 125.113 241.15C125.582 240.816 126.207 240.649 126.987 240.649C127.862 240.649 128.531 240.836 128.993 241.21C129.454 241.584 129.693 242.101 129.709 242.762H128.312C128.296 242.38 128.169 242.113 127.93 241.962C127.691 241.811 127.377 241.735 126.987 241.735C126.669 241.735 126.406 241.799 126.199 241.926C125.992 242.054 125.889 242.229 125.889 242.451C125.889 242.611 125.928 242.738 126.008 242.834C126.096 242.929 126.247 243.013 126.462 243.084C126.677 243.148 126.995 243.216 127.417 243.287C128.038 243.391 128.527 243.526 128.885 243.693C129.243 243.86 129.494 244.071 129.637 244.326C129.789 244.573 129.864 244.875 129.864 245.233C129.864 245.838 129.609 246.308 129.1 246.642C128.599 246.976 127.938 247.143 127.118 247.143ZM137.238 246.284C136.983 246.594 136.692 246.817 136.366 246.952C136.048 247.08 135.682 247.143 135.268 247.143C134.583 247.143 134.034 246.98 133.62 246.654C133.206 246.32 133 245.858 133 245.269C133 244.728 133.191 244.31 133.573 244.015C133.963 243.713 134.567 243.49 135.387 243.347L137.19 243.025V242.666C137.19 242.38 137.098 242.165 136.915 242.022C136.732 241.878 136.446 241.807 136.056 241.807C135.69 241.807 135.387 241.886 135.148 242.046C134.91 242.205 134.782 242.448 134.766 242.774H133.286C133.294 242.073 133.557 241.544 134.074 241.186C134.591 240.828 135.248 240.649 136.044 240.649C136.911 240.649 137.564 240.812 138.002 241.138C138.439 241.465 138.658 241.918 138.658 242.499V247H137.238V246.284ZM134.54 245.221C134.54 245.476 134.627 245.675 134.802 245.818C134.985 245.961 135.252 246.033 135.602 246.033C136.04 246.033 136.414 245.914 136.724 245.675C137.035 245.428 137.19 245.066 137.19 244.588V244.039L135.662 244.35C135.272 244.429 134.985 244.529 134.802 244.648C134.627 244.768 134.54 244.959 134.54 245.221ZM139.781 240.792H141.237V241.902C141.612 241.114 142.236 240.72 143.112 240.72H143.601V242.105H143.052C142.487 242.105 142.049 242.249 141.739 242.535C141.436 242.822 141.285 243.307 141.285 243.992V247H139.781V240.792ZM147.355 247.143C146.726 247.143 146.181 247.004 145.719 246.725C145.258 246.439 144.903 246.053 144.657 245.567C144.41 245.074 144.287 244.517 144.287 243.896C144.287 243.275 144.41 242.722 144.657 242.237C144.903 241.743 145.258 241.357 145.719 241.079C146.181 240.792 146.726 240.649 147.355 240.649C147.984 240.649 148.529 240.788 148.99 241.067C149.452 241.345 149.806 241.739 150.053 242.249C150.3 242.758 150.423 243.347 150.423 244.015V244.374H145.779C145.843 244.867 146.01 245.257 146.28 245.544C146.559 245.822 146.917 245.961 147.355 245.961C148.071 245.961 148.565 245.675 148.835 245.102H150.304C150.097 245.731 149.735 246.228 149.217 246.594C148.7 246.96 148.079 247.143 147.355 247.143ZM148.907 243.299C148.827 242.837 148.652 242.479 148.382 242.225C148.119 241.962 147.777 241.831 147.355 241.831C146.933 241.831 146.587 241.962 146.316 242.225C146.054 242.479 145.878 242.837 145.791 243.299H148.907ZM157.943 246.284C157.689 246.594 157.398 246.817 157.072 246.952C156.753 247.08 156.387 247.143 155.973 247.143C155.289 247.143 154.74 246.98 154.326 246.654C153.912 246.32 153.705 245.858 153.705 245.269C153.705 244.728 153.896 244.31 154.278 244.015C154.668 243.713 155.273 243.49 156.093 243.347L157.895 243.025V242.666C157.895 242.38 157.804 242.165 157.621 242.022C157.438 241.878 157.151 241.807 156.761 241.807C156.395 241.807 156.093 241.886 155.854 242.046C155.615 242.205 155.488 242.448 155.472 242.774H153.992C154 242.073 154.262 241.544 154.78 241.186C155.297 240.828 155.953 240.649 156.749 240.649C157.617 240.649 158.27 240.812 158.707 241.138C159.145 241.465 159.364 241.918 159.364 242.499V247H157.943V246.284ZM155.245 245.221C155.245 245.476 155.333 245.675 155.508 245.818C155.691 245.961 155.957 246.033 156.308 246.033C156.745 246.033 157.119 245.914 157.43 245.675C157.74 245.428 157.895 245.066 157.895 244.588V244.039L156.367 244.35C155.977 244.429 155.691 244.529 155.508 244.648C155.333 244.768 155.245 244.959 155.245 245.221ZM161.979 244.529C161.979 244.927 162.074 245.245 162.265 245.484C162.456 245.715 162.759 245.83 163.173 245.83C163.499 245.83 163.805 245.723 164.092 245.508C164.386 245.293 164.558 244.943 164.605 244.457V240.792H166.11V247H164.653V246.152C164.422 246.455 164.144 246.698 163.817 246.881C163.491 247.056 163.117 247.143 162.695 247.143C161.995 247.143 161.45 246.924 161.06 246.487C160.678 246.041 160.487 245.448 160.487 244.708V240.792H161.979V244.529ZM169.525 238.882V240.792H171.101V241.95H169.525V245.257C169.525 245.464 169.569 245.615 169.656 245.711C169.752 245.798 169.907 245.842 170.122 245.842H171.101V247H169.752C169.187 247 168.757 246.885 168.463 246.654C168.176 246.415 168.033 246.001 168.033 245.412V241.95H166.946V240.792H168.033V238.882H169.525ZM174.929 247.143C174.284 247.143 173.723 247.004 173.246 246.725C172.776 246.447 172.414 246.061 172.159 245.567C171.913 245.074 171.789 244.517 171.789 243.896C171.789 243.275 171.913 242.718 172.159 242.225C172.414 241.731 172.776 241.345 173.246 241.067C173.723 240.788 174.284 240.649 174.929 240.649C175.574 240.649 176.131 240.788 176.6 241.067C177.078 241.345 177.44 241.731 177.687 242.225C177.941 242.718 178.069 243.275 178.069 243.896C178.069 244.517 177.941 245.074 177.687 245.567C177.44 246.061 177.078 246.447 176.6 246.725C176.131 247.004 175.574 247.143 174.929 247.143ZM173.317 243.896C173.317 244.517 173.449 245.006 173.711 245.364C173.982 245.715 174.388 245.89 174.929 245.89C175.47 245.89 175.872 245.715 176.135 245.364C176.405 245.006 176.541 244.517 176.541 243.896C176.541 243.275 176.405 242.79 176.135 242.44C175.872 242.081 175.47 241.902 174.929 241.902C174.388 241.902 173.982 242.081 173.711 242.44C173.449 242.79 173.317 243.275 173.317 243.896ZM186.865 243.263C186.865 242.873 186.774 242.559 186.591 242.32C186.416 242.081 186.153 241.962 185.803 241.962C185.461 241.962 185.154 242.089 184.884 242.344C184.613 242.591 184.478 243.005 184.478 243.586V247H182.974V243.263C182.974 242.873 182.882 242.559 182.699 242.32C182.524 242.081 182.261 241.962 181.911 241.962C181.569 241.962 181.262 242.089 180.992 242.344C180.729 242.591 180.598 243.005 180.598 243.586V247H179.094V240.792H180.55V241.652C180.749 241.341 181 241.098 181.302 240.923C181.613 240.74 181.975 240.649 182.389 240.649C182.818 240.649 183.188 240.752 183.499 240.959C183.817 241.166 184.06 241.453 184.227 241.819C184.45 241.469 184.732 241.186 185.075 240.971C185.425 240.756 185.827 240.649 186.28 240.649C186.925 240.649 187.431 240.872 187.797 241.317C188.171 241.755 188.358 242.344 188.358 243.084V247H186.865V243.263ZM193.548 246.284C193.294 246.594 193.003 246.817 192.677 246.952C192.359 247.08 191.992 247.143 191.579 247.143C190.894 247.143 190.345 246.98 189.931 246.654C189.517 246.32 189.31 245.858 189.31 245.269C189.31 244.728 189.501 244.31 189.883 244.015C190.273 243.713 190.878 243.49 191.698 243.347L193.501 243.025V242.666C193.501 242.38 193.409 242.165 193.226 242.022C193.043 241.878 192.756 241.807 192.366 241.807C192 241.807 191.698 241.886 191.459 242.046C191.22 242.205 191.093 242.448 191.077 242.774H189.597C189.605 242.073 189.867 241.544 190.385 241.186C190.902 240.828 191.559 240.649 192.355 240.649C193.222 240.649 193.875 240.812 194.312 241.138C194.75 241.465 194.969 241.918 194.969 242.499V247H193.548V246.284ZM190.85 245.221C190.85 245.476 190.938 245.675 191.113 245.818C191.296 245.961 191.563 246.033 191.913 246.033C192.351 246.033 192.725 245.914 193.035 245.675C193.345 245.428 193.501 245.066 193.501 244.588V244.039L191.973 244.35C191.583 244.429 191.296 244.529 191.113 244.648C190.938 244.768 190.85 244.959 190.85 245.221ZM198.217 238.882V240.792H199.793V241.95H198.217V245.257C198.217 245.464 198.261 245.615 198.348 245.711C198.444 245.798 198.599 245.842 198.814 245.842H199.793V247H198.444C197.878 247 197.449 246.885 197.154 246.654C196.868 246.415 196.724 246.001 196.724 245.412V241.95H195.638V240.792H196.724V238.882H198.217ZM200.732 240.792H202.224V247H200.732V240.792ZM200.732 238.404H202.236V239.801H200.732V238.404ZM206.312 247.143C205.691 247.143 205.15 247.004 204.688 246.725C204.235 246.439 203.885 246.053 203.638 245.567C203.391 245.074 203.268 244.517 203.268 243.896C203.268 243.275 203.391 242.722 203.638 242.237C203.885 241.743 204.235 241.357 204.688 241.079C205.15 240.792 205.691 240.649 206.312 240.649C207.14 240.649 207.8 240.864 208.294 241.293C208.795 241.715 209.094 242.288 209.189 243.013H207.685C207.613 242.662 207.458 242.392 207.219 242.201C206.981 242.002 206.678 241.902 206.312 241.902C205.819 241.902 205.441 242.081 205.178 242.44C204.923 242.798 204.796 243.283 204.796 243.896C204.796 244.509 204.923 244.994 205.178 245.353C205.441 245.711 205.819 245.89 206.312 245.89C206.686 245.89 206.993 245.786 207.231 245.579C207.47 245.372 207.621 245.082 207.685 244.708H209.189C209.094 245.44 208.795 246.029 208.294 246.475C207.792 246.92 207.132 247.143 206.312 247.143ZM214.021 246.284C213.766 246.594 213.476 246.817 213.149 246.952C212.831 247.08 212.465 247.143 212.051 247.143C211.366 247.143 210.817 246.98 210.403 246.654C209.99 246.32 209.783 245.858 209.783 245.269C209.783 244.728 209.974 244.31 210.356 244.015C210.746 243.713 211.351 243.49 212.17 243.347L213.973 243.025V242.666C213.973 242.38 213.882 242.165 213.698 242.022C213.515 241.878 213.229 241.807 212.839 241.807C212.473 241.807 212.17 241.886 211.932 242.046C211.693 242.205 211.565 242.448 211.55 242.774H210.069C210.077 242.073 210.34 241.544 210.857 241.186C211.374 240.828 212.031 240.649 212.827 240.649C213.694 240.649 214.347 240.812 214.785 241.138C215.223 241.465 215.441 241.918 215.441 242.499V247H214.021V246.284ZM211.323 245.221C211.323 245.476 211.41 245.675 211.585 245.818C211.768 245.961 212.035 246.033 212.385 246.033C212.823 246.033 213.197 245.914 213.507 245.675C213.818 245.428 213.973 245.066 213.973 244.588V244.039L212.445 244.35C212.055 244.429 211.768 244.529 211.585 244.648C211.41 244.768 211.323 244.959 211.323 245.221ZM218.068 238.404V245.257C218.068 245.464 218.112 245.615 218.2 245.711C218.287 245.798 218.442 245.842 218.665 245.842H219.477V247H218.283C217.718 247 217.288 246.885 216.994 246.654C216.707 246.415 216.564 246.001 216.564 245.412V238.404H218.068ZM221.939 238.404V245.257C221.939 245.464 221.983 245.615 222.07 245.711C222.158 245.798 222.313 245.842 222.536 245.842H223.348V247H222.154C221.589 247 221.159 246.885 220.865 246.654C220.578 246.415 220.435 246.001 220.435 245.412V238.404H221.939ZM224.019 248.158H224.998C225.292 248.158 225.495 248.106 225.607 248.003C225.726 247.907 225.837 247.712 225.941 247.418L226.084 247.06L223.732 240.792H225.344L226.872 245.52L228.388 240.792H230.012L227.457 247.704C227.25 248.261 227.003 248.679 226.717 248.958C226.43 249.244 226.013 249.388 225.463 249.388H224.019V248.158ZM86.5871 257.792H88.1988L89.8105 262.591L91.3864 257.792H93.01L90.6462 264H88.9509L86.5871 257.792ZM96.5178 264.143C95.889 264.143 95.3439 264.004 94.8822 263.725C94.4206 263.439 94.0664 263.053 93.8197 262.567C93.573 262.074 93.4496 261.517 93.4496 260.896C93.4496 260.275 93.573 259.722 93.8197 259.237C94.0664 258.743 94.4206 258.357 94.8822 258.079C95.3439 257.792 95.889 257.649 96.5178 257.649C97.1465 257.649 97.6917 257.788 98.1533 258.067C98.615 258.345 98.9691 258.739 99.2159 259.249C99.4626 259.758 99.5859 260.347 99.5859 261.015V261.374H94.9419C95.0056 261.867 95.1727 262.257 95.4433 262.544C95.7219 262.822 96.08 262.961 96.5178 262.961C97.2341 262.961 97.7275 262.675 97.9981 262.102H99.4666C99.2596 262.731 98.8975 263.228 98.3802 263.594C97.8628 263.96 97.242 264.143 96.5178 264.143ZM98.0698 260.299C97.9902 259.837 97.8151 259.479 97.5445 259.225C97.2818 258.962 96.9396 258.831 96.5178 258.831C96.096 258.831 95.7498 258.962 95.4792 259.225C95.2165 259.479 95.0414 259.837 94.9539 260.299H98.0698ZM100.602 257.792H102.059V258.902C102.433 258.114 103.058 257.72 103.933 257.72H104.423V259.105H103.874C103.308 259.105 102.871 259.249 102.56 259.535C102.258 259.822 102.107 260.307 102.107 260.992V264H100.602V257.792ZM107.794 264.143C105.988 264.143 105.041 263.415 104.953 261.959H106.409C106.457 262.356 106.596 262.639 106.827 262.806C107.066 262.973 107.404 263.057 107.842 263.057C108.208 263.057 108.499 262.993 108.714 262.866C108.936 262.739 109.048 262.559 109.048 262.329C109.048 262.169 109.012 262.042 108.94 261.947C108.877 261.851 108.741 261.768 108.534 261.696C108.328 261.616 108.013 261.541 107.591 261.469C106.955 261.358 106.453 261.214 106.087 261.039C105.729 260.864 105.474 260.653 105.323 260.407C105.172 260.16 105.096 259.861 105.096 259.511C105.096 258.93 105.327 258.477 105.789 258.15C106.258 257.816 106.883 257.649 107.663 257.649C108.538 257.649 109.207 257.836 109.669 258.21C110.13 258.584 110.369 259.101 110.385 259.762H108.988C108.972 259.38 108.845 259.113 108.606 258.962C108.367 258.811 108.053 258.735 107.663 258.735C107.345 258.735 107.082 258.799 106.875 258.926C106.668 259.054 106.565 259.229 106.565 259.451C106.565 259.611 106.604 259.738 106.684 259.834C106.772 259.929 106.923 260.013 107.138 260.084C107.353 260.148 107.671 260.216 108.093 260.287C108.714 260.391 109.203 260.526 109.561 260.693C109.919 260.86 110.17 261.071 110.313 261.326C110.465 261.573 110.54 261.875 110.54 262.233C110.54 262.838 110.285 263.308 109.776 263.642C109.275 263.976 108.614 264.143 107.794 264.143ZM111.398 257.792H112.89V264H111.398V257.792ZM111.398 255.404H112.902V256.801H111.398V255.404ZM117.05 264.143C116.405 264.143 115.844 264.004 115.367 263.725C114.897 263.447 114.535 263.061 114.28 262.567C114.034 262.074 113.91 261.517 113.91 260.896C113.91 260.275 114.034 259.718 114.28 259.225C114.535 258.731 114.897 258.345 115.367 258.067C115.844 257.788 116.405 257.649 117.05 257.649C117.695 257.649 118.252 257.788 118.722 258.067C119.199 258.345 119.561 258.731 119.808 259.225C120.063 259.718 120.19 260.275 120.19 260.896C120.19 261.517 120.063 262.074 119.808 262.567C119.561 263.061 119.199 263.447 118.722 263.725C118.252 264.004 117.695 264.143 117.05 264.143ZM115.438 260.896C115.438 261.517 115.57 262.006 115.832 262.364C116.103 262.715 116.509 262.89 117.05 262.89C117.591 262.89 117.993 262.715 118.256 262.364C118.527 262.006 118.662 261.517 118.662 260.896C118.662 260.275 118.527 259.79 118.256 259.44C117.993 259.081 117.591 258.902 117.05 258.902C116.509 258.902 116.103 259.081 115.832 259.44C115.57 259.79 115.438 260.275 115.438 260.896ZM125.345 260.263C125.345 259.865 125.25 259.551 125.059 259.32C124.868 259.081 124.565 258.962 124.152 258.962C123.825 258.962 123.515 259.069 123.22 259.284C122.934 259.499 122.767 259.849 122.719 260.335V264H121.215V257.792H122.671V258.64C122.902 258.337 123.181 258.098 123.507 257.923C123.833 257.74 124.207 257.649 124.629 257.649C125.33 257.649 125.871 257.872 126.253 258.317C126.643 258.755 126.838 259.344 126.838 260.084V264H125.345V260.263ZM130.934 264.143C130.305 264.143 129.76 264.004 129.298 263.725C128.837 263.439 128.482 263.053 128.236 262.567C127.989 262.074 127.866 261.517 127.866 260.896C127.866 260.275 127.989 259.722 128.236 259.237C128.482 258.743 128.837 258.357 129.298 258.079C129.76 257.792 130.305 257.649 130.934 257.649C131.563 257.649 132.108 257.788 132.569 258.067C133.031 258.345 133.385 258.739 133.632 259.249C133.879 259.758 134.002 260.347 134.002 261.015V261.374H129.358C129.422 261.867 129.589 262.257 129.859 262.544C130.138 262.822 130.496 262.961 130.934 262.961C131.65 262.961 132.144 262.675 132.414 262.102H133.883C133.676 262.731 133.314 263.228 132.796 263.594C132.279 263.96 131.658 264.143 130.934 264.143ZM132.486 260.299C132.406 259.837 132.231 259.479 131.96 259.225C131.698 258.962 131.356 258.831 130.934 258.831C130.512 258.831 130.166 258.962 129.895 259.225C129.633 259.479 129.457 259.837 129.37 260.299H132.486ZM139.507 264V263.14C139.292 263.459 139.018 263.706 138.684 263.881C138.357 264.056 137.975 264.143 137.537 264.143C136.949 264.143 136.443 264.004 136.021 263.725C135.607 263.447 135.293 263.061 135.078 262.567C134.863 262.074 134.756 261.517 134.756 260.896C134.756 260.275 134.863 259.718 135.078 259.225C135.293 258.731 135.607 258.345 136.021 258.067C136.443 257.788 136.949 257.649 137.537 257.649C138.365 257.649 139.002 257.955 139.448 258.568V255.404H140.952V264H139.507ZM136.284 260.896C136.284 261.517 136.415 262.006 136.678 262.364C136.949 262.715 137.35 262.89 137.884 262.89C138.409 262.89 138.803 262.715 139.066 262.364C139.336 262.006 139.471 261.517 139.471 260.896C139.471 260.275 139.336 259.79 139.066 259.44C138.803 259.081 138.409 258.902 137.884 258.902C137.35 258.902 136.949 259.081 136.678 259.44C136.415 259.79 136.284 260.275 136.284 260.896ZM148.75 263.284C148.496 263.594 148.205 263.817 147.879 263.952C147.561 264.08 147.194 264.143 146.781 264.143C146.096 264.143 145.547 263.98 145.133 263.654C144.719 263.32 144.512 262.858 144.512 262.269C144.512 261.728 144.703 261.31 145.085 261.015C145.475 260.713 146.08 260.49 146.9 260.347L148.703 260.025V259.666C148.703 259.38 148.611 259.165 148.428 259.022C148.245 258.878 147.959 258.807 147.569 258.807C147.202 258.807 146.9 258.886 146.661 259.046C146.422 259.205 146.295 259.448 146.279 259.774H144.799C144.807 259.073 145.069 258.544 145.587 258.186C146.104 257.828 146.761 257.649 147.557 257.649C148.424 257.649 149.077 257.812 149.515 258.138C149.952 258.465 150.171 258.918 150.171 259.499V264H148.75V263.284ZM146.052 262.221C146.052 262.476 146.14 262.675 146.315 262.818C146.498 262.961 146.765 263.033 147.115 263.033C147.553 263.033 147.927 262.914 148.237 262.675C148.548 262.428 148.703 262.066 148.703 261.588V261.039L147.175 261.35C146.785 261.429 146.498 261.529 146.315 261.648C146.14 261.768 146.052 261.959 146.052 262.221ZM155.424 260.263C155.424 259.865 155.329 259.551 155.138 259.32C154.947 259.081 154.644 258.962 154.231 258.962C153.904 258.962 153.594 259.069 153.299 259.284C153.013 259.499 152.846 259.849 152.798 260.335V264H151.294V257.792H152.75V258.64C152.981 258.337 153.26 258.098 153.586 257.923C153.912 257.74 154.286 257.649 154.708 257.649C155.409 257.649 155.95 257.872 156.332 258.317C156.722 258.755 156.917 259.344 156.917 260.084V264H155.424V260.263ZM162.696 264V263.14C162.481 263.459 162.207 263.706 161.872 263.881C161.546 264.056 161.164 264.143 160.726 264.143C160.137 264.143 159.632 264.004 159.21 263.725C158.796 263.447 158.482 263.061 158.267 262.567C158.052 262.074 157.945 261.517 157.945 260.896C157.945 260.275 158.052 259.718 158.267 259.225C158.482 258.731 158.796 258.345 159.21 258.067C159.632 257.788 160.137 257.649 160.726 257.649C161.554 257.649 162.191 257.955 162.636 258.568V255.404H164.141V264H162.696ZM159.473 260.896C159.473 261.517 159.604 262.006 159.867 262.364C160.137 262.715 160.539 262.89 161.073 262.89C161.598 262.89 161.992 262.715 162.254 262.364C162.525 262.006 162.66 261.517 162.66 260.896C162.66 260.275 162.525 259.79 162.254 259.44C161.992 259.081 161.598 258.902 161.073 258.902C160.539 258.902 160.137 259.081 159.867 259.44C159.604 259.79 159.473 260.275 159.473 260.896ZM170.459 264.143C168.652 264.143 167.705 263.415 167.618 261.959H169.074C169.122 262.356 169.261 262.639 169.492 262.806C169.731 262.973 170.069 263.057 170.507 263.057C170.873 263.057 171.163 262.993 171.378 262.866C171.601 262.739 171.712 262.559 171.712 262.329C171.712 262.169 171.677 262.042 171.605 261.947C171.541 261.851 171.406 261.768 171.199 261.696C170.992 261.616 170.678 261.541 170.256 261.469C169.619 261.358 169.118 261.214 168.752 261.039C168.394 260.864 168.139 260.653 167.988 260.407C167.836 260.16 167.761 259.861 167.761 259.511C167.761 258.93 167.992 258.477 168.453 258.15C168.923 257.816 169.548 257.649 170.328 257.649C171.203 257.649 171.872 257.836 172.333 258.21C172.795 258.584 173.034 259.101 173.05 259.762H171.653C171.637 259.38 171.51 259.113 171.271 258.962C171.032 258.811 170.718 258.735 170.328 258.735C170.009 258.735 169.747 258.799 169.54 258.926C169.333 259.054 169.229 259.229 169.229 259.451C169.229 259.611 169.269 259.738 169.349 259.834C169.436 259.929 169.587 260.013 169.802 260.084C170.017 260.148 170.336 260.216 170.757 260.287C171.378 260.391 171.868 260.526 172.226 260.693C172.584 260.86 172.835 261.071 172.978 261.326C173.129 261.573 173.205 261.875 173.205 262.233C173.205 262.838 172.95 263.308 172.441 263.642C171.939 263.976 171.279 264.143 170.459 264.143ZM173.788 265.158H174.767C175.061 265.158 175.264 265.106 175.376 265.003C175.495 264.907 175.607 264.712 175.71 264.418L175.853 264.06L173.502 257.792H175.113L176.641 262.52L178.157 257.792H179.781L177.226 264.704C177.019 265.261 176.773 265.679 176.486 265.958C176.2 266.244 175.782 266.388 175.233 266.388H173.788V265.158ZM184.617 260.263C184.617 259.865 184.522 259.551 184.331 259.32C184.14 259.081 183.837 258.962 183.424 258.962C183.097 258.962 182.787 259.069 182.492 259.284C182.206 259.499 182.039 259.849 181.991 260.335V264H180.487V257.792H181.943V258.64C182.174 258.337 182.453 258.098 182.779 257.923C183.105 257.74 183.479 257.649 183.901 257.649C184.602 257.649 185.143 257.872 185.525 258.317C185.915 258.755 186.11 259.344 186.11 260.084V264H184.617V260.263ZM190.206 264.143C189.585 264.143 189.044 264.004 188.582 263.725C188.129 263.439 187.778 263.053 187.532 262.567C187.285 262.074 187.162 261.517 187.162 260.896C187.162 260.275 187.285 259.722 187.532 259.237C187.778 258.743 188.129 258.357 188.582 258.079C189.044 257.792 189.585 257.649 190.206 257.649C191.034 257.649 191.694 257.864 192.188 258.293C192.689 258.715 192.987 259.288 193.083 260.013H191.579C191.507 259.662 191.352 259.392 191.113 259.201C190.874 259.002 190.572 258.902 190.206 258.902C189.712 258.902 189.334 259.081 189.072 259.44C188.817 259.798 188.69 260.283 188.69 260.896C188.69 261.509 188.817 261.994 189.072 262.353C189.334 262.711 189.712 262.89 190.206 262.89C190.58 262.89 190.886 262.786 191.125 262.579C191.364 262.372 191.515 262.082 191.579 261.708H193.083C192.987 262.44 192.689 263.029 192.188 263.475C191.686 263.92 191.026 264.143 190.206 264.143ZM196.816 264.143C196.187 264.143 195.642 264.004 195.181 263.725C194.719 263.439 194.365 263.053 194.118 262.567C193.871 262.074 193.748 261.517 193.748 260.896C193.748 260.275 193.871 259.722 194.118 259.237C194.365 258.743 194.719 258.357 195.181 258.079C195.642 257.792 196.187 257.649 196.816 257.649C197.445 257.649 197.99 257.788 198.452 258.067C198.913 258.345 199.268 258.739 199.514 259.249C199.761 259.758 199.884 260.347 199.884 261.015V261.374H195.24C195.304 261.867 195.471 262.257 195.742 262.544C196.02 262.822 196.378 262.961 196.816 262.961C197.532 262.961 198.026 262.675 198.297 262.102H199.765C199.558 262.731 199.196 263.228 198.679 263.594C198.161 263.96 197.54 264.143 196.816 264.143ZM198.368 260.299C198.289 259.837 198.113 259.479 197.843 259.225C197.58 258.962 197.238 258.831 196.816 258.831C196.394 258.831 196.048 258.962 195.778 259.225C195.515 259.479 195.34 259.837 195.252 260.299H198.368ZM205.39 264V263.14C205.175 263.459 204.9 263.706 204.566 263.881C204.24 264.056 203.858 264.143 203.42 264.143C202.831 264.143 202.326 264.004 201.904 263.725C201.49 263.447 201.175 263.061 200.961 262.567C200.746 262.074 200.638 261.517 200.638 260.896C200.638 260.275 200.746 259.718 200.961 259.225C201.175 258.731 201.49 258.345 201.904 258.067C202.326 257.788 202.831 257.649 203.42 257.649C204.248 257.649 204.884 257.955 205.33 258.568V255.404H206.834V264H205.39ZM202.166 260.896C202.166 261.517 202.298 262.006 202.56 262.364C202.831 262.715 203.233 262.89 203.766 262.89C204.291 262.89 204.685 262.715 204.948 262.364C205.219 262.006 205.354 261.517 205.354 260.896C205.354 260.275 205.219 259.79 204.948 259.44C204.685 259.081 204.291 258.902 203.766 258.902C203.233 258.902 202.831 259.081 202.56 259.44C202.298 259.79 202.166 260.275 202.166 260.896Z" fill="black" fill-opacity="0.6"/>
<defs>
<linearGradient id="paint0_linear_794_2168" x1="147" y1="0" x2="147" y2="353" gradientUnits="userSpaceOnUse">
<stop stop-color="#C1B9B9"/>
<stop offset="1" stop-color="#C1B9B9" stop-opacity="0"/>
</linearGradient>
</defs>
</svg>
