<svg width="517" height="275" viewBox="0 0 517 275" fill="none" xmlns="http://www.w3.org/2000/svg">
<mask id="path-1-inside-1_1451_1626" fill="white">
<path d="M49 44C49 39.5817 52.5817 36 57 36H461C465.418 36 469 39.5817 469 44V240H49V44Z"/>
</mask>
<path d="M48 44C48 39.0294 52.0294 35 57 35H461C465.971 35 470 39.0294 470 44H468C468 40.134 464.866 37 461 37H57C53.134 37 50 40.134 50 44H48ZM469 240H49H469ZM48 240V44C48 39.0294 52.0294 35 57 35V37C53.134 37 50 40.134 50 44V240H48ZM461 35C465.971 35 470 39.0294 470 44V240H468V44C468 40.134 464.866 37 461 37V35Z" fill="url(#paint0_linear_1451_1626)" mask="url(#path-1-inside-1_1451_1626)"/>
<rect x="65.6849" y="102.329" width="386.299" height="49.3148" rx="24.6574" fill="#F5F5F5" stroke="#EFEFEF" stroke-width="1.36986"/>
<path d="M92.21 85L92.21 174.096C92.21 178.185 88.8951 181.5 84.8061 181.5L71 181.5" stroke="url(#paint1_linear_1451_1626)" stroke-width="2"/>
<path d="M132.065 70.4763H136.449C137.767 70.4763 138.872 70.7345 139.762 71.2509C140.652 71.7673 141.316 72.4705 141.756 73.3605C142.195 74.2505 142.415 75.2668 142.415 76.4095C142.415 77.5522 142.195 78.5686 141.756 79.4586C141.316 80.3485 140.652 81.0517 139.762 81.5682C138.872 82.0846 137.767 82.3428 136.449 82.3428H132.065V70.4763ZM136.449 80.4145C137.679 80.4145 138.597 80.0464 139.201 79.3102C139.806 78.5741 140.108 77.6072 140.108 76.4095C140.108 75.2119 139.806 74.245 139.201 73.5088C138.597 72.7727 137.679 72.4046 136.449 72.4046H134.273V80.4145H136.449ZM147.7 82.5405C146.832 82.5405 146.08 82.3483 145.442 81.9637C144.805 81.5682 144.316 81.0353 143.975 80.365C143.635 79.6838 143.465 78.9147 143.465 78.0576C143.465 77.2006 143.635 76.437 143.975 75.7668C144.316 75.0855 144.805 74.5526 145.442 74.1681C146.08 73.7725 146.832 73.5747 147.7 73.5747C148.568 73.5747 149.321 73.767 149.958 74.1516C150.595 74.5362 151.084 75.08 151.425 75.7832C151.766 76.4864 151.936 77.2995 151.936 78.2225V78.7169H145.525C145.613 79.3981 145.843 79.9365 146.217 80.3321C146.601 80.7166 147.096 80.9089 147.7 80.9089C148.689 80.9089 149.37 80.5134 149.744 79.7223H151.771C151.485 80.5903 150.985 81.277 150.271 81.7824C149.557 82.2878 148.7 82.5405 147.7 82.5405ZM149.843 77.2336C149.733 76.5963 149.491 76.1019 149.118 75.7503C148.755 75.3877 148.283 75.2064 147.7 75.2064C147.118 75.2064 146.64 75.3877 146.266 75.7503C145.904 76.1019 145.662 76.5963 145.541 77.2336H149.843ZM155.416 70.4763V79.9365C155.416 80.2222 155.476 80.4309 155.597 80.5628C155.718 80.6837 155.932 80.7441 156.24 80.7441H157.361V82.3428H155.713C154.932 82.3428 154.339 82.1835 153.933 81.8648C153.537 81.5352 153.339 80.9638 153.339 80.1508V70.4763H155.416ZM162.556 82.5405C161.688 82.5405 160.935 82.3483 160.298 81.9637C159.661 81.5682 159.172 81.0353 158.831 80.365C158.491 79.6838 158.32 78.9147 158.32 78.0576C158.32 77.2006 158.491 76.437 158.831 75.7668C159.172 75.0855 159.661 74.5526 160.298 74.1681C160.935 73.7725 161.688 73.5747 162.556 73.5747C163.424 73.5747 164.177 73.767 164.814 74.1516C165.451 74.5362 165.94 75.08 166.281 75.7832C166.621 76.4864 166.792 77.2995 166.792 78.2225V78.7169H160.38C160.468 79.3981 160.699 79.9365 161.073 80.3321C161.457 80.7166 161.952 80.9089 162.556 80.9089C163.545 80.9089 164.226 80.5134 164.6 79.7223H166.627C166.341 80.5903 165.841 81.277 165.127 81.7824C164.413 82.2878 163.556 82.5405 162.556 82.5405ZM164.698 77.2336C164.589 76.5963 164.347 76.1019 163.973 75.7503C163.611 75.3877 163.138 75.2064 162.556 75.2064C161.974 75.2064 161.496 75.3877 161.122 75.7503C160.759 76.1019 160.518 76.5963 160.397 77.2336H164.698ZM171.129 71.1355V73.7725H173.304V75.3712H171.129V79.9365C171.129 80.2222 171.189 80.4309 171.31 80.5628C171.442 80.6837 171.656 80.7441 171.953 80.7441H173.304V82.3428H171.442C170.662 82.3428 170.068 82.1835 169.662 81.8648C169.266 81.5352 169.068 80.9638 169.068 80.1508V75.3712H167.569V73.7725H169.068V71.1355H171.129ZM178.49 82.5405C177.622 82.5405 176.869 82.3483 176.232 81.9637C175.595 81.5682 175.106 81.0353 174.765 80.365C174.425 79.6838 174.254 78.9147 174.254 78.0576C174.254 77.2006 174.425 76.437 174.765 75.7668C175.106 75.0855 175.595 74.5526 176.232 74.1681C176.869 73.7725 177.622 73.5747 178.49 73.5747C179.358 73.5747 180.111 73.767 180.748 74.1516C181.385 74.5362 181.874 75.08 182.215 75.7832C182.555 76.4864 182.726 77.2995 182.726 78.2225V78.7169H176.314C176.402 79.3981 176.633 79.9365 177.007 80.3321C177.391 80.7166 177.886 80.9089 178.49 80.9089C179.479 80.9089 180.16 80.5134 180.534 79.7223H182.561C182.275 80.5903 181.775 81.277 181.061 81.7824C180.347 82.2878 179.49 82.5405 178.49 82.5405ZM180.632 77.2336C180.523 76.5963 180.281 76.1019 179.907 75.7503C179.545 75.3877 179.072 75.2064 178.49 75.2064C177.908 75.2064 177.43 75.3877 177.056 75.7503C176.693 76.1019 176.452 76.5963 176.331 77.2336H180.632ZM192.316 82.5405C190.789 82.5405 189.57 82.1835 188.658 81.4693C187.757 80.7441 187.29 79.7058 187.257 78.3543H189.449C189.504 79.9365 190.481 80.7276 192.382 80.7276C193.107 80.7276 193.69 80.5793 194.129 80.2826C194.58 79.986 194.805 79.5684 194.805 79.03C194.805 78.7334 194.728 78.4862 194.574 78.2884C194.421 78.0796 194.129 77.8928 193.701 77.728C193.272 77.5632 192.646 77.3984 191.822 77.2336C190.339 76.9589 189.256 76.5469 188.575 75.9975C187.905 75.4371 187.57 74.635 187.57 73.5912C187.57 72.943 187.751 72.3716 188.114 71.8772C188.476 71.3718 188.993 70.9817 189.663 70.707C190.333 70.4213 191.102 70.2785 191.97 70.2785C193.52 70.2785 194.695 70.6356 195.497 71.3498C196.31 72.053 196.739 73.0199 196.783 74.2505H194.64C194.596 73.5143 194.36 72.9704 193.932 72.6188C193.503 72.2672 192.849 72.0914 191.97 72.0914C191.322 72.0914 190.806 72.2233 190.421 72.487C190.036 72.7397 189.844 73.0858 189.844 73.5253C189.844 73.8439 189.91 74.1076 190.042 74.3164C190.185 74.5142 190.454 74.6955 190.85 74.8603C191.256 75.0251 191.849 75.1844 192.63 75.3382C193.783 75.547 194.679 75.8162 195.316 76.1458C195.964 76.4645 196.42 76.849 196.684 77.2995C196.948 77.739 197.079 78.2829 197.079 78.9312C197.079 79.6893 196.876 80.3376 196.47 80.8759C196.074 81.4143 195.514 81.8264 194.789 82.112C194.074 82.3977 193.25 82.5405 192.316 82.5405ZM200.433 78.9312C200.433 79.4805 200.565 79.92 200.829 80.2497C201.092 80.5683 201.51 80.7276 202.081 80.7276C202.532 80.7276 202.955 80.5793 203.35 80.2826C203.757 79.986 203.993 79.5025 204.059 78.8323V73.7725H206.136V82.3428H204.125V81.1726C203.806 81.5901 203.422 81.9252 202.971 82.178C202.521 82.4197 202.004 82.5405 201.422 82.5405C200.455 82.5405 199.702 82.2384 199.164 81.6341C198.637 81.0188 198.373 80.2002 198.373 79.1784V73.7725H200.433V78.9312ZM209.912 73.7725V74.9592C210.208 74.5197 210.582 74.1791 211.032 73.9373C211.494 73.6956 212.027 73.5747 212.631 73.5747C213.444 73.5747 214.136 73.767 214.708 74.1516C215.29 74.5362 215.729 75.069 216.026 75.7503C216.323 76.4315 216.471 77.2006 216.471 78.0576C216.471 78.9147 216.323 79.6838 216.026 80.365C215.729 81.0462 215.29 81.5791 214.708 81.9637C214.136 82.3483 213.444 82.5405 212.631 82.5405C211.488 82.5405 210.609 82.1175 209.994 81.2715V85.639H207.917V73.7725H209.912ZM212.153 75.3053C211.428 75.3053 210.878 75.5525 210.505 76.0469C210.142 76.5304 209.961 77.2006 209.961 78.0576C209.961 78.9147 210.142 79.5904 210.505 80.0848C210.878 80.5683 211.428 80.81 212.153 80.81C212.889 80.81 213.439 80.5683 213.801 80.0848C214.175 79.5904 214.361 78.9147 214.361 78.0576C214.361 77.2006 214.175 76.5304 213.801 76.0469C213.439 75.5525 212.889 75.3053 212.153 75.3053ZM219.89 73.7725V74.9592C220.187 74.5197 220.561 74.1791 221.011 73.9373C221.473 73.6956 222.006 73.5747 222.61 73.5747C223.423 73.5747 224.115 73.767 224.686 74.1516C225.269 74.5362 225.708 75.069 226.005 75.7503C226.302 76.4315 226.45 77.2006 226.45 78.0576C226.45 78.9147 226.302 79.6838 226.005 80.365C225.708 81.0462 225.269 81.5791 224.686 81.9637C224.115 82.3483 223.423 82.5405 222.61 82.5405C221.467 82.5405 220.588 82.1175 219.973 81.2715V85.639H217.896V73.7725H219.89ZM222.132 75.3053C221.407 75.3053 220.857 75.5525 220.484 76.0469C220.121 76.5304 219.94 77.2006 219.94 78.0576C219.94 78.9147 220.121 79.5904 220.484 80.0848C220.857 80.5683 221.407 80.81 222.132 80.81C222.868 80.81 223.417 80.5683 223.78 80.0848C224.154 79.5904 224.34 78.9147 224.34 78.0576C224.34 77.2006 224.154 76.5304 223.78 76.0469C223.417 75.5525 222.868 75.3053 222.132 75.3053ZM229.952 70.4763V79.9365C229.952 80.2222 230.012 80.4309 230.133 80.5628C230.254 80.6837 230.468 80.7441 230.776 80.7441H231.897V82.3428H230.248C229.468 82.3428 228.875 82.1835 228.468 81.8648C228.073 81.5352 227.875 80.9638 227.875 80.1508V70.4763H229.952ZM232.823 83.9415H234.175C234.581 83.9415 234.861 83.87 235.015 83.7272C235.18 83.5953 235.334 83.3262 235.477 82.9196L235.674 82.4252L232.428 73.7725H234.652L236.762 80.2991L238.855 73.7725H241.097L237.57 83.3152C237.284 84.0843 236.943 84.6611 236.548 85.0457C236.152 85.4412 235.575 85.639 234.817 85.639H232.823V83.9415Z" fill="#FF1212"/>
<path d="M373.136 74.5127H374.089L374.122 75.5647C374.268 75.1702 374.494 74.8743 374.801 74.677C375.115 74.4798 375.473 74.3812 375.875 74.3812C376.504 74.3812 376.982 74.5857 377.311 74.9949C377.64 75.3967 377.804 75.9264 377.804 76.5839V80.3428H376.752V76.8798C376.752 76.3464 376.661 75.9483 376.478 75.6853C376.295 75.4223 376.007 75.2907 375.612 75.2907C375.181 75.2907 374.834 75.4332 374.571 75.7181C374.316 75.9958 374.188 76.3903 374.188 76.9017V80.3428H373.136V74.5127ZM382.074 80.4743C381.54 80.4743 381.069 80.3501 380.66 80.1017C380.258 79.8533 379.944 79.4989 379.718 79.0387C379.498 78.5784 379.389 78.0414 379.389 77.4277C379.389 76.814 379.498 76.277 379.718 75.8168C379.944 75.3565 380.258 75.0022 380.66 74.7538C381.069 74.5054 381.54 74.3812 382.074 74.3812C382.607 74.3812 383.075 74.5054 383.476 74.7538C383.886 75.0022 384.2 75.3565 384.419 75.8168C384.645 76.277 384.759 76.814 384.759 77.4277C384.759 78.0414 384.645 78.5784 384.419 79.0387C384.2 79.4989 383.886 79.8533 383.476 80.1017C383.075 80.3501 382.607 80.4743 382.074 80.4743ZM382.074 79.4989C382.571 79.4989 382.958 79.3163 383.235 78.951C383.513 78.5857 383.652 78.0779 383.652 77.4277C383.652 76.7775 383.513 76.2697 383.235 75.9044C382.958 75.5391 382.571 75.3565 382.074 75.3565C381.57 75.3565 381.179 75.5391 380.901 75.9044C380.631 76.2697 380.496 76.7775 380.496 77.4277C380.496 78.0779 380.631 78.5857 380.901 78.951C381.179 79.3163 381.57 79.4989 382.074 79.4989ZM385.664 74.5127H386.793L387.483 79.0496L388.239 75.3346H389.269L390.026 79.0496L390.716 74.5127H391.845L390.705 80.3428H389.489L388.754 76.9236L388.02 80.3428H386.815L385.664 74.5127Z" fill="#A7A7A7"/>
<rect x="403.066" y="54.4248" width="43.8354" height="43.8354" rx="21.9177" fill="#EEEEEE"/>
<rect x="422.242" y="73.6025" width="5.47942" height="5.47942" fill="#FF611A" stroke="white" stroke-width="0.456619"/>
<rect x="422.242" y="79.082" width="5.47942" height="5.47942" fill="#FF611A" stroke="white" stroke-width="0.456619"/>
<rect x="422.242" y="84.5615" width="5.47942" height="5.47942" fill="#FF611A" stroke="white" stroke-width="0.456619"/>
<rect x="427.723" y="73.6025" width="5.47942" height="5.47942" fill="#FF611A" stroke="white" stroke-width="0.456619"/>
<rect x="433.203" y="79.082" width="5.47942" height="5.47942" fill="#FF611A" stroke="white" stroke-width="0.456619"/>
<rect x="416.766" y="73.6025" width="5.47942" height="5.47942" fill="#FF611A" stroke="white" stroke-width="0.456619"/>
<rect x="411.285" y="79.082" width="5.47942" height="5.47942" fill="#FF611A" stroke="white" stroke-width="0.456619"/>
<path d="M140.029 130.64H134.87L133.881 133.343H131.591L136.172 121.476H138.743L143.375 133.343H141.018L140.029 130.64ZM139.337 128.745L137.458 123.553L135.563 128.745H139.337ZM150.632 133.343V132.156C150.336 132.596 149.957 132.936 149.495 133.178C149.045 133.42 148.517 133.541 147.913 133.541C147.1 133.541 146.402 133.348 145.82 132.964C145.248 132.579 144.814 132.046 144.518 131.365C144.221 130.684 144.073 129.915 144.073 129.058C144.073 128.201 144.221 127.431 144.518 126.75C144.814 126.069 145.248 125.536 145.82 125.152C146.402 124.767 147.1 124.575 147.913 124.575C149.056 124.575 149.935 124.998 150.55 125.844V121.476H152.626V133.343H150.632ZM148.391 131.81C149.116 131.81 149.66 131.568 150.022 131.085C150.396 130.59 150.583 129.915 150.583 129.058C150.583 128.201 150.396 127.53 150.022 127.047C149.66 126.552 149.116 126.305 148.391 126.305C147.655 126.305 147.1 126.552 146.726 127.047C146.364 127.53 146.182 128.201 146.182 129.058C146.182 129.915 146.364 130.59 146.726 131.085C147.1 131.568 147.655 131.81 148.391 131.81ZM160.611 133.343V132.156C160.314 132.596 159.935 132.936 159.474 133.178C159.023 133.42 158.496 133.541 157.892 133.541C157.079 133.541 156.381 133.348 155.799 132.964C155.227 132.579 154.793 132.046 154.497 131.365C154.2 130.684 154.052 129.915 154.052 129.058C154.052 128.201 154.2 127.431 154.497 126.75C154.793 126.069 155.227 125.536 155.799 125.152C156.381 124.767 157.079 124.575 157.892 124.575C159.034 124.575 159.913 124.998 160.529 125.844V121.476H162.605V133.343H160.611ZM158.37 131.81C159.095 131.81 159.639 131.568 160.001 131.085C160.375 130.59 160.562 129.915 160.562 129.058C160.562 128.201 160.375 127.53 160.001 127.047C159.639 126.552 159.095 126.305 158.37 126.305C157.634 126.305 157.079 126.552 156.705 127.047C156.342 127.53 156.161 128.201 156.161 129.058C156.161 129.915 156.342 130.59 156.705 131.085C157.079 131.568 157.634 131.81 158.37 131.81ZM167.191 124.773H169.416L171.641 131.398L173.817 124.773H176.058L172.795 133.343H170.454L167.191 124.773ZM182.417 132.354C182.065 132.782 181.664 133.09 181.214 133.277C180.774 133.453 180.269 133.541 179.698 133.541C178.753 133.541 177.994 133.315 177.423 132.865C176.852 132.403 176.566 131.766 176.566 130.953C176.566 130.206 176.83 129.629 177.357 129.222C177.896 128.805 178.731 128.497 179.862 128.3L182.351 127.855V127.36C182.351 126.965 182.225 126.668 181.972 126.47C181.719 126.272 181.324 126.173 180.785 126.173C180.28 126.173 179.862 126.283 179.533 126.503C179.203 126.723 179.027 127.058 179.005 127.508H176.962C176.973 126.542 177.335 125.811 178.049 125.316C178.764 124.822 179.67 124.575 180.769 124.575C181.966 124.575 182.867 124.8 183.472 125.25C184.076 125.701 184.378 126.327 184.378 127.129V133.343H182.417V132.354ZM180.159 132.008C180.763 132.008 181.28 131.843 181.708 131.513C182.137 131.173 182.351 130.673 182.351 130.014V129.255L180.241 129.684C179.703 129.794 179.308 129.931 179.055 130.096C178.813 130.261 178.692 130.524 178.692 130.887C178.692 131.239 178.813 131.513 179.055 131.711C179.308 131.909 179.676 132.008 180.159 132.008ZM188.005 121.476V130.937C188.005 131.222 188.065 131.431 188.186 131.563C188.307 131.684 188.521 131.744 188.829 131.744H189.95V133.343H188.301C187.521 133.343 186.928 133.183 186.521 132.865C186.126 132.535 185.928 131.964 185.928 131.151V121.476H188.005ZM190.481 124.773H192.706L194.93 131.398L197.106 124.773H199.347L196.084 133.343H193.744L190.481 124.773ZM204.19 133.541C203.322 133.541 202.569 133.348 201.932 132.964C201.295 132.568 200.806 132.035 200.465 131.365C200.125 130.684 199.954 129.915 199.954 129.058C199.954 128.201 200.125 127.437 200.465 126.767C200.806 126.086 201.295 125.553 201.932 125.168C202.569 124.773 203.322 124.575 204.19 124.575C205.058 124.575 205.811 124.767 206.448 125.152C207.085 125.536 207.574 126.08 207.915 126.783C208.255 127.486 208.426 128.3 208.426 129.222V129.717H202.015C202.102 130.398 202.333 130.937 202.707 131.332C203.091 131.717 203.586 131.909 204.19 131.909C205.179 131.909 205.86 131.513 206.234 130.722H208.261C207.975 131.59 207.475 132.277 206.761 132.782C206.047 133.288 205.19 133.541 204.19 133.541ZM206.333 128.234C206.223 127.596 205.981 127.102 205.608 126.75C205.245 126.388 204.772 126.206 204.19 126.206C203.608 126.206 203.13 126.388 202.756 126.75C202.394 127.102 202.152 127.596 202.031 128.234H206.333ZM213.402 124.773H215.462V133.343H213.402V124.773ZM213.402 121.476H215.478V123.405H213.402V121.476ZM222.935 128.184C222.935 127.635 222.804 127.201 222.54 126.882C222.276 126.552 221.859 126.388 221.287 126.388C220.837 126.388 220.408 126.536 220.002 126.833C219.606 127.129 219.375 127.613 219.309 128.283V133.343H217.233V124.773H219.244V125.943C219.562 125.525 219.947 125.196 220.397 124.954C220.848 124.701 221.364 124.575 221.946 124.575C222.913 124.575 223.661 124.882 224.188 125.498C224.726 126.102 224.996 126.915 224.996 127.937V133.343H222.935V128.184ZM241.096 128.184C241.096 127.646 240.969 127.212 240.717 126.882C240.475 126.552 240.112 126.388 239.629 126.388C239.156 126.388 238.733 126.563 238.36 126.915C237.986 127.256 237.799 127.827 237.799 128.629V133.343H235.723V128.184C235.723 127.646 235.596 127.212 235.344 126.882C235.102 126.552 234.739 126.388 234.256 126.388C233.783 126.388 233.36 126.563 232.987 126.915C232.624 127.256 232.443 127.827 232.443 128.629V133.343H230.366V124.773H232.377V125.959C232.652 125.531 232.998 125.196 233.415 124.954C233.844 124.701 234.344 124.575 234.915 124.575C235.508 124.575 236.019 124.718 236.448 125.003C236.887 125.289 237.223 125.684 237.453 126.19C237.761 125.706 238.151 125.316 238.623 125.02C239.107 124.723 239.662 124.575 240.288 124.575C241.178 124.575 241.876 124.882 242.381 125.498C242.898 126.102 243.156 126.915 243.156 127.937V133.343H241.096V128.184ZM250.322 132.354C249.97 132.782 249.569 133.09 249.119 133.277C248.679 133.453 248.174 133.541 247.602 133.541C246.657 133.541 245.899 133.315 245.328 132.865C244.756 132.403 244.471 131.766 244.471 130.953C244.471 130.206 244.735 129.629 245.262 129.222C245.8 128.805 246.635 128.497 247.767 128.3L250.256 127.855V127.36C250.256 126.965 250.129 126.668 249.877 126.47C249.624 126.272 249.228 126.173 248.69 126.173C248.185 126.173 247.767 126.283 247.437 126.503C247.108 126.723 246.932 127.058 246.91 127.508H244.866C244.877 126.542 245.24 125.811 245.954 125.316C246.668 124.822 247.575 124.575 248.674 124.575C249.871 124.575 250.772 124.8 251.376 125.25C251.981 125.701 252.283 126.327 252.283 127.129V133.343H250.322V132.354ZM248.064 132.008C248.668 132.008 249.184 131.843 249.613 131.513C250.041 131.173 250.256 130.673 250.256 130.014V129.255L248.146 129.684C247.608 129.794 247.212 129.931 246.959 130.096C246.718 130.261 246.597 130.524 246.597 130.887C246.597 131.239 246.718 131.513 246.959 131.711C247.212 131.909 247.58 132.008 248.064 132.008ZM255.827 124.773V125.959C256.124 125.52 256.497 125.179 256.948 124.937C257.409 124.696 257.942 124.575 258.546 124.575C259.36 124.575 260.052 124.767 260.623 125.152C261.205 125.536 261.645 126.069 261.942 126.75C262.238 127.431 262.387 128.201 262.387 129.058C262.387 129.915 262.238 130.684 261.942 131.365C261.645 132.046 261.205 132.579 260.623 132.964C260.052 133.348 259.36 133.541 258.546 133.541C257.404 133.541 256.525 133.118 255.909 132.271V136.639H253.833V124.773H255.827ZM258.068 126.305C257.343 126.305 256.794 126.552 256.42 127.047C256.058 127.53 255.876 128.201 255.876 129.058C255.876 129.915 256.058 130.59 256.42 131.085C256.794 131.568 257.343 131.81 258.068 131.81C258.805 131.81 259.354 131.568 259.717 131.085C260.09 130.59 260.277 129.915 260.277 129.058C260.277 128.201 260.09 127.53 259.717 127.047C259.354 126.552 258.805 126.305 258.068 126.305Z" fill="#A7A7A7"/>
<g filter="url(#filter0_d_1451_1626)">
<rect x="301.988" y="112.343" width="90" height="30" rx="5.5" fill="white"/>
<rect x="301.988" y="112.343" width="90" height="30" rx="5.5" stroke="#CACACA"/>
<path d="M314.48 122.323H319.616C320.971 122.323 321.99 122.627 322.672 123.235C323.355 123.843 323.696 124.669 323.696 125.715C323.696 126.291 323.542 126.819 323.232 127.299C322.923 127.768 322.48 128.163 321.904 128.483C322.352 128.685 322.694 128.963 322.928 129.315C323.163 129.656 323.323 130.077 323.408 130.579L323.888 133.843H321.68L321.296 131.075C321.211 130.445 321.008 129.992 320.688 129.715C320.379 129.427 319.931 129.283 319.344 129.283H316.624V133.843H314.48V122.323ZM319.344 127.555C320.763 127.555 321.472 126.984 321.472 125.843C321.472 124.691 320.763 124.115 319.344 124.115H316.624V127.555H319.344ZM328.99 134.035C328.126 134.035 327.374 133.848 326.734 133.475C326.104 133.101 325.619 132.584 325.278 131.923C324.947 131.261 324.782 130.515 324.782 129.683C324.782 128.851 324.947 128.104 325.278 127.443C325.619 126.781 326.104 126.264 326.734 125.891C327.374 125.517 328.126 125.331 328.99 125.331C329.854 125.331 330.6 125.517 331.23 125.891C331.87 126.264 332.355 126.781 332.686 127.443C333.027 128.104 333.198 128.851 333.198 129.683C333.198 130.515 333.027 131.261 332.686 131.923C332.355 132.584 331.87 133.101 331.23 133.475C330.6 133.848 329.854 134.035 328.99 134.035ZM328.99 132.355C329.715 132.355 330.254 132.12 330.606 131.651C330.968 131.171 331.15 130.515 331.15 129.683C331.15 128.851 330.968 128.2 330.606 127.731C330.254 127.251 329.715 127.011 328.99 127.011C328.264 127.011 327.72 127.251 327.358 127.731C327.006 128.2 326.83 128.851 326.83 129.683C326.83 130.515 327.006 131.171 327.358 131.651C327.72 132.12 328.264 132.355 328.99 132.355ZM336.587 122.323V131.507C336.587 131.784 336.646 131.987 336.763 132.115C336.88 132.232 337.088 132.291 337.387 132.291H338.475V133.843H336.875C336.118 133.843 335.542 133.688 335.147 133.379C334.763 133.059 334.571 132.504 334.571 131.715V122.323H336.587ZM341.775 122.323V131.507C341.775 131.784 341.833 131.987 341.951 132.115C342.068 132.232 342.276 132.291 342.575 132.291H343.663V133.843H342.063C341.305 133.843 340.729 133.688 340.335 133.379C339.951 133.059 339.759 132.504 339.759 131.715V122.323H341.775ZM344.946 122.323H346.962V126.563C347.559 125.741 348.413 125.331 349.522 125.331C350.311 125.331 350.983 125.517 351.538 125.891C352.103 126.264 352.53 126.781 352.818 127.443C353.106 128.104 353.25 128.851 353.25 129.683C353.25 130.515 353.106 131.261 352.818 131.923C352.53 132.584 352.103 133.101 351.538 133.475C350.983 133.848 350.311 134.035 349.522 134.035C348.935 134.035 348.418 133.917 347.97 133.683C347.533 133.448 347.17 133.117 346.882 132.691V133.843H344.946V122.323ZM349.058 132.355C349.773 132.355 350.306 132.12 350.658 131.651C351.021 131.171 351.202 130.515 351.202 129.683C351.202 128.851 351.021 128.2 350.658 127.731C350.306 127.251 349.773 127.011 349.058 127.011C348.354 127.011 347.821 127.251 347.458 127.731C347.106 128.2 346.93 128.851 346.93 129.683C346.93 130.515 347.106 131.171 347.458 131.651C347.821 132.12 348.354 132.355 349.058 132.355ZM359.866 132.883C359.524 133.299 359.135 133.597 358.698 133.779C358.271 133.949 357.78 134.035 357.226 134.035C356.308 134.035 355.572 133.816 355.018 133.379C354.463 132.931 354.186 132.312 354.186 131.523C354.186 130.797 354.442 130.237 354.954 129.843C355.476 129.437 356.287 129.139 357.386 128.947L359.802 128.515V128.035C359.802 127.651 359.679 127.363 359.434 127.171C359.188 126.979 358.804 126.883 358.282 126.883C357.791 126.883 357.386 126.989 357.066 127.203C356.746 127.416 356.575 127.741 356.554 128.179H354.57C354.58 127.24 354.932 126.531 355.626 126.051C356.319 125.571 357.199 125.331 358.266 125.331C359.428 125.331 360.303 125.549 360.89 125.987C361.476 126.424 361.77 127.032 361.77 127.811V133.843H359.866V132.883ZM357.674 132.547C358.26 132.547 358.762 132.387 359.178 132.067C359.594 131.736 359.802 131.251 359.802 130.611V129.875L357.754 130.291C357.231 130.397 356.847 130.531 356.602 130.691C356.367 130.851 356.25 131.107 356.25 131.459C356.25 131.8 356.367 132.067 356.602 132.259C356.847 132.451 357.204 132.547 357.674 132.547ZM367.034 134.035C366.202 134.035 365.477 133.848 364.858 133.475C364.25 133.091 363.781 132.573 363.45 131.923C363.119 131.261 362.954 130.515 362.954 129.683C362.954 128.851 363.119 128.109 363.45 127.459C363.781 126.797 364.25 126.28 364.858 125.907C365.477 125.523 366.202 125.331 367.034 125.331C368.143 125.331 369.029 125.619 369.69 126.195C370.362 126.76 370.762 127.528 370.89 128.499H368.874C368.778 128.029 368.57 127.667 368.25 127.411C367.93 127.144 367.525 127.011 367.034 127.011C366.373 127.011 365.866 127.251 365.514 127.731C365.173 128.211 365.002 128.861 365.002 129.683C365.002 130.504 365.173 131.155 365.514 131.635C365.866 132.115 366.373 132.355 367.034 132.355C367.535 132.355 367.946 132.216 368.266 131.939C368.586 131.661 368.789 131.272 368.874 130.771H370.89C370.762 131.752 370.362 132.541 369.69 133.139C369.018 133.736 368.133 134.035 367.034 134.035ZM372.134 122.323H374.15V128.995L377.494 125.523H379.91L376.758 128.707L380.134 133.843H377.782L375.366 130.115L374.15 131.347V133.843H372.134V122.323Z" fill="black"/>
</g>
<rect x="403.445" y="105.425" width="43.8354" height="43.8354" rx="21.9177" fill="#EEEEEE"/>
<rect x="422.621" y="124.603" width="5.47942" height="5.47942" fill="#FF611A" stroke="white" stroke-width="0.456619"/>
<rect x="422.621" y="130.082" width="5.47942" height="5.47942" fill="#FF611A" stroke="white" stroke-width="0.456619"/>
<rect x="422.621" y="135.562" width="5.47942" height="5.47942" fill="#FF611A" stroke="white" stroke-width="0.456619"/>
<rect x="428.102" y="124.603" width="5.47942" height="5.47942" fill="#FF611A" stroke="white" stroke-width="0.456619"/>
<rect x="433.582" y="130.082" width="5.47942" height="5.47942" fill="#FF611A" stroke="white" stroke-width="0.456619"/>
<rect x="417.145" y="124.603" width="5.47942" height="5.47942" fill="#FF611A" stroke="white" stroke-width="0.456619"/>
<rect x="411.664" y="130.082" width="5.47942" height="5.47942" fill="#FF611A" stroke="white" stroke-width="0.456619"/>
<circle cx="380.5" cy="138.5" r="13.5" fill="url(#paint2_radial_1451_1626)"/>
<path d="M132.065 171.845H140.767V173.84H134.273V176.658H140.289V178.57H134.273V181.718H140.734V183.712H132.065V171.845ZM145.599 180.96L143.637 183.712H141.297L144.428 179.328L141.445 175.142H143.819L145.615 177.647L147.395 175.142H149.735L146.785 179.295L149.917 183.712H147.543L145.599 180.96ZM152.871 175.142V176.328C153.168 175.889 153.541 175.548 153.992 175.306C154.453 175.065 154.986 174.944 155.59 174.944C156.403 174.944 157.096 175.136 157.667 175.521C158.249 175.905 158.689 176.438 158.986 177.119C159.282 177.801 159.431 178.57 159.431 179.427C159.431 180.284 159.282 181.053 158.986 181.734C158.689 182.415 158.249 182.948 157.667 183.333C157.096 183.717 156.403 183.91 155.59 183.91C154.448 183.91 153.569 183.487 152.953 182.641V187.008H150.877V175.142H152.871ZM155.112 176.674C154.387 176.674 153.838 176.922 153.464 177.416C153.102 177.9 152.92 178.57 152.92 179.427C152.92 180.284 153.102 180.96 153.464 181.454C153.838 181.937 154.387 182.179 155.112 182.179C155.849 182.179 156.398 181.937 156.761 181.454C157.134 180.96 157.321 180.284 157.321 179.427C157.321 178.57 157.134 177.9 156.761 177.416C156.398 176.922 155.849 176.674 155.112 176.674ZM164.729 183.91C163.861 183.91 163.108 183.717 162.471 183.333C161.834 182.937 161.345 182.404 161.004 181.734C160.663 181.053 160.493 180.284 160.493 179.427C160.493 178.57 160.663 177.806 161.004 177.136C161.345 176.455 161.834 175.922 162.471 175.537C163.108 175.142 163.861 174.944 164.729 174.944C165.597 174.944 166.349 175.136 166.987 175.521C167.624 175.905 168.113 176.449 168.453 177.152C168.794 177.856 168.964 178.669 168.964 179.592V180.086H162.553C162.641 180.767 162.872 181.306 163.245 181.701C163.63 182.086 164.124 182.278 164.729 182.278C165.718 182.278 166.399 181.882 166.772 181.091H168.8C168.514 181.959 168.014 182.646 167.3 183.152C166.586 183.657 165.729 183.91 164.729 183.91ZM166.871 178.603C166.761 177.965 166.52 177.471 166.146 177.119C165.784 176.757 165.311 176.576 164.729 176.576C164.146 176.576 163.668 176.757 163.295 177.119C162.932 177.471 162.691 177.965 162.57 178.603H166.871ZM170.368 175.142H172.378V176.674C172.895 175.587 173.757 175.043 174.966 175.043H175.642V176.955H174.884C174.103 176.955 173.499 177.152 173.071 177.548C172.653 177.943 172.444 178.614 172.444 179.559V183.712H170.368V175.142ZM176.934 175.142H178.994V183.712H176.934V175.142ZM176.934 171.845H179.011V173.774H176.934V171.845ZM191.494 178.553C191.494 178.015 191.368 177.581 191.115 177.251C190.874 176.922 190.511 176.757 190.028 176.757C189.555 176.757 189.132 176.933 188.759 177.284C188.385 177.625 188.198 178.196 188.198 178.998V183.712H186.122V178.553C186.122 178.015 185.995 177.581 185.742 177.251C185.501 176.922 185.138 176.757 184.655 176.757C184.182 176.757 183.759 176.933 183.386 177.284C183.023 177.625 182.842 178.196 182.842 178.998V183.712H180.765V175.142H182.776V176.328C183.05 175.9 183.397 175.565 183.814 175.323C184.243 175.07 184.743 174.944 185.314 174.944C185.907 174.944 186.418 175.087 186.847 175.372C187.286 175.658 187.621 176.054 187.852 176.559C188.16 176.076 188.55 175.686 189.022 175.389C189.506 175.092 190.061 174.944 190.687 174.944C191.577 174.944 192.275 175.252 192.78 175.867C193.296 176.471 193.555 177.284 193.555 178.306V183.712H191.494V178.553ZM199.204 183.91C198.336 183.91 197.583 183.717 196.946 183.333C196.309 182.937 195.82 182.404 195.479 181.734C195.139 181.053 194.968 180.284 194.968 179.427C194.968 178.57 195.139 177.806 195.479 177.136C195.82 176.455 196.309 175.922 196.946 175.537C197.583 175.142 198.336 174.944 199.204 174.944C200.072 174.944 200.825 175.136 201.462 175.521C202.099 175.905 202.588 176.449 202.929 177.152C203.27 177.856 203.44 178.669 203.44 179.592V180.086H197.029C197.117 180.767 197.347 181.306 197.721 181.701C198.105 182.086 198.6 182.278 199.204 182.278C200.193 182.278 200.874 181.882 201.248 181.091H203.275C202.989 181.959 202.489 182.646 201.775 183.152C201.061 183.657 200.204 183.91 199.204 183.91ZM201.347 178.603C201.237 177.965 200.995 177.471 200.622 177.119C200.259 176.757 199.786 176.576 199.204 176.576C198.622 176.576 198.144 176.757 197.77 177.119C197.408 177.471 197.166 177.965 197.045 178.603H201.347ZM210.546 178.553C210.546 178.004 210.414 177.57 210.15 177.251C209.886 176.922 209.469 176.757 208.898 176.757C208.447 176.757 208.019 176.905 207.612 177.202C207.216 177.498 206.986 177.982 206.92 178.652V183.712H204.843V175.142H206.854V176.312C207.173 175.894 207.557 175.565 208.008 175.323C208.458 175.07 208.974 174.944 209.557 174.944C210.524 174.944 211.271 175.252 211.798 175.867C212.337 176.471 212.606 177.284 212.606 178.306V183.712H210.546V178.553ZM217.321 172.505V175.142H219.497V176.74H217.321V181.306C217.321 181.591 217.382 181.8 217.502 181.932C217.634 182.053 217.849 182.113 218.145 182.113H219.497V183.712H217.634C216.854 183.712 216.261 183.553 215.854 183.234C215.459 182.904 215.261 182.333 215.261 181.52V176.74H213.761V175.142H215.261V172.505H217.321ZM228.272 183.91C227.415 183.91 226.667 183.717 226.03 183.333C225.404 182.937 224.92 182.404 224.58 181.734C224.239 181.053 224.069 180.284 224.069 179.427C224.069 178.57 224.239 177.806 224.58 177.136C224.92 176.455 225.404 175.922 226.03 175.537C226.667 175.142 227.415 174.944 228.272 174.944C229.414 174.944 230.326 175.241 231.008 175.834C231.7 176.416 232.112 177.207 232.244 178.207H230.167C230.068 177.724 229.854 177.35 229.524 177.086C229.195 176.812 228.777 176.674 228.272 176.674C227.59 176.674 227.069 176.922 226.706 177.416C226.354 177.911 226.179 178.581 226.179 179.427C226.179 180.273 226.354 180.943 226.706 181.438C227.069 181.932 227.59 182.179 228.272 182.179C228.788 182.179 229.211 182.036 229.541 181.751C229.87 181.465 230.079 181.064 230.167 180.548H232.244C232.112 181.558 231.7 182.371 231.008 182.987C230.315 183.602 229.403 183.91 228.272 183.91ZM233.524 175.142H235.535V176.674C236.052 175.587 236.914 175.043 238.123 175.043H238.798V176.955H238.04C237.26 176.955 236.656 177.152 236.227 177.548C235.81 177.943 235.601 178.614 235.601 179.559V183.712H233.524V175.142ZM243.98 183.91C243.112 183.91 242.36 183.717 241.722 183.333C241.085 182.937 240.596 182.404 240.256 181.734C239.915 181.053 239.745 180.284 239.745 179.427C239.745 178.57 239.915 177.806 240.256 177.136C240.596 176.455 241.085 175.922 241.722 175.537C242.36 175.142 243.112 174.944 243.98 174.944C244.848 174.944 245.601 175.136 246.238 175.521C246.876 175.905 247.365 176.449 247.705 177.152C248.046 177.856 248.216 178.669 248.216 179.592V180.086H241.805C241.893 180.767 242.123 181.306 242.497 181.701C242.882 182.086 243.376 182.278 243.98 182.278C244.969 182.278 245.65 181.882 246.024 181.091H248.051C247.766 181.959 247.266 182.646 246.551 183.152C245.837 183.657 244.98 183.91 243.98 183.91ZM246.123 178.603C246.013 177.965 245.771 177.471 245.398 177.119C245.035 176.757 244.563 176.576 243.98 176.576C243.398 176.576 242.92 176.757 242.546 177.119C242.184 177.471 241.942 177.965 241.821 178.603H246.123ZM255.009 182.723C254.657 183.152 254.256 183.459 253.806 183.646C253.366 183.822 252.861 183.91 252.289 183.91C251.344 183.91 250.586 183.684 250.015 183.234C249.444 182.772 249.158 182.135 249.158 181.322C249.158 180.575 249.422 179.998 249.949 179.592C250.487 179.174 251.322 178.866 252.454 178.669L254.943 178.224V177.729C254.943 177.334 254.816 177.037 254.564 176.839C254.311 176.641 253.916 176.543 253.377 176.543C252.872 176.543 252.454 176.652 252.125 176.872C251.795 177.092 251.619 177.427 251.597 177.878H249.553C249.564 176.911 249.927 176.18 250.641 175.686C251.355 175.191 252.262 174.944 253.361 174.944C254.558 174.944 255.459 175.169 256.064 175.62C256.668 176.07 256.97 176.696 256.97 177.498V183.712H255.009V182.723ZM252.751 182.377C253.355 182.377 253.872 182.212 254.3 181.882C254.729 181.542 254.943 181.042 254.943 180.383V179.625L252.833 180.053C252.295 180.163 251.899 180.3 251.647 180.465C251.405 180.63 251.284 180.894 251.284 181.256C251.284 181.608 251.405 181.882 251.647 182.08C251.899 182.278 252.267 182.377 252.751 182.377ZM261.454 172.505V175.142H263.629V176.74H261.454V181.306C261.454 181.591 261.514 181.8 261.635 181.932C261.767 182.053 261.981 182.113 262.278 182.113H263.629V183.712H261.767C260.987 183.712 260.393 183.553 259.987 183.234C259.591 182.904 259.393 182.333 259.393 181.52V176.74H257.894V175.142H259.393V172.505H261.454ZM268.815 183.91C267.947 183.91 267.194 183.717 266.557 183.333C265.92 182.937 265.431 182.404 265.09 181.734C264.75 181.053 264.579 180.284 264.579 179.427C264.579 178.57 264.75 177.806 265.09 177.136C265.431 176.455 265.92 175.922 266.557 175.537C267.194 175.142 267.947 174.944 268.815 174.944C269.683 174.944 270.436 175.136 271.073 175.521C271.71 175.905 272.199 176.449 272.54 177.152C272.88 177.856 273.051 178.669 273.051 179.592V180.086H266.639C266.727 180.767 266.958 181.306 267.332 181.701C267.716 182.086 268.211 182.278 268.815 182.278C269.804 182.278 270.485 181.882 270.859 181.091H272.886C272.6 181.959 272.1 182.646 271.386 183.152C270.672 183.657 269.815 183.91 268.815 183.91ZM270.957 178.603C270.848 177.965 270.606 177.471 270.232 177.119C269.87 176.757 269.397 176.576 268.815 176.576C268.233 176.576 267.755 176.757 267.381 177.119C267.018 177.471 266.777 177.965 266.656 178.603H270.957ZM280.651 183.712V182.525C280.354 182.965 279.975 183.305 279.514 183.547C279.063 183.789 278.536 183.91 277.931 183.91C277.118 183.91 276.421 183.717 275.838 183.333C275.267 182.948 274.833 182.415 274.536 181.734C274.24 181.053 274.091 180.284 274.091 179.427C274.091 178.57 274.24 177.801 274.536 177.119C274.833 176.438 275.267 175.905 275.838 175.521C276.421 175.136 277.118 174.944 277.931 174.944C279.074 174.944 279.953 175.367 280.568 176.213V171.845H282.645V183.712H280.651ZM278.409 182.179C279.135 182.179 279.678 181.937 280.041 181.454C280.415 180.96 280.601 180.284 280.601 179.427C280.601 178.57 280.415 177.9 280.041 177.416C279.678 176.922 279.135 176.674 278.409 176.674C277.673 176.674 277.118 176.922 276.745 177.416C276.382 177.9 276.201 178.57 276.201 179.427C276.201 180.284 276.382 180.96 276.745 181.454C277.118 181.937 277.673 182.179 278.409 182.179Z" fill="#A7A7A7"/>
<path d="M323.288 181.887C322.455 181.887 321.804 181.686 321.337 181.285C320.869 180.883 320.617 180.342 320.581 179.663L321.688 179.586C321.731 180.024 321.892 180.346 322.17 180.55C322.455 180.755 322.827 180.857 323.288 180.857C323.777 180.857 324.179 180.748 324.493 180.528C324.814 180.309 324.975 179.969 324.975 179.509C324.975 179.042 324.825 178.691 324.526 178.457C324.234 178.216 323.839 178.095 323.342 178.095H322.718V177.087H323.342C323.751 177.087 324.08 176.996 324.329 176.813C324.584 176.631 324.712 176.342 324.712 175.948C324.712 175.568 324.592 175.279 324.351 175.082C324.117 174.885 323.777 174.786 323.331 174.786C322.455 174.786 321.965 175.137 321.863 175.838L320.734 175.761C320.815 175.148 321.078 174.662 321.523 174.304C321.976 173.938 322.579 173.756 323.331 173.756C324.099 173.756 324.709 173.946 325.162 174.326C325.614 174.706 325.841 175.224 325.841 175.882C325.841 176.707 325.406 177.259 324.537 177.537C325.026 177.675 325.41 177.924 325.688 178.282C325.965 178.632 326.104 179.053 326.104 179.542C326.104 180.024 325.983 180.444 325.742 180.802C325.509 181.153 325.18 181.423 324.756 181.613C324.332 181.796 323.843 181.887 323.288 181.887ZM329.322 180.309H330.724V181.712H329.322V180.309ZM329.322 176.156H330.724V177.559H329.322V176.156ZM336.649 181.887C335.816 181.887 335.166 181.686 334.698 181.285C334.231 180.883 333.978 180.342 333.942 179.663L335.049 179.586C335.093 180.024 335.253 180.346 335.531 180.55C335.816 180.755 336.189 180.857 336.649 180.857C337.138 180.857 337.54 180.748 337.854 180.528C338.176 180.309 338.336 179.969 338.336 179.509C338.336 179.042 338.187 178.691 337.887 178.457C337.595 178.216 337.2 178.095 336.704 178.095H336.079V177.087H336.704C337.113 177.087 337.441 176.996 337.69 176.813C337.946 176.631 338.073 176.342 338.073 175.948C338.073 175.568 337.953 175.279 337.712 175.082C337.478 174.885 337.138 174.786 336.693 174.786C335.816 174.786 335.326 175.137 335.224 175.838L334.095 175.761C334.176 175.148 334.439 174.662 334.884 174.304C335.337 173.938 335.94 173.756 336.693 173.756C337.46 173.756 338.07 173.946 338.523 174.326C338.976 174.706 339.202 175.224 339.202 175.882C339.202 176.707 338.767 177.259 337.898 177.537C338.388 177.675 338.771 177.924 339.049 178.282C339.326 178.632 339.465 179.053 339.465 179.542C339.465 180.024 339.345 180.444 339.104 180.802C338.87 181.153 338.541 181.423 338.117 181.613C337.694 181.796 337.204 181.887 336.649 181.887ZM343.384 181.887C342.822 181.887 342.332 181.727 341.916 181.405C341.499 181.084 341.178 180.62 340.951 180.013C340.732 179.4 340.623 178.673 340.623 177.832C340.623 176.992 340.732 176.265 340.951 175.652C341.178 175.038 341.499 174.57 341.916 174.249C342.332 173.92 342.822 173.756 343.384 173.756C343.947 173.756 344.436 173.92 344.853 174.249C345.269 174.57 345.587 175.038 345.806 175.652C346.033 176.265 346.146 176.992 346.146 177.832C346.146 178.673 346.033 179.4 345.806 180.013C345.587 180.62 345.269 181.084 344.853 181.405C344.436 181.727 343.947 181.887 343.384 181.887ZM343.384 180.868C343.896 180.868 344.294 180.601 344.579 180.068C344.871 179.527 345.017 178.782 345.017 177.832C345.017 177.138 344.94 176.55 344.787 176.068L342.431 180.419C342.686 180.718 343.004 180.868 343.384 180.868ZM341.751 177.832C341.751 178.519 341.828 179.1 341.981 179.575L344.338 175.224C344.082 174.925 343.764 174.775 343.384 174.775C342.873 174.775 342.471 175.049 342.179 175.597C341.894 176.138 341.751 176.883 341.751 177.832ZM354.313 175.882H355.299L355.31 176.813C355.478 176.47 355.712 176.207 356.011 176.024C356.318 175.842 356.672 175.75 357.074 175.75C357.608 175.75 358.057 175.889 358.422 176.167C358.787 176.437 359.058 176.802 359.233 177.263C359.416 177.723 359.507 178.234 359.507 178.797C359.507 179.359 359.416 179.871 359.233 180.331C359.058 180.791 358.787 181.16 358.422 181.438C358.057 181.708 357.608 181.843 357.074 181.843C356.702 181.843 356.362 181.763 356.055 181.602C355.755 181.442 355.525 181.219 355.365 180.934V183.356H354.313V175.882ZM356.899 180.868C357.374 180.868 357.743 180.685 358.006 180.32C358.276 179.955 358.411 179.447 358.411 178.797C358.411 178.147 358.276 177.639 358.006 177.274C357.743 176.908 357.374 176.726 356.899 176.726C356.417 176.726 356.04 176.905 355.77 177.263C355.5 177.613 355.365 178.125 355.365 178.797C355.365 179.469 355.5 179.984 355.77 180.342C356.04 180.693 356.417 180.868 356.899 180.868ZM360.533 175.882H361.464L361.497 176.726C361.6 176.419 361.749 176.181 361.947 176.013C362.151 175.838 362.389 175.75 362.659 175.75C363.236 175.75 363.601 176.127 363.755 176.879C363.857 176.521 364.014 176.243 364.226 176.046C364.438 175.849 364.694 175.75 364.993 175.75C365.461 175.75 365.797 175.918 366.001 176.254C366.213 176.583 366.319 177.117 366.319 177.854V181.712H365.278V177.986C365.278 177.511 365.227 177.171 365.125 176.967C365.03 176.762 364.876 176.66 364.664 176.66C364.445 176.66 364.27 176.773 364.138 177C364.014 177.219 363.952 177.551 363.952 177.997V181.712H362.9V177.986C362.9 177.511 362.853 177.171 362.758 176.967C362.67 176.762 362.513 176.66 362.286 176.66C362.067 176.66 361.892 176.773 361.76 177C361.636 177.219 361.574 177.551 361.574 177.997V181.712H360.533V175.882Z" fill="#A7A7A7"/>
<rect x="403.066" y="155.794" width="43.8354" height="43.8354" rx="21.9177" fill="#EEEEEE"/>
<rect x="422.242" y="174.972" width="5.47942" height="5.47942" fill="#AEAEAE" stroke="white" stroke-width="0.456619"/>
<rect x="422.242" y="169.492" width="5.47942" height="5.47942" fill="#AEAEAE" stroke="white" stroke-width="0.456619"/>
<rect x="422.242" y="164.014" width="5.47942" height="5.47942" fill="#AEAEAE" stroke="white" stroke-width="0.456619"/>
<rect x="422.242" y="180.451" width="5.47942" height="5.47942" fill="#AEAEAE" stroke="white" stroke-width="0.456619"/>
<rect x="422.242" y="185.932" width="5.47942" height="5.47942" fill="#AEAEAE" stroke="white" stroke-width="0.456619"/>
<rect x="427.723" y="180.451" width="5.47942" height="5.47942" fill="#AEAEAE" stroke="white" stroke-width="0.456619"/>
<rect x="427.723" y="185.932" width="5.47942" height="5.47942" fill="#AEAEAE" stroke="white" stroke-width="0.456619"/>
<rect x="416.766" y="180.451" width="5.47942" height="5.47942" fill="#AEAEAE" stroke="white" stroke-width="0.456619"/>
<rect x="416.766" y="185.932" width="5.47942" height="5.47942" fill="#AEAEAE" stroke="white" stroke-width="0.456619"/>
<rect x="411.285" y="164.014" width="5.47942" height="5.47942" fill="#AEAEAE" stroke="white" stroke-width="0.456619"/>
<rect x="433.203" y="164.014" width="5.47942" height="5.47942" fill="#AEAEAE" stroke="white" stroke-width="0.456619"/>
<path d="M391.026 163.289L381.438 140.001L404.725 149.59L396.143 153.268C395.497 153.545 394.982 154.06 394.705 154.706L391.026 163.289Z" fill="white" stroke="black" stroke-width="2.05478" stroke-linecap="round" stroke-linejoin="round"/>
<rect x="-2.50143" y="2.50143" width="18.3438" height="18.3438" rx="9.1719" transform="matrix(-1 0 0 1 98.9971 116.654)" fill="white" stroke="#FF611A" stroke-width="5.00285"/>
<rect width="10.9588" height="10.9588" rx="5.47942" transform="matrix(-1 0 0 1 77.875 174.246)" fill="#DCDCDC"/>
<rect x="-2.50143" y="2.50143" width="16.9971" height="16.9971" rx="8.49857" transform="matrix(-1 0 0 1 97.9971 66)" fill="white" stroke="white" stroke-width="5.00285"/>
<path fill-rule="evenodd" clip-rule="evenodd" d="M92 66C98.0752 66 103 70.9248 103 77C103 83.0752 98.0752 88 92 88C85.9248 88 81 83.0752 81 77C81 70.9248 85.9248 66 92 66ZM96.6417 70.6305L92.0007 75.2715L87.3684 70.6392L85.6399 72.3677L90.2722 77L85.6399 81.6323L87.3684 83.3608L92.0007 78.7285L96.6417 83.3695L98.3701 81.641L93.7292 77L98.3701 72.359L96.6417 70.6305Z" fill="#FF0A0A"/>
<defs>
<filter id="filter0_d_1451_1626" x="272.721" y="88.5552" width="148.534" height="88.534" filterUnits="userSpaceOnUse" color-interpolation-filters="sRGB">
<feFlood flood-opacity="0" result="BackgroundImageFix"/>
<feColorMatrix in="SourceAlpha" type="matrix" values="0 0 0 0 0 0 0 0 0 0 0 0 0 0 0 0 0 0 127 0" result="hardAlpha"/>
<feOffset dy="5.47942"/>
<feGaussianBlur stdDeviation="14.3835"/>
<feComposite in2="hardAlpha" operator="out"/>
<feColorMatrix type="matrix" values="0 0 0 0 0 0 0 0 0 0 0 0 0 0 0 0 0 0 0.13 0"/>
<feBlend mode="normal" in2="BackgroundImageFix" result="effect1_dropShadow_1451_1626"/>
<feBlend mode="normal" in="SourceGraphic" in2="effect1_dropShadow_1451_1626" result="shape"/>
</filter>
<linearGradient id="paint0_linear_1451_1626" x1="259" y1="36" x2="259" y2="240" gradientUnits="userSpaceOnUse">
<stop stop-color="#DFDFDF"/>
<stop offset="1" stop-color="#DFDFDF" stop-opacity="0"/>
</linearGradient>
<linearGradient id="paint1_linear_1451_1626" x1="82" y1="181.5" x2="82" y2="84.5" gradientUnits="userSpaceOnUse">
<stop stop-color="#CECECE" stop-opacity="0.1"/>
<stop offset="1" stop-color="#CECECE"/>
</linearGradient>
<radialGradient id="paint2_radial_1451_1626" cx="0" cy="0" r="1" gradientUnits="userSpaceOnUse" gradientTransform="translate(380.5 138.5) rotate(90) scale(13.5)">
<stop stop-color="#FF611A"/>
<stop offset="0.645372" stop-color="#FF611A" stop-opacity="0.2"/>
</radialGradient>
</defs>
</svg>
