<svg width="792" height="359" viewBox="0 0 792 359" fill="none" xmlns="http://www.w3.org/2000/svg">
<path d="M210 143H709V173H210C211.345 161.294 211.213 154.702 210 143Z" fill="white" fill-opacity="0.8"/>
<path d="M708.964 173H707.738C707.863 170.089 707.928 167.151 707.928 164.189C707.928 156.971 707.551 149.893 706.827 143H707.83C708.058 145.186 708.253 147.39 708.411 149.611L708.538 143H709.539L708.964 173ZM689.044 143C689.857 149.608 690.283 156.433 690.283 163.412C690.283 166.643 690.192 169.841 690.014 173H689.012C689.191 169.842 689.283 166.644 689.283 163.412C689.283 156.429 688.853 149.604 688.036 143H689.044ZM668.667 143C669.594 149.308 670.085 155.881 670.085 162.636C670.085 166.143 669.952 169.602 669.695 173H668.691C668.95 169.603 669.085 166.145 669.085 162.636C669.085 155.876 668.59 149.302 667.657 143H668.667ZM652.783 143C653.931 149.234 654.548 155.823 654.548 162.636C654.548 166.156 654.381 169.617 654.064 173H653.061C653.38 169.619 653.548 166.159 653.548 162.636C653.548 155.814 652.923 149.225 651.766 143H652.783ZM635.334 143C636.709 149.1 637.463 155.72 637.463 162.636C637.463 166.178 637.263 169.643 636.886 173H635.88C636.261 169.647 636.463 166.182 636.463 162.636C636.463 155.704 635.698 149.082 634.309 143H635.334ZM616.132 143C617.848 148.876 618.818 155.557 618.818 162.636C618.818 166.209 618.571 169.682 618.105 173H617.097C617.568 169.689 617.818 166.216 617.818 162.636C617.818 155.526 616.828 148.841 615.09 143H616.132ZM596.879 143C598.959 148.127 600.175 154.365 600.175 161.082C600.175 165.295 599.696 169.32 598.826 173H597.798C598.683 169.34 599.175 165.314 599.175 161.082C599.175 154.307 597.915 148.059 595.796 143H596.879ZM580.052 143C578.582 143.567 577.129 144.074 575.694 144.516C576.176 145.26 576.626 146.062 577.034 146.916C578.876 150.768 579.976 155.709 579.976 161.082C579.976 165.46 579.243 169.55 577.976 173H576.909C578.21 169.605 578.976 165.506 578.976 161.082C578.976 155.837 577.901 151.047 576.132 147.347C575.693 146.429 575.212 145.582 574.698 144.813C570.103 146.144 565.709 146.822 561.606 146.822H555.368C557.15 149.798 558.222 153.709 558.222 157.976C558.222 162.565 556.983 166.743 554.953 169.788C554.095 171.075 553.089 172.167 551.969 173H550.078C551.599 172.237 552.981 170.944 554.121 169.233C556.027 166.374 557.222 162.395 557.222 157.976C557.222 153.609 556.054 149.674 554.188 146.822H535.173C536.955 149.798 538.026 153.709 538.026 157.976C538.026 162.565 536.788 166.743 534.758 169.788C533.9 171.075 532.892 172.167 531.771 173H529.883C531.404 172.237 532.785 170.944 533.926 169.233C535.832 166.374 537.026 162.395 537.026 157.976C537.026 153.609 535.858 149.674 533.992 146.822H257.489C259.271 149.798 260.343 153.709 260.343 157.976C260.343 162.565 259.104 166.743 257.074 169.788C256.216 171.075 255.208 172.167 254.088 173H252.199C253.72 172.237 255.102 170.944 256.242 169.233C258.148 166.374 259.343 162.395 259.343 157.976C259.343 153.609 258.175 149.674 256.309 146.822H248.968C246.617 146.822 244.218 146.652 241.776 146.325C242.709 149.154 243.253 152.55 243.253 156.421C243.253 161.641 242.02 166.581 240.006 170.233C239.441 171.258 238.807 172.189 238.116 173H236.765C237.624 172.129 238.421 171.036 239.13 169.751C241.052 166.267 242.253 161.497 242.253 156.421C242.253 152.415 241.656 148.964 240.664 146.165C236.542 145.536 232.305 144.462 227.979 143H231.275C234.325 143.908 237.318 144.61 240.248 145.085C240.098 144.724 239.943 144.375 239.779 144.04C239.602 143.678 239.417 143.331 239.226 143H240.37C240.475 143.196 240.578 143.396 240.678 143.601C240.935 144.126 241.172 144.681 241.396 145.263C243.974 145.631 246.5 145.822 248.968 145.822H255.59C254.613 144.583 253.494 143.626 252.286 143H254.153C255.147 143.751 256.052 144.707 256.84 145.822H533.273C532.297 144.583 531.177 143.626 529.97 143H531.837C532.831 143.751 533.735 144.707 534.523 145.822H553.469C552.492 144.583 551.373 143.626 550.165 143H552.032C553.026 143.751 553.931 144.707 554.719 145.822H561.606C565.506 145.822 569.69 145.192 574.077 143.95C573.821 143.615 573.556 143.298 573.286 143H574.605C574.775 143.21 574.942 143.426 575.104 143.649C575.774 143.447 576.448 143.231 577.126 143H580.052ZM227.131 173H226.131L226.7 143H227.7L227.131 173ZM217.459 143C217.746 146.895 217.896 150.855 217.896 154.868L217.89 156.213C217.843 161.932 217.492 167.539 216.869 173H215.866C216.542 167.115 216.895 161.056 216.896 154.868C216.896 150.854 216.746 146.894 216.457 143H217.459ZM211.15 143C211.501 146.877 211.685 150.839 211.685 154.868L211.68 155.952C211.632 161.798 211.202 167.5 210.428 173H209.499C209.95 171.195 210.401 165.726 210.484 162.104C210.522 161.414 210.556 160.723 210.583 160.029C210.555 160.029 210.526 160.029 210.498 160.029C210.498 159.689 210.498 159.355 210.498 159.029C210.538 159.029 210.578 159.029 210.618 159.029C210.662 157.651 210.685 156.264 210.685 154.868C210.685 150.837 210.5 146.875 210.146 143H211.15Z" fill="#C6C6C6"/>
</svg>
