<svg width="792" height="360" viewBox="0 0 792 360" fill="none" xmlns="http://www.w3.org/2000/svg">
<path d="M158.407 27.9492C158.396 27.903 158.384 27.8568 158.373 27.8105L158.859 27.6934L159.346 27.5752C159.399 27.7962 159.455 28.017 159.51 28.2383L229.55 46.624L227.88 134.578C235.661 139.435 243.339 142.162 250.523 142.162H543.5L546.373 11.7578L546.387 11.126L546.999 11.2842L710.882 53.9082L711.264 54.0078L711.256 54.4023L705.793 339.595L705.778 340.378L705.074 340.035L541.191 260.212L540.903 260.071L540.91 259.751L542.755 176.016C540.825 175.865 538.824 175.788 536.75 175.788H249.747C240.041 175.788 232.368 177.07 227.033 179.22L224.138 331.816L201.385 320.631L201.121 320.735C201.084 320.64 201.048 320.543 201.011 320.447L61.7578 251.993L63.707 162.681C63.6296 160.424 63.5898 158.153 63.5898 155.867C63.5899 150.649 63.7955 145.503 64.1924 140.448L67.1709 4L158.407 27.9492ZM706.064 273.168C692.185 293.306 674.427 307.877 654.52 314.298L704.809 338.792L705.356 310.179C698.588 317.267 691.306 323.399 683.605 328.434L683.332 328.016L683.059 327.597C690.698 322.603 697.928 316.514 704.654 309.467L705.017 309.812L705.356 310.137L706.064 273.168ZM223.789 297.43C216.878 305.578 209.349 312.639 201.322 318.435C201.482 318.869 201.643 319.299 201.806 319.724L223.167 330.225L223.789 297.43ZM200.45 319.058L200.491 319.077C200.487 319.065 200.482 319.052 200.478 319.039C200.469 319.045 200.459 319.051 200.45 319.058ZM193.786 293.768C187.505 298.864 180.83 302.98 173.847 305.979L199.428 318.555C199.66 318.392 199.892 318.229 200.123 318.064C197.581 310.998 195.41 302.746 193.786 293.768ZM224.588 255.316C216.319 270.631 206.169 283.486 194.672 293.04C196.276 302.066 198.434 310.363 200.967 317.458C209.108 311.548 216.74 304.317 223.73 295.948L223.815 296.02L224.588 255.316ZM542.22 245.675L542.445 245.579L542.905 245.382C545.676 251.84 548.771 257.973 552.157 263.732L551.727 263.986L551.499 264.119L654.395 314.236L654.272 313.854L654.119 313.377C673.893 307.027 691.589 292.509 705.424 272.338L705.836 272.62L706.072 272.782L707.704 187.561C704.749 214.294 696.591 238.22 684.921 256.64C670.082 280.061 649.518 294.642 626.726 294.642C615.108 294.642 604.071 290.851 594.074 284.035L593.735 284.022C593.738 283.952 593.741 283.881 593.744 283.81C585.244 277.943 577.503 269.885 570.812 260.104C556.233 238.794 546.585 209.26 544.817 176.21C544.465 176.172 544.11 176.135 543.753 176.103L542.22 245.675ZM190.73 265.113C178.07 276.937 163.179 283.766 147.209 283.766C142.748 283.766 138.372 283.23 134.104 282.203C133.648 283.466 133.256 284.648 132.929 285.74L132.274 285.544L172.661 305.396C179.999 302.345 187.008 298.041 193.586 292.641C192.074 283.978 191.071 274.667 190.73 265.113ZM662.396 49.7783C659.561 56.5892 656.506 63.0775 653.269 69.2314C659.638 74.3666 665.417 81.0265 670.411 88.8906C682.699 108.241 690.284 134.944 690.284 164.412C690.284 193.88 682.7 220.583 670.411 239.934C658.127 259.278 641.093 271.336 622.2 271.336C612.725 271.336 603.718 268.301 595.542 262.837C595.406 270.636 595.002 277.687 594.767 283.299C604.588 289.962 615.393 293.642 626.726 293.642C649.056 293.642 669.345 279.355 684.076 256.104C698.803 232.861 707.929 200.718 707.929 165.189C707.929 129.661 698.803 97.5193 684.076 74.2754C677.775 64.3302 670.455 56.0269 662.396 49.7783ZM225.631 200.364C219.202 226.876 207.17 249.297 191.699 264.193C192 273.808 192.977 283.184 194.473 291.905C206.015 282.2 216.198 269.1 224.448 253.458L224.622 253.55L225.631 200.364ZM64.252 183.531L62.959 242.78L63.2119 242.669C64.995 246.72 66.8988 250.634 68.916 254.398L131.986 285.402C132.308 284.335 132.69 283.185 133.13 281.96C115.617 277.423 99.988 264.573 88.0166 246.225C87.3124 245.145 86.6211 244.047 85.9424 242.93C78.0909 248.896 72.589 253.272 70.625 254.908L70.3047 254.523L69.9844 254.14C71.967 252.487 77.5147 248.076 85.4248 242.067C75.6939 225.757 68.6889 205.581 65.5059 183.229C65.0842 183.33 64.6667 183.433 64.252 183.531ZM191.612 238.268C180.191 251.867 165.867 259.961 150.313 259.961C148.338 259.961 146.383 259.829 144.45 259.573C140.083 267.881 136.644 275.376 134.452 281.258C138.612 282.249 142.872 282.766 147.209 282.766C163.134 282.766 178.04 275.825 190.688 263.776C190.631 261.833 190.6 259.881 190.6 257.923C190.6 251.398 190.922 244.804 191.612 238.268ZM545.825 176.325C547.609 209.156 557.203 238.441 571.637 259.539C578.139 269.044 585.616 276.875 593.795 282.627C594.041 276.943 594.433 269.901 594.553 262.162C588.053 257.625 582.098 251.541 576.876 244.222C564.938 227.489 556.793 204.253 554.669 178.078C551.913 177.302 548.969 176.712 545.825 176.325ZM103.026 230.234C96.9603 234.644 91.4517 238.751 86.7422 242.321C87.4328 243.46 88.1364 244.58 88.8535 245.679C100.755 263.92 116.226 276.578 133.476 281.016C135.657 275.141 139.07 267.682 143.399 259.422C127.744 256.972 113.669 246.291 103.026 230.234ZM652.791 70.1309C649.38 76.5463 645.774 82.5945 642.024 88.2646C646.562 92.2265 650.696 97.1857 654.311 102.947C664.068 118.502 670.086 139.96 670.086 163.636C670.086 187.311 664.068 208.769 654.311 224.323C644.558 239.871 631.02 249.585 615.985 249.585C608.576 249.585 601.531 247.224 595.122 242.97C595.558 249.401 595.642 255.723 595.561 261.642C603.739 267.241 612.749 270.336 622.2 270.336C640.632 270.336 657.392 258.571 669.567 239.397C681.739 220.23 689.284 193.72 689.284 164.412C689.284 135.104 681.739 108.594 669.567 89.4268C664.657 81.6946 659.001 75.1677 652.791 70.1309ZM541.917 259.452L551.117 263.934C547.868 258.378 544.888 252.481 542.207 246.286L541.917 259.452ZM214.283 189.526C210.123 208.29 202.58 224.64 192.775 236.852C191.974 243.844 191.6 250.919 191.6 257.923C191.6 259.564 191.622 261.201 191.662 262.832C206.769 247.99 218.546 225.794 224.821 199.453C222.201 197.851 218.662 194.737 215.499 191.013C215.087 190.528 214.681 190.032 214.283 189.526ZM555.696 178.378C557.856 204.249 565.933 227.16 577.69 243.641C582.71 250.677 588.394 256.533 594.569 260.95C594.638 255.003 594.533 248.673 594.069 242.25C589.566 239.08 585.392 234.968 581.647 230.078C572.342 217.927 565.648 200.945 563.062 181.568L563.541 181.504C561.117 180.28 558.507 179.231 555.696 178.378ZM195.633 215.735C185.962 230.597 172.708 239.764 158.085 239.764L157.392 239.757C156.861 239.746 156.332 239.722 155.805 239.688C151.793 246.206 148.134 252.618 144.948 258.627C146.719 258.846 148.508 258.961 150.313 258.961C165.929 258.961 180.375 250.6 191.814 236.452C192.633 229.413 193.883 222.455 195.633 215.735ZM121.477 217.147C115.271 221.436 109.333 225.659 103.836 229.646C114.457 245.686 128.445 256.187 143.894 258.483C147.062 252.49 150.699 246.098 154.687 239.598C141.875 238.343 130.285 230.044 121.477 217.147ZM62.7715 251.378L67.3857 253.646C65.827 250.676 64.3377 247.618 62.9219 244.476L62.7715 251.378ZM641.467 89.1045C638.344 93.7783 635.124 98.1916 631.835 102.337C635.395 105.51 638.646 109.422 641.503 113.933C649.574 126.676 654.549 144.25 654.549 163.636C654.549 183.022 649.574 200.596 641.503 213.34C633.436 226.077 622.229 234.05 609.771 234.05C604.062 234.05 598.616 232.373 593.614 229.333C594.267 233.441 594.72 237.589 595.028 241.7C601.471 246.137 608.558 248.585 615.985 248.585C630.553 248.585 643.816 239.171 653.463 223.792C663.105 208.42 669.086 187.153 669.086 163.636C669.086 140.118 663.105 118.851 653.463 103.479C649.915 97.823 645.878 92.9752 641.467 89.1045ZM84.3271 178.457C77.803 180.128 71.8633 181.684 66.4824 182.994C69.6358 205.221 76.5848 225.266 86.2246 241.458C90.9309 237.891 96.428 233.793 102.478 229.396C93.5734 215.654 87.1488 198.099 84.3271 178.457ZM564.104 181.796C566.706 200.884 573.319 217.559 582.441 229.471C585.947 234.048 589.819 237.915 593.971 240.949C593.643 236.844 593.166 232.708 592.486 228.62C588.907 226.266 585.567 223.207 582.541 219.559C575.054 210.533 569.447 197.882 566.759 183.297C565.9 182.772 565.016 182.272 564.104 181.796ZM162.665 228.972C162.213 229.65 161.765 230.329 161.319 231.008C159.631 233.581 157.989 236.157 156.401 238.72C156.961 238.748 157.522 238.764 158.085 238.764C166.549 238.764 174.589 235.593 181.729 229.91C179.105 230.498 175.967 230.941 173.62 230.941C169.846 230.941 166.179 230.259 162.665 228.972ZM137.982 206.033C134.707 208.177 131.46 210.341 128.264 212.504C126.254 213.864 124.264 215.225 122.3 216.579C131.112 229.484 142.648 237.591 155.271 238.645C156.951 235.925 158.691 233.19 160.482 230.46C160.889 229.841 161.297 229.222 161.709 228.604C153.214 225.2 145.652 218.248 139.691 208.867C139.106 207.946 138.537 207.001 137.982 206.033ZM209.2 181.186C206.801 193.063 202.76 203.797 197.492 212.735C195.43 219.89 193.958 227.362 193.001 234.95C194.476 233.039 195.899 231.031 197.264 228.929C204.542 217.719 210.161 203.917 213.488 188.483C211.756 186.155 210.235 183.664 209.2 181.186ZM631.21 103.119C627.701 107.494 624.117 111.566 620.492 115.326C623.3 117.9 625.851 121.149 628.067 124.933C633.883 134.862 637.464 148.547 637.464 163.636C637.464 178.724 633.883 192.409 628.067 202.339C622.259 212.256 614.161 218.513 605.115 218.513C599.305 218.513 593.889 215.935 589.214 211.456C589.956 213.558 590.616 215.704 591.202 217.883C592.095 221.198 592.817 224.592 593.398 228.02C598.467 231.268 603.994 233.05 609.771 233.05C621.766 233.05 632.699 225.371 640.658 212.805C648.613 200.245 653.549 182.862 653.549 163.636C653.549 144.41 648.613 127.028 640.658 114.468C637.851 110.036 634.673 106.213 631.21 103.119ZM196.186 212.972C191.838 215.543 187.112 216.96 182.165 216.96C178.807 216.96 175.553 216.307 172.45 215.086C169.278 219.334 166.196 223.707 163.24 228.114C166.583 229.31 170.058 229.941 173.62 229.941C176.512 229.941 180.718 229.234 183.506 228.428C187.772 224.703 191.688 220.062 195.144 214.653C195.496 214.101 195.843 213.54 196.186 212.972ZM105.636 173.242C98.3151 174.919 91.5443 176.612 85.3008 178.208C88.0931 197.743 94.4686 215.182 103.287 228.809C108.782 224.823 114.718 220.604 120.919 216.318C113.33 204.884 107.888 189.983 105.636 173.242ZM152.834 196.6C148.151 199.477 143.459 202.458 138.82 205.484C139.376 206.457 139.948 207.406 140.535 208.331C146.467 217.666 153.945 224.476 162.278 227.753C165.233 223.34 168.317 218.955 171.496 214.69C164.867 211.802 158.968 206.296 154.279 198.982C153.783 198.209 153.303 197.413 152.834 196.6ZM567.916 184.029C570.642 198.094 576.109 210.239 583.311 218.92C586.06 222.235 589.06 225.039 592.252 227.255C591.705 224.175 591.041 221.127 590.237 218.143C589.459 215.252 588.551 212.425 587.496 209.689C583.501 205.285 580.131 199.439 577.632 192.627C576.328 191.095 574.93 189.643 573.428 188.282C571.728 186.744 569.893 185.323 567.916 184.029ZM619.797 116.044C618.331 117.547 616.86 118.999 615.384 120.399C612.749 122.899 610.099 125.235 607.45 127.406C609.091 129.198 610.595 131.328 611.931 133.731C616.196 141.41 618.819 151.984 618.819 163.636C618.819 175.288 616.196 185.862 611.931 193.54C607.674 201.202 601.714 206.084 595.015 206.084C591.554 206.084 588.286 204.777 585.353 202.461C586.468 204.62 587.467 206.857 588.36 209.157C593.232 214.468 598.991 217.513 605.115 217.513C613.659 217.512 621.486 211.597 627.204 201.834C632.915 192.083 636.464 178.579 636.464 163.636C636.464 148.693 632.915 135.189 627.204 125.438C625.018 121.706 622.522 118.536 619.797 116.044ZM203.202 194.818C199.257 198.032 194.744 199.87 189.935 199.87C188.34 199.87 186.78 199.665 185.261 199.278C181.11 203.954 177.025 209.004 173.074 214.255C175.993 215.37 179.038 215.96 182.165 215.96C187.334 215.96 192.272 214.353 196.788 211.425L196.819 211.474C198.541 205.676 200.656 200.089 203.202 194.818ZM126.452 168.895C119.439 170.209 112.831 171.606 106.615 173.019C108.77 189.122 113.894 203.49 121.026 214.653C121.262 215.023 121.501 215.388 121.741 215.75C123.705 214.396 125.694 213.036 127.703 211.676C130.921 209.498 134.191 207.32 137.49 205.161C131.889 195.075 127.982 182.623 126.452 168.895ZM169.644 186.747C164.404 189.654 159.054 192.795 153.688 196.078C154.153 196.886 154.629 197.676 155.121 198.443C159.788 205.724 165.62 211.104 172.114 213.867C176.026 208.659 180.075 203.639 184.193 198.977C178.575 197.203 173.588 192.885 169.739 186.898C169.707 186.848 169.676 186.797 169.644 186.747ZM204.916 193.61C202.603 198.172 200.627 202.991 198.962 207.996C201.246 203.558 203.245 198.74 204.916 193.61ZM579.773 195.328C581.598 199.625 583.777 203.426 586.23 206.616C584.456 202.582 582.325 198.786 579.773 195.328ZM606.674 128.037C602.196 131.652 597.722 134.792 593.312 137.439C593.862 138.197 594.384 139.006 594.876 139.861C598.16 145.573 600.176 153.43 600.176 162.082C600.176 170.734 598.16 178.592 594.876 184.304C591.6 190.002 586.998 193.655 581.809 193.655C581.052 193.655 580.307 193.576 579.576 193.425C581.164 195.438 582.599 197.571 583.896 199.804C587.217 203.192 591.011 205.084 595.015 205.084C601.186 205.084 606.878 200.575 611.057 193.055C615.225 185.551 617.819 175.151 617.819 163.636C617.819 152.121 615.225 141.72 611.057 134.217C609.736 131.84 608.264 129.765 606.674 128.037ZM143.368 166.037C137.843 166.866 132.535 167.765 127.439 168.71C128.947 182.32 132.807 194.646 138.328 204.611C142.965 201.587 147.656 198.606 152.34 195.729C147.755 187.46 144.578 177.264 143.368 166.037ZM207.372 184.853C205.778 185.525 204.098 185.887 202.362 185.887C201.24 185.887 200.144 185.734 199.08 185.447C194.712 189.232 190.334 193.626 186.019 198.432C187.3 198.719 188.607 198.87 189.935 198.87C195.224 198.87 200.188 196.517 204.415 192.396C204.868 191.522 205.333 190.658 205.812 189.804L206.042 189.933C206.52 188.268 206.963 186.574 207.372 184.853ZM225.801 116.636C223.633 117.437 221.068 118.794 218.5 120.62C217.185 121.556 215.874 122.61 214.621 123.769C216.747 133.879 217.896 144.667 217.896 155.868L217.891 157.213C217.802 168.036 216.638 178.461 214.561 188.247C215.109 188.969 215.677 189.678 216.261 190.365C219.521 194.204 223.15 197.335 225.661 198.788L227.138 121.007L226.686 121.091C226.408 119.594 226.113 118.109 225.801 116.636ZM188.775 177.037C183.472 179.431 177.884 182.251 172.137 185.377C171.599 185.669 171.062 185.967 170.521 186.265C170.541 186.296 170.56 186.327 170.58 186.358C174.444 192.369 179.412 196.554 184.925 198.15C189.225 193.337 193.596 188.921 197.964 185.095C194.392 183.784 191.233 180.918 188.775 177.037ZM161.91 163.646C155.833 164.302 149.984 165.058 144.358 165.89C145.55 176.997 148.685 187.063 153.193 195.208C158.547 191.933 163.886 188.799 169.117 185.896C165.453 179.827 162.89 172.156 161.91 163.646ZM592.449 137.951C586.697 141.328 581.065 143.861 575.695 145.516C576.176 146.26 576.627 147.062 577.035 147.916C578.877 151.768 579.977 156.709 579.977 162.082C579.977 167.695 578.777 172.836 576.784 176.758C574.97 180.328 572.461 182.951 569.546 183.922C571.157 185.043 572.674 186.251 574.099 187.541C575.591 188.892 576.981 190.332 578.278 191.846L578.396 191.804C578.433 191.905 578.469 192.005 578.506 192.105L578.509 192.1C579.579 192.465 580.682 192.655 581.809 192.655C586.487 192.655 590.819 189.353 594.009 183.805C597.191 178.27 599.176 170.591 599.176 162.082C599.176 153.573 597.191 145.895 594.009 140.36C593.515 139.502 592.994 138.698 592.449 137.951ZM213.77 124.585C212.038 126.292 210.448 128.201 209.145 130.273C210.794 138.342 211.686 146.942 211.686 155.868L211.681 156.952C211.618 164.705 210.882 172.204 209.562 179.313C210.428 181.916 211.942 184.614 213.766 187.169C215.797 177.301 216.896 166.786 216.896 155.868C216.896 144.957 215.799 134.448 213.77 124.585ZM183.596 161.834C176.425 162.259 169.53 162.838 162.905 163.538C163.873 171.935 166.402 179.476 169.994 185.414C170.551 185.107 171.105 184.8 171.659 184.499C177.375 181.389 182.948 178.574 188.253 176.176C185.939 172.221 184.295 167.293 183.596 161.834ZM208.257 178.425C205.532 180.217 202.78 182.307 200.021 184.644C200.789 184.803 201.57 184.887 202.362 184.887C204.173 184.887 205.925 184.46 207.583 183.661L207.627 183.753C207.954 182.313 208.257 180.855 208.534 179.379C208.433 179.06 208.339 178.742 208.257 178.425ZM204.965 170.879C200.28 172.242 195.145 174.201 189.699 176.623C192.193 180.514 195.352 183.231 198.84 184.335C202.01 181.615 205.176 179.212 208.308 177.198L208.866 176.839C207.358 175.214 206.039 173.196 204.965 170.879ZM574.699 145.813C570.104 147.144 565.71 147.822 561.607 147.822H555.369C557.151 150.798 558.223 154.709 558.223 158.976C558.223 163.565 556.984 167.743 554.954 170.788C553.23 173.374 550.906 175.177 548.268 175.658C556.253 176.933 562.929 179.563 568.504 183.219L568.495 183.176C571.353 182.552 573.974 180.08 575.893 176.305C577.804 172.543 578.977 167.561 578.977 162.082C578.977 156.837 577.902 152.047 576.133 148.347C575.694 147.429 575.213 146.582 574.699 145.813ZM64.2744 182.496C64.6367 182.41 65.0014 182.321 65.3691 182.232C65.0111 179.618 64.705 176.974 64.4531 174.304L64.2744 182.496ZM71.082 106.487C68.1424 117.159 66.1281 128.579 65.1904 140.51L64.707 162.673C64.9338 169.261 65.4889 175.715 66.3457 181.998C71.7206 180.688 77.6597 179.132 84.1875 177.46C83.2913 170.916 82.7933 164.146 82.7363 157.213L82.7305 155.868C82.7305 141.574 84.6005 127.952 87.9854 115.553C81.4343 112.326 75.7392 109.234 71.082 106.487ZM227.054 178.135C228.509 177.571 230.119 177.072 231.879 176.641V176.342C234.611 176.342 237.197 174.257 239.131 170.751C241.053 167.267 242.254 162.497 242.254 157.421C242.254 153.415 241.657 149.964 240.665 147.165C236.455 146.522 232.125 145.417 227.703 143.907L227.054 178.135ZM88.9014 116.002C85.5733 128.26 83.7305 141.727 83.7305 155.868C83.7305 163.187 84.2246 170.326 85.1621 177.21C91.4058 175.614 98.1799 173.922 105.506 172.245C104.879 167.29 104.531 162.179 104.488 156.952L104.484 155.868C104.484 144.86 105.839 134.346 108.302 124.714C101.259 121.811 94.75 118.859 88.9014 116.002ZM208.956 176.996C208.959 176.979 208.962 176.963 208.965 176.946C208.956 176.937 208.948 176.928 208.939 176.919L208.956 176.996ZM202.207 161.11C196.161 161.223 190.292 161.45 184.597 161.775C185.292 167.131 186.913 171.939 189.171 175.765C194.643 173.327 199.817 171.345 204.555 169.958C203.439 167.314 202.632 164.321 202.207 161.11ZM241.777 147.325C242.71 150.154 243.254 153.55 243.254 157.421C243.254 162.641 242.021 167.581 240.007 171.233C238.97 173.113 237.704 174.683 236.271 175.761C240.008 175.161 244.254 174.824 248.969 174.791V174.788C251.753 174.788 254.335 173.096 256.243 170.233C258.149 167.374 259.344 163.395 259.344 158.976C259.344 154.609 258.176 150.674 256.31 147.822H248.969C246.618 147.822 244.219 147.652 241.777 147.325ZM209.963 169.62C208.665 169.891 207.323 170.219 205.939 170.603C206.855 172.546 207.946 174.257 209.17 175.678C209.481 173.686 209.746 171.666 209.963 169.62ZM535.174 147.822C536.956 150.798 538.027 154.709 538.027 158.976C538.027 163.565 536.789 167.743 534.759 170.788C533.595 172.534 532.157 173.921 530.535 174.788H536.75C540.323 174.788 543.685 175.015 546.848 175.448V174.788C549.632 174.788 552.214 173.096 554.122 170.233C556.028 167.374 557.223 163.395 557.223 158.976C557.223 154.609 556.055 150.674 554.188 147.822H535.174ZM257.49 147.822C259.272 150.798 260.344 154.709 260.344 158.976C260.344 163.565 259.105 167.743 257.075 170.788C255.911 172.534 254.474 173.921 252.852 174.788H526.652C529.436 174.788 532.018 173.096 533.927 170.233C535.833 167.374 537.027 163.395 537.027 158.976C537.027 154.609 535.859 150.674 533.993 147.822H257.49ZM109.235 125.098C106.817 134.606 105.484 144.988 105.484 155.868C105.484 161.398 105.829 166.798 106.485 172.021C112.707 170.608 119.323 169.211 126.345 167.896C125.943 163.979 125.734 159.961 125.734 155.867C125.734 147.601 126.588 139.644 128.161 132.202C121.528 129.932 115.195 127.534 109.235 125.098ZM210.584 161.029C208.098 161.031 205.641 161.054 203.213 161.094C203.638 164.228 204.435 167.132 205.524 169.681C207.078 169.247 208.582 168.879 210.032 168.584L210.057 168.704C210.306 166.182 210.483 163.622 210.584 161.029ZM129.115 132.525C127.573 139.862 126.734 147.709 126.734 155.867C126.734 159.9 126.941 163.856 127.334 167.712C132.43 166.768 137.739 165.871 143.265 165.043C142.975 162.05 142.824 158.986 142.824 155.868C142.824 149.423 143.467 143.209 144.658 137.373C139.33 135.856 134.138 134.228 129.115 132.525ZM145.622 137.647C144.455 143.393 143.824 149.514 143.824 155.868C143.824 158.937 143.972 161.951 144.255 164.895C149.88 164.064 155.728 163.308 161.805 162.651C161.584 160.44 161.469 158.174 161.469 155.868C161.469 151.015 161.977 146.343 162.915 141.974C157.026 140.686 151.249 139.231 145.622 137.647ZM163.892 142.186C162.969 146.482 162.469 151.082 162.469 155.868C162.469 158.139 162.582 160.369 162.799 162.544C169.422 161.844 176.313 161.266 183.48 160.84C183.309 159.222 183.219 157.56 183.219 155.867C183.219 152.331 183.609 148.935 184.324 145.779C177.407 144.845 170.579 143.624 163.892 142.186ZM185.319 145.91C184.608 149.013 184.219 152.366 184.219 155.867C184.219 157.543 184.309 159.185 184.479 160.781C190.175 160.455 196.043 160.227 202.087 160.113C201.94 158.732 201.863 157.313 201.863 155.867C201.863 152.956 202.174 150.154 202.745 147.543C196.898 147.221 191.079 146.665 185.319 145.91ZM209.17 136.056C206.894 138.695 205.081 142.342 203.993 146.606C206.039 146.708 208.088 146.781 210.139 146.822L210.119 147.822C207.996 147.779 205.875 147.702 203.757 147.596C203.18 150.174 202.863 152.959 202.863 155.867C202.863 157.311 202.943 158.723 203.092 160.096C205.571 160.054 208.08 160.031 210.619 160.029C210.662 158.651 210.686 157.264 210.686 155.868C210.686 149.037 210.16 142.402 209.17 136.056ZM665.089 43.0312C664.341 44.9861 663.576 46.9163 662.793 48.8213C671.047 55.1742 678.518 63.6328 684.921 73.7393C697.714 93.9314 706.288 120.741 708.412 150.611L710.075 63.7891L709.843 63.9326L709.416 64.1943C707.092 60.4079 704.64 56.7916 702.069 53.3613L702.469 53.0615L702.774 52.832L665.089 43.0312ZM238.088 140.779C239.063 141.807 239.94 143.09 240.679 144.601C240.936 145.126 241.173 145.681 241.396 146.263C243.975 146.631 246.501 146.822 248.969 146.822H255.591C253.765 144.506 251.448 143.162 248.969 143.162V143.12C245.417 142.936 241.776 142.131 238.088 140.779ZM252.852 143.162C254.367 143.972 255.72 145.236 256.841 146.822H533.274C531.449 144.506 529.132 143.162 526.652 143.162H252.852ZM530.535 143.162C532.05 143.972 533.404 145.236 534.524 146.822H553.47C551.644 144.506 549.327 143.162 546.848 143.162H530.535ZM569.483 141.28C565.262 142.521 560.556 143.162 555.394 143.162H550.73C552.246 143.972 553.599 145.236 554.72 146.822H561.607C565.507 146.822 569.691 146.192 574.078 144.95C572.716 143.17 571.153 141.905 569.483 141.28ZM196.869 128.212C194.12 129.613 191.635 132.043 189.603 135.262C187.877 137.993 186.491 141.276 185.557 144.933C191.315 145.684 197.131 146.238 202.975 146.555C204.108 142 206.052 138.082 208.539 135.256C204.682 133.129 200.785 130.772 196.869 128.212ZM227.723 142.857C232.005 144.336 236.189 145.426 240.249 146.085C240.099 145.724 239.944 145.375 239.78 145.04C238.263 141.936 236.213 139.973 234.051 139.252L234.097 139.112C232.024 138.145 229.942 137.016 227.858 135.739L227.723 142.857ZM179.779 115.911C176.322 118.071 173.198 121.306 170.58 125.378C167.738 129.8 165.506 135.19 164.109 141.21C170.802 142.649 177.637 143.869 184.559 144.801C185.517 141.004 186.953 137.583 188.757 134.728C190.737 131.592 193.175 129.118 195.918 127.586C190.56 124.042 185.166 120.124 179.779 115.911ZM584.899 131.999C584.391 132.544 583.866 133.073 583.32 133.581C581.595 135.187 579.686 136.598 577.604 137.813C577.569 137.926 577.532 138.038 577.497 138.15L577.188 138.054C575.68 138.905 574.084 139.653 572.399 140.296C572.295 140.422 572.188 140.548 572.074 140.671L571.879 140.49C571.559 140.607 571.235 140.72 570.909 140.829C572.467 141.659 573.882 142.974 575.105 144.649C580.446 143.034 586.073 140.526 591.838 137.151C589.787 134.586 587.427 132.806 584.899 131.999ZM574.32 38.2471C563.6 48.4827 554.248 61.5174 546.758 76.6465L546.31 76.4248L545.952 76.2471L544.501 142.162H545.82C547.335 128.867 550.139 116.273 554.021 104.714C551.147 102.094 548.308 99.7963 545.784 98.0146L546.36 97.1982C548.822 98.9355 551.576 101.154 554.372 103.681C559.238 89.5086 565.733 76.9248 573.469 66.5566C576.419 62.603 579.551 58.9703 582.842 55.6934C580.413 50.0733 577.578 44.2501 574.32 38.2471ZM554.827 105.455C551.053 116.793 548.319 129.134 546.827 142.162H555.394C555.46 142.162 555.526 142.16 555.593 142.16C556.973 131.91 559.288 122.2 562.393 113.26C560 110.507 557.41 107.858 554.827 105.455ZM563.146 114.139C560.176 122.815 557.949 132.223 556.604 142.148C559.081 142.099 561.444 141.897 563.688 141.546C564.857 134.528 566.573 127.861 568.758 121.665C568.188 120.77 567.578 119.869 566.932 118.969C565.767 117.346 564.492 115.728 563.146 114.139ZM569.435 122.756C567.432 128.576 565.844 134.814 564.732 141.369C565.64 141.206 566.528 141.019 567.396 140.807C568.468 135.879 569.877 131.196 571.583 126.826C570.986 125.497 570.264 124.134 569.435 122.756ZM164.12 102.848C160.806 105.627 157.775 109.153 155.121 113.293C150.963 119.779 147.746 127.753 145.827 136.666C151.458 138.251 157.239 139.709 163.133 140.998C164.553 134.869 166.827 129.366 169.739 124.837C172.341 120.79 175.463 117.507 178.948 115.256C173.986 111.347 169.031 107.192 164.12 102.848ZM572.144 128.158C570.68 132.049 569.449 136.186 568.482 140.523C569.621 140.211 570.724 139.856 571.79 139.458C573.566 137.167 573.849 134.213 573.006 130.827C572.79 129.96 572.498 129.068 572.144 128.158ZM593.979 98.8877C590.431 101.067 587.101 103.961 584.061 107.467C579.534 112.687 575.655 119.253 572.666 126.8C573.225 128.09 573.67 129.356 573.977 130.585C574.728 133.602 574.658 136.435 573.395 138.815C574.568 138.312 575.692 137.752 576.769 137.141C576.964 136.539 577.167 135.944 577.375 135.355L577.29 135.324C577.522 134.706 577.755 134.164 577.99 133.689C580.597 126.899 584.071 121.138 588.158 116.869C589.711 115.248 591.354 113.839 593.074 112.672C593.422 110.829 593.679 108.91 593.839 106.916C594.044 104.359 594.09 101.681 593.979 98.8877ZM595.015 122.188C593.662 122.188 592.299 122.418 590.952 122.854C589.536 125.96 587.76 128.748 585.632 131.19C588.256 132.138 590.652 134.04 592.704 136.638C597.075 134.02 601.521 130.907 605.979 127.313C602.698 124.027 598.955 122.188 595.015 122.188ZM151.145 90.8574C147.244 94.2335 143.673 98.465 140.535 103.403C135.558 111.237 131.687 120.828 129.327 131.541C134.347 133.244 139.536 134.874 144.862 136.392C146.806 127.397 150.061 119.334 154.279 112.754C156.946 108.594 160.004 105.017 163.366 102.176C159.255 98.5201 155.174 94.7369 151.145 90.8574ZM581.804 131.51C581.383 131.506 580.872 131.596 580.286 132.123C579.863 132.503 579.392 133.122 578.896 134.121C578.616 134.852 578.348 135.595 578.089 136.35C579.728 135.312 581.246 134.144 582.639 132.849C583.035 132.48 583.42 132.101 583.796 131.712C583.142 131.579 582.479 131.51 581.809 131.51H581.804ZM202.362 126.849C200.846 126.849 199.366 127.15 197.948 127.72C201.618 130.103 205.268 132.305 208.883 134.303C208.524 132.205 208.115 130.14 207.656 128.111C205.977 127.289 204.2 126.849 202.362 126.849ZM138.93 78.6582C132.197 82.8186 126.114 89.1195 121.026 97.083C116.131 104.745 112.181 113.916 109.488 124.122C115.434 126.555 121.754 128.95 128.375 131.219C130.76 120.444 134.663 110.781 139.691 102.867C142.852 97.8931 146.463 93.602 150.424 90.1602C146.538 86.4016 142.7 82.5569 138.93 78.6582ZM589.608 123.359C586.392 124.738 583.325 127.276 580.794 130.668C581.157 130.545 581.499 130.508 581.809 130.511V130.51L581.811 130.511L581.813 130.51L581.812 130.511C582.756 130.511 583.681 130.633 584.581 130.865C586.557 128.662 588.238 126.155 589.608 123.359ZM93.0234 24.6816C83.041 34.3571 74.2321 46.6687 67.0146 60.9941L66.9268 60.9492L65.4424 128.968C66.5571 120.998 68.1555 113.302 70.1914 105.958C68.7328 105.087 67.3826 104.254 66.1484 103.465L66.6875 102.623C67.8478 103.365 69.1115 104.146 70.4717 104.961C74.6763 90.1457 80.6612 76.7844 88.0166 65.5107C93.7456 56.7298 100.313 49.2083 107.522 43.2539C102.356 36.9179 97.4967 30.6842 93.0234 24.6816ZM169.363 57.0684C172.686 64.7938 176.497 72.4245 180.654 79.75C193.85 89.352 204.131 107.113 208.854 128.893C210.209 126.896 211.81 125.063 213.526 123.428C210.204 107.924 204.569 94.06 197.264 82.8076C189.542 70.9144 179.99 61.9832 169.363 57.0684ZM592.782 114.104C591.432 115.101 590.129 116.257 588.88 117.561C586.124 120.439 583.641 124.031 581.521 128.191C584.085 125.305 587.08 123.159 590.218 122.046C591.299 119.6 592.156 116.95 592.782 114.104ZM189.935 112.866C186.707 112.866 183.598 113.744 180.704 115.364C186.128 119.595 191.556 123.521 196.943 127.063C198.655 126.276 200.473 125.849 202.362 125.849C204.099 125.849 205.778 126.211 207.372 126.884C206.846 124.669 206.262 122.499 205.622 120.379L205.521 120.474C201.066 115.652 195.692 112.866 189.935 112.866ZM605.115 109.759C601.207 109.759 597.451 110.995 593.978 113.271C593.386 116.267 592.549 119.067 591.472 121.659C592.643 121.351 593.829 121.188 595.015 121.188C599.321 121.188 603.32 123.206 606.759 126.682C609.406 124.514 612.056 122.178 614.695 119.674C616.15 118.293 617.601 116.863 619.047 115.382C614.83 111.771 610.095 109.759 605.115 109.759ZM592.702 87.2803C589.391 89.8719 586.269 93.0009 583.381 96.6016C577.926 103.403 573.319 111.874 569.862 121.54C570.703 122.887 571.453 124.23 572.093 125.552C575.069 118.28 578.874 111.922 583.306 106.812C586.536 103.087 590.102 100.02 593.925 97.749C593.742 94.4149 593.337 90.9219 592.702 87.2803ZM123.214 61.6924C115.799 66.8227 109.08 74.0037 103.364 82.8076C97.4063 91.9843 92.5598 102.898 89.1719 115.021C95.011 117.878 101.515 120.832 108.557 123.738C114.081 102.899 124.816 86.3002 138.219 77.9238C138.144 77.8462 138.069 77.769 137.994 77.6914C132.93 72.4276 127.989 67.0686 123.214 61.6924ZM160.087 30.5049C162.28 38.8243 165.24 47.3149 168.783 55.709C190.214 65.0661 207.312 90.3016 214.379 122.639C215.533 121.603 216.726 120.655 217.921 119.805C220.586 117.909 223.282 116.483 225.589 115.648C220.296 91.3172 210.336 70.2817 197.358 55.0303C186.665 42.4631 173.937 33.8379 160.087 30.5049ZM589.041 72.3271C585.737 75.3013 582.607 78.7083 579.681 82.501C573.158 90.9536 567.658 101.313 563.527 113.043C565.032 114.796 566.454 116.588 567.744 118.386C568.244 119.082 568.723 119.782 569.182 120.479C572.642 111.02 577.207 102.702 582.602 95.9756C585.65 92.1745 588.967 88.878 592.502 86.1709C591.683 81.7629 590.532 77.1426 589.041 72.3271ZM182.165 95.7764C175.976 95.7764 170.108 98.0841 164.904 102.208C169.858 106.586 174.855 110.769 179.855 114.698C182.979 112.873 186.374 111.866 189.935 111.866C195.518 111.866 200.7 114.342 205.06 118.571C204.586 117.097 204.087 115.648 203.561 114.226L203.537 114.247C199.024 109.052 194.599 103.302 190.366 97.1572C187.721 96.252 184.977 95.7764 182.165 95.7764ZM227.229 116.173C227.074 116.216 226.915 116.262 226.754 116.312C226.902 117.008 227.046 117.706 227.187 118.407L227.229 116.173ZM159.805 29.4102C174.1 32.71 187.189 41.5361 198.12 54.3818C211.204 69.7575 221.215 90.9126 226.543 115.331C226.784 115.258 227.019 115.191 227.249 115.133L228.185 65.8203C224.551 58.0023 220.458 50.7284 215.968 44.0918L159.787 29.3447C159.793 29.3666 159.799 29.3883 159.805 29.4102ZM609.771 94.2227C604.58 94.2227 599.592 95.6615 594.955 98.3096C595.097 101.336 595.057 104.234 594.836 106.996C594.7 108.694 594.494 110.342 594.223 111.937C597.615 109.885 601.281 108.759 605.115 108.759C610.405 108.759 615.37 110.901 619.743 114.661C623.365 110.905 626.948 106.836 630.456 102.46C624.278 97.1925 617.23 94.2227 609.771 94.2227ZM108.153 44.0283C101.036 49.9065 94.5374 57.3449 88.8535 66.0566C81.5142 77.3057 75.5428 90.6643 71.3604 105.492C75.9999 108.238 81.6948 111.336 88.2578 114.573C94.9411 90.7794 107.224 71.5869 122.547 60.9375C117.546 55.2862 112.73 49.6206 108.153 44.0283ZM583.267 56.6816C580.116 59.8473 577.11 63.3482 574.271 67.1543C566.528 77.5315 560.027 90.1644 555.177 104.415C557.761 106.799 560.359 109.431 562.774 112.176C566.915 100.574 572.394 90.3056 578.889 81.8896C581.948 77.9257 585.234 74.3708 588.714 71.2803C587.222 66.5901 585.409 61.7184 583.267 56.6816ZM192.018 97.7832C195.414 102.643 198.928 107.244 202.508 111.503C200.79 107.247 198.834 103.255 196.669 99.5742L196.64 99.623L196.374 100.047C194.96 99.1607 193.506 98.4031 192.018 97.7832ZM615.985 78.6855C608.003 78.6856 600.413 81.5117 593.595 86.5977C594.256 90.279 594.688 93.8147 594.895 97.1953C599.541 94.6269 604.546 93.2227 609.771 93.2227C617.507 93.2227 624.761 96.2978 631.08 101.679C634.366 97.5351 637.583 93.1213 640.703 88.4453C633.303 82.2012 624.888 78.6855 615.985 78.6855ZM173.62 81.793C165.808 81.793 158.419 84.8215 151.912 90.207C155.947 94.0908 160.033 97.8774 164.147 101.533C169.53 97.2248 175.652 94.7764 182.165 94.7764C184.657 94.7764 187.093 95.1362 189.453 95.8213C186.611 91.6289 183.861 87.2613 181.237 82.7676C178.758 82.1263 176.213 81.793 173.62 81.793ZM182.841 83.2275C182.77 83.2051 182.698 83.184 182.627 83.1621C185.303 87.6994 188.108 92.1028 191.004 96.3213C192.781 96.9536 194.511 97.7726 196.186 98.7627C195.843 98.1953 195.496 97.6349 195.144 97.083C191.541 91.4449 187.44 86.6404 182.963 82.8389L182.841 83.2275ZM158.085 72.9717C151.682 72.9717 145.522 74.7863 139.811 78.1299C143.545 81.988 147.343 85.7916 151.188 89.5088C157.863 83.9561 165.494 80.793 173.62 80.793C175.972 80.793 178.284 81.059 180.544 81.5713C180.326 81.1929 180.109 80.8137 179.893 80.4336C173.222 75.6272 165.831 72.9717 158.085 72.9717ZM622.2 58.4883C610.497 58.4884 599.471 63.2308 589.862 71.6016C591.374 76.4298 592.548 81.0698 593.393 85.5039C600.254 80.493 607.904 77.6856 615.985 77.6855C625.137 77.6855 633.733 81.2848 641.259 87.6074C644.998 81.9461 648.594 75.9055 651.995 69.4961C643.003 62.4406 632.883 58.4883 622.2 58.4883ZM150.313 52.7744C141.014 52.7744 132.131 55.7397 124.049 61.126C128.788 66.4594 133.69 71.7758 138.715 76.998C138.841 77.1289 138.968 77.2589 139.094 77.3896C144.997 73.8881 151.398 71.9717 158.085 71.9717L158.777 71.9785C165.86 72.1189 172.611 74.4094 178.777 78.4521C174.817 71.3309 171.189 63.9418 168.02 56.4717C162.37 54.0594 156.432 52.7744 150.313 52.7744ZM560.833 16.1689L561.19 16.5186C556.382 21.4266 551.825 26.8198 547.552 32.6494L547.148 32.3545L546.922 32.1885L545.957 76.0088C553.519 60.7847 562.972 47.6523 573.824 37.3398C570.182 30.6939 566.027 23.829 561.342 16.7764L562.128 16.2529L560.482 15.8252L560.833 16.1689ZM626.726 36.7383C611.089 36.7384 596.457 43.7423 584.029 55.9248C586.188 60.9691 588.02 65.8537 589.533 70.5625C599.212 62.2404 610.341 57.4884 622.2 57.4883C633.093 57.4883 643.367 61.4969 652.47 68.5986C655.699 62.4475 658.748 55.9609 661.573 49.1494C650.999 41.1843 639.18 36.7383 626.726 36.7383ZM217.429 44.4746C221.353 50.3758 224.967 56.7617 228.228 63.5684L228.535 47.3906L217.429 44.4746ZM702.956 52.8799C705.446 56.21 707.825 59.712 710.083 63.3721L710.248 54.7764L702.956 52.8799ZM147.209 28.9697C133.414 28.9698 120.387 34.1713 108.928 43.3955C113.522 49.0088 118.356 54.6971 123.379 60.3701C131.631 54.8407 140.74 51.7744 150.313 51.7744C156.241 51.7744 161.989 52.9508 167.467 55.1582C164.009 46.8572 161.125 38.4698 158.988 30.252C155.139 29.4072 151.207 28.9697 147.209 28.9697ZM80.1621 8.62402C75.8412 12.9861 71.7201 17.7543 67.8242 22.8916L67.7578 22.8418L66.9717 58.8828C74.0919 45.1379 82.697 33.2745 92.4219 23.8711C88.5529 18.6572 84.9784 13.6244 81.748 8.85938L79.9131 8.37793L80.1621 8.62402ZM591.906 24.1729L592.161 24.6025C586.168 28.1552 580.45 32.4955 575.07 37.5371C578.325 43.5189 581.167 49.3274 583.606 54.9414C596.12 42.7831 610.885 35.7384 626.726 35.7383C639.356 35.7383 651.301 40.2173 661.968 48.1953C662.699 46.4114 663.414 44.6052 664.114 42.7773L591.782 23.9658L591.906 24.1729ZM104.772 14.9092C100.966 17.5868 97.2859 20.6207 93.75 23.9834C98.2352 30.0051 103.11 36.2618 108.297 42.6221C119.904 33.2758 133.14 27.9698 147.209 27.9697C151.112 27.9697 154.951 28.3782 158.709 29.168C158.699 29.1299 158.69 29.0918 158.681 29.0537L104.767 14.9014L104.772 14.9092ZM562.206 16.2734C566.838 23.2475 570.955 30.044 574.575 36.6328C579.884 31.681 585.521 27.3999 591.431 23.874L562.206 16.2734ZM546.931 31.8066C551.176 26.0386 555.7 20.6943 560.473 15.8223L547.358 12.4121L546.931 31.8066ZM83.2207 9.24609C86.2508 13.6862 89.5732 18.352 93.1494 23.1738C96.4812 20.0123 99.9415 17.1376 103.517 14.5732L83.2207 9.24609ZM67.792 21.2871C71.4069 16.5999 75.2123 12.2241 79.1885 8.1875L68.1416 5.28809L67.792 21.2871Z" fill="#C6C6C6"/>
<path d="M153.823 309.965L152.319 309.199L152.345 308.463L156.052 310.352L156.026 311.087L154.522 310.321L154.349 315.262L153.651 314.906L153.823 309.965ZM158.342 317.394C157.995 317.217 157.692 316.971 157.432 316.654C157.177 316.339 156.982 315.977 156.846 315.566C156.715 315.157 156.658 314.729 156.673 314.282C156.689 313.834 156.774 313.478 156.928 313.215C157.087 312.955 157.301 312.8 157.568 312.752C157.841 312.706 158.15 312.772 158.497 312.949C158.844 313.126 159.145 313.371 159.4 313.686C159.66 314.002 159.855 314.365 159.986 314.773C160.122 315.184 160.182 315.614 160.166 316.061C160.15 316.509 160.063 316.863 159.904 317.124C159.75 317.387 159.536 317.542 159.264 317.587C158.996 317.635 158.689 317.571 158.342 317.394ZM158.367 316.683C158.69 316.847 158.947 316.842 159.136 316.668C159.326 316.493 159.43 316.169 159.446 315.694C159.463 315.22 159.385 314.804 159.214 314.445C159.043 314.087 158.796 313.825 158.472 313.66C158.145 313.493 157.886 313.497 157.696 313.672C157.511 313.848 157.41 314.174 157.393 314.648C157.377 315.123 157.452 315.538 157.618 315.894C157.789 316.253 158.039 316.515 158.367 316.683ZM162.481 319.503C162.162 319.341 161.887 319.108 161.656 318.806C161.425 318.504 161.251 318.152 161.134 317.751C161.018 317.35 160.967 316.925 160.983 316.478C160.999 316.03 161.076 315.671 161.217 315.4C161.357 315.13 161.549 314.965 161.792 314.904C162.036 314.844 162.318 314.895 162.636 315.058C162.883 315.183 163.104 315.364 163.299 315.599C163.494 315.834 163.638 316.075 163.731 316.323L163.801 314.301L164.486 314.649L164.287 320.326L163.66 320.006L163.661 319.356C163.548 319.537 163.388 319.639 163.179 319.663C162.975 319.689 162.742 319.636 162.481 319.503ZM162.605 318.842C162.924 319.004 163.178 318.998 163.368 318.824C163.558 318.644 163.661 318.319 163.677 317.85C163.694 317.376 163.614 316.958 163.438 316.597C163.267 316.239 163.02 315.977 162.697 315.813C162.402 315.663 162.164 315.677 161.984 315.857C161.808 316.038 161.712 316.366 161.696 316.841C161.679 317.31 161.752 317.724 161.914 318.083C162.075 318.436 162.306 318.69 162.605 318.842ZM166.534 321.568C166.173 321.384 165.875 321.121 165.64 320.779C165.405 320.437 165.294 320.093 165.306 319.746C165.318 319.394 165.425 319.167 165.627 319.064C165.829 318.96 166.131 318.965 166.534 319.078L167.784 319.422C167.796 319.092 167.738 318.81 167.61 318.577C167.483 318.338 167.291 318.154 167.035 318.023C166.792 317.9 166.6 317.861 166.458 317.908C166.317 317.955 166.215 318.083 166.155 318.291L165.444 317.872C165.53 317.492 165.712 317.249 165.992 317.142C166.276 317.037 166.632 317.094 167.06 317.312C167.525 317.549 167.879 317.886 168.12 318.324C168.366 318.758 168.479 319.25 168.46 319.799L168.401 321.478C168.398 321.574 168.412 321.652 168.444 321.711C168.481 321.768 168.542 321.818 168.627 321.862L168.856 321.978L168.832 322.642C168.718 322.599 168.608 322.552 168.504 322.498C168.071 322.278 167.824 321.938 167.763 321.478C167.656 321.641 167.491 321.73 167.268 321.747C167.044 321.763 166.8 321.704 166.534 321.568ZM166.635 320.944C166.977 321.119 167.245 321.154 167.437 321.052C167.634 320.946 167.738 320.725 167.75 320.389L167.762 320.046L166.663 319.738C166.438 319.672 166.276 319.665 166.178 319.718C166.079 319.766 166.027 319.875 166.021 320.045C166.015 320.232 166.064 320.404 166.17 320.561C166.276 320.712 166.431 320.84 166.635 320.944ZM170.151 323.859L170.614 324.095C170.743 324.16 170.838 324.187 170.902 324.176C170.97 324.167 171.025 324.119 171.066 324.032L171.208 323.722L170.987 323.609L169.748 318.779L170.489 319.157L171.461 323.118L172.599 320.232L173.34 320.609L171.664 324.573C171.575 324.782 171.449 324.903 171.289 324.935C171.132 324.974 170.924 324.928 170.662 324.795L170.128 324.522L170.151 323.859ZM180.068 328.496C179.702 328.31 179.387 328.03 179.125 327.658C178.862 327.285 178.665 326.84 178.533 326.323C178.406 325.803 178.353 325.236 178.375 324.623C178.396 324.01 178.486 323.516 178.644 323.141C178.807 322.768 179.028 322.534 179.307 322.437C179.586 322.335 179.909 322.378 180.275 322.564C180.641 322.75 180.955 323.033 181.217 323.41C181.48 323.783 181.675 324.229 181.802 324.75C181.933 325.273 181.989 325.84 181.967 326.453C181.946 327.066 181.854 327.559 181.691 327.932C181.533 328.302 181.314 328.535 181.035 328.631C180.756 328.728 180.434 328.683 180.068 328.496ZM180.094 327.753C180.426 327.922 180.692 327.86 180.891 327.565C181.095 327.267 181.209 326.772 181.233 326.079C181.251 325.573 181.216 325.118 181.128 324.716L179.485 327.109C179.644 327.412 179.846 327.627 180.094 327.753ZM179.109 324.997C179.091 325.498 179.126 325.947 179.214 326.344L180.857 323.951C180.699 323.648 180.496 323.433 180.249 323.308C179.916 323.138 179.648 323.205 179.444 323.508C179.245 323.808 179.133 324.304 179.109 324.997ZM184.399 330.703C184.066 330.534 183.776 330.318 183.529 330.057C183.282 329.79 183.089 329.499 182.95 329.184C182.816 328.866 182.743 328.544 182.73 328.217L183.466 328.543C183.489 328.853 183.583 329.129 183.749 329.371C183.919 329.615 184.145 329.809 184.425 329.952C184.739 330.111 184.989 330.131 185.177 330.01C185.37 329.885 185.473 329.634 185.487 329.256C185.5 328.883 185.42 328.541 185.247 328.23C185.079 327.917 184.838 327.68 184.524 327.52C184.325 327.419 184.137 327.38 183.962 327.405C183.788 327.424 183.661 327.507 183.584 327.651L182.843 327.274L183.297 324.234L186.07 325.647L186.044 326.39L183.891 325.294L183.663 326.829C183.792 326.743 183.943 326.704 184.117 326.711C184.296 326.72 184.478 326.772 184.663 326.867C184.986 327.032 185.266 327.258 185.503 327.547C185.744 327.838 185.926 328.167 186.049 328.533C186.176 328.896 186.234 329.265 186.221 329.638C186.207 330.016 186.122 330.317 185.964 330.541C185.806 330.764 185.592 330.891 185.32 330.92C185.048 330.95 184.741 330.877 184.399 330.703ZM189.728 327.185L190.376 327.516L187.976 333.291L187.328 332.961L189.728 327.185ZM193.104 335.139C192.738 334.952 192.423 334.673 192.161 334.3C191.898 333.928 191.701 333.483 191.569 332.965C191.442 332.445 191.389 331.878 191.411 331.265C191.432 330.652 191.522 330.158 191.68 329.783C191.843 329.41 192.064 329.176 192.343 329.079C192.622 328.977 192.945 329.02 193.311 329.206C193.677 329.393 193.991 329.675 194.253 330.053C194.516 330.425 194.711 330.872 194.838 331.392C194.969 331.915 195.025 332.483 195.003 333.096C194.982 333.709 194.89 334.201 194.727 334.574C194.569 334.944 194.35 335.177 194.071 335.273C193.792 335.37 193.469 335.325 193.104 335.139ZM193.13 334.395C193.462 334.564 193.728 334.502 193.927 334.207C194.131 333.91 194.245 333.414 194.269 332.721C194.287 332.215 194.252 331.761 194.164 331.358L192.521 333.751C192.68 334.054 192.882 334.269 193.13 334.395ZM192.145 331.639C192.127 332.14 192.162 332.589 192.25 332.987L193.893 330.593C193.735 330.29 193.532 330.076 193.285 329.95C192.952 329.78 192.684 329.847 192.48 330.15C192.281 330.45 192.169 330.946 192.145 331.639ZM197.413 337.334C196.872 337.058 196.454 336.696 196.16 336.248C195.866 335.8 195.716 335.322 195.709 334.814L196.431 335.125C196.449 335.46 196.545 335.747 196.72 335.989C196.9 336.232 197.14 336.43 197.44 336.583C197.758 336.745 198.022 336.798 198.232 336.743C198.447 336.689 198.56 336.495 198.572 336.159C198.583 335.818 198.495 335.512 198.306 335.242C198.122 334.97 197.869 334.751 197.546 334.586L197.139 334.379L197.165 333.644L197.571 333.851C197.837 333.986 198.053 334.029 198.22 333.978C198.391 333.929 198.481 333.761 198.491 333.473C198.501 333.196 198.43 332.946 198.278 332.722C198.131 332.5 197.913 332.316 197.623 332.168C197.052 331.878 196.725 331.971 196.641 332.449L195.909 332.019C195.976 331.598 196.16 331.331 196.459 331.217C196.763 331.101 197.159 331.167 197.649 331.417C198.148 331.671 198.54 332.012 198.825 332.439C199.11 332.866 199.244 333.32 199.227 333.799C199.206 334.402 198.909 334.66 198.337 334.574C198.652 334.838 198.895 335.146 199.066 335.499C199.238 335.847 199.317 336.2 199.305 336.557C199.293 336.909 199.204 337.175 199.038 337.356C198.877 337.535 198.656 337.623 198.375 337.621C198.095 337.614 197.774 337.518 197.413 337.334ZM202.764 333.827L203.412 334.158L201.012 339.933L200.364 339.603L202.764 333.827ZM204.348 340.738C204.363 340.306 204.433 339.956 204.558 339.689C204.684 339.422 204.889 339.218 205.175 339.076C205.46 338.928 205.853 338.833 206.353 338.789C206.61 338.768 206.807 338.736 206.944 338.691C207.081 338.647 207.182 338.577 207.249 338.481C207.315 338.384 207.351 338.245 207.358 338.064C207.367 337.782 207.295 337.514 207.139 337.261C206.983 337.008 206.753 336.804 206.449 336.649C206.112 336.477 205.84 336.439 205.634 336.535C205.432 336.633 205.298 336.857 205.233 337.209L204.515 336.786C204.587 336.243 204.793 335.892 205.132 335.734C205.476 335.573 205.921 335.632 206.468 335.91C206.81 336.084 207.105 336.305 207.352 336.572C207.599 336.839 207.784 337.131 207.909 337.45C208.033 337.768 208.089 338.09 208.078 338.415C208.068 338.708 208.016 338.937 207.924 339.101C207.831 339.265 207.684 339.388 207.483 339.47C207.282 339.547 206.999 339.601 206.635 339.633C206.199 339.671 205.859 339.764 205.617 339.911C205.375 340.054 205.243 340.226 205.222 340.426L207.966 341.824L207.94 342.568L204.348 340.738ZM210.485 343.995C210.119 343.808 209.805 343.529 209.542 343.156C209.279 342.784 209.082 342.339 208.95 341.821C208.823 341.301 208.771 340.734 208.792 340.121C208.813 339.508 208.903 339.014 209.061 338.639C209.224 338.267 209.445 338.032 209.724 337.935C210.004 337.834 210.326 337.876 210.692 338.062C211.058 338.249 211.372 338.531 211.635 338.909C211.897 339.281 212.092 339.728 212.219 340.248C212.351 340.771 212.406 341.339 212.384 341.952C212.363 342.565 212.271 343.058 212.108 343.43C211.95 343.8 211.731 344.033 211.452 344.13C211.173 344.226 210.851 344.181 210.485 343.995ZM210.511 343.251C210.843 343.421 211.109 343.358 211.308 343.063C211.512 342.766 211.626 342.271 211.65 341.578C211.668 341.071 211.633 340.617 211.546 340.214L209.902 342.607C210.061 342.911 210.264 343.125 210.511 343.251ZM209.526 340.495C209.509 340.996 209.544 341.446 209.631 341.843L211.275 339.45C211.116 339.146 210.913 338.932 210.666 338.806C210.333 338.636 210.065 338.703 209.861 339.006C209.662 339.306 209.55 339.802 209.526 340.495ZM213.038 345.166C213.053 344.734 213.124 344.385 213.249 344.117C213.375 343.85 213.58 343.646 213.865 343.504C214.151 343.356 214.544 343.261 215.044 343.217C215.301 343.196 215.498 343.164 215.635 343.12C215.772 343.075 215.873 343.005 215.939 342.909C216.006 342.812 216.042 342.673 216.048 342.492C216.058 342.21 215.985 341.942 215.83 341.689C215.674 341.436 215.444 341.232 215.14 341.077C214.803 340.905 214.531 340.867 214.324 340.963C214.122 341.061 213.989 341.286 213.923 341.637L213.205 341.215C213.278 340.671 213.483 340.32 213.823 340.162C214.167 340.001 214.612 340.06 215.159 340.338C215.501 340.512 215.795 340.733 216.042 341C216.289 341.267 216.475 341.56 216.599 341.878C216.724 342.196 216.78 342.518 216.769 342.843C216.758 343.136 216.707 343.365 216.614 343.529C216.521 343.693 216.374 343.817 216.173 343.899C215.972 343.975 215.69 344.029 215.326 344.061C214.889 344.099 214.55 344.192 214.308 344.34C214.066 344.482 213.934 344.654 213.913 344.854L216.657 346.253L216.631 346.996L213.038 345.166ZM219.161 348.416C218.829 348.246 218.539 348.031 218.292 347.769C218.044 347.502 217.852 347.211 217.713 346.896C217.579 346.578 217.505 346.256 217.492 345.93L218.228 346.256C218.251 346.566 218.346 346.842 218.511 347.084C218.682 347.328 218.907 347.521 219.188 347.664C219.501 347.824 219.752 347.843 219.94 347.722C220.133 347.598 220.236 347.347 220.249 346.968C220.262 346.595 220.182 346.253 220.009 345.943C219.841 345.629 219.601 345.393 219.287 345.233C219.087 345.131 218.9 345.093 218.725 345.117C218.55 345.137 218.424 345.219 218.346 345.364L217.605 344.986L218.06 341.946L220.832 343.359L220.806 344.103L218.654 343.006L218.426 344.542C218.555 344.456 218.706 344.416 218.88 344.423C219.059 344.433 219.241 344.485 219.426 344.579C219.749 344.744 220.029 344.971 220.265 345.259C220.507 345.551 220.689 345.879 220.811 346.246C220.939 346.609 220.996 346.977 220.983 347.35C220.97 347.729 220.885 348.03 220.727 348.253C220.569 348.476 220.354 348.603 220.082 348.633C219.81 348.662 219.503 348.59 219.161 348.416Z" fill="black"/>
<path d="M612.758 306.674L613.457 307.03L613.284 311.971L615.751 313.227L615.725 313.963L612.56 312.35L612.758 306.674ZM617.843 315.14C617.482 314.956 617.184 314.693 616.949 314.351C616.715 314.009 616.603 313.665 616.615 313.318C616.628 312.966 616.735 312.739 616.937 312.636C617.139 312.532 617.441 312.537 617.843 312.65L619.093 312.994C619.105 312.663 619.047 312.382 618.92 312.149C618.793 311.91 618.601 311.726 618.344 311.595C618.102 311.472 617.91 311.433 617.768 311.48C617.626 311.527 617.525 311.655 617.464 311.863L616.753 311.444C616.839 311.064 617.022 310.821 617.301 310.714C617.585 310.609 617.941 310.666 618.369 310.883C618.835 311.121 619.188 311.458 619.429 311.896C619.675 312.33 619.789 312.822 619.769 313.371L619.711 315.05C619.707 315.146 619.722 315.224 619.753 315.283C619.79 315.34 619.851 315.39 619.937 315.434L620.165 315.55L620.142 316.213C620.027 316.171 619.918 316.124 619.813 316.07C619.381 315.85 619.134 315.51 619.072 315.05C618.965 315.212 618.8 315.302 618.577 315.318C618.354 315.335 618.109 315.275 617.843 315.14ZM617.945 314.516C618.287 314.691 618.554 314.726 618.746 314.624C618.943 314.518 619.048 314.297 619.06 313.961L619.072 313.618L617.972 313.31C617.747 313.244 617.586 313.237 617.487 313.29C617.389 313.338 617.336 313.447 617.33 313.617C617.324 313.804 617.374 313.976 617.479 314.133C617.585 314.284 617.74 314.412 617.945 314.516ZM622.759 317.644C622.436 317.48 622.155 317.274 621.917 317.028C621.679 316.777 621.495 316.51 621.364 316.226C621.234 315.937 621.164 315.652 621.155 315.371L621.862 315.682C621.892 315.947 621.983 316.186 622.135 316.399C622.292 316.614 622.508 316.792 622.784 316.933C623.325 317.209 623.602 317.179 623.614 316.843C623.618 316.726 623.595 316.619 623.545 316.523C623.5 316.425 623.412 316.315 623.281 316.194C623.15 316.067 622.955 315.911 622.695 315.724C622.337 315.466 622.055 315.227 621.85 315.009C621.644 314.79 621.499 314.578 621.415 314.372C621.335 314.163 621.299 313.942 621.307 313.707C621.321 313.323 621.46 313.077 621.725 312.968C621.99 312.853 622.351 312.912 622.807 313.145C623.263 313.377 623.617 313.691 623.87 314.085C624.127 314.482 624.277 314.894 624.32 315.323L623.612 315.012C623.577 314.771 623.488 314.55 623.345 314.347C623.208 314.141 623.02 313.977 622.782 313.856C622.535 313.73 622.345 313.691 622.213 313.737C622.081 313.778 622.012 313.884 622.006 314.055C622.002 314.188 622.026 314.309 622.081 314.418C622.14 314.53 622.232 314.645 622.359 314.763C622.49 314.879 622.676 315.023 622.917 315.194C623.29 315.46 623.576 315.699 623.777 315.909C623.982 316.122 624.125 316.331 624.205 316.534C624.285 316.732 624.321 316.954 624.312 317.199C624.299 317.572 624.149 317.797 623.861 317.872C623.573 317.948 623.205 317.872 622.759 317.644ZM627.578 320.002C627.198 319.809 626.918 319.566 626.74 319.274C626.562 318.977 626.48 318.621 626.494 318.205L626.577 315.839L625.365 315.221L625.388 314.558L626.6 315.175L626.638 314.08L627.316 314.425L627.277 315.52L628.781 316.286L628.758 316.95L627.254 316.184L627.172 318.526C627.165 318.723 627.201 318.891 627.278 319.028C627.36 319.167 627.485 319.279 627.651 319.364L628.656 319.876L628.633 320.54L627.578 320.002ZM634.496 324.073L634.96 324.309C635.088 324.374 635.184 324.401 635.247 324.39C635.315 324.381 635.37 324.333 635.412 324.246L635.553 323.936L635.332 323.823L634.093 318.993L634.835 319.371L635.806 323.332L636.944 320.446L637.686 320.823L636.009 324.787C635.92 324.996 635.795 325.117 635.634 325.149C635.478 325.188 635.269 325.142 635.008 325.009L634.473 324.736L634.496 324.073ZM640.119 326.49C639.767 326.311 639.461 326.063 639.201 325.746C638.946 325.431 638.753 325.07 638.623 324.662C638.492 324.253 638.434 323.825 638.45 323.377C638.465 322.93 638.55 322.574 638.705 322.311C638.859 322.048 639.068 321.891 639.331 321.841C639.598 321.792 639.906 321.857 640.252 322.034C640.585 322.203 640.877 322.441 641.127 322.748C641.378 323.049 641.568 323.407 641.699 323.82C641.835 324.231 641.894 324.671 641.878 325.14L641.871 325.34L639.155 323.956C639.164 324.395 639.255 324.769 639.428 325.08C639.601 325.391 639.839 325.623 640.143 325.778C640.372 325.894 640.561 325.931 640.713 325.889C640.869 325.844 640.984 325.732 641.058 325.553L641.783 325.987C641.66 326.331 641.451 326.553 641.158 326.653C640.864 326.748 640.518 326.693 640.119 326.49ZM641.151 324.347C641.131 323.962 641.038 323.633 640.874 323.359C640.714 323.088 640.498 322.883 640.228 322.745C639.957 322.607 639.73 322.589 639.548 322.692C639.365 322.789 639.244 323.006 639.184 323.344L641.151 324.347ZM643.915 328.424C643.554 328.24 643.256 327.977 643.021 327.635C642.787 327.293 642.675 326.949 642.687 326.602C642.7 326.251 642.807 326.023 643.009 325.92C643.211 325.817 643.513 325.821 643.915 325.934L645.165 326.278C645.177 325.948 645.119 325.666 644.992 325.433C644.865 325.195 644.673 325.01 644.416 324.879C644.174 324.756 643.982 324.718 643.84 324.765C643.698 324.812 643.597 324.939 643.536 325.147L642.825 324.728C642.911 324.348 643.094 324.105 643.373 323.998C643.657 323.893 644.013 323.95 644.441 324.168C644.907 324.405 645.26 324.742 645.501 325.18C645.747 325.614 645.861 326.106 645.841 326.655L645.783 328.334C645.779 328.43 645.794 328.508 645.825 328.568C645.862 328.624 645.923 328.674 646.009 328.718L646.237 328.834L646.214 329.498C646.099 329.456 645.989 329.408 645.885 329.355C645.453 329.134 645.206 328.794 645.144 328.334C645.037 328.497 644.872 328.586 644.649 328.603C644.426 328.619 644.181 328.56 643.915 328.424ZM644.017 327.801C644.359 327.975 644.626 328.011 644.818 327.908C645.015 327.802 645.12 327.581 645.132 327.246L645.144 326.902L644.044 326.594C643.819 326.528 643.657 326.522 643.559 326.575C643.46 326.622 643.408 326.731 643.402 326.902C643.396 327.088 643.445 327.26 643.551 327.417C643.657 327.569 643.812 327.696 644.017 327.801ZM647.275 329.363L648.237 329.853L648.339 326.927L647.377 326.437L647.4 325.773L648.883 326.529L648.904 327.378C649.051 326.894 649.365 326.774 649.845 327.019L650.65 327.429L650.626 328.117L649.857 327.725C649.581 327.584 649.369 327.566 649.22 327.669C649.072 327.767 648.992 327.984 648.98 328.319L648.914 330.198L650.097 330.801L650.074 331.465L647.252 330.027L647.275 329.363ZM657.449 335.353C657.083 335.166 656.769 334.887 656.506 334.514C656.243 334.142 656.046 333.697 655.914 333.179C655.787 332.659 655.735 332.092 655.756 331.479C655.777 330.866 655.867 330.372 656.025 329.997C656.188 329.624 656.409 329.39 656.688 329.293C656.968 329.191 657.29 329.234 657.656 329.42C658.022 329.607 658.336 329.889 658.599 330.267C658.861 330.639 659.056 331.086 659.183 331.606C659.315 332.129 659.37 332.697 659.348 333.31C659.327 333.923 659.235 334.415 659.072 334.788C658.914 335.158 658.695 335.391 658.416 335.487C658.137 335.584 657.815 335.539 657.449 335.353ZM657.475 334.609C657.808 334.779 658.073 334.716 658.272 334.421C658.476 334.124 658.59 333.628 658.614 332.936C658.632 332.429 658.597 331.975 658.51 331.572L656.866 333.965C657.025 334.269 657.228 334.483 657.475 334.609ZM656.49 331.853C656.473 332.354 656.508 332.803 656.595 333.201L658.239 330.808C658.08 330.504 657.877 330.29 657.63 330.164C657.297 329.994 657.029 330.061 656.825 330.364C656.626 330.664 656.514 331.16 656.49 331.853ZM660.085 335.817L661.668 336.623L661.785 333.265L660.466 332.593L660.489 331.93L661.152 332.268C661.433 332.41 661.635 332.443 661.758 332.365C661.882 332.287 661.95 332.08 661.961 331.744L662.539 332.038L662.366 336.979L663.564 337.589L663.538 338.325L660.059 336.553L660.085 335.817ZM667.109 334.041L667.758 334.372L665.358 340.147L664.709 339.817L667.109 334.041ZM670.485 341.995C670.119 341.808 669.805 341.529 669.542 341.156C669.279 340.784 669.082 340.339 668.95 339.821C668.823 339.301 668.771 338.734 668.792 338.121C668.813 337.508 668.903 337.014 669.061 336.639C669.224 336.267 669.445 336.032 669.724 335.935C670.004 335.834 670.326 335.876 670.692 336.062C671.058 336.249 671.372 336.531 671.635 336.909C671.897 337.281 672.092 337.728 672.219 338.248C672.351 338.771 672.406 339.339 672.384 339.952C672.363 340.565 672.271 341.058 672.108 341.43C671.95 341.8 671.731 342.033 671.452 342.13C671.173 342.226 670.851 342.181 670.485 341.995ZM670.511 341.251C670.843 341.421 671.109 341.358 671.308 341.063C671.512 340.766 671.626 340.271 671.65 339.578C671.668 339.071 671.633 338.617 671.546 338.214L669.902 340.607C670.061 340.911 670.264 341.125 670.511 341.251ZM669.526 338.495C669.509 338.996 669.544 339.446 669.631 339.843L671.275 337.45C671.116 337.146 670.913 336.932 670.666 336.806C670.333 336.636 670.065 336.703 669.861 337.006C669.662 337.306 669.55 337.802 669.526 338.495ZM673.121 342.459L674.704 343.265L674.821 339.907L673.502 339.236L673.525 338.572L674.188 338.91C674.469 339.053 674.671 339.085 674.794 339.007C674.918 338.929 674.986 338.722 674.997 338.386L675.575 338.68L675.402 343.621L676.6 344.232L676.574 344.967L673.095 343.195L673.121 342.459ZM680.145 340.684L680.794 341.014L678.394 346.789L677.745 346.459L680.145 340.684ZM681.729 347.594C681.744 347.162 681.814 346.813 681.94 346.546C682.065 346.279 682.271 346.074 682.556 345.932C682.842 345.785 683.234 345.689 683.734 345.645C683.991 345.624 684.188 345.592 684.325 345.548C684.462 345.504 684.564 345.433 684.63 345.337C684.696 345.24 684.733 345.102 684.739 344.92C684.749 344.638 684.676 344.37 684.52 344.117C684.365 343.864 684.135 343.66 683.831 343.505C683.493 343.334 683.221 343.295 683.015 343.391C682.813 343.489 682.68 343.714 682.614 344.065L681.896 343.643C681.968 343.099 682.174 342.748 682.513 342.59C682.857 342.429 683.303 342.488 683.849 342.766C684.191 342.941 684.486 343.161 684.733 343.428C684.98 343.695 685.166 343.988 685.29 344.306C685.414 344.624 685.471 344.946 685.459 345.271C685.449 345.564 685.398 345.793 685.305 345.957C685.212 346.122 685.065 346.245 684.864 346.327C684.663 346.403 684.381 346.457 684.017 346.489C683.58 346.527 683.241 346.62 682.999 346.768C682.757 346.91 682.625 347.082 682.603 347.282L685.348 348.681L685.322 349.424L681.729 347.594ZM687.866 350.851C687.5 350.665 687.186 350.385 686.923 350.012C686.661 349.64 686.463 349.195 686.332 348.677C686.205 348.157 686.152 347.59 686.173 346.978C686.195 346.365 686.284 345.871 686.443 345.495C686.606 345.123 686.827 344.888 687.106 344.792C687.385 344.69 687.707 344.732 688.073 344.919C688.439 345.105 688.753 345.387 689.016 345.765C689.279 346.138 689.473 346.584 689.6 347.104C689.732 347.627 689.787 348.195 689.766 348.808C689.744 349.421 689.652 349.914 689.489 350.286C689.331 350.656 689.113 350.889 688.834 350.986C688.555 351.082 688.232 351.037 687.866 350.851ZM687.892 350.107C688.225 350.277 688.491 350.214 688.69 349.92C688.893 349.622 689.007 349.127 689.032 348.434C689.049 347.928 689.014 347.473 688.927 347.07L687.283 349.464C687.442 349.767 687.645 349.981 687.892 350.107ZM686.907 347.352C686.89 347.853 686.925 348.302 687.013 348.699L688.656 346.306C688.497 346.003 688.295 345.788 688.047 345.662C687.715 345.493 687.446 345.559 687.242 345.862C687.043 346.162 686.932 346.659 686.907 347.352ZM690.42 352.022C690.435 351.59 690.505 351.241 690.63 350.974C690.756 350.707 690.961 350.502 691.247 350.36C691.532 350.213 691.925 350.117 692.425 350.073C692.682 350.052 692.879 350.02 693.016 349.976C693.153 349.932 693.254 349.861 693.321 349.765C693.387 349.668 693.423 349.53 693.43 349.348C693.439 349.066 693.367 348.798 693.211 348.545C693.055 348.292 692.825 348.089 692.521 347.934C692.184 347.762 691.912 347.723 691.706 347.819C691.504 347.917 691.37 348.142 691.305 348.494L690.587 348.071C690.659 347.527 690.865 347.176 691.204 347.018C691.548 346.857 691.993 346.916 692.54 347.194C692.882 347.369 693.177 347.589 693.424 347.856C693.671 348.123 693.856 348.416 693.981 348.734C694.105 349.052 694.161 349.374 694.15 349.699C694.14 349.992 694.088 350.221 693.995 350.385C693.903 350.55 693.756 350.673 693.555 350.755C693.354 350.831 693.071 350.885 692.707 350.917C692.271 350.955 691.931 351.048 691.689 351.196C691.447 351.338 691.315 351.51 691.294 351.71L694.038 353.109L694.012 353.852L690.42 352.022ZM697.166 354.239L694.736 353L694.76 352.305L697.244 349.722L698.021 350.117L697.891 353.851L698.497 354.16L698.471 354.903L697.865 354.595L697.823 355.794L697.124 355.438L697.166 354.239ZM697.192 353.495L697.283 350.897L695.56 352.664L697.192 353.495Z" fill="black"/>
<g opacity="0.3">
<path d="M51.3906 251L53.2425 251" stroke="black" stroke-width="0.925926"/>
<path d="M51.3906 241.74L53.2425 241.74" stroke="black" stroke-width="0.925926"/>
<path d="M34.7227 251L40.2782 251" stroke="#9F9F9F" stroke-width="0.925926"/>
<path d="M34.7227 245.048L40.2782 245.048" stroke="#9F9F9F" stroke-width="0.925926"/>
<path d="M34.7227 239.096L40.2782 239.096" stroke="#9F9F9F" stroke-width="0.925926"/>
<path d="M34.7227 233.143L40.2782 233.143" stroke="#9F9F9F" stroke-width="0.925926"/>
<path d="M34.7227 227.19L40.2782 227.19" stroke="#9F9F9F" stroke-width="0.925926"/>
<path d="M34.7227 221.238L40.2782 221.238" stroke="#9F9F9F" stroke-width="0.925926"/>
<path d="M34.7227 215.286L40.2782 215.286" stroke="#9F9F9F" stroke-width="0.925926"/>
<path d="M34.7227 209.333L40.2782 209.333" stroke="#9F9F9F" stroke-width="0.925926"/>
<path d="M34.7227 203.381L40.2782 203.381" stroke="#9F9F9F" stroke-width="0.925926"/>
<path d="M34.7227 197.429L40.2782 197.429" stroke="#9F9F9F" stroke-width="0.925926"/>
<path d="M34.7227 191.477L40.2782 191.477" stroke="#9F9F9F" stroke-width="0.925926"/>
<path d="M34.7227 185.523L40.2782 185.523" stroke="#9F9F9F" stroke-width="0.925926"/>
<path d="M34.7227 179.571L40.2782 179.571" stroke="#9F9F9F" stroke-width="0.925926"/>
<path d="M34.7227 173.619L40.2782 173.619" stroke="#9F9F9F" stroke-width="0.925926"/>
<path d="M34.7227 167.667L40.2782 167.667" stroke="#9F9F9F" stroke-width="0.925926"/>
<path d="M5.09375 251L24.5382 251" stroke="#F5F5F5" stroke-width="0.925926"/>
<path d="M5.09375 241.741L24.5382 241.741" stroke="#F5F5F5" stroke-width="0.925926"/>
<path d="M5.09375 232.481L24.5382 232.481" stroke="#F5F5F5" stroke-width="0.925926"/>
<path d="M5.09375 223.223L24.5382 223.223" stroke="#F5F5F5" stroke-width="0.925926"/>
<path d="M5.09375 213.963L24.5382 213.963" stroke="#F5F5F5" stroke-width="0.925926"/>
<path d="M5.09375 204.704L24.5382 204.704" stroke="#F5F5F5" stroke-width="0.925926"/>
<path d="M5.09375 195.444L24.5382 195.444" stroke="#F5F5F5" stroke-width="0.925926"/>
<path d="M5.09375 186.186L24.5382 186.186" stroke="#F5F5F5" stroke-width="0.925926"/>
<path d="M5.09375 176.926L24.5382 176.926" stroke="#F5F5F5" stroke-width="0.925926"/>
<path d="M5.09375 167.667L24.5382 167.667" stroke="#F5F5F5" stroke-width="0.925926"/>
<path d="M51.3906 232.481L53.2425 232.481" stroke="black" stroke-width="0.925926"/>
<path d="M51.3906 223.223L53.2425 223.223" stroke="black" stroke-width="0.925926"/>
<path d="M51.3906 213.963L53.2425 213.963" stroke="black" stroke-width="0.925926"/>
<path d="M51.3906 204.704L53.2425 204.704" stroke="black" stroke-width="0.925926"/>
<path d="M51.3906 195.444L53.2425 195.444" stroke="black" stroke-width="0.925926"/>
<path d="M51.3906 186.186L53.2425 186.186" stroke="black" stroke-width="0.925926"/>
<path d="M51.3906 176.926L53.2425 176.926" stroke="black" stroke-width="0.925926"/>
<path d="M51.3906 167.667L53.2425 167.667" stroke="black" stroke-width="0.925926"/>
<path d="M0 251L46.2963 251" stroke="#9F9F9F" stroke-width="0.925926"/>
<path d="M0 167.666L46.2963 167.666" stroke="#9F9F9F" stroke-width="0.925926"/>
<path d="M53.2426 169.519L50.4648 167.667L53.2426 165.815L53.2426 169.519Z" fill="black"/>
</g>
<g opacity="0.3">
<path d="M733.344 55.5859L731.255 55.5539" stroke="black" stroke-width="1.04444"/>
<path d="M733.184 66.0293L731.095 65.9973" stroke="black" stroke-width="1.04444"/>
<path d="M752.145 55.875L745.879 55.7789" stroke="#9F9F9F" stroke-width="1.04444"/>
<path d="M752.043 62.5889L745.777 62.4928" stroke="#9F9F9F" stroke-width="1.04444"/>
<path d="M751.938 69.3018L745.672 69.2057" stroke="#9F9F9F" stroke-width="1.04444"/>
<path d="M751.836 76.0156L745.57 75.9196" stroke="#9F9F9F" stroke-width="1.04444"/>
<path d="M751.734 82.7285L745.468 82.6325" stroke="#9F9F9F" stroke-width="1.04444"/>
<path d="M751.629 89.4424L745.363 89.3463" stroke="#9F9F9F" stroke-width="1.04444"/>
<path d="M751.527 96.1562L745.261 96.0602" stroke="#9F9F9F" stroke-width="1.04444"/>
<path d="M751.426 102.869L745.16 102.773" stroke="#9F9F9F" stroke-width="1.04444"/>
<path d="M751.32 109.583L745.054 109.487" stroke="#9F9F9F" stroke-width="1.04444"/>
<path d="M751.219 116.297L744.953 116.201" stroke="#9F9F9F" stroke-width="1.04444"/>
<path d="M751.117 123.01L744.851 122.914" stroke="#9F9F9F" stroke-width="1.04444"/>
<path d="M751.012 129.724L744.746 129.628" stroke="#9F9F9F" stroke-width="1.04444"/>
<path d="M750.91 136.437L744.644 136.34" stroke="#9F9F9F" stroke-width="1.04444"/>
<path d="M750.809 143.15L744.543 143.054" stroke="#9F9F9F" stroke-width="1.04444"/>
<path d="M750.703 149.864L744.437 149.768" stroke="#9F9F9F" stroke-width="1.04444"/>
<path d="M785.562 56.3867L763.632 56.0505" stroke="#F5F5F5" stroke-width="1.04444"/>
<path d="M785.402 66.8301L763.472 66.4939" stroke="#F5F5F5" stroke-width="1.04444"/>
<path d="M785.242 77.2734L763.311 76.9373" stroke="#F5F5F5" stroke-width="1.04444"/>
<path d="M785.082 87.7168L763.151 87.3806" stroke="#F5F5F5" stroke-width="1.04444"/>
<path d="M784.922 98.1592L762.991 97.823" stroke="#F5F5F5" stroke-width="1.04444"/>
<path d="M784.762 108.603L762.831 108.266" stroke="#F5F5F5" stroke-width="1.04444"/>
<path d="M784.602 119.046L762.671 118.71" stroke="#F5F5F5" stroke-width="1.04444"/>
<path d="M784.441 129.489L762.511 129.153" stroke="#F5F5F5" stroke-width="1.04444"/>
<path d="M784.281 139.933L762.35 139.596" stroke="#F5F5F5" stroke-width="1.04444"/>
<path d="M784.121 150.376L762.19 150.04" stroke="#F5F5F5" stroke-width="1.04444"/>
<path d="M733.023 76.4727L730.935 76.4406" stroke="black" stroke-width="1.04444"/>
<path d="M732.863 86.916L730.775 86.884" stroke="black" stroke-width="1.04444"/>
<path d="M732.703 97.3594L730.614 97.3274" stroke="black" stroke-width="1.04444"/>
<path d="M732.543 107.803L730.454 107.771" stroke="black" stroke-width="1.04444"/>
<path d="M732.383 118.246L730.294 118.214" stroke="black" stroke-width="1.04444"/>
<path d="M732.223 128.688L730.134 128.656" stroke="black" stroke-width="1.04444"/>
<path d="M732.062 139.132L729.974 139.1" stroke="black" stroke-width="1.04444"/>
<path d="M731.902 149.575L729.814 149.543" stroke="black" stroke-width="1.04444"/>
<path d="M791.305 56.4746L739.089 55.6742" stroke="#9F9F9F" stroke-width="1.04444"/>
<path d="M789.867 150.464L737.651 149.663" stroke="#9F9F9F" stroke-width="1.04444"/>
<path d="M729.848 147.455L732.948 149.592L729.783 151.632L729.848 147.455Z" fill="black"/>
</g>
<g opacity="0.3">
<path d="M51.3906 168L53.2425 168" stroke="black" stroke-width="0.925926"/>
<path d="M51.3906 158.74L53.2425 158.74" stroke="black" stroke-width="0.925926"/>
<path d="M34.7227 168L40.2782 168" stroke="#9F9F9F" stroke-width="0.925926"/>
<path d="M34.7227 162.048L40.2782 162.048" stroke="#9F9F9F" stroke-width="0.925926"/>
<path d="M34.7227 156.096L40.2782 156.096" stroke="#9F9F9F" stroke-width="0.925926"/>
<path d="M34.7227 150.143L40.2782 150.143" stroke="#9F9F9F" stroke-width="0.925926"/>
<path d="M34.7227 144.19L40.2782 144.19" stroke="#9F9F9F" stroke-width="0.925926"/>
<path d="M34.7227 138.238L40.2782 138.238" stroke="#9F9F9F" stroke-width="0.925926"/>
<path d="M34.7227 132.286L40.2782 132.286" stroke="#9F9F9F" stroke-width="0.925926"/>
<path d="M34.7227 126.333L40.2782 126.333" stroke="#9F9F9F" stroke-width="0.925926"/>
<path d="M34.7227 120.381L40.2782 120.381" stroke="#9F9F9F" stroke-width="0.925926"/>
<path d="M34.7227 114.429L40.2782 114.429" stroke="#9F9F9F" stroke-width="0.925926"/>
<path d="M34.7227 108.477L40.2782 108.477" stroke="#9F9F9F" stroke-width="0.925926"/>
<path d="M34.7227 102.523L40.2782 102.523" stroke="#9F9F9F" stroke-width="0.925926"/>
<path d="M34.7227 96.5713L40.2782 96.5713" stroke="#9F9F9F" stroke-width="0.925926"/>
<path d="M34.7227 90.6191L40.2782 90.6191" stroke="#9F9F9F" stroke-width="0.925926"/>
<path d="M34.7227 84.667L40.2782 84.667" stroke="#9F9F9F" stroke-width="0.925926"/>
<path d="M5.09375 168L24.5382 168" stroke="#F5F5F5" stroke-width="0.925926"/>
<path d="M5.09375 158.741L24.5382 158.741" stroke="#F5F5F5" stroke-width="0.925926"/>
<path d="M5.09375 149.481L24.5382 149.481" stroke="#F5F5F5" stroke-width="0.925926"/>
<path d="M5.09375 140.223L24.5382 140.223" stroke="#F5F5F5" stroke-width="0.925926"/>
<path d="M5.09375 130.963L24.5382 130.963" stroke="#F5F5F5" stroke-width="0.925926"/>
<path d="M5.09375 121.704L24.5382 121.704" stroke="#F5F5F5" stroke-width="0.925926"/>
<path d="M5.09375 112.444L24.5382 112.444" stroke="#F5F5F5" stroke-width="0.925926"/>
<path d="M5.09375 103.186L24.5382 103.186" stroke="#F5F5F5" stroke-width="0.925926"/>
<path d="M5.09375 93.9258L24.5382 93.9258" stroke="#F5F5F5" stroke-width="0.925926"/>
<path d="M5.09375 84.667L24.5382 84.667" stroke="#F5F5F5" stroke-width="0.925926"/>
<path d="M51.3906 149.481L53.2425 149.481" stroke="black" stroke-width="0.925926"/>
<path d="M51.3906 140.223L53.2425 140.223" stroke="black" stroke-width="0.925926"/>
<path d="M51.3906 130.963L53.2425 130.963" stroke="black" stroke-width="0.925926"/>
<path d="M51.3906 121.704L53.2425 121.704" stroke="black" stroke-width="0.925926"/>
<path d="M51.3906 112.444L53.2425 112.444" stroke="black" stroke-width="0.925926"/>
<path d="M51.3906 103.186L53.2425 103.186" stroke="black" stroke-width="0.925926"/>
<path d="M51.3906 93.9258L53.2425 93.9258" stroke="black" stroke-width="0.925926"/>
<path d="M51.3906 84.667L53.2425 84.667" stroke="black" stroke-width="0.925926"/>
<path d="M0 168L46.2963 168" stroke="#9F9F9F" stroke-width="0.925926"/>
<path d="M0 84.666L46.2963 84.666" stroke="#9F9F9F" stroke-width="0.925926"/>
<path d="M53.2426 86.5186L50.4648 84.6667L53.2426 82.8149L53.2426 86.5186Z" fill="black"/>
</g>
<g opacity="0.3">
<path d="M731.91 149.199L729.822 149.167" stroke="black" stroke-width="1.04444"/>
<path d="M731.75 159.643L729.661 159.611" stroke="black" stroke-width="1.04444"/>
<path d="M750.711 149.488L744.445 149.392" stroke="#9F9F9F" stroke-width="1.04444"/>
<path d="M750.609 156.202L744.343 156.106" stroke="#9F9F9F" stroke-width="1.04444"/>
<path d="M750.504 162.915L744.238 162.819" stroke="#9F9F9F" stroke-width="1.04444"/>
<path d="M750.402 169.629L744.136 169.533" stroke="#9F9F9F" stroke-width="1.04444"/>
<path d="M750.301 176.342L744.035 176.246" stroke="#9F9F9F" stroke-width="1.04444"/>
<path d="M750.195 183.056L743.929 182.96" stroke="#9F9F9F" stroke-width="1.04444"/>
<path d="M750.094 189.77L743.828 189.673" stroke="#9F9F9F" stroke-width="1.04444"/>
<path d="M749.992 196.482L743.726 196.386" stroke="#9F9F9F" stroke-width="1.04444"/>
<path d="M749.887 203.196L743.621 203.1" stroke="#9F9F9F" stroke-width="1.04444"/>
<path d="M749.785 209.91L743.519 209.814" stroke="#9F9F9F" stroke-width="1.04444"/>
<path d="M749.684 216.623L743.418 216.527" stroke="#9F9F9F" stroke-width="1.04444"/>
<path d="M749.578 223.337L743.312 223.241" stroke="#9F9F9F" stroke-width="1.04444"/>
<path d="M749.477 230.05L743.211 229.954" stroke="#9F9F9F" stroke-width="1.04444"/>
<path d="M749.375 236.764L743.109 236.668" stroke="#9F9F9F" stroke-width="1.04444"/>
<path d="M749.27 243.478L743.004 243.381" stroke="#9F9F9F" stroke-width="1.04444"/>
<path d="M784.129 150L762.198 149.664" stroke="#F5F5F5" stroke-width="1.04444"/>
<path d="M783.969 160.443L762.038 160.107" stroke="#F5F5F5" stroke-width="1.04444"/>
<path d="M783.809 170.887L761.878 170.551" stroke="#F5F5F5" stroke-width="1.04444"/>
<path d="M783.648 181.33L761.718 180.994" stroke="#F5F5F5" stroke-width="1.04444"/>
<path d="M783.488 191.772L761.558 191.436" stroke="#F5F5F5" stroke-width="1.04444"/>
<path d="M783.328 202.216L761.397 201.88" stroke="#F5F5F5" stroke-width="1.04444"/>
<path d="M783.168 212.659L761.237 212.323" stroke="#F5F5F5" stroke-width="1.04444"/>
<path d="M783.008 223.103L761.077 222.766" stroke="#F5F5F5" stroke-width="1.04444"/>
<path d="M782.848 233.546L760.917 233.21" stroke="#F5F5F5" stroke-width="1.04444"/>
<path d="M782.688 243.989L760.757 243.653" stroke="#F5F5F5" stroke-width="1.04444"/>
<path d="M731.59 170.086L729.501 170.054" stroke="black" stroke-width="1.04444"/>
<path d="M731.43 180.529L729.341 180.497" stroke="black" stroke-width="1.04444"/>
<path d="M731.27 190.973L729.181 190.941" stroke="black" stroke-width="1.04444"/>
<path d="M731.109 201.416L729.021 201.384" stroke="black" stroke-width="1.04444"/>
<path d="M730.949 211.859L728.861 211.827" stroke="black" stroke-width="1.04444"/>
<path d="M730.789 222.302L728.7 222.27" stroke="black" stroke-width="1.04444"/>
<path d="M730.629 232.745L728.54 232.713" stroke="black" stroke-width="1.04444"/>
<path d="M730.469 243.188L728.38 243.156" stroke="black" stroke-width="1.04444"/>
<path d="M789.871 150.088L737.655 149.287" stroke="#9F9F9F" stroke-width="1.04444"/>
<path d="M788.434 244.077L736.218 243.277" stroke="#9F9F9F" stroke-width="1.04444"/>
<path d="M728.414 241.068L731.515 243.205L728.35 245.245L728.414 241.068Z" fill="black"/>
</g>
<g opacity="0.3">
<path d="M51.3906 84L53.2425 84" stroke="black" stroke-width="0.925926"/>
<path d="M51.3906 74.7402L53.2425 74.7402" stroke="black" stroke-width="0.925926"/>
<path d="M34.7227 84L40.2782 84" stroke="#9F9F9F" stroke-width="0.925926"/>
<path d="M34.7227 78.0479L40.2782 78.0479" stroke="#9F9F9F" stroke-width="0.925926"/>
<path d="M34.7227 72.0957L40.2782 72.0957" stroke="#9F9F9F" stroke-width="0.925926"/>
<path d="M34.7227 66.1426L40.2782 66.1426" stroke="#9F9F9F" stroke-width="0.925926"/>
<path d="M34.7227 60.1904L40.2782 60.1904" stroke="#9F9F9F" stroke-width="0.925926"/>
<path d="M34.7227 54.2383L40.2782 54.2383" stroke="#9F9F9F" stroke-width="0.925926"/>
<path d="M34.7227 48.2861L40.2782 48.2861" stroke="#9F9F9F" stroke-width="0.925926"/>
<path d="M34.7227 42.333L40.2782 42.333" stroke="#9F9F9F" stroke-width="0.925926"/>
<path d="M34.7227 36.3809L40.2782 36.3809" stroke="#9F9F9F" stroke-width="0.925926"/>
<path d="M34.7227 30.4287L40.2782 30.4287" stroke="#9F9F9F" stroke-width="0.925926"/>
<path d="M34.7227 24.4766L40.2782 24.4766" stroke="#9F9F9F" stroke-width="0.925926"/>
<path d="M34.7227 18.5234L40.2782 18.5234" stroke="#9F9F9F" stroke-width="0.925926"/>
<path d="M34.7227 12.5713L40.2782 12.5713" stroke="#9F9F9F" stroke-width="0.925926"/>
<path d="M34.7227 6.61914L40.2782 6.61914" stroke="#9F9F9F" stroke-width="0.925926"/>
<path d="M34.7227 0.666992L40.2782 0.666992" stroke="#9F9F9F" stroke-width="0.925926"/>
<path d="M5.09375 84L24.5382 84" stroke="#F5F5F5" stroke-width="0.925926"/>
<path d="M5.09375 74.7412L24.5382 74.7412" stroke="#F5F5F5" stroke-width="0.925926"/>
<path d="M5.09375 65.4814L24.5382 65.4814" stroke="#F5F5F5" stroke-width="0.925926"/>
<path d="M5.09375 56.2227L24.5382 56.2227" stroke="#F5F5F5" stroke-width="0.925926"/>
<path d="M5.09375 46.9629L24.5382 46.9629" stroke="#F5F5F5" stroke-width="0.925926"/>
<path d="M5.09375 37.7041L24.5382 37.7041" stroke="#F5F5F5" stroke-width="0.925926"/>
<path d="M5.09375 28.4443L24.5382 28.4443" stroke="#F5F5F5" stroke-width="0.925926"/>
<path d="M5.09375 19.1855L24.5382 19.1855" stroke="#F5F5F5" stroke-width="0.925926"/>
<path d="M5.09375 9.92578L24.5382 9.92578" stroke="#F5F5F5" stroke-width="0.925926"/>
<path d="M5.09375 0.666992L24.5382 0.666992" stroke="#F5F5F5" stroke-width="0.925926"/>
<path d="M51.3906 65.4814L53.2425 65.4814" stroke="black" stroke-width="0.925926"/>
<path d="M51.3906 56.2227L53.2425 56.2227" stroke="black" stroke-width="0.925926"/>
<path d="M51.3906 46.9629L53.2425 46.9629" stroke="black" stroke-width="0.925926"/>
<path d="M51.3906 37.7041L53.2425 37.7041" stroke="black" stroke-width="0.925926"/>
<path d="M51.3906 28.4443L53.2425 28.4443" stroke="black" stroke-width="0.925926"/>
<path d="M51.3906 19.1855L53.2425 19.1855" stroke="black" stroke-width="0.925926"/>
<path d="M51.3906 9.92578L53.2425 9.92578" stroke="black" stroke-width="0.925926"/>
<path d="M51.3906 0.666992L53.2425 0.666992" stroke="black" stroke-width="0.925926"/>
<path d="M0 84L46.2963 84" stroke="#9F9F9F" stroke-width="0.925926"/>
<path d="M0 0.666016L46.2963 0.666016" stroke="#9F9F9F" stroke-width="0.925926"/>
</g>
<g opacity="0.3">
<path d="M730.457 243.939L728.368 243.907" stroke="black" stroke-width="1.04444"/>
<path d="M730.297 254.383L728.208 254.351" stroke="black" stroke-width="1.04444"/>
<path d="M749.258 244.229L742.992 244.132" stroke="#9F9F9F" stroke-width="1.04444"/>
<path d="M749.156 250.942L742.89 250.846" stroke="#9F9F9F" stroke-width="1.04444"/>
<path d="M749.051 257.655L742.785 257.559" stroke="#9F9F9F" stroke-width="1.04444"/>
<path d="M748.949 264.369L742.683 264.273" stroke="#9F9F9F" stroke-width="1.04444"/>
<path d="M748.848 271.082L742.582 270.986" stroke="#9F9F9F" stroke-width="1.04444"/>
<path d="M748.742 277.796L742.476 277.7" stroke="#9F9F9F" stroke-width="1.04444"/>
<path d="M748.641 284.51L742.375 284.414" stroke="#9F9F9F" stroke-width="1.04444"/>
<path d="M748.539 291.223L742.273 291.127" stroke="#9F9F9F" stroke-width="1.04444"/>
<path d="M748.434 297.937L742.168 297.84" stroke="#9F9F9F" stroke-width="1.04444"/>
<path d="M748.332 304.65L742.066 304.554" stroke="#9F9F9F" stroke-width="1.04444"/>
<path d="M748.23 311.363L741.965 311.267" stroke="#9F9F9F" stroke-width="1.04444"/>
<path d="M748.125 318.077L741.859 317.981" stroke="#9F9F9F" stroke-width="1.04444"/>
<path d="M748.023 324.79L741.758 324.694" stroke="#9F9F9F" stroke-width="1.04444"/>
<path d="M747.922 331.504L741.656 331.408" stroke="#9F9F9F" stroke-width="1.04444"/>
<path d="M747.816 338.218L741.55 338.122" stroke="#9F9F9F" stroke-width="1.04444"/>
<path d="M782.676 244.74L760.745 244.404" stroke="#F5F5F5" stroke-width="1.04444"/>
<path d="M782.516 255.184L760.585 254.847" stroke="#F5F5F5" stroke-width="1.04444"/>
<path d="M782.355 265.627L760.425 265.291" stroke="#F5F5F5" stroke-width="1.04444"/>
<path d="M782.195 276.07L760.265 275.734" stroke="#F5F5F5" stroke-width="1.04444"/>
<path d="M782.035 286.513L760.104 286.177" stroke="#F5F5F5" stroke-width="1.04444"/>
<path d="M781.875 296.956L759.944 296.62" stroke="#F5F5F5" stroke-width="1.04444"/>
<path d="M781.715 307.399L759.784 307.063" stroke="#F5F5F5" stroke-width="1.04444"/>
<path d="M781.555 317.843L759.624 317.507" stroke="#F5F5F5" stroke-width="1.04444"/>
<path d="M781.395 328.286L759.464 327.95" stroke="#F5F5F5" stroke-width="1.04444"/>
<path d="M781.234 338.729L759.304 338.393" stroke="#F5F5F5" stroke-width="1.04444"/>
<path d="M730.137 264.826L728.048 264.794" stroke="black" stroke-width="1.04444"/>
<path d="M729.977 275.27L727.888 275.238" stroke="black" stroke-width="1.04444"/>
<path d="M729.816 285.713L727.728 285.681" stroke="black" stroke-width="1.04444"/>
<path d="M729.656 296.156L727.568 296.124" stroke="black" stroke-width="1.04444"/>
<path d="M729.496 306.6L727.407 306.568" stroke="black" stroke-width="1.04444"/>
<path d="M729.336 317.042L727.247 317.01" stroke="black" stroke-width="1.04444"/>
<path d="M729.176 327.485L727.087 327.453" stroke="black" stroke-width="1.04444"/>
<path d="M729.016 337.929L726.927 337.897" stroke="black" stroke-width="1.04444"/>
<path d="M788.418 244.828L736.202 244.028" stroke="#9F9F9F" stroke-width="1.04444"/>
<path d="M786.98 338.817L734.764 338.017" stroke="#9F9F9F" stroke-width="1.04444"/>
</g>
</svg>
