<svg width="517" height="275" viewBox="0 0 517 275" fill="none" xmlns="http://www.w3.org/2000/svg">
<g clip-path="url(#clip0_767_1877)">
<path d="M140.832 258.898V263H140.106V257.743H141.143L141.913 261.201L142.683 257.743H143.719V263H142.994V258.898L142.209 262.408H141.616L140.832 258.898ZM145.908 263.089C145.533 263.089 145.219 262.988 144.968 262.785C144.716 262.583 144.59 262.321 144.59 262C144.59 261.675 144.691 261.418 144.893 261.23C145.096 261.043 145.404 260.907 145.819 260.823L147.107 260.557C147.107 260.251 147.038 260.021 146.9 259.868C146.762 259.71 146.559 259.631 146.293 259.631C146.041 259.631 145.844 259.686 145.701 259.794C145.557 259.903 145.459 260.066 145.404 260.283L144.664 260.231C144.738 259.846 144.916 259.54 145.197 259.313C145.483 259.086 145.849 258.972 146.293 258.972C146.777 258.972 147.149 259.115 147.411 259.402C147.677 259.683 147.811 260.078 147.811 260.586V262.141C147.811 262.23 147.828 262.294 147.862 262.334C147.902 262.368 147.966 262.385 148.055 262.385H148.292V263C148.173 263.015 148.06 263.022 147.951 263.022C147.502 263.022 147.238 262.827 147.159 262.437C147.055 262.635 146.89 262.793 146.663 262.911C146.436 263.03 146.184 263.089 145.908 263.089ZM145.989 262.474C146.345 262.474 146.619 262.383 146.811 262.2C147.009 262.013 147.107 261.764 147.107 261.453V261.134L145.974 261.364C145.742 261.408 145.577 261.477 145.478 261.571C145.38 261.66 145.33 261.783 145.33 261.941C145.33 262.114 145.387 262.247 145.501 262.341C145.614 262.43 145.777 262.474 145.989 262.474ZM149.281 262.385H150.843V259.676H149.355V259.061H151.554V262.385H152.894V263H149.281V262.385ZM150.792 257.728H151.532V258.484H150.792V257.728ZM153.928 259.061H154.572L154.594 259.772C154.693 259.505 154.846 259.305 155.053 259.172C155.266 259.039 155.507 258.972 155.779 258.972C156.203 258.972 156.527 259.11 156.749 259.387C156.971 259.658 157.082 260.016 157.082 260.46V263H156.371V260.66C156.371 260.3 156.309 260.031 156.186 259.853C156.063 259.676 155.868 259.587 155.601 259.587C155.31 259.587 155.076 259.683 154.898 259.876C154.725 260.063 154.639 260.33 154.639 260.675V263H153.928V259.061ZM164.265 263.089C163.935 263.089 163.646 263.005 163.399 262.837C163.152 262.669 162.962 262.43 162.829 262.119C162.696 261.808 162.629 261.445 162.629 261.031C162.629 260.616 162.696 260.253 162.829 259.942C162.962 259.631 163.152 259.392 163.399 259.224C163.646 259.056 163.935 258.972 164.265 258.972C164.522 258.972 164.754 259.034 164.961 259.157C165.169 259.281 165.324 259.434 165.428 259.616V257.743H166.139V263H165.487L165.465 262.408C165.356 262.625 165.196 262.793 164.984 262.911C164.776 263.03 164.537 263.089 164.265 263.089ZM164.369 262.43C164.7 262.43 164.959 262.306 165.146 262.06C165.334 261.808 165.428 261.465 165.428 261.031C165.428 260.591 165.332 260.248 165.139 260.001C164.951 259.755 164.69 259.631 164.354 259.631C164.048 259.631 163.806 259.755 163.629 260.001C163.456 260.248 163.37 260.591 163.37 261.031C163.37 261.465 163.458 261.808 163.636 262.06C163.814 262.306 164.058 262.43 164.369 262.43ZM168.994 263.089C168.633 263.089 168.315 263.005 168.038 262.837C167.767 262.669 167.555 262.43 167.402 262.119C167.254 261.808 167.18 261.445 167.18 261.031C167.18 260.616 167.254 260.253 167.402 259.942C167.555 259.631 167.767 259.392 168.038 259.224C168.315 259.056 168.633 258.972 168.994 258.972C169.354 258.972 169.67 259.056 169.941 259.224C170.218 259.392 170.43 259.631 170.578 259.942C170.731 260.253 170.808 260.616 170.808 261.031C170.808 261.445 170.731 261.808 170.578 262.119C170.43 262.43 170.218 262.669 169.941 262.837C169.67 263.005 169.354 263.089 168.994 263.089ZM168.994 262.43C169.329 262.43 169.591 262.306 169.778 262.06C169.966 261.813 170.06 261.47 170.06 261.031C170.06 260.591 169.966 260.248 169.778 260.001C169.591 259.755 169.329 259.631 168.994 259.631C168.653 259.631 168.389 259.755 168.201 260.001C168.019 260.248 167.927 260.591 167.927 261.031C167.927 261.47 168.019 261.813 168.201 262.06C168.389 262.306 168.653 262.43 168.994 262.43ZM173.596 263.089C173.231 263.089 172.91 263.005 172.633 262.837C172.362 262.669 172.15 262.43 171.997 262.119C171.849 261.808 171.775 261.445 171.775 261.031C171.775 260.616 171.849 260.253 171.997 259.942C172.15 259.631 172.362 259.392 172.633 259.224C172.91 259.056 173.231 258.972 173.596 258.972C174.045 258.972 174.418 259.098 174.714 259.35C175.015 259.597 175.205 259.942 175.284 260.386L174.544 260.438C174.484 260.182 174.371 259.984 174.203 259.846C174.04 259.703 173.838 259.631 173.596 259.631C173.26 259.631 172.996 259.757 172.804 260.009C172.611 260.256 172.515 260.596 172.515 261.031C172.515 261.47 172.609 261.813 172.796 262.06C172.989 262.306 173.255 262.43 173.596 262.43C173.843 262.43 174.053 262.356 174.225 262.208C174.398 262.06 174.512 261.845 174.566 261.564L175.306 261.608C175.227 262.057 175.035 262.418 174.729 262.689C174.423 262.956 174.045 263.089 173.596 263.089ZM177.687 263.089C177.307 263.089 177.006 262.958 176.784 262.696C176.562 262.435 176.451 262.072 176.451 261.608V259.061H177.162V261.416C177.162 261.781 177.223 262.05 177.347 262.223C177.475 262.39 177.665 262.474 177.917 262.474C178.203 262.474 178.428 262.381 178.591 262.193C178.754 262 178.835 261.734 178.835 261.393V259.061H179.546V263H178.879L178.872 262.371C178.763 262.603 178.608 262.78 178.406 262.904C178.203 263.027 177.964 263.089 177.687 263.089ZM180.579 259.061H181.209L181.231 259.631C181.3 259.424 181.401 259.263 181.535 259.15C181.673 259.031 181.833 258.972 182.016 258.972C182.406 258.972 182.653 259.226 182.756 259.735C182.825 259.493 182.931 259.305 183.075 259.172C183.218 259.039 183.39 258.972 183.593 258.972C183.909 258.972 184.136 259.086 184.274 259.313C184.417 259.535 184.489 259.895 184.489 260.394V263H183.785V260.483C183.785 260.162 183.751 259.932 183.682 259.794C183.618 259.656 183.514 259.587 183.371 259.587C183.223 259.587 183.104 259.663 183.015 259.816C182.931 259.964 182.889 260.189 182.889 260.49V263H182.179V260.483C182.179 260.162 182.147 259.932 182.082 259.794C182.023 259.656 181.917 259.587 181.764 259.587C181.616 259.587 181.498 259.663 181.409 259.816C181.325 259.964 181.283 260.189 181.283 260.49V263H180.579V259.061ZM187.099 263.089C186.734 263.089 186.413 263.005 186.137 262.837C185.865 262.669 185.656 262.43 185.508 262.119C185.36 261.808 185.285 261.445 185.285 261.031C185.285 260.616 185.36 260.253 185.508 259.942C185.656 259.631 185.863 259.392 186.13 259.224C186.401 259.056 186.717 258.972 187.077 258.972C187.423 258.972 187.729 259.054 187.995 259.217C188.262 259.375 188.469 259.611 188.617 259.927C188.77 260.238 188.847 260.611 188.847 261.045V261.23H186.026C186.051 261.625 186.157 261.924 186.344 262.126C186.532 262.329 186.784 262.43 187.099 262.43C187.336 262.43 187.531 262.376 187.684 262.267C187.842 262.153 187.956 261.998 188.025 261.801L188.78 261.86C188.667 262.23 188.462 262.529 188.166 262.756C187.869 262.978 187.514 263.089 187.099 263.089ZM188.077 260.66C188.042 260.32 187.936 260.063 187.758 259.89C187.586 259.718 187.359 259.631 187.077 259.631C186.796 259.631 186.564 259.72 186.381 259.898C186.199 260.071 186.083 260.325 186.033 260.66H188.077ZM190.036 259.061H190.68L190.702 259.772C190.801 259.505 190.954 259.305 191.161 259.172C191.374 259.039 191.615 258.972 191.887 258.972C192.311 258.972 192.635 259.11 192.857 259.387C193.079 259.658 193.19 260.016 193.19 260.46V263H192.479V260.66C192.479 260.3 192.417 260.031 192.294 259.853C192.171 259.676 191.976 259.587 191.709 259.587C191.418 259.587 191.184 259.683 191.006 259.876C190.833 260.063 190.747 260.33 190.747 260.675V263H190.036V259.061ZM196.637 263C196.242 263 195.949 262.909 195.756 262.726C195.564 262.538 195.467 262.252 195.467 261.867V259.676H194.209V259.061H195.467V258.047H196.171V259.061H197.733V259.676H196.171V261.845C196.171 262.028 196.213 262.163 196.297 262.252C196.386 262.341 196.516 262.385 196.689 262.385H197.733V263H196.637Z" fill="#929292"/>
<path d="M334.113 257.743H337.341V258.424H334.839V260.016H337.252V260.697H334.839V262.319H337.401V263H334.113V257.743ZM339.774 260.979L338.405 259.061H339.241L340.204 260.468L341.144 259.061H341.996L340.633 260.994L342.062 263H341.225L340.204 261.49L339.182 263H338.331L339.774 260.979ZM343.066 259.061H343.733L343.74 259.69C343.853 259.458 344.011 259.281 344.214 259.157C344.421 259.034 344.66 258.972 344.932 258.972C345.292 258.972 345.596 259.066 345.843 259.254C346.089 259.436 346.272 259.683 346.391 259.994C346.514 260.305 346.576 260.65 346.576 261.031C346.576 261.411 346.514 261.756 346.391 262.067C346.272 262.378 346.089 262.627 345.843 262.815C345.596 262.998 345.292 263.089 344.932 263.089C344.68 263.089 344.451 263.035 344.243 262.926C344.041 262.817 343.886 262.667 343.777 262.474V264.111H343.066V259.061ZM344.814 262.43C345.134 262.43 345.384 262.306 345.561 262.06C345.744 261.813 345.835 261.47 345.835 261.031C345.835 260.591 345.744 260.248 345.561 260.001C345.384 259.755 345.134 259.631 344.814 259.631C344.488 259.631 344.234 259.752 344.051 259.994C343.868 260.231 343.777 260.576 343.777 261.031C343.777 261.485 343.868 261.833 344.051 262.075C344.234 262.311 344.488 262.43 344.814 262.43ZM349.275 263.089C348.91 263.089 348.589 263.005 348.313 262.837C348.041 262.669 347.831 262.43 347.683 262.119C347.535 261.808 347.461 261.445 347.461 261.031C347.461 260.616 347.535 260.253 347.683 259.942C347.831 259.631 348.039 259.392 348.305 259.224C348.577 259.056 348.893 258.972 349.253 258.972C349.598 258.972 349.905 259.054 350.171 259.217C350.438 259.375 350.645 259.611 350.793 259.927C350.946 260.238 351.023 260.611 351.023 261.045V261.23H348.202C348.226 261.625 348.332 261.924 348.52 262.126C348.708 262.329 348.959 262.43 349.275 262.43C349.512 262.43 349.707 262.376 349.86 262.267C350.018 262.153 350.132 261.998 350.201 261.801L350.956 261.86C350.842 262.23 350.638 262.529 350.341 262.756C350.045 262.978 349.69 263.089 349.275 263.089ZM350.252 260.66C350.218 260.32 350.112 260.063 349.934 259.89C349.761 259.718 349.534 259.631 349.253 259.631C348.972 259.631 348.74 259.72 348.557 259.898C348.374 260.071 348.258 260.325 348.209 260.66H350.252ZM352.167 262.385H353.167V259.676H352.167V259.061H353.707L353.759 259.824C353.892 259.315 354.208 259.061 354.707 259.061H355.543V259.698H354.744C354.458 259.698 354.24 259.779 354.092 259.942C353.944 260.1 353.87 260.335 353.87 260.646V262.385H355.099V263H352.167V262.385ZM356.592 262.385H358.154V259.676H356.666V259.061H358.865V262.385H360.205V263H356.592V262.385ZM358.102 257.728H358.843V258.484H358.102V257.728ZM360.809 259.061H361.439L361.461 259.631C361.53 259.424 361.631 259.263 361.764 259.15C361.903 259.031 362.063 258.972 362.246 258.972C362.636 258.972 362.882 259.226 362.986 259.735C363.055 259.493 363.161 259.305 363.304 259.172C363.447 259.039 363.62 258.972 363.823 258.972C364.139 258.972 364.366 259.086 364.504 259.313C364.647 259.535 364.718 259.895 364.718 260.394V263H364.015V260.483C364.015 260.162 363.981 259.932 363.911 259.794C363.847 259.656 363.744 259.587 363.6 259.587C363.452 259.587 363.334 259.663 363.245 259.816C363.161 259.964 363.119 260.189 363.119 260.49V263H362.408V260.483C362.408 260.162 362.376 259.932 362.312 259.794C362.253 259.656 362.147 259.587 361.994 259.587C361.846 259.587 361.727 259.663 361.638 259.816C361.555 259.964 361.513 260.189 361.513 260.49V263H360.809V259.061ZM367.329 263.089C366.964 263.089 366.643 263.005 366.367 262.837C366.095 262.669 365.885 262.43 365.737 262.119C365.589 261.808 365.515 261.445 365.515 261.031C365.515 260.616 365.589 260.253 365.737 259.942C365.885 259.631 366.093 259.392 366.359 259.224C366.631 259.056 366.947 258.972 367.307 258.972C367.652 258.972 367.959 259.054 368.225 259.217C368.492 259.375 368.699 259.611 368.847 259.927C369 260.238 369.077 260.611 369.077 261.045V261.23H366.256C366.28 261.625 366.386 261.924 366.574 262.126C366.762 262.329 367.013 262.43 367.329 262.43C367.566 262.43 367.761 262.376 367.914 262.267C368.072 262.153 368.186 261.998 368.255 261.801L369.01 261.86C368.896 262.23 368.692 262.529 368.395 262.756C368.099 262.978 367.744 263.089 367.329 263.089ZM368.306 260.66C368.272 260.32 368.166 260.063 367.988 259.89C367.815 259.718 367.588 259.631 367.307 259.631C367.026 259.631 366.794 259.72 366.611 259.898C366.428 260.071 366.312 260.325 366.263 260.66H368.306ZM370.266 259.061H370.91L370.932 259.772C371.031 259.505 371.184 259.305 371.391 259.172C371.603 259.039 371.845 258.972 372.117 258.972C372.541 258.972 372.864 259.11 373.087 259.387C373.309 259.658 373.42 260.016 373.42 260.46V263H372.709V260.66C372.709 260.3 372.647 260.031 372.524 259.853C372.4 259.676 372.205 259.587 371.939 259.587C371.648 259.587 371.413 259.683 371.236 259.876C371.063 260.063 370.976 260.33 370.976 260.675V263H370.266V259.061ZM376.867 263C376.472 263 376.178 262.909 375.986 262.726C375.793 262.538 375.697 262.252 375.697 261.867V259.676H374.439V259.061H375.697V258.047H376.401V259.061H377.963V259.676H376.401V261.845C376.401 262.028 376.443 262.163 376.526 262.252C376.615 262.341 376.746 262.385 376.919 262.385H377.963V263H376.867Z" fill="#929292"/>
<rect x="0.0208134" y="0.476705" width="179.296" height="179.296" transform="matrix(0.898794 0.438371 -0.857167 0.515038 161.954 50.2221)" fill="white"/>
<rect x="0.0208134" y="0.476705" width="179.296" height="179.296" transform="matrix(0.898794 0.438371 -0.857167 0.515038 161.954 50.2221)" stroke="black"/>
<path d="M161.543 50.001L323.592 129.038" stroke="black" stroke-opacity="0.1" stroke-width="0.964149"/>
<path d="M147.492 58.4424L309.541 137.479" stroke="black" stroke-opacity="0.1" stroke-width="0.964149"/>
<path d="M133.445 66.8848L295.494 145.921" stroke="black" stroke-opacity="0.1" stroke-width="0.964149"/>
<path d="M119.395 75.3262L281.443 154.363" stroke="black" stroke-opacity="0.1" stroke-width="0.964149"/>
<path d="M105.344 83.7676L267.393 162.804" stroke="black" stroke-opacity="0.1" stroke-width="0.964149"/>
<path d="M91.2969 92.21L253.346 171.246" stroke="black" stroke-opacity="0.1" stroke-width="0.964149"/>
<path d="M77.2461 100.651L239.295 179.688" stroke="black" stroke-opacity="0.1" stroke-width="0.964149"/>
<path d="M63.1953 109.093L225.244 188.129" stroke="black" stroke-opacity="0.1" stroke-width="0.964149"/>
<path d="M49.1484 117.535L211.197 196.572" stroke="black" stroke-opacity="0.1" stroke-width="0.964149"/>
<path d="M35.0977 125.977L197.147 205.013" stroke="black" stroke-opacity="0.1" stroke-width="0.964149"/>
<path d="M21.0469 134.419L183.096 213.455" stroke="black" stroke-opacity="0.1" stroke-width="0.964149"/>
<path d="M7 142.86L169.049 221.897" stroke="black" stroke-opacity="0.1" stroke-width="0.964149"/>
<path d="M323.594 129.037L169.05 221.896" stroke="black" stroke-opacity="0.1" stroke-width="0.964149"/>
<path d="M308.863 121.852L154.319 214.711" stroke="black" stroke-opacity="0.1" stroke-width="0.964149"/>
<path d="M294.129 114.667L139.585 207.526" stroke="black" stroke-opacity="0.1" stroke-width="0.964149"/>
<path d="M279.398 107.481L124.855 200.341" stroke="black" stroke-opacity="0.1" stroke-width="0.964149"/>
<path d="M264.668 100.297L110.124 193.156" stroke="black" stroke-opacity="0.1" stroke-width="0.964149"/>
<path d="M249.934 93.1113L95.3898 185.971" stroke="black" stroke-opacity="0.1" stroke-width="0.964149"/>
<path d="M235.203 85.9258L80.6593 178.785" stroke="black" stroke-opacity="0.1" stroke-width="0.964149"/>
<path d="M220.473 78.7412L65.9288 171.6" stroke="black" stroke-opacity="0.1" stroke-width="0.964149"/>
<path d="M205.738 71.5557L51.1945 164.415" stroke="black" stroke-opacity="0.1" stroke-width="0.964149"/>
<path d="M191.008 64.3711L36.464 157.23" stroke="black" stroke-opacity="0.1" stroke-width="0.964149"/>
<path d="M176.277 57.1855L21.7335 150.045" stroke="black" stroke-opacity="0.1" stroke-width="0.964149"/>
<path d="M161.543 50.001L6.99916 142.86" stroke="black" stroke-opacity="0.1" stroke-width="0.964149"/>
<path d="M98.5021 140.706L133.165 157.612L163.743 139.239L147.278 131.208L153.477 127.484L139.014 136.174L148.979 141.035L149.561 154.364L157.413 149.646L176.044 158.733L184.721 153.519L202.498 152.743L212.002 147.032L184.272 133.507L195.015 127.052L204.114 131.49L208.66 128.759L188.295 118.826L167.221 131.489" stroke="black" stroke-width="0.964149"/>
<rect x="0.0200672" y="0.459614" width="4.82075" height="4.82075" rx="2.41037" transform="matrix(0.898794 0.438371 -0.857167 0.515038 167.912 128.697)" fill="white" stroke="black" stroke-width="0.964149"/>
<rect x="0.0200672" y="0.459614" width="4.82075" height="4.82075" rx="2.41037" transform="matrix(0.898794 0.438371 -0.857167 0.515038 154.994 124.196)" fill="white" stroke="black" stroke-width="0.964149"/>
<rect x="0.0200672" y="0.459614" width="4.82075" height="4.82075" rx="2.41037" transform="matrix(0.898794 0.438371 -0.857167 0.515038 176.755 156.401)" fill="white" stroke="black" stroke-width="0.964149"/>
<rect x="0.0200672" y="0.459614" width="4.82075" height="4.82075" rx="2.41037" transform="matrix(0.898794 0.438371 -0.857167 0.515038 97.9155 137.739)" fill="white" stroke="black" stroke-width="0.964149"/>
<mask id="path-33-inside-1_767_1877" fill="white">
<path d="M202.766 139.377L207.098 141.49L201.313 144.966L196.981 142.853L202.766 139.377Z"/>
</mask>
<path d="M202.766 139.377L207.098 141.49L201.313 144.966L196.981 142.853L202.766 139.377Z" fill="white"/>
<path d="M207.098 141.49L206.232 141.068L200.447 144.544L201.313 144.966L202.18 145.389L207.965 141.913L207.098 141.49ZM196.981 142.853L197.847 143.276L203.632 139.8L202.766 139.377L201.899 138.954L196.114 142.43L196.981 142.853Z" fill="black" mask="url(#path-33-inside-1_767_1877)"/>
<mask id="path-35-inside-2_767_1877" fill="white">
<path d="M193.234 134.728L197.567 136.841L191.782 140.317L187.449 138.204L193.234 134.728Z"/>
</mask>
<path d="M193.234 134.728L197.567 136.841L191.782 140.317L187.449 138.204L193.234 134.728Z" fill="white"/>
<path d="M197.567 136.841L196.701 136.418L190.916 139.894L191.782 140.317L192.649 140.739L198.434 137.263L197.567 136.841ZM187.449 138.204L188.316 138.626L194.101 135.15L193.234 134.728L192.368 134.305L186.583 137.781L187.449 138.204Z" fill="black" mask="url(#path-35-inside-2_767_1877)"/>
<mask id="path-37-inside-3_767_1877" fill="white">
<path d="M166.785 150.618L171.118 152.731L165.333 156.207L161 154.094L166.785 150.618Z"/>
</mask>
<path d="M166.785 150.618L171.118 152.731L165.333 156.207L161 154.094L166.785 150.618Z" fill="white"/>
<path d="M171.118 152.731L170.251 152.309L164.466 155.785L165.333 156.207L166.2 156.63L171.985 153.154L171.118 152.731ZM161 154.094L161.867 154.517L167.652 151.041L166.785 150.618L165.919 150.196L160.134 153.672L161 154.094Z" fill="black" mask="url(#path-37-inside-3_767_1877)"/>
<g filter="url(#filter0_d_767_1877)">
<rect width="180.296" height="180.296" transform="matrix(0.898794 0.438371 -0.857167 0.515038 348.586 9)" fill="white" shape-rendering="crispEdges"/>
<rect x="0.0208134" y="0.476705" width="179.296" height="179.296" transform="matrix(0.898794 0.438371 -0.857167 0.515038 348.997 9.22206)" stroke="black" shape-rendering="crispEdges"/>
<path d="M348.59 9L510.639 88.0365" stroke="black" stroke-opacity="0.1" stroke-width="0.964149"/>
<path d="M334.539 17.4414L496.588 96.4779" stroke="black" stroke-opacity="0.1" stroke-width="0.964149"/>
<path d="M320.492 25.8838L482.541 104.92" stroke="black" stroke-opacity="0.1" stroke-width="0.964149"/>
<path d="M306.441 34.3252L468.49 113.362" stroke="black" stroke-opacity="0.1" stroke-width="0.964149"/>
<path d="M292.391 42.7666L454.44 121.803" stroke="black" stroke-opacity="0.1" stroke-width="0.964149"/>
<path d="M278.344 51.209L440.393 130.246" stroke="black" stroke-opacity="0.1" stroke-width="0.964149"/>
<path d="M264.293 59.6504L426.342 138.687" stroke="black" stroke-opacity="0.1" stroke-width="0.964149"/>
<path d="M250.242 68.0918L412.291 147.128" stroke="black" stroke-opacity="0.1" stroke-width="0.964149"/>
<path d="M236.195 76.5342L398.244 155.571" stroke="black" stroke-opacity="0.1" stroke-width="0.964149"/>
<path d="M222.145 84.9756L384.193 164.012" stroke="black" stroke-opacity="0.1" stroke-width="0.964149"/>
<path d="M208.094 93.418L370.143 172.455" stroke="black" stroke-opacity="0.1" stroke-width="0.964149"/>
<path d="M194.047 101.859L356.096 180.896" stroke="black" stroke-opacity="0.1" stroke-width="0.964149"/>
<path d="M510.637 88.0371L356.093 180.896" stroke="black" stroke-opacity="0.1" stroke-width="0.964149"/>
<path d="M495.906 80.8516L341.362 173.711" stroke="black" stroke-opacity="0.1" stroke-width="0.964149"/>
<path d="M481.172 73.667L326.628 166.526" stroke="black" stroke-opacity="0.1" stroke-width="0.964149"/>
<path d="M466.441 66.4814L311.898 159.341" stroke="black" stroke-opacity="0.1" stroke-width="0.964149"/>
<path d="M451.711 59.2969L297.167 152.156" stroke="black" stroke-opacity="0.1" stroke-width="0.964149"/>
<path d="M436.977 52.1113L282.433 144.971" stroke="black" stroke-opacity="0.1" stroke-width="0.964149"/>
<path d="M422.246 44.9258L267.702 137.785" stroke="black" stroke-opacity="0.1" stroke-width="0.964149"/>
<path d="M407.516 37.7412L252.972 130.6" stroke="black" stroke-opacity="0.1" stroke-width="0.964149"/>
<path d="M392.781 30.5557L238.237 123.415" stroke="black" stroke-opacity="0.1" stroke-width="0.964149"/>
<path d="M378.051 23.3711L223.507 116.23" stroke="black" stroke-opacity="0.1" stroke-width="0.964149"/>
<path d="M363.32 16.1855L208.777 109.045" stroke="black" stroke-opacity="0.1" stroke-width="0.964149"/>
<path d="M348.586 9.00098L194.042 101.86" stroke="black" stroke-opacity="0.1" stroke-width="0.964149"/>
<path d="M285.548 99.7062L302.879 108.159M375.02 70.4728L375.341 77.8266L395.705 87.759L391.16 90.4902L382.061 86.0523L371.317 92.5078L399.048 106.033L389.544 111.743L371.767 112.519L363.089 117.733L344.458 108.646L336.607 113.364L336.025 100.035L326.059 95.1745L340.522 86.4845L334.324 90.2088L350.789 98.2392L320.21 116.612L313.711 113.443M375.02 70.4728L374.578 60.3612L381.19 56.3887L390.722 61.0379L375.02 70.4728ZM302.879 108.159L291.722 114.863L302.554 120.146L313.711 113.443M302.879 108.159L313.711 113.443" stroke="black" stroke-width="0.964149"/>
<path d="M291.722 114.863L302.879 108.159L313.711 113.442L302.554 120.146L291.722 114.863Z" stroke="#FF611A" stroke-width="0.964149"/>
<path d="M375.342 77.8266L375.021 70.4728M375.021 70.4728L374.58 60.3613L381.191 56.3887L390.724 61.0379L375.021 70.4728Z" stroke="#FF611A" stroke-width="0.964149"/>
<rect x="0.0200672" y="0.459614" width="4.82075" height="4.82075" rx="2.41037" transform="matrix(0.898794 0.438371 -0.857167 0.515038 342.037 83.1965)" fill="white" stroke="black" stroke-width="0.964149"/>
<rect x="0.0200672" y="0.459614" width="4.82075" height="4.82075" rx="2.41037" transform="matrix(0.898794 0.438371 -0.857167 0.515038 363.798 115.402)" fill="white" stroke="black" stroke-width="0.964149"/>
<rect x="0.0200672" y="0.459614" width="4.82075" height="4.82075" rx="2.41037" transform="matrix(0.898794 0.438371 -0.857167 0.515038 284.955 96.7405)" fill="white" stroke="black" stroke-width="0.964149"/>
<mask id="path-71-inside-4_767_1877" fill="white">
<path d="M389.809 98.3779L394.141 100.491L388.356 103.967L384.024 101.854L389.809 98.3779Z"/>
</mask>
<path d="M389.809 98.3779L394.141 100.491L388.356 103.967L384.024 101.854L389.809 98.3779Z" fill="white"/>
<path d="M394.141 100.491L393.275 100.069L387.49 103.545L388.356 103.967L389.223 104.39L395.008 100.914L394.141 100.491ZM384.024 101.854L384.89 102.277L390.675 98.8006L389.809 98.3779L388.942 97.9553L383.157 101.431L384.024 101.854Z" fill="black" mask="url(#path-71-inside-4_767_1877)"/>
<mask id="path-73-inside-5_767_1877" fill="white">
<path d="M380.273 93.7285L384.606 95.8418L378.821 99.3178L374.488 97.2045L380.273 93.7285Z"/>
</mask>
<path d="M380.273 93.7285L384.606 95.8418L378.821 99.3178L374.488 97.2045L380.273 93.7285Z" fill="white"/>
<path d="M384.606 95.8418L383.74 95.4191L377.955 98.8952L378.821 99.3178L379.688 99.7405L385.473 96.2644L384.606 95.8418ZM374.488 97.2045L375.355 97.6272L381.14 94.1512L380.273 93.7285L379.407 93.3059L373.622 96.7819L374.488 97.2045Z" fill="black" mask="url(#path-73-inside-5_767_1877)"/>
<mask id="path-75-inside-6_767_1877" fill="white">
<path d="M387.094 55.6709L391.427 57.7842L385.642 61.2602L381.309 59.1469L387.094 55.6709Z"/>
</mask>
<path d="M387.094 55.6709L391.427 57.7842L385.642 61.2602L381.309 59.1469L387.094 55.6709Z" fill="white"/>
<path d="M391.427 57.7842L390.56 57.3615L384.775 60.8375L385.642 61.2602L386.508 61.6828L392.293 58.2068L391.427 57.7842ZM381.309 59.1469L382.175 59.5696L387.96 56.0936L387.094 55.6709L386.227 55.2482L380.442 58.7243L381.309 59.1469Z" fill="#FF611A" mask="url(#path-75-inside-6_767_1877)"/>
<mask id="path-77-inside-7_767_1877" fill="white">
<path d="M298.082 114.815L302.415 116.929L296.63 120.405L292.297 118.291L298.082 114.815Z"/>
</mask>
<path d="M298.082 114.815L302.415 116.929L296.63 120.405L292.297 118.291L298.082 114.815Z" fill="white"/>
<path d="M302.415 116.929L301.548 116.506L295.763 119.982L296.63 120.405L297.496 120.827L303.281 117.351L302.415 116.929ZM292.297 118.291L293.164 118.714L298.949 115.238L298.082 114.815L297.215 114.393L291.43 117.869L292.297 118.291Z" fill="#FF611A" mask="url(#path-77-inside-7_767_1877)"/>
<mask id="path-79-inside-8_767_1877" fill="white">
<path d="M353.828 109.619L358.161 111.732L352.376 115.208L348.043 113.095L353.828 109.619Z"/>
</mask>
<path d="M353.828 109.619L358.161 111.732L352.376 115.208L348.043 113.095L353.828 109.619Z" fill="white"/>
<path d="M358.161 111.732L357.294 111.31L351.509 114.786L352.376 115.208L353.242 115.631L359.028 112.155L358.161 111.732ZM348.043 113.095L348.91 113.518L354.695 110.042L353.828 109.619L352.962 109.196L347.176 112.673L348.043 113.095Z" fill="black" mask="url(#path-79-inside-8_767_1877)"/>
<path d="M373.688 78.8203L354.266 90.4898" stroke="#ABA9A9" stroke-width="0.964149" stroke-dasharray="1.93 1.93"/>
<rect x="0.0200672" y="0.459614" width="4.82075" height="4.82075" rx="2.41037" transform="matrix(0.898794 0.438371 -0.857167 0.515038 376.482 75.7063)" fill="white" stroke="#FF611A" stroke-width="0.964149"/>
<rect x="0.0200672" y="0.459614" width="4.82075" height="4.82075" rx="2.41037" transform="matrix(0.898794 0.438371 -0.857167 0.515038 355.783 87.2014)" fill="white" stroke="#ABA9A9" stroke-width="0.964149"/>
</g>
<path d="M169.25 248.5V221.5" stroke="#EDEDED"/>
<path d="M356 249L356 181" stroke="#EDEDED"/>
</g>
<defs>
<filter id="filter0_d_767_1877" x="145.609" y="-3.24805" width="397.461" height="252.393" filterUnits="userSpaceOnUse" color-interpolation-filters="sRGB">
<feFlood flood-opacity="0" result="BackgroundImageFix"/>
<feColorMatrix in="SourceAlpha" type="matrix" values="0 0 0 0 0 0 0 0 0 0 0 0 0 0 0 0 0 0 127 0" result="hardAlpha"/>
<feOffset dx="-8" dy="28"/>
<feGaussianBlur stdDeviation="20"/>
<feComposite in2="hardAlpha" operator="out"/>
<feColorMatrix type="matrix" values="0 0 0 0 0 0 0 0 0 0 0 0 0 0 0 0 0 0 0.04 0"/>
<feBlend mode="normal" in2="BackgroundImageFix" result="effect1_dropShadow_767_1877"/>
<feBlend mode="normal" in="SourceGraphic" in2="effect1_dropShadow_767_1877" result="shape"/>
</filter>
<clipPath id="clip0_767_1877">
<rect width="517" height="275" fill="white"/>
</clipPath>
</defs>
</svg>
