<svg width="76" height="29" viewBox="0 0 76 29" fill="none" xmlns="http://www.w3.org/2000/svg">
<rect x="1.5" y="8" width="13" height="13" rx="6.5" stroke="#FF611A" stroke-width="3"/>
<path d="M29.24 7.6H31.92V19.58H38.82V22H29.24V7.6ZM44.9519 22.24C43.8985 22.24 42.9852 22.0067 42.2119 21.54C41.4385 21.06 40.8452 20.4133 40.4319 19.6C40.0185 18.7733 39.8119 17.84 39.8119 16.8C39.8119 15.76 40.0185 14.8333 40.4319 14.02C40.8452 13.1933 41.4385 12.5467 42.2119 12.08C42.9852 11.6 43.8985 11.36 44.9519 11.36C46.0052 11.36 46.9185 11.5933 47.6919 12.06C48.4652 12.5267 49.0585 13.1867 49.4719 14.04C49.8852 14.8933 50.0919 15.88 50.0919 17V17.6H42.3119C42.4185 18.4267 42.6985 19.08 43.1519 19.56C43.6185 20.0267 44.2185 20.26 44.9519 20.26C46.1519 20.26 46.9785 19.78 47.4319 18.82H49.8919C49.5452 19.8733 48.9385 20.7067 48.0719 21.32C47.2052 21.9333 46.1652 22.24 44.9519 22.24ZM47.5519 15.8C47.4185 15.0267 47.1252 14.4267 46.6719 14C46.2319 13.56 45.6585 13.34 44.9519 13.34C44.2452 13.34 43.6652 13.56 43.2119 14C42.7719 14.4267 42.4785 15.0267 42.3319 15.8H47.5519ZM56.4748 26.24C55.0348 26.24 53.9082 25.92 53.0948 25.28C52.2948 24.64 51.8548 23.7533 51.7748 22.62H54.2348C54.3815 23.7267 55.1548 24.28 56.5548 24.28C58.3282 24.28 59.2148 23.4267 59.2148 21.72V20.48C58.4682 21.48 57.4015 21.98 56.0148 21.98C55.0282 21.98 54.1815 21.7533 53.4748 21.3C52.7815 20.8333 52.2548 20.2 51.8948 19.4C51.5348 18.6 51.3548 17.6867 51.3548 16.66C51.3548 15.6467 51.5348 14.74 51.8948 13.94C52.2548 13.1267 52.7815 12.4933 53.4748 12.04C54.1815 11.5867 55.0282 11.36 56.0148 11.36C57.4548 11.36 58.5482 11.8933 59.2948 12.96V11.6H61.7348V21.72C61.7348 23.2133 61.2482 24.34 60.2748 25.1C59.3015 25.86 58.0348 26.24 56.4748 26.24ZM53.9148 16.66C53.9148 17.6733 54.1348 18.4733 54.5748 19.06C55.0282 19.6333 55.7015 19.92 56.5948 19.92C57.4748 19.92 58.1348 19.6333 58.5748 19.06C59.0282 18.4733 59.2548 17.6733 59.2548 16.66C59.2548 15.6467 59.0282 14.8533 58.5748 14.28C58.1348 13.6933 57.4748 13.4 56.5948 13.4C55.7015 13.4 55.0282 13.6933 54.5748 14.28C54.1348 14.8533 53.9148 15.6467 53.9148 16.66ZM63.8842 11.6H66.3842V22H63.8842V11.6ZM63.8842 7.6H66.4042V9.94H63.8842V7.6ZM72.0931 8.4V11.6H74.7331V13.54H72.0931V19.08C72.0931 19.4267 72.1665 19.68 72.3131 19.84C72.4731 19.9867 72.7331 20.06 73.0931 20.06H74.7331V22H72.4731C71.5265 22 70.8065 21.8067 70.3131 21.42C69.8331 21.02 69.5931 20.3267 69.5931 19.34V13.54H67.7731V11.6H69.5931V8.4H72.0931Z" fill="black"/>
</svg>
