<svg width="748" height="374" viewBox="0 0 748 374" fill="none" xmlns="http://www.w3.org/2000/svg">
<g clip-path="url(#clip0_903_3305)">
<rect width="748" height="374" fill="white"/>
<g opacity="0.5">
<path d="M0 0H187" stroke="black" stroke-opacity="0.1"/>
<path d="M0 17H187" stroke="black" stroke-opacity="0.1"/>
<path d="M0 34H187" stroke="black" stroke-opacity="0.1"/>
<path d="M0 51H187" stroke="black" stroke-opacity="0.1"/>
<path d="M0 68H187" stroke="black" stroke-opacity="0.1"/>
<path d="M0 85H187" stroke="black" stroke-opacity="0.1"/>
<path d="M0 102H187" stroke="black" stroke-opacity="0.1"/>
<path d="M0 119H187" stroke="black" stroke-opacity="0.1"/>
<path d="M0 136H187" stroke="black" stroke-opacity="0.1"/>
<path d="M0 153H187" stroke="black" stroke-opacity="0.1"/>
<path d="M0 170H187" stroke="black" stroke-opacity="0.1"/>
<path d="M0 187H187" stroke="black" stroke-opacity="0.1"/>
<path d="M187 0L187 187" stroke="black" stroke-opacity="0.1"/>
<path d="M170 0L170 187" stroke="black" stroke-opacity="0.1"/>
<path d="M153 0L153 187" stroke="black" stroke-opacity="0.1"/>
<path d="M136 0L136 187" stroke="black" stroke-opacity="0.1"/>
<path d="M119 0L119 187" stroke="black" stroke-opacity="0.1"/>
<path d="M102 0L102 187" stroke="black" stroke-opacity="0.1"/>
<path d="M85 0L85 187" stroke="black" stroke-opacity="0.1"/>
<path d="M68 0L68 187" stroke="black" stroke-opacity="0.1"/>
<path d="M51 0L51 187" stroke="black" stroke-opacity="0.1"/>
<path d="M34 0L34 187" stroke="black" stroke-opacity="0.1"/>
<path d="M17 0L17 187" stroke="black" stroke-opacity="0.1"/>
<path d="M0 0L-8.17403e-06 187" stroke="black" stroke-opacity="0.1"/>
</g>
<g opacity="0.5">
<path d="M0 187H187" stroke="black" stroke-opacity="0.1"/>
<path d="M0 204H187" stroke="black" stroke-opacity="0.1"/>
<path d="M0 221H187" stroke="black" stroke-opacity="0.1"/>
<path d="M0 238H187" stroke="black" stroke-opacity="0.1"/>
<path d="M0 255H187" stroke="black" stroke-opacity="0.1"/>
<path d="M0 272H187" stroke="black" stroke-opacity="0.1"/>
<path d="M0 289H187" stroke="black" stroke-opacity="0.1"/>
<path d="M0 306H187" stroke="black" stroke-opacity="0.1"/>
<path d="M0 323H187" stroke="black" stroke-opacity="0.1"/>
<path d="M0 340H187" stroke="black" stroke-opacity="0.1"/>
<path d="M0 357H187" stroke="black" stroke-opacity="0.1"/>
<path d="M0 374H187" stroke="black" stroke-opacity="0.1"/>
<path d="M187 187L187 374" stroke="black" stroke-opacity="0.1"/>
<path d="M170 187L170 374" stroke="black" stroke-opacity="0.1"/>
<path d="M153 187L153 374" stroke="black" stroke-opacity="0.1"/>
<path d="M136 187L136 374" stroke="black" stroke-opacity="0.1"/>
<path d="M119 187L119 374" stroke="black" stroke-opacity="0.1"/>
<path d="M102 187L102 374" stroke="black" stroke-opacity="0.1"/>
<path d="M85 187L85 374" stroke="black" stroke-opacity="0.1"/>
<path d="M68 187L68 374" stroke="black" stroke-opacity="0.1"/>
<path d="M51 187L51 374" stroke="black" stroke-opacity="0.1"/>
<path d="M34 187L34 374" stroke="black" stroke-opacity="0.1"/>
<path d="M17 187L17 374" stroke="black" stroke-opacity="0.1"/>
<path d="M0 187L-8.17403e-06 374" stroke="black" stroke-opacity="0.1"/>
</g>
<g opacity="0.5">
<path d="M187 0H374" stroke="black" stroke-opacity="0.1"/>
<path d="M187 17H374" stroke="black" stroke-opacity="0.1"/>
<path d="M187 34H374" stroke="black" stroke-opacity="0.1"/>
<path d="M187 51H374" stroke="black" stroke-opacity="0.1"/>
<path d="M187 68H374" stroke="black" stroke-opacity="0.1"/>
<path d="M187 85H374" stroke="black" stroke-opacity="0.1"/>
<path d="M187 102H374" stroke="black" stroke-opacity="0.1"/>
<path d="M187 119H374" stroke="black" stroke-opacity="0.1"/>
<path d="M187 136H374" stroke="black" stroke-opacity="0.1"/>
<path d="M187 153H374" stroke="black" stroke-opacity="0.1"/>
<path d="M187 170H374" stroke="black" stroke-opacity="0.1"/>
<path d="M187 187H374" stroke="black" stroke-opacity="0.1"/>
<path d="M374 0L374 187" stroke="black" stroke-opacity="0.1"/>
<path d="M357 0L357 187" stroke="black" stroke-opacity="0.1"/>
<path d="M340 0L340 187" stroke="black" stroke-opacity="0.1"/>
<path d="M323 0L323 187" stroke="black" stroke-opacity="0.1"/>
<path d="M306 0L306 187" stroke="black" stroke-opacity="0.1"/>
<path d="M289 0L289 187" stroke="black" stroke-opacity="0.1"/>
<path d="M272 0L272 187" stroke="black" stroke-opacity="0.1"/>
<path d="M255 0L255 187" stroke="black" stroke-opacity="0.1"/>
<path d="M238 0L238 187" stroke="black" stroke-opacity="0.1"/>
<path d="M221 0L221 187" stroke="black" stroke-opacity="0.1"/>
<path d="M204 0L204 187" stroke="black" stroke-opacity="0.1"/>
<path d="M187 0L187 187" stroke="black" stroke-opacity="0.1"/>
</g>
<g opacity="0.5">
<path d="M187 187H374" stroke="black" stroke-opacity="0.1"/>
<path d="M187 204H374" stroke="black" stroke-opacity="0.1"/>
<path d="M187 221H374" stroke="black" stroke-opacity="0.1"/>
<path d="M187 238H374" stroke="black" stroke-opacity="0.1"/>
<path d="M187 255H374" stroke="black" stroke-opacity="0.1"/>
<path d="M187 272H374" stroke="black" stroke-opacity="0.1"/>
<path d="M187 289H374" stroke="black" stroke-opacity="0.1"/>
<path d="M187 306H374" stroke="black" stroke-opacity="0.1"/>
<path d="M187 323H374" stroke="black" stroke-opacity="0.1"/>
<path d="M187 340H374" stroke="black" stroke-opacity="0.1"/>
<path d="M187 357H374" stroke="black" stroke-opacity="0.1"/>
<path d="M187 374H374" stroke="black" stroke-opacity="0.1"/>
<path d="M374 187L374 374" stroke="black" stroke-opacity="0.1"/>
<path d="M357 187L357 374" stroke="black" stroke-opacity="0.1"/>
<path d="M340 187L340 374" stroke="black" stroke-opacity="0.1"/>
<path d="M323 187L323 374" stroke="black" stroke-opacity="0.1"/>
<path d="M306 187L306 374" stroke="black" stroke-opacity="0.1"/>
<path d="M289 187L289 374" stroke="black" stroke-opacity="0.1"/>
<path d="M272 187L272 374" stroke="black" stroke-opacity="0.1"/>
<path d="M255 187L255 374" stroke="black" stroke-opacity="0.1"/>
<path d="M238 187L238 374" stroke="black" stroke-opacity="0.1"/>
<path d="M221 187L221 374" stroke="black" stroke-opacity="0.1"/>
<path d="M204 187L204 374" stroke="black" stroke-opacity="0.1"/>
<path d="M187 187L187 374" stroke="black" stroke-opacity="0.1"/>
</g>
<g opacity="0.5">
<path d="M374 0H561" stroke="black" stroke-opacity="0.1"/>
<path d="M374 17H561" stroke="black" stroke-opacity="0.1"/>
<path d="M374 34H561" stroke="black" stroke-opacity="0.1"/>
<path d="M374 51H561" stroke="black" stroke-opacity="0.1"/>
<path d="M374 68H561" stroke="black" stroke-opacity="0.1"/>
<path d="M374 85H561" stroke="black" stroke-opacity="0.1"/>
<path d="M374 102H561" stroke="black" stroke-opacity="0.1"/>
<path d="M374 119H561" stroke="black" stroke-opacity="0.1"/>
<path d="M374 136H561" stroke="black" stroke-opacity="0.1"/>
<path d="M374 153H561" stroke="black" stroke-opacity="0.1"/>
<path d="M374 170H561" stroke="black" stroke-opacity="0.1"/>
<path d="M374 187H561" stroke="black" stroke-opacity="0.1"/>
<path d="M561 0L561 187" stroke="black" stroke-opacity="0.1"/>
<path d="M544 0L544 187" stroke="black" stroke-opacity="0.1"/>
<path d="M527 0L527 187" stroke="black" stroke-opacity="0.1"/>
<path d="M510 0L510 187" stroke="black" stroke-opacity="0.1"/>
<path d="M493 0L493 187" stroke="black" stroke-opacity="0.1"/>
<path d="M476 0L476 187" stroke="black" stroke-opacity="0.1"/>
<path d="M459 0L459 187" stroke="black" stroke-opacity="0.1"/>
<path d="M442 0L442 187" stroke="black" stroke-opacity="0.1"/>
<path d="M425 0L425 187" stroke="black" stroke-opacity="0.1"/>
<path d="M408 0L408 187" stroke="black" stroke-opacity="0.1"/>
<path d="M391 0L391 187" stroke="black" stroke-opacity="0.1"/>
<path d="M374 0L374 187" stroke="black" stroke-opacity="0.1"/>
</g>
<g opacity="0.5">
<path d="M374 187H561" stroke="black" stroke-opacity="0.1"/>
<path d="M374 204H561" stroke="black" stroke-opacity="0.1"/>
<path d="M374 221H561" stroke="black" stroke-opacity="0.1"/>
<path d="M374 238H561" stroke="black" stroke-opacity="0.1"/>
<path d="M374 255H561" stroke="black" stroke-opacity="0.1"/>
<path d="M374 272H561" stroke="black" stroke-opacity="0.1"/>
<path d="M374 289H561" stroke="black" stroke-opacity="0.1"/>
<path d="M374 306H561" stroke="black" stroke-opacity="0.1"/>
<path d="M374 323H561" stroke="black" stroke-opacity="0.1"/>
<path d="M374 340H561" stroke="black" stroke-opacity="0.1"/>
<path d="M374 357H561" stroke="black" stroke-opacity="0.1"/>
<path d="M374 374H561" stroke="black" stroke-opacity="0.1"/>
<path d="M561 187L561 374" stroke="black" stroke-opacity="0.1"/>
<path d="M544 187L544 374" stroke="black" stroke-opacity="0.1"/>
<path d="M527 187L527 374" stroke="black" stroke-opacity="0.1"/>
<path d="M510 187L510 374" stroke="black" stroke-opacity="0.1"/>
<path d="M493 187L493 374" stroke="black" stroke-opacity="0.1"/>
<path d="M476 187L476 374" stroke="black" stroke-opacity="0.1"/>
<path d="M459 187L459 374" stroke="black" stroke-opacity="0.1"/>
<path d="M442 187L442 374" stroke="black" stroke-opacity="0.1"/>
<path d="M425 187L425 374" stroke="black" stroke-opacity="0.1"/>
<path d="M408 187L408 374" stroke="black" stroke-opacity="0.1"/>
<path d="M391 187L391 374" stroke="black" stroke-opacity="0.1"/>
<path d="M374 187L374 374" stroke="black" stroke-opacity="0.1"/>
</g>
<g opacity="0.5">
<path d="M561 0H748" stroke="black" stroke-opacity="0.1"/>
<path d="M561 17H748" stroke="black" stroke-opacity="0.1"/>
<path d="M561 34H748" stroke="black" stroke-opacity="0.1"/>
<path d="M561 51H748" stroke="black" stroke-opacity="0.1"/>
<path d="M561 68H748" stroke="black" stroke-opacity="0.1"/>
<path d="M561 85H748" stroke="black" stroke-opacity="0.1"/>
<path d="M561 102H748" stroke="black" stroke-opacity="0.1"/>
<path d="M561 119H748" stroke="black" stroke-opacity="0.1"/>
<path d="M561 136H748" stroke="black" stroke-opacity="0.1"/>
<path d="M561 153H748" stroke="black" stroke-opacity="0.1"/>
<path d="M561 170H748" stroke="black" stroke-opacity="0.1"/>
<path d="M561 187H748" stroke="black" stroke-opacity="0.1"/>
<path d="M748 0L748 187" stroke="black" stroke-opacity="0.1"/>
<path d="M731 0L731 187" stroke="black" stroke-opacity="0.1"/>
<path d="M714 0L714 187" stroke="black" stroke-opacity="0.1"/>
<path d="M697 0L697 187" stroke="black" stroke-opacity="0.1"/>
<path d="M680 0L680 187" stroke="black" stroke-opacity="0.1"/>
<path d="M663 0L663 187" stroke="black" stroke-opacity="0.1"/>
<path d="M646 0L646 187" stroke="black" stroke-opacity="0.1"/>
<path d="M629 0L629 187" stroke="black" stroke-opacity="0.1"/>
<path d="M612 0L612 187" stroke="black" stroke-opacity="0.1"/>
<path d="M595 0L595 187" stroke="black" stroke-opacity="0.1"/>
<path d="M578 0L578 187" stroke="black" stroke-opacity="0.1"/>
<path d="M561 0L561 187" stroke="black" stroke-opacity="0.1"/>
</g>
<g opacity="0.5">
<path d="M561 187H748" stroke="black" stroke-opacity="0.1"/>
<path d="M561 204H748" stroke="black" stroke-opacity="0.1"/>
<path d="M561 221H748" stroke="black" stroke-opacity="0.1"/>
<path d="M561 238H748" stroke="black" stroke-opacity="0.1"/>
<path d="M561 255H748" stroke="black" stroke-opacity="0.1"/>
<path d="M561 272H748" stroke="black" stroke-opacity="0.1"/>
<path d="M561 289H748" stroke="black" stroke-opacity="0.1"/>
<path d="M561 306H748" stroke="black" stroke-opacity="0.1"/>
<path d="M561 323H748" stroke="black" stroke-opacity="0.1"/>
<path d="M561 340H748" stroke="black" stroke-opacity="0.1"/>
<path d="M561 357H748" stroke="black" stroke-opacity="0.1"/>
<path d="M561 374H748" stroke="black" stroke-opacity="0.1"/>
<path d="M748 187L748 374" stroke="black" stroke-opacity="0.1"/>
<path d="M731 187L731 374" stroke="black" stroke-opacity="0.1"/>
<path d="M714 187L714 374" stroke="black" stroke-opacity="0.1"/>
<path d="M697 187L697 374" stroke="black" stroke-opacity="0.1"/>
<path d="M680 187L680 374" stroke="black" stroke-opacity="0.1"/>
<path d="M663 187L663 374" stroke="black" stroke-opacity="0.1"/>
<path d="M646 187L646 374" stroke="black" stroke-opacity="0.1"/>
<path d="M629 187L629 374" stroke="black" stroke-opacity="0.1"/>
<path d="M612 187L612 374" stroke="black" stroke-opacity="0.1"/>
<path d="M595 187L595 374" stroke="black" stroke-opacity="0.1"/>
<path d="M578 187L578 374" stroke="black" stroke-opacity="0.1"/>
<path d="M561 187L561 374" stroke="black" stroke-opacity="0.1"/>
</g>
<g filter="url(#filter0_f_903_3305)">
<rect x="61" y="156" width="628" height="356" rx="64" fill="white"/>
</g>
<mask id="path-194-inside-1_903_3305" fill="white">
<path d="M198 211C198 205.477 202.477 201 208 201H540C545.523 201 550 205.477 550 211V403H198V211Z"/>
</mask>
<path d="M198 211C198 205.477 202.477 201 208 201H540C545.523 201 550 205.477 550 211V403H198V211Z" fill="white"/>
<path d="M197.162 211C197.162 205.014 202.014 200.162 208 200.162H540C545.986 200.162 550.838 205.014 550.838 211L549.162 211C549.162 205.94 545.06 201.838 540 201.838H208C202.94 201.838 198.838 205.94 198.838 211L197.162 211ZM550 403H198H550ZM197.162 403V211C197.162 205.014 202.014 200.162 208 200.162L208 201.838C202.94 201.838 198.838 205.94 198.838 211V403H197.162ZM540 200.162C545.986 200.162 550.838 205.014 550.838 211V403H549.162V211C549.162 205.94 545.06 201.838 540 201.838L540 200.162Z" fill="#DFDFDF" mask="url(#path-194-inside-1_903_3305)"/>
<rect x="211.988" y="268.6" width="323.81" height="41.3374" rx="20.6687" fill="#F5F5F5" stroke="#EFEFEF" stroke-width="1.14826"/>
<path d="M234.379 384L234.379 246.209" stroke="url(#paint0_linear_903_3305)" stroke-width="1.06271"/>
<path d="M272.134 251.982C271.093 251.982 270.2 251.752 269.454 251.291C268.717 250.831 268.16 250.214 267.782 249.44C267.404 248.657 267.216 247.792 267.216 246.843C267.216 245.894 267.404 245.033 267.782 244.26C268.16 243.477 268.717 242.855 269.454 242.394C270.2 241.934 271.093 241.704 272.134 241.704C272.926 241.704 273.63 241.86 274.247 242.173C274.874 242.487 275.38 242.919 275.767 243.472C276.154 244.025 276.403 244.651 276.513 245.351H274.634C274.505 244.752 274.22 244.273 273.778 243.914C273.336 243.546 272.788 243.362 272.134 243.362C271.148 243.362 270.402 243.688 269.896 244.342C269.398 244.996 269.15 245.83 269.15 246.843C269.15 247.856 269.398 248.69 269.896 249.343C270.402 249.997 271.148 250.324 272.134 250.324C272.834 250.324 273.405 250.117 273.847 249.703C274.298 249.288 274.579 248.745 274.69 248.072H276.555C276.462 248.819 276.228 249.491 275.85 250.09C275.472 250.679 274.966 251.144 274.33 251.485C273.695 251.816 272.963 251.982 272.134 251.982ZM277.746 241.869H279.487V245.544C280.058 244.826 280.794 244.467 281.697 244.467C282.508 244.467 283.134 244.725 283.576 245.24C284.027 245.747 284.253 246.428 284.253 247.285V251.816H282.526V247.492C282.526 247.032 282.415 246.668 282.194 246.401C281.973 246.125 281.623 245.986 281.144 245.986C280.767 245.986 280.408 246.111 280.067 246.359C279.735 246.608 279.542 247.013 279.487 247.575V251.816H277.746V241.869ZM290.264 250.987C289.969 251.347 289.633 251.605 289.255 251.761C288.887 251.909 288.463 251.982 287.984 251.982C287.192 251.982 286.557 251.793 286.078 251.416C285.599 251.029 285.359 250.495 285.359 249.813C285.359 249.187 285.581 248.703 286.023 248.363C286.474 248.013 287.174 247.755 288.123 247.589L290.209 247.216V246.802C290.209 246.47 290.103 246.221 289.891 246.055C289.679 245.89 289.347 245.807 288.896 245.807C288.472 245.807 288.123 245.899 287.846 246.083C287.57 246.267 287.423 246.548 287.404 246.926H285.691C285.7 246.115 286.004 245.503 286.603 245.088C287.201 244.674 287.961 244.467 288.882 244.467C289.886 244.467 290.641 244.656 291.148 245.033C291.655 245.411 291.908 245.936 291.908 246.608V251.816H290.264V250.987ZM287.142 249.758C287.142 250.053 287.243 250.283 287.446 250.449C287.657 250.614 287.966 250.697 288.371 250.697C288.878 250.697 289.311 250.559 289.67 250.283C290.029 249.997 290.209 249.578 290.209 249.026V248.39L288.44 248.749C287.989 248.842 287.657 248.957 287.446 249.095C287.243 249.233 287.142 249.454 287.142 249.758ZM297.987 247.492C297.987 247.032 297.877 246.668 297.656 246.401C297.434 246.125 297.084 245.986 296.606 245.986C296.228 245.986 295.869 246.111 295.528 246.359C295.196 246.608 295.003 247.013 294.948 247.575V251.816H293.207V244.633H294.892V245.613C295.16 245.263 295.482 244.987 295.86 244.784C296.237 244.573 296.67 244.467 297.158 244.467C297.969 244.467 298.595 244.725 299.037 245.24C299.488 245.747 299.714 246.428 299.714 247.285V251.816H297.987V247.492ZM304.44 254.745C303.445 254.745 302.667 254.524 302.105 254.082C301.553 253.64 301.249 253.028 301.194 252.245H302.893C302.994 253.009 303.528 253.391 304.495 253.391C305.72 253.391 306.333 252.802 306.333 251.623V250.766C305.817 251.457 305.08 251.803 304.122 251.803C303.441 251.803 302.856 251.646 302.368 251.333C301.889 251.011 301.525 250.573 301.276 250.02C301.028 249.468 300.903 248.837 300.903 248.128C300.903 247.428 301.028 246.802 301.276 246.249C301.525 245.687 301.889 245.25 302.368 244.936C302.856 244.623 303.441 244.467 304.122 244.467C305.117 244.467 305.872 244.835 306.388 245.572V244.633H308.074V251.623C308.074 252.655 307.737 253.433 307.065 253.958C306.393 254.483 305.518 254.745 304.44 254.745ZM302.672 248.128C302.672 248.828 302.824 249.38 303.128 249.786C303.441 250.182 303.906 250.38 304.523 250.38C305.131 250.38 305.587 250.182 305.891 249.786C306.204 249.38 306.36 248.828 306.36 248.128C306.36 247.428 306.204 246.88 305.891 246.484C305.587 246.079 305.131 245.876 304.523 245.876C303.906 245.876 303.441 246.079 303.128 246.484C302.824 246.88 302.672 247.428 302.672 248.128ZM312.819 251.982C312.091 251.982 311.46 251.821 310.926 251.499C310.392 251.167 309.982 250.72 309.696 250.159C309.411 249.588 309.268 248.943 309.268 248.224C309.268 247.506 309.411 246.866 309.696 246.304C309.982 245.733 310.392 245.286 310.926 244.964C311.46 244.633 312.091 244.467 312.819 244.467C313.546 244.467 314.177 244.628 314.711 244.95C315.245 245.273 315.655 245.729 315.941 246.318C316.226 246.907 316.369 247.589 316.369 248.363V248.777H310.995C311.069 249.348 311.262 249.799 311.575 250.131C311.898 250.453 312.312 250.614 312.819 250.614C313.648 250.614 314.219 250.283 314.532 249.62H316.231C315.992 250.347 315.572 250.923 314.974 251.347C314.375 251.77 313.657 251.982 312.819 251.982ZM314.615 247.534C314.522 247 314.32 246.585 314.007 246.29C313.703 245.986 313.307 245.834 312.819 245.834C312.33 245.834 311.93 245.986 311.617 246.29C311.313 246.585 311.11 247 311.009 247.534H314.615Z" fill="#A7A7A7"/>
<path d="M469.469 244.929H470.268L470.296 245.811C470.418 245.481 470.608 245.233 470.865 245.067C471.129 244.902 471.429 244.819 471.765 244.819C472.292 244.819 472.693 244.991 472.969 245.334C473.244 245.67 473.382 246.114 473.382 246.666V249.816H472.5V246.914C472.5 246.467 472.424 246.133 472.271 245.912C472.118 245.692 471.876 245.582 471.545 245.582C471.184 245.582 470.893 245.701 470.672 245.94C470.458 246.173 470.351 246.503 470.351 246.932V249.816H469.469V244.929ZM476.961 249.927C476.514 249.927 476.119 249.823 475.776 249.614C475.439 249.406 475.176 249.109 474.986 248.723C474.802 248.337 474.711 247.887 474.711 247.373C474.711 246.858 474.802 246.408 474.986 246.023C475.176 245.637 475.439 245.34 475.776 245.131C476.119 244.923 476.514 244.819 476.961 244.819C477.408 244.819 477.8 244.923 478.137 245.131C478.48 245.34 478.743 245.637 478.927 246.023C479.117 246.408 479.212 246.858 479.212 247.373C479.212 247.887 479.117 248.337 478.927 248.723C478.743 249.109 478.48 249.406 478.137 249.614C477.8 249.823 477.408 249.927 476.961 249.927ZM476.961 249.109C477.378 249.109 477.702 248.956 477.935 248.65C478.168 248.344 478.284 247.918 478.284 247.373C478.284 246.828 478.168 246.402 477.935 246.096C477.702 245.79 477.378 245.637 476.961 245.637C476.539 245.637 476.211 245.79 475.978 246.096C475.752 246.402 475.638 246.828 475.638 247.373C475.638 247.918 475.752 248.344 475.978 248.65C476.211 248.956 476.539 249.109 476.961 249.109ZM479.971 244.929H480.917L481.496 248.732L482.129 245.618H482.993L483.627 248.732L484.205 244.929H485.152L484.196 249.816H483.177L482.561 246.95L481.946 249.816H480.935L479.971 244.929Z" fill="#A7A7A7"/>
<rect x="494.793" y="228.444" width="36.7444" height="36.7444" rx="18.3722" fill="#EEEEEE"/>
<rect x="510.867" y="244.52" width="4.59305" height="4.59305" fill="#FF611A" stroke="white" stroke-width="0.382754"/>
<rect x="510.867" y="249.113" width="4.59305" height="4.59305" fill="#FF611A" stroke="white" stroke-width="0.382754"/>
<rect x="510.867" y="253.706" width="4.59305" height="4.59305" fill="#FF611A" stroke="white" stroke-width="0.382754"/>
<rect x="515.461" y="244.52" width="4.59305" height="4.59305" fill="#FF611A" stroke="white" stroke-width="0.382754"/>
<rect x="520.055" y="249.113" width="4.59305" height="4.59305" fill="#FF611A" stroke="white" stroke-width="0.382754"/>
<rect x="506.277" y="244.52" width="4.59305" height="4.59305" fill="#FF611A" stroke="white" stroke-width="0.382754"/>
<rect x="501.684" y="249.113" width="4.59305" height="4.59305" fill="#FF611A" stroke="white" stroke-width="0.382754"/>
<path d="M272.134 294.469C271.093 294.469 270.2 294.238 269.454 293.778C268.717 293.317 268.16 292.7 267.782 291.927C267.404 291.144 267.216 290.278 267.216 289.329C267.216 288.381 267.404 287.519 267.782 286.746C268.16 285.963 268.717 285.341 269.454 284.881C270.2 284.42 271.093 284.19 272.134 284.19C272.926 284.19 273.63 284.347 274.247 284.66C274.874 284.973 275.38 285.406 275.767 285.958C276.154 286.511 276.403 287.137 276.513 287.837H274.634C274.505 287.239 274.22 286.76 273.778 286.4C273.336 286.032 272.788 285.848 272.134 285.848C271.148 285.848 270.402 286.175 269.896 286.829C269.398 287.483 269.15 288.316 269.15 289.329C269.15 290.342 269.398 291.176 269.896 291.83C270.402 292.484 271.148 292.811 272.134 292.811C272.834 292.811 273.405 292.603 273.847 292.189C274.298 291.775 274.579 291.231 274.69 290.559H276.555C276.462 291.305 276.228 291.977 275.85 292.576C275.472 293.165 274.966 293.63 274.33 293.971C273.695 294.303 272.963 294.469 272.134 294.469ZM277.746 284.356H279.487V288.031C280.058 287.312 280.794 286.953 281.697 286.953C282.508 286.953 283.134 287.211 283.576 287.727C284.027 288.233 284.253 288.915 284.253 289.771V294.303H282.526V289.979C282.526 289.518 282.415 289.154 282.194 288.887C281.973 288.611 281.623 288.473 281.144 288.473C280.767 288.473 280.408 288.597 280.067 288.846C279.735 289.094 279.542 289.5 279.487 290.061V294.303H277.746V284.356ZM290.264 293.474C289.969 293.833 289.633 294.091 289.255 294.247C288.887 294.395 288.463 294.469 287.984 294.469C287.192 294.469 286.557 294.28 286.078 293.902C285.599 293.515 285.359 292.981 285.359 292.3C285.359 291.673 285.581 291.19 286.023 290.849C286.474 290.499 287.174 290.241 288.123 290.075L290.209 289.702V289.288C290.209 288.956 290.103 288.708 289.891 288.542C289.679 288.376 289.347 288.293 288.896 288.293C288.472 288.293 288.123 288.385 287.846 288.569C287.57 288.754 287.423 289.035 287.404 289.412H285.691C285.7 288.602 286.004 287.989 286.603 287.575C287.201 287.16 287.961 286.953 288.882 286.953C289.886 286.953 290.641 287.142 291.148 287.519C291.655 287.897 291.908 288.422 291.908 289.094V294.303H290.264V293.474ZM287.142 292.244C287.142 292.539 287.243 292.769 287.446 292.935C287.657 293.101 287.966 293.184 288.371 293.184C288.878 293.184 289.311 293.046 289.67 292.769C290.029 292.484 290.209 292.065 290.209 291.512V290.877L288.44 291.236C287.989 291.328 287.657 291.443 287.446 291.581C287.243 291.719 287.142 291.94 287.142 292.244ZM297.987 289.979C297.987 289.518 297.877 289.154 297.656 288.887C297.434 288.611 297.084 288.473 296.606 288.473C296.228 288.473 295.869 288.597 295.528 288.846C295.196 289.094 295.003 289.5 294.948 290.061V294.303H293.207V287.119H294.892V288.1C295.16 287.75 295.482 287.473 295.86 287.271C296.237 287.059 296.67 286.953 297.158 286.953C297.969 286.953 298.595 287.211 299.037 287.727C299.488 288.233 299.714 288.915 299.714 289.771V294.303H297.987V289.979ZM304.44 297.232C303.445 297.232 302.667 297.011 302.105 296.568C301.553 296.126 301.249 295.514 301.194 294.731H302.893C302.994 295.495 303.528 295.878 304.495 295.878C305.72 295.878 306.333 295.288 306.333 294.109V293.253C305.817 293.944 305.08 294.289 304.122 294.289C303.441 294.289 302.856 294.132 302.368 293.819C301.889 293.497 301.525 293.059 301.276 292.507C301.028 291.954 300.903 291.323 300.903 290.614C300.903 289.914 301.028 289.288 301.276 288.735C301.525 288.173 301.889 287.736 302.368 287.423C302.856 287.11 303.441 286.953 304.122 286.953C305.117 286.953 305.872 287.321 306.388 288.058V287.119H308.074V294.109C308.074 295.141 307.737 295.919 307.065 296.444C306.393 296.969 305.518 297.232 304.44 297.232ZM302.672 290.614C302.672 291.314 302.824 291.867 303.128 292.272C303.441 292.668 303.906 292.866 304.523 292.866C305.131 292.866 305.587 292.668 305.891 292.272C306.204 291.867 306.36 291.314 306.36 290.614C306.36 289.914 306.204 289.366 305.891 288.97C305.587 288.565 305.131 288.362 304.523 288.362C303.906 288.362 303.441 288.565 303.128 288.97C302.824 289.366 302.672 289.914 302.672 290.614ZM312.819 294.469C312.091 294.469 311.46 294.307 310.926 293.985C310.392 293.653 309.982 293.207 309.696 292.645C309.411 292.074 309.268 291.429 309.268 290.711C309.268 289.992 309.411 289.352 309.696 288.79C309.982 288.219 310.392 287.773 310.926 287.45C311.46 287.119 312.091 286.953 312.819 286.953C313.546 286.953 314.177 287.114 314.711 287.437C315.245 287.759 315.655 288.215 315.941 288.804C316.226 289.394 316.369 290.075 316.369 290.849V291.263H310.995C311.069 291.834 311.262 292.286 311.575 292.617C311.898 292.94 312.312 293.101 312.819 293.101C313.648 293.101 314.219 292.769 314.532 292.106H316.231C315.992 292.834 315.572 293.409 314.974 293.833C314.375 294.257 313.657 294.469 312.819 294.469ZM314.615 290.02C314.522 289.486 314.32 289.071 314.007 288.777C313.703 288.473 313.307 288.321 312.819 288.321C312.33 288.321 311.93 288.473 311.617 288.777C311.313 289.071 311.11 289.486 311.009 290.02H314.615Z" fill="#A7A7A7"/>
<path d="M448.503 292.45C447.805 292.45 447.26 292.281 446.868 291.944C446.476 291.608 446.265 291.154 446.234 290.585L447.162 290.521C447.198 290.888 447.333 291.158 447.566 291.329C447.805 291.5 448.117 291.586 448.503 291.586C448.913 291.586 449.25 291.494 449.513 291.311C449.783 291.127 449.918 290.842 449.918 290.456C449.918 290.064 449.792 289.77 449.541 289.574C449.296 289.372 448.965 289.271 448.549 289.271H448.025V288.426H448.549C448.892 288.426 449.167 288.35 449.376 288.197C449.59 288.043 449.697 287.802 449.697 287.471C449.697 287.152 449.596 286.91 449.394 286.745C449.198 286.58 448.913 286.497 448.54 286.497C447.805 286.497 447.394 286.791 447.309 287.379L446.363 287.315C446.43 286.8 446.65 286.393 447.024 286.093C447.404 285.787 447.909 285.634 448.54 285.634C449.183 285.634 449.694 285.793 450.074 286.111C450.453 286.43 450.643 286.865 450.643 287.416C450.643 288.108 450.279 288.57 449.55 288.803C449.96 288.919 450.282 289.127 450.515 289.427C450.747 289.721 450.864 290.074 450.864 290.484C450.864 290.888 450.763 291.24 450.561 291.54C450.365 291.834 450.089 292.061 449.734 292.22C449.379 292.373 448.968 292.45 448.503 292.45ZM453.561 291.127H454.737V292.303H453.561V291.127ZM453.561 287.645H454.737V288.821H453.561V287.645ZM460.474 290.925H457.342V290.126L460.373 285.781H461.375V290.071H462.155V290.925H461.375V292.303H460.474V290.925ZM460.474 290.071V287.085L458.371 290.071H460.474ZM463.107 291.458H465.146V287.599H463.447V286.837H464.301C464.663 286.837 464.92 286.757 465.073 286.598C465.226 286.439 465.303 286.166 465.303 285.781H466.047V291.458H467.59V292.303H463.107V291.458ZM474.509 287.416H475.336L475.345 288.197C475.486 287.909 475.682 287.688 475.933 287.535C476.19 287.382 476.487 287.305 476.824 287.305C477.271 287.305 477.648 287.422 477.954 287.655C478.26 287.881 478.487 288.187 478.634 288.573C478.787 288.959 478.863 289.388 478.863 289.859C478.863 290.331 478.787 290.759 478.634 291.145C478.487 291.531 478.26 291.84 477.954 292.073C477.648 292.3 477.271 292.413 476.824 292.413C476.512 292.413 476.227 292.346 475.97 292.211C475.719 292.076 475.526 291.889 475.391 291.651V293.681H474.509V287.416ZM476.677 291.595C477.075 291.595 477.384 291.442 477.605 291.136C477.831 290.83 477.945 290.404 477.945 289.859C477.945 289.314 477.831 288.889 477.605 288.582C477.384 288.276 477.075 288.123 476.677 288.123C476.273 288.123 475.957 288.273 475.731 288.573C475.504 288.867 475.391 289.296 475.391 289.859C475.391 290.423 475.504 290.854 475.731 291.154C475.957 291.448 476.273 291.595 476.677 291.595ZM479.723 287.416H480.504L480.532 288.123C480.617 287.866 480.743 287.667 480.908 287.526C481.08 287.379 481.279 287.305 481.505 287.305C481.989 287.305 482.295 287.621 482.424 288.252C482.51 287.952 482.641 287.719 482.819 287.554C482.997 287.388 483.211 287.305 483.462 287.305C483.854 287.305 484.136 287.446 484.307 287.728C484.485 288.004 484.573 288.451 484.573 289.069V292.303H483.701V289.179C483.701 288.781 483.658 288.497 483.572 288.325C483.493 288.154 483.364 288.068 483.186 288.068C483.003 288.068 482.856 288.163 482.745 288.353C482.641 288.536 482.589 288.815 482.589 289.189V292.303H481.707V289.179C481.707 288.781 481.668 288.497 481.588 288.325C481.515 288.154 481.383 288.068 481.193 288.068C481.009 288.068 480.862 288.163 480.752 288.353C480.648 288.536 480.596 288.815 480.596 289.189V292.303H479.723V287.416Z" fill="#A7A7A7"/>
<rect x="495.367" y="271.505" width="35.5961" height="35.5961" rx="17.7981" fill="#EEEEEE" stroke="#E7E7E7" stroke-width="1.14826"/>
<rect x="510.867" y="287.006" width="4.59305" height="4.59305" fill="white" stroke="#E6E6E6" stroke-width="0.382754"/>
<rect x="510.867" y="282.413" width="4.59305" height="4.59305" fill="white" stroke="#E6E6E6" stroke-width="0.382754"/>
<rect x="510.867" y="291.601" width="4.59305" height="4.59305" fill="white" stroke="#E6E6E6" stroke-width="0.382754"/>
<rect x="510.867" y="296.192" width="4.59305" height="4.59305" fill="white" stroke="#E6E6E6" stroke-width="0.382754"/>
<rect x="506.277" y="296.192" width="4.59305" height="4.59305" fill="white" stroke="#E6E6E6" stroke-width="0.382754"/>
<rect x="506.277" y="291.601" width="4.59305" height="4.59305" fill="white" stroke="#E6E6E6" stroke-width="0.382754"/>
<rect x="515.461" y="291.601" width="4.59305" height="4.59305" fill="white" stroke="#E6E6E6" stroke-width="0.382754"/>
<rect x="515.461" y="296.192" width="4.59305" height="4.59305" fill="white" stroke="#E6E6E6" stroke-width="0.382754"/>
<rect x="515.461" y="287.006" width="4.59305" height="4.59305" fill="white" stroke="#E6E6E6" stroke-width="0.382754"/>
<rect x="515.461" y="282.413" width="4.59305" height="4.59305" fill="white" stroke="#E6E6E6" stroke-width="0.382754"/>
<rect x="520.055" y="287.006" width="4.59305" height="4.59305" fill="white" stroke="#E6E6E6" stroke-width="0.382754"/>
<rect x="520.055" y="291.601" width="4.59305" height="4.59305" fill="white" stroke="#E6E6E6" stroke-width="0.382754"/>
<rect x="506.277" y="287.006" width="4.59305" height="4.59305" fill="white" stroke="#E6E6E6" stroke-width="0.382754"/>
<rect x="506.277" y="282.413" width="4.59305" height="4.59305" fill="white" stroke="#E6E6E6" stroke-width="0.382754"/>
<rect x="501.684" y="287.006" width="4.59305" height="4.59305" fill="white" stroke="#E6E6E6" stroke-width="0.382754"/>
<rect x="501.684" y="291.601" width="4.59305" height="4.59305" fill="white" stroke="#E6E6E6" stroke-width="0.382754"/>
<rect x="501.684" y="277.82" width="4.59305" height="4.59305" fill="white" stroke="#E6E6E6" stroke-width="0.382754"/>
<rect x="520.055" y="277.82" width="4.59305" height="4.59305" fill="white" stroke="#E6E6E6" stroke-width="0.382754"/>
<path d="M272.134 336.954C271.093 336.954 270.2 336.724 269.454 336.263C268.717 335.803 268.16 335.186 267.782 334.412C267.404 333.629 267.216 332.763 267.216 331.815C267.216 330.866 267.404 330.005 267.782 329.231C268.16 328.448 268.717 327.827 269.454 327.366C270.2 326.906 271.093 326.675 272.134 326.675C272.926 326.675 273.63 326.832 274.247 327.145C274.874 327.458 275.38 327.891 275.767 328.444C276.154 328.996 276.403 329.623 276.513 330.323H274.634C274.505 329.724 274.22 329.245 273.778 328.886C273.336 328.517 272.788 328.333 272.134 328.333C271.148 328.333 270.402 328.66 269.896 329.314C269.398 329.968 269.15 330.802 269.15 331.815C269.15 332.828 269.398 333.661 269.896 334.315C270.402 334.969 271.148 335.296 272.134 335.296C272.834 335.296 273.405 335.089 273.847 334.674C274.298 334.26 274.579 333.717 274.69 333.044H276.555C276.462 333.79 276.228 334.463 275.85 335.061C275.472 335.651 274.966 336.116 274.33 336.457C273.695 336.788 272.963 336.954 272.134 336.954ZM277.746 326.841H279.487V330.516C280.058 329.798 280.794 329.438 281.697 329.438C282.508 329.438 283.134 329.696 283.576 330.212C284.027 330.719 284.253 331.4 284.253 332.257V336.788H282.526V332.464C282.526 332.003 282.415 331.64 282.194 331.373C281.973 331.096 281.623 330.958 281.144 330.958C280.767 330.958 280.408 331.082 280.067 331.331C279.735 331.58 279.542 331.985 279.487 332.547V336.788H277.746V326.841ZM290.264 335.959C289.969 336.318 289.633 336.576 289.255 336.733C288.887 336.88 288.463 336.954 287.984 336.954C287.192 336.954 286.557 336.765 286.078 336.387C285.599 336.001 285.359 335.466 285.359 334.785C285.359 334.159 285.581 333.675 286.023 333.334C286.474 332.984 287.174 332.726 288.123 332.561L290.209 332.188V331.773C290.209 331.442 290.103 331.193 289.891 331.027C289.679 330.861 289.347 330.778 288.896 330.778C288.472 330.778 288.123 330.871 287.846 331.055C287.57 331.239 287.423 331.52 287.404 331.898H285.691C285.7 331.087 286.004 330.475 286.603 330.06C287.201 329.646 287.961 329.438 288.882 329.438C289.886 329.438 290.641 329.627 291.148 330.005C291.655 330.382 291.908 330.907 291.908 331.58V336.788H290.264V335.959ZM287.142 334.73C287.142 335.024 287.243 335.255 287.446 335.42C287.657 335.586 287.966 335.669 288.371 335.669C288.878 335.669 289.311 335.531 289.67 335.255C290.029 334.969 290.209 334.55 290.209 333.997V333.362L288.44 333.721C287.989 333.813 287.657 333.928 287.446 334.066C287.243 334.205 287.142 334.426 287.142 334.73ZM297.987 332.464C297.987 332.003 297.877 331.64 297.656 331.373C297.434 331.096 297.084 330.958 296.606 330.958C296.228 330.958 295.869 331.082 295.528 331.331C295.196 331.58 295.003 331.985 294.948 332.547V336.788H293.207V329.604H294.892V330.585C295.16 330.235 295.482 329.959 295.86 329.756C296.237 329.544 296.67 329.438 297.158 329.438C297.969 329.438 298.595 329.696 299.037 330.212C299.488 330.719 299.714 331.4 299.714 332.257V336.788H297.987V332.464ZM304.44 339.717C303.445 339.717 302.667 339.496 302.105 339.054C301.553 338.612 301.249 337.999 301.194 337.216H302.893C302.994 337.981 303.528 338.363 304.495 338.363C305.72 338.363 306.333 337.774 306.333 336.595V335.738C305.817 336.429 305.08 336.774 304.122 336.774C303.441 336.774 302.856 336.618 302.368 336.305C301.889 335.982 301.525 335.545 301.276 334.992C301.028 334.44 300.903 333.809 300.903 333.099C300.903 332.399 301.028 331.773 301.276 331.221C301.525 330.659 301.889 330.221 302.368 329.908C302.856 329.595 303.441 329.438 304.122 329.438C305.117 329.438 305.872 329.807 306.388 330.544V329.604H308.074V336.595C308.074 337.626 307.737 338.404 307.065 338.929C306.393 339.454 305.518 339.717 304.44 339.717ZM302.672 333.099C302.672 333.799 302.824 334.352 303.128 334.757C303.441 335.153 303.906 335.351 304.523 335.351C305.131 335.351 305.587 335.153 305.891 334.757C306.204 334.352 306.36 333.799 306.36 333.099C306.36 332.399 306.204 331.851 305.891 331.455C305.587 331.05 305.131 330.848 304.523 330.848C303.906 330.848 303.441 331.05 303.128 331.455C302.824 331.851 302.672 332.399 302.672 333.099ZM312.819 336.954C312.091 336.954 311.46 336.793 310.926 336.47C310.392 336.139 309.982 335.692 309.696 335.13C309.411 334.559 309.268 333.915 309.268 333.196C309.268 332.478 309.411 331.838 309.696 331.276C309.982 330.705 310.392 330.258 310.926 329.936C311.46 329.604 312.091 329.438 312.819 329.438C313.546 329.438 314.177 329.6 314.711 329.922C315.245 330.244 315.655 330.7 315.941 331.29C316.226 331.879 316.369 332.561 316.369 333.334V333.749H310.995C311.069 334.32 311.262 334.771 311.575 335.103C311.898 335.425 312.312 335.586 312.819 335.586C313.648 335.586 314.219 335.255 314.532 334.591H316.231C315.992 335.319 315.572 335.895 314.974 336.318C314.375 336.742 313.657 336.954 312.819 336.954ZM314.615 332.505C314.522 331.971 314.32 331.557 314.007 331.262C313.703 330.958 313.307 330.806 312.819 330.806C312.33 330.806 311.93 330.958 311.617 331.262C311.313 331.557 311.11 331.971 311.009 332.505H314.615Z" fill="#A7A7A7"/>
<path d="M448.315 334.935C447.617 334.935 447.072 334.767 446.68 334.43C446.288 334.093 446.077 333.64 446.046 333.07L446.974 333.006C447.011 333.373 447.146 333.643 447.378 333.814C447.617 333.986 447.93 334.072 448.315 334.072C448.726 334.072 449.063 333.98 449.326 333.796C449.595 333.612 449.73 333.327 449.73 332.942C449.73 332.55 449.604 332.256 449.353 332.06C449.108 331.858 448.778 331.757 448.361 331.757H447.838V330.912H448.361C448.704 330.912 448.98 330.835 449.188 330.682C449.402 330.529 449.51 330.287 449.51 329.956C449.51 329.638 449.409 329.396 449.206 329.23C449.01 329.065 448.726 328.982 448.352 328.982C447.617 328.982 447.207 329.276 447.121 329.864L446.175 329.8C446.242 329.286 446.463 328.878 446.836 328.578C447.216 328.272 447.721 328.119 448.352 328.119C448.995 328.119 449.506 328.278 449.886 328.597C450.266 328.915 450.456 329.35 450.456 329.901C450.456 330.593 450.091 331.055 449.363 331.288C449.773 331.405 450.094 331.613 450.327 331.913C450.56 332.207 450.676 332.559 450.676 332.969C450.676 333.373 450.575 333.726 450.373 334.026C450.177 334.32 449.901 334.546 449.546 334.705C449.191 334.859 448.781 334.935 448.315 334.935ZM453.373 333.612H454.549V334.788H453.373V333.612ZM453.373 330.131H454.549V331.307H453.373V330.131ZM459.515 334.935C458.817 334.935 458.272 334.767 457.88 334.43C457.488 334.093 457.277 333.64 457.246 333.07L458.174 333.006C458.211 333.373 458.346 333.643 458.578 333.814C458.817 333.986 459.129 334.072 459.515 334.072C459.926 334.072 460.262 333.98 460.526 333.796C460.795 333.612 460.93 333.327 460.93 332.942C460.93 332.55 460.804 332.256 460.553 332.06C460.308 331.858 459.978 331.757 459.561 331.757H459.038V330.912H459.561C459.904 330.912 460.18 330.835 460.388 330.682C460.602 330.529 460.709 330.287 460.709 329.956C460.709 329.638 460.608 329.396 460.406 329.23C460.21 329.065 459.926 328.982 459.552 328.982C458.817 328.982 458.407 329.276 458.321 329.864L457.375 329.8C457.442 329.286 457.663 328.878 458.036 328.578C458.416 328.272 458.921 328.119 459.552 328.119C460.195 328.119 460.706 328.278 461.086 328.597C461.466 328.915 461.656 329.35 461.656 329.901C461.656 330.593 461.291 331.055 460.562 331.288C460.973 331.405 461.294 331.613 461.527 331.913C461.76 332.207 461.876 332.559 461.876 332.969C461.876 333.373 461.775 333.726 461.573 334.026C461.377 334.32 461.101 334.546 460.746 334.705C460.391 334.859 459.981 334.935 459.515 334.935ZM465.161 334.935C464.69 334.935 464.279 334.8 463.93 334.531C463.581 334.261 463.312 333.873 463.122 333.364C462.938 332.85 462.846 332.24 462.846 331.536C462.846 330.832 462.938 330.223 463.122 329.708C463.312 329.194 463.581 328.802 463.93 328.532C464.279 328.257 464.69 328.119 465.161 328.119C465.633 328.119 466.043 328.257 466.392 328.532C466.741 328.802 467.007 329.194 467.191 329.708C467.381 330.223 467.476 330.832 467.476 331.536C467.476 332.24 467.381 332.85 467.191 333.364C467.007 333.873 466.741 334.261 466.392 334.531C466.043 334.8 465.633 334.935 465.161 334.935ZM465.161 334.081C465.59 334.081 465.924 333.857 466.162 333.41C466.407 332.957 466.53 332.332 466.53 331.536C466.53 330.954 466.466 330.461 466.337 330.057L464.362 333.704C464.576 333.955 464.843 334.081 465.161 334.081ZM463.792 331.536C463.792 332.112 463.857 332.599 463.985 332.997L465.96 329.35C465.746 329.099 465.48 328.973 465.161 328.973C464.732 328.973 464.396 329.203 464.151 329.662C463.912 330.115 463.792 330.74 463.792 331.536ZM474.322 329.901H475.148L475.158 330.682C475.298 330.394 475.494 330.174 475.745 330.021C476.003 329.867 476.3 329.791 476.637 329.791C477.084 329.791 477.46 329.907 477.766 330.14C478.073 330.367 478.299 330.673 478.446 331.059C478.599 331.444 478.676 331.873 478.676 332.345C478.676 332.816 478.599 333.245 478.446 333.631C478.299 334.016 478.073 334.326 477.766 334.558C477.46 334.785 477.084 334.898 476.637 334.898C476.324 334.898 476.039 334.831 475.782 334.696C475.531 334.561 475.338 334.375 475.203 334.136V336.166H474.322V329.901ZM476.49 334.081C476.888 334.081 477.197 333.928 477.417 333.621C477.644 333.315 477.757 332.89 477.757 332.345C477.757 331.8 477.644 331.374 477.417 331.068C477.197 330.762 476.888 330.608 476.49 330.608C476.085 330.608 475.77 330.758 475.543 331.059C475.317 331.352 475.203 331.781 475.203 332.345C475.203 332.908 475.317 333.34 475.543 333.64C475.77 333.934 476.085 334.081 476.49 334.081ZM479.536 329.901H480.317L480.344 330.608C480.43 330.351 480.555 330.152 480.721 330.011C480.892 329.864 481.091 329.791 481.318 329.791C481.802 329.791 482.108 330.106 482.236 330.737C482.322 330.437 482.454 330.204 482.631 330.039C482.809 329.874 483.023 329.791 483.274 329.791C483.666 329.791 483.948 329.932 484.12 330.213C484.297 330.489 484.386 330.936 484.386 331.555V334.788H483.513V331.665C483.513 331.267 483.47 330.982 483.385 330.811C483.305 330.639 483.176 330.553 482.999 330.553C482.815 330.553 482.668 330.648 482.558 330.838C482.454 331.022 482.402 331.3 482.402 331.674V334.788H481.52V331.665C481.52 331.267 481.48 330.982 481.401 330.811C481.327 330.639 481.195 330.553 481.006 330.553C480.822 330.553 480.675 330.648 480.565 330.838C480.46 331.022 480.408 331.3 480.408 331.674V334.788H479.536V329.901Z" fill="#A7A7A7"/>
<rect x="494.793" y="313.416" width="36.7444" height="36.7444" rx="18.3722" fill="#EEEEEE"/>
<rect x="510.867" y="329.492" width="4.59305" height="4.59305" fill="#AEAEAE" stroke="white" stroke-width="0.382754"/>
<rect x="510.867" y="324.898" width="4.59305" height="4.59305" fill="#AEAEAE" stroke="white" stroke-width="0.382754"/>
<rect x="510.867" y="320.307" width="4.59305" height="4.59305" fill="#AEAEAE" stroke="white" stroke-width="0.382754"/>
<rect x="510.867" y="334.085" width="4.59305" height="4.59305" fill="#AEAEAE" stroke="white" stroke-width="0.382754"/>
<rect x="510.867" y="338.679" width="4.59305" height="4.59305" fill="#AEAEAE" stroke="white" stroke-width="0.382754"/>
<rect x="515.461" y="334.085" width="4.59305" height="4.59305" fill="#AEAEAE" stroke="white" stroke-width="0.382754"/>
<rect x="515.461" y="338.679" width="4.59305" height="4.59305" fill="#AEAEAE" stroke="white" stroke-width="0.382754"/>
<rect x="506.277" y="334.085" width="4.59305" height="4.59305" fill="#AEAEAE" stroke="white" stroke-width="0.382754"/>
<rect x="506.277" y="338.679" width="4.59305" height="4.59305" fill="#AEAEAE" stroke="white" stroke-width="0.382754"/>
<rect x="501.684" y="320.307" width="4.59305" height="4.59305" fill="#AEAEAE" stroke="white" stroke-width="0.382754"/>
<rect x="520.055" y="320.307" width="4.59305" height="4.59305" fill="#AEAEAE" stroke="white" stroke-width="0.382754"/>
<path d="M484.702 319.698L476.664 300.178L496.185 308.216L488.991 311.299C488.449 311.531 488.017 311.963 487.785 312.504L484.702 319.698Z" fill="white" stroke="black" stroke-width="1.72239" stroke-linecap="round" stroke-linejoin="round"/>
<rect x="-1.77536" y="1.77536" width="13.0193" height="13.0193" rx="6.50964" transform="matrix(-1 0 0 1 238.516 282.107)" fill="white" stroke="#FF611A" stroke-width="3.55071"/>
<rect width="9.1861" height="9.1861" rx="4.59305" transform="matrix(-1 0 0 1 238.969 328.883)" fill="#DCDCDC"/>
<rect width="25.2618" height="25.2618" transform="translate(221.746 234.727)" fill="white"/>
<rect x="-1.77536" y="1.77536" width="13.0193" height="13.0193" rx="6.50964" transform="matrix(-1 0 0 1 238.516 239.5)" fill="white" stroke="#FF611A" stroke-width="3.55071"/>
<g filter="url(#filter1_d_903_3305)">
<rect x="281.5" y="52.0029" width="140.871" height="51.35" rx="6.97857" fill="white"/>
<rect x="281.5" y="52.0029" width="140.871" height="51.35" rx="6.97857" stroke="#CACACA"/>
<path d="M304.944 69.6779H311.944C314.035 69.6779 315.623 70.0992 316.708 70.9418C317.794 71.7681 318.337 72.9024 318.337 74.3445C318.337 75.9811 317.632 77.1882 316.222 77.966C317.162 78.3549 317.867 78.9139 318.337 79.6431C318.823 80.356 319.066 81.1824 319.066 82.1222C319.066 83.7264 318.523 84.974 317.437 85.8652C316.368 86.7402 314.78 87.1777 312.674 87.1777H304.944V69.6779ZM312.674 84.4312C314.699 84.4312 315.712 83.6292 315.712 82.025C315.712 80.4046 314.699 79.5945 312.674 79.5945H308.201V84.4312H312.674ZM312.042 76.9452C313.062 76.9452 313.824 76.7507 314.326 76.3618C314.845 75.973 315.104 75.4139 315.104 74.6848C315.104 73.9556 314.845 73.3966 314.326 73.0077C313.824 72.6188 313.062 72.4244 312.042 72.4244H308.201V76.9452H312.042ZM320.961 74.5389H323.927V76.7993C324.688 75.1952 325.96 74.3931 327.743 74.3931H328.739V77.2125H327.621C326.471 77.2125 325.579 77.5042 324.948 78.0875C324.332 78.6709 324.024 79.6593 324.024 81.0528V87.1777H320.961V74.5389ZM336.527 87.4694C335.214 87.4694 334.072 87.1858 333.1 86.6187C332.144 86.0516 331.407 85.2657 330.888 84.2611C330.386 83.2565 330.135 82.1222 330.135 80.8583C330.135 79.5945 330.386 78.4602 330.888 77.4556C331.407 76.451 332.144 75.6651 333.1 75.098C334.072 74.5308 335.214 74.2473 336.527 74.2473C337.839 74.2473 338.974 74.5308 339.93 75.098C340.902 75.6651 341.639 76.451 342.142 77.4556C342.66 78.4602 342.919 79.5945 342.919 80.8583C342.919 82.1222 342.66 83.2565 342.142 84.2611C341.639 85.2657 340.902 86.0516 339.93 86.6187C338.974 87.1858 337.839 87.4694 336.527 87.4694ZM333.246 80.8583C333.246 82.1222 333.513 83.1187 334.048 83.8479C334.599 84.5609 335.425 84.9173 336.527 84.9173C337.629 84.9173 338.447 84.5609 338.982 83.8479C339.533 83.1187 339.808 82.1222 339.808 80.8583C339.808 79.5945 339.533 78.606 338.982 77.8931C338.447 77.1639 337.629 76.7993 336.527 76.7993C335.425 76.7993 334.599 77.1639 334.048 77.8931C333.513 78.606 333.246 79.5945 333.246 80.8583ZM353.999 78.282L351.422 87.1777H348.263L343.839 74.5389H347.12L349.964 83.5805L352.516 74.5389H355.457L358.009 83.5805L360.853 74.5389H364.134L359.71 87.1777H356.551L353.999 78.282ZM370.519 87.4694C366.84 87.4694 364.912 85.9868 364.734 83.0215H367.699C367.796 83.8317 368.08 84.4069 368.55 84.7472C369.036 85.0875 369.725 85.2576 370.616 85.2576C371.361 85.2576 371.953 85.128 372.39 84.8687C372.844 84.6095 373.071 84.2449 373.071 83.775C373.071 83.4509 372.998 83.1917 372.852 82.9972C372.722 82.8028 372.447 82.6326 372.026 82.4868C371.604 82.3248 370.964 82.1708 370.105 82.025C368.809 81.7981 367.788 81.5065 367.043 81.15C366.314 80.7935 365.795 80.3641 365.487 79.8618C365.179 79.3595 365.026 78.7519 365.026 78.0389C365.026 76.8561 365.495 75.9325 366.435 75.2681C367.391 74.5876 368.663 74.2473 370.251 74.2473C372.034 74.2473 373.395 74.6281 374.335 75.3896C375.274 76.1512 375.76 77.2044 375.793 78.5493H372.949C372.917 77.7716 372.657 77.2287 372.171 76.9209C371.685 76.613 371.045 76.4591 370.251 76.4591C369.603 76.4591 369.068 76.5887 368.647 76.848C368.226 77.1072 368.015 77.4637 368.015 77.9174C368.015 78.2415 368.096 78.5007 368.258 78.6952C368.436 78.8896 368.744 79.0597 369.182 79.2056C369.619 79.3352 370.267 79.4729 371.126 79.6188C372.39 79.8294 373.387 80.1049 374.116 80.4452C374.845 80.7854 375.355 81.2148 375.647 81.7333C375.955 82.2356 376.109 82.8514 376.109 83.5805C376.109 84.812 375.59 85.768 374.553 86.4486C373.532 87.1291 372.188 87.4694 370.519 87.4694ZM383.591 87.4694C382.311 87.4694 381.201 87.1858 380.262 86.6187C379.322 86.0354 378.601 85.2495 378.098 84.2611C377.596 83.2565 377.345 82.1222 377.345 80.8583C377.345 79.5945 377.596 78.4683 378.098 77.4799C378.601 76.4753 379.322 75.6894 380.262 75.1223C381.201 74.5389 382.311 74.2473 383.591 74.2473C384.872 74.2473 385.981 74.5308 386.921 75.098C387.861 75.6651 388.582 76.4672 389.084 77.5042C389.587 78.5412 389.838 79.7403 389.838 81.1014V81.8306H380.383C380.513 82.8352 380.853 83.6292 381.404 84.2125C381.971 84.7796 382.7 85.0632 383.591 85.0632C385.05 85.0632 386.054 84.4798 386.605 83.3132H389.595C389.174 84.5933 388.436 85.606 387.383 86.3514C386.33 87.0967 385.066 87.4694 383.591 87.4694ZM386.751 79.6431C386.589 78.7033 386.233 77.9741 385.682 77.4556C385.147 76.9209 384.45 76.6535 383.591 76.6535C382.733 76.6535 382.028 76.9209 381.477 77.4556C380.942 77.9741 380.586 78.7033 380.407 79.6431H386.751ZM391.907 74.5389H394.873V76.7993C395.634 75.1952 396.906 74.3931 398.689 74.3931H399.685V77.2125H398.567C397.417 77.2125 396.525 77.5042 395.894 78.0875C395.278 78.6709 394.97 79.6593 394.97 81.0528V87.1777H391.907V74.5389Z" fill="black"/>
</g>
<g filter="url(#filter2_d_903_3305)">
<rect x="132.5" y="52.0029" width="104.871" height="51.35" rx="6.97857" fill="white"/>
<rect x="132.5" y="52.0029" width="104.871" height="51.35" rx="6.97857" stroke="#CACACA"/>
<path d="M159.104 74.1501V87.1777H155.944V69.6779H159.59L167.587 82.7055V69.6779H170.771V87.1777H167.125L159.104 74.1501ZM179.433 87.4694C178.121 87.4694 176.978 87.1858 176.006 86.6187C175.05 86.0516 174.313 85.2657 173.794 84.2611C173.292 83.2565 173.041 82.1222 173.041 80.8583C173.041 79.5945 173.292 78.4602 173.794 77.4556C174.313 76.451 175.05 75.6651 176.006 75.098C176.978 74.5308 178.121 74.2473 179.433 74.2473C180.746 74.2473 181.88 74.5308 182.836 75.098C183.808 75.6651 184.545 76.451 185.048 77.4556C185.566 78.4602 185.825 79.5945 185.825 80.8583C185.825 82.1222 185.566 83.2565 185.048 84.2611C184.545 85.2657 183.808 86.0516 182.836 86.6187C181.88 87.1858 180.746 87.4694 179.433 87.4694ZM176.152 80.8583C176.152 82.1222 176.419 83.1187 176.954 83.8479C177.505 84.5609 178.331 84.9173 179.433 84.9173C180.535 84.9173 181.353 84.5609 181.888 83.8479C182.439 83.1187 182.714 82.1222 182.714 80.8583C182.714 79.5945 182.439 78.606 181.888 77.8931C181.353 77.1639 180.535 76.7993 179.433 76.7993C178.331 76.7993 177.505 77.1639 176.954 77.8931C176.419 78.606 176.152 79.5945 176.152 80.8583ZM197.051 87.1777V85.4277C196.613 86.0759 196.054 86.5782 195.374 86.9347C194.709 87.2912 193.931 87.4694 193.04 87.4694C191.841 87.4694 190.812 87.1858 189.954 86.6187C189.111 86.0516 188.471 85.2657 188.033 84.2611C187.596 83.2565 187.377 82.1222 187.377 80.8583C187.377 79.5945 187.596 78.4602 188.033 77.4556C188.471 76.451 189.111 75.6651 189.954 75.098C190.812 74.5308 191.841 74.2473 193.04 74.2473C194.725 74.2473 196.022 74.8711 196.929 76.1188V69.6779H199.992V87.1777H197.051ZM190.488 80.8583C190.488 82.1222 190.756 83.1187 191.29 83.8479C191.841 84.5609 192.66 84.9173 193.745 84.9173C194.815 84.9173 195.617 84.5609 196.151 83.8479C196.702 83.1187 196.978 82.1222 196.978 80.8583C196.978 79.5945 196.702 78.606 196.151 77.8931C195.617 77.1639 194.815 76.7993 193.745 76.7993C192.66 76.7993 191.841 77.1639 191.29 77.8931C190.756 78.606 190.488 79.5945 190.488 80.8583ZM208.34 87.4694C207.06 87.4694 205.95 87.1858 205.01 86.6187C204.07 86.0354 203.349 85.2495 202.847 84.2611C202.344 83.2565 202.093 82.1222 202.093 80.8583C202.093 79.5945 202.344 78.4683 202.847 77.4799C203.349 76.4753 204.07 75.6894 205.01 75.1223C205.95 74.5389 207.06 74.2473 208.34 74.2473C209.62 74.2473 210.73 74.5308 211.67 75.098C212.609 75.6651 213.33 76.4672 213.833 77.5042C214.335 78.5412 214.586 79.7403 214.586 81.1014V81.8306H205.131C205.261 82.8352 205.601 83.6292 206.152 84.2125C206.719 84.7796 207.449 85.0632 208.34 85.0632C209.798 85.0632 210.803 84.4798 211.354 83.3132H214.343C213.922 84.5933 213.185 85.606 212.131 86.3514C211.078 87.0967 209.814 87.4694 208.34 87.4694ZM211.499 79.6431C211.337 78.7033 210.981 77.9741 210.43 77.4556C209.895 76.9209 209.199 76.6535 208.34 76.6535C207.481 76.6535 206.776 76.9209 206.225 77.4556C205.69 77.9741 205.334 78.7033 205.156 79.6431H211.499Z" fill="black"/>
</g>
<rect x="290.5" y="161" width="166.569" height="52.35" rx="26.175" fill="#414141"/>
<rect x="-1.7929" y="1.7929" width="13.1479" height="13.1479" rx="6.57395" transform="matrix(-1 0 0 1 322.09 178.809)" stroke="#FF611A" stroke-width="3.58579"/>
<path d="M343.14 179.175H346.397V193.734H354.782V196.675H343.14V179.175ZM362.234 196.966C360.954 196.966 359.844 196.683 358.904 196.116C357.964 195.532 357.243 194.747 356.741 193.758C356.239 192.754 355.987 191.619 355.987 190.355C355.987 189.092 356.239 187.965 356.741 186.977C357.243 185.972 357.964 185.186 358.904 184.619C359.844 184.036 360.954 183.744 362.234 183.744C363.514 183.744 364.624 184.028 365.564 184.595C366.504 185.162 367.225 185.964 367.727 187.001C368.229 188.038 368.48 189.237 368.48 190.598V191.328H359.026C359.155 192.332 359.495 193.126 360.046 193.71C360.614 194.277 361.343 194.56 362.234 194.56C363.692 194.56 364.697 193.977 365.248 192.81H368.237C367.816 194.09 367.079 195.103 366.026 195.848C364.972 196.594 363.708 196.966 362.234 196.966ZM365.394 189.14C365.232 188.2 364.875 187.471 364.324 186.953C363.789 186.418 363.093 186.151 362.234 186.151C361.375 186.151 360.67 186.418 360.119 186.953C359.585 187.471 359.228 188.2 359.05 189.14H365.394ZM376.237 201.828C374.487 201.828 373.118 201.439 372.13 200.661C371.158 199.883 370.623 198.806 370.526 197.428H373.515C373.693 198.773 374.633 199.446 376.335 199.446C378.49 199.446 379.567 198.409 379.567 196.335V194.828C378.66 196.043 377.364 196.65 375.678 196.65C374.479 196.65 373.45 196.375 372.592 195.824C371.749 195.257 371.109 194.487 370.671 193.515C370.234 192.543 370.015 191.433 370.015 190.185C370.015 188.954 370.234 187.852 370.671 186.88C371.109 185.891 371.749 185.122 372.592 184.571C373.45 184.02 374.479 183.744 375.678 183.744C377.428 183.744 378.757 184.392 379.664 185.689V184.036H382.63V196.335C382.63 198.149 382.038 199.519 380.855 200.442C379.673 201.366 378.133 201.828 376.237 201.828ZM373.126 190.185C373.126 191.417 373.394 192.389 373.928 193.102C374.479 193.799 375.298 194.147 376.383 194.147C377.453 194.147 378.255 193.799 378.789 193.102C379.34 192.389 379.616 191.417 379.616 190.185C379.616 188.954 379.34 187.99 378.789 187.293C378.255 186.58 377.453 186.224 376.383 186.224C375.298 186.224 374.479 186.58 373.928 187.293C373.394 187.99 373.126 188.954 373.126 190.185ZM385.242 184.036H388.28V196.675H385.242V184.036ZM385.242 179.175H388.304V182.019H385.242V179.175ZM395.218 180.147V184.036H398.426V186.394H395.218V193.126C395.218 193.548 395.307 193.855 395.485 194.05C395.68 194.228 395.996 194.317 396.433 194.317H398.426V196.675H395.68C394.529 196.675 393.654 196.44 393.055 195.97C392.471 195.484 392.18 194.641 392.18 193.442V186.394H389.968V184.036H392.18V180.147H395.218ZM405.849 179.175H418.197V182.116H409.106V186.272H417.735V189.092H409.106V196.675H405.849V179.175ZM426.725 196.966C424.473 196.966 422.674 196.44 421.329 195.387C420.001 194.317 419.312 192.786 419.263 190.793H422.496C422.577 193.126 424.019 194.293 426.822 194.293C427.892 194.293 428.751 194.074 429.399 193.637C430.063 193.199 430.395 192.583 430.395 191.789C430.395 191.352 430.282 190.987 430.055 190.696C429.828 190.388 429.399 190.112 428.767 189.869C428.135 189.626 427.211 189.383 425.996 189.14C423.808 188.735 422.212 188.127 421.208 187.317C420.219 186.491 419.725 185.308 419.725 183.769C419.725 182.813 419.993 181.97 420.527 181.241C421.062 180.496 421.824 179.92 422.812 179.515C423.8 179.094 424.935 178.883 426.215 178.883C428.499 178.883 430.233 179.41 431.416 180.463C432.615 181.5 433.247 182.926 433.312 184.741H430.152C430.087 183.655 429.739 182.853 429.107 182.335C428.475 181.816 427.511 181.557 426.215 181.557C425.259 181.557 424.497 181.751 423.93 182.14C423.363 182.513 423.079 183.023 423.079 183.671C423.079 184.141 423.177 184.53 423.371 184.838C423.582 185.13 423.979 185.397 424.562 185.64C425.161 185.883 426.036 186.118 427.187 186.345C428.888 186.653 430.209 187.05 431.149 187.536C432.105 188.006 432.777 188.573 433.166 189.237C433.555 189.886 433.749 190.688 433.749 191.644C433.749 192.762 433.45 193.718 432.85 194.512C432.267 195.306 431.44 195.913 430.371 196.335C429.318 196.756 428.102 196.966 426.725 196.966Z" fill="white"/>
<g filter="url(#filter3_d_903_3305)">
<rect x="467.5" y="52.0029" width="186.871" height="51.35" rx="6.97857" fill="white"/>
<rect x="467.5" y="52.0029" width="186.871" height="51.35" rx="6.97857" stroke="#CACACA"/>
<path d="M490.944 69.6779H494.201V84.2368H502.587V87.1777H490.944V69.6779ZM510.184 87.4694C508.872 87.4694 507.73 87.1858 506.757 86.6187C505.801 86.0516 505.064 85.2657 504.546 84.2611C504.043 83.2565 503.792 82.1222 503.792 80.8583C503.792 79.5945 504.043 78.4602 504.546 77.4556C505.064 76.451 505.801 75.6651 506.757 75.098C507.73 74.5308 508.872 74.2473 510.184 74.2473C511.497 74.2473 512.631 74.5308 513.587 75.098C514.559 75.6651 515.297 76.451 515.799 77.4556C516.317 78.4602 516.577 79.5945 516.577 80.8583C516.577 82.1222 516.317 83.2565 515.799 84.2611C515.297 85.2657 514.559 86.0516 513.587 86.6187C512.631 87.1858 511.497 87.4694 510.184 87.4694ZM506.903 80.8583C506.903 82.1222 507.171 83.1187 507.705 83.8479C508.256 84.5609 509.083 84.9173 510.184 84.9173C511.286 84.9173 512.105 84.5609 512.639 83.8479C513.19 83.1187 513.466 82.1222 513.466 80.8583C513.466 79.5945 513.19 78.606 512.639 77.8931C512.105 77.1639 511.286 76.7993 510.184 76.7993C509.083 76.7993 508.256 77.1639 507.705 77.8931C507.171 78.606 506.903 79.5945 506.903 80.8583ZM524.375 87.4694C523.111 87.4694 522.009 87.1858 521.069 86.6187C520.146 86.0354 519.433 85.2495 518.931 84.2611C518.428 83.2565 518.177 82.1222 518.177 80.8583C518.177 79.5945 518.428 78.4683 518.931 77.4799C519.433 76.4753 520.146 75.6894 521.069 75.1223C522.009 74.5389 523.111 74.2473 524.375 74.2473C526.06 74.2473 527.405 74.6848 528.41 75.5598C529.43 76.4186 530.038 77.5852 530.233 79.0597H527.17C527.024 78.3468 526.708 77.7959 526.222 77.407C525.736 77.0019 525.12 76.7993 524.375 76.7993C523.37 76.7993 522.601 77.1639 522.066 77.8931C521.547 78.6222 521.288 79.6107 521.288 80.8583C521.288 82.106 521.547 83.0944 522.066 83.8236C522.601 84.5528 523.37 84.9173 524.375 84.9173C525.136 84.9173 525.76 84.7067 526.246 84.2854C526.733 83.8641 527.04 83.2727 527.17 82.5111H530.233C530.038 84.0018 529.43 85.2009 528.41 86.1083C527.389 87.0157 526.044 87.4694 524.375 87.4694ZM540.069 85.7194C539.551 86.3514 538.959 86.8051 538.295 87.0805C537.647 87.3398 536.901 87.4694 536.059 87.4694C534.665 87.4694 533.547 87.1372 532.705 86.4729C531.862 85.7923 531.441 84.8525 531.441 83.6535C531.441 82.5516 531.83 81.7009 532.607 81.1014C533.401 80.4857 534.633 80.032 536.302 79.7403L539.972 79.0841V78.3549C539.972 77.7716 539.786 77.3341 539.413 77.0424C539.04 76.7507 538.457 76.6049 537.663 76.6049C536.918 76.6049 536.302 76.7669 535.816 77.091C535.33 77.4151 535.07 77.9093 535.038 78.5736H532.024C532.04 77.1477 532.575 76.0702 533.628 75.341C534.681 74.6119 536.018 74.2473 537.639 74.2473C539.405 74.2473 540.734 74.5795 541.625 75.2438C542.516 75.9082 542.962 76.8318 542.962 78.0146V87.1777H540.069V85.7194ZM534.576 83.5562C534.576 84.0748 534.754 84.4798 535.111 84.7715C535.484 85.0632 536.026 85.209 536.739 85.209C537.631 85.209 538.392 84.9659 539.024 84.4798C539.656 83.9775 539.972 83.2403 539.972 82.2681V81.15L536.861 81.7819C536.067 81.944 535.484 82.1465 535.111 82.3896C534.754 82.6326 534.576 83.0215 534.576 83.5562ZM548.31 69.6779V83.6292C548.31 84.0504 548.399 84.3583 548.577 84.5528C548.755 84.731 549.071 84.8201 549.525 84.8201H551.178V87.1777H548.747C547.597 87.1777 546.722 86.9428 546.122 86.4729C545.539 85.9868 545.247 85.1442 545.247 83.9451V69.6779H548.31ZM558.615 69.6779H570.962V72.6188H561.872V76.775H570.5V79.5945H561.872V87.1777H558.615V69.6779ZM578.567 87.4694C577.254 87.4694 576.112 87.1858 575.14 86.6187C574.184 86.0516 573.447 85.2657 572.928 84.2611C572.426 83.2565 572.175 82.1222 572.175 80.8583C572.175 79.5945 572.426 78.4602 572.928 77.4556C573.447 76.451 574.184 75.6651 575.14 75.098C576.112 74.5308 577.254 74.2473 578.567 74.2473C579.879 74.2473 581.014 74.5308 581.97 75.098C582.942 75.6651 583.679 76.451 584.181 77.4556C584.7 78.4602 584.959 79.5945 584.959 80.8583C584.959 82.1222 584.7 83.2565 584.181 84.2611C583.679 85.2657 582.942 86.0516 581.97 86.6187C581.014 87.1858 579.879 87.4694 578.567 87.4694ZM575.286 80.8583C575.286 82.1222 575.553 83.1187 576.088 83.8479C576.639 84.5609 577.465 84.9173 578.567 84.9173C579.669 84.9173 580.487 84.5609 581.022 83.8479C581.573 83.1187 581.848 82.1222 581.848 80.8583C581.848 79.5945 581.573 78.606 581.022 77.8931C580.487 77.1639 579.669 76.7993 578.567 76.7993C577.465 76.7993 576.639 77.1639 576.088 77.8931C575.553 78.606 575.286 79.5945 575.286 80.8583ZM590.108 69.6779V83.6292C590.108 84.0504 590.197 84.3583 590.376 84.5528C590.554 84.731 590.87 84.8201 591.323 84.8201H592.976V87.1777H590.546C589.395 87.1777 588.52 86.9428 587.921 86.4729C587.337 85.9868 587.046 85.1442 587.046 83.9451V69.6779H590.108ZM604.065 87.1777V85.4277C603.627 86.0759 603.068 86.5782 602.388 86.9347C601.723 87.2912 600.946 87.4694 600.054 87.4694C598.855 87.4694 597.826 87.1858 596.968 86.6187C596.125 86.0516 595.485 85.2657 595.048 84.2611C594.61 83.2565 594.391 82.1222 594.391 80.8583C594.391 79.5945 594.61 78.4602 595.048 77.4556C595.485 76.451 596.125 75.6651 596.968 75.098C597.826 74.5308 598.855 74.2473 600.054 74.2473C601.74 74.2473 603.036 74.8711 603.943 76.1188V69.6779H607.006V87.1777H604.065ZM597.502 80.8583C597.502 82.1222 597.77 83.1187 598.304 83.8479C598.855 84.5609 599.674 84.9173 600.759 84.9173C601.829 84.9173 602.631 84.5609 603.165 83.8479C603.716 83.1187 603.992 82.1222 603.992 80.8583C603.992 79.5945 603.716 78.606 603.165 77.8931C602.631 77.1639 601.829 76.7993 600.759 76.7993C599.674 76.7993 598.855 77.1639 598.304 77.8931C597.77 78.606 597.502 79.5945 597.502 80.8583ZM615.354 87.4694C614.074 87.4694 612.964 87.1858 612.024 86.6187C611.084 86.0354 610.363 85.2495 609.861 84.2611C609.359 83.2565 609.107 82.1222 609.107 80.8583C609.107 79.5945 609.359 78.4683 609.861 77.4799C610.363 76.4753 611.084 75.6894 612.024 75.1223C612.964 74.5389 614.074 74.2473 615.354 74.2473C616.634 74.2473 617.744 74.5308 618.684 75.098C619.624 75.6651 620.345 76.4672 620.847 77.5042C621.349 78.5412 621.6 79.7403 621.6 81.1014V81.8306H612.146C612.275 82.8352 612.615 83.6292 613.166 84.2125C613.734 84.7796 614.463 85.0632 615.354 85.0632C616.812 85.0632 617.817 84.4798 618.368 83.3132H621.357C620.936 84.5933 620.199 85.606 619.146 86.3514C618.092 87.0967 616.828 87.4694 615.354 87.4694ZM618.514 79.6431C618.352 78.7033 617.995 77.9741 617.444 77.4556C616.909 76.9209 616.213 76.6535 615.354 76.6535C614.495 76.6535 613.79 76.9209 613.239 77.4556C612.705 77.9741 612.348 78.7033 612.17 79.6431H618.514ZM623.67 74.5389H626.635V76.7993C627.397 75.1952 628.669 74.3931 630.451 74.3931H631.448V77.2125H630.33C629.179 77.2125 628.288 77.5042 627.656 78.0875C627.04 78.6709 626.732 79.6593 626.732 81.0528V87.1777H623.67V74.5389Z" fill="black"/>
</g>
<path d="M187.5 119C187.5 118.724 187.276 118.5 187 118.5C186.724 118.5 186.5 118.724 186.5 119H187H187.5ZM273 187L268 184.113V189.887L273 187ZM187 119H186.5V177H187H187.5V119H187ZM197 187V187.5H268.5V187V186.5H197V187ZM187 177H186.5C186.5 182.799 191.201 187.5 197 187.5V187V186.5C191.753 186.5 187.5 182.247 187.5 177H187Z" fill="black"/>
<path d="M374.5 119C374.5 118.724 374.276 118.5 374 118.5C373.724 118.5 373.5 118.724 373.5 119L374 119L374.5 119ZM374 148L376.887 143L371.113 143L374 148ZM374 119L373.5 119L373.5 143.5L374 143.5L374.5 143.5L374.5 119L374 119Z" fill="black"/>
<path d="M560.5 119C560.5 118.724 560.724 118.5 561 118.5C561.276 118.5 561.5 118.724 561.5 119H561H560.5ZM475 187L480 184.113V189.887L475 187ZM561 119H561.5V177H561H560.5V119H561ZM551 187V187.5H479.5V187V186.5H551V187ZM561 177H561.5C561.5 182.799 556.799 187.5 551 187.5V187V186.5C556.247 186.5 560.5 182.247 560.5 177H561Z" fill="black"/>
</g>
<defs>
<filter id="filter0_f_903_3305" x="-23" y="72" width="796" height="524" filterUnits="userSpaceOnUse" color-interpolation-filters="sRGB">
<feFlood flood-opacity="0" result="BackgroundImageFix"/>
<feBlend mode="normal" in="SourceGraphic" in2="BackgroundImageFix" result="shape"/>
<feGaussianBlur stdDeviation="42" result="effect1_foregroundBlur_903_3305"/>
</filter>
<filter id="filter1_d_903_3305" x="241.737" y="19.719" width="220.396" height="130.875" filterUnits="userSpaceOnUse" color-interpolation-filters="sRGB">
<feFlood flood-opacity="0" result="BackgroundImageFix"/>
<feColorMatrix in="SourceAlpha" type="matrix" values="0 0 0 0 0 0 0 0 0 0 0 0 0 0 0 0 0 0 127 0" result="hardAlpha"/>
<feOffset dy="7.47857"/>
<feGaussianBlur stdDeviation="19.6313"/>
<feComposite in2="hardAlpha" operator="out"/>
<feColorMatrix type="matrix" values="0 0 0 0 0 0 0 0 0 0 0 0 0 0 0 0 0 0 0.13 0"/>
<feBlend mode="normal" in2="BackgroundImageFix" result="effect1_dropShadow_903_3305"/>
<feBlend mode="normal" in="SourceGraphic" in2="effect1_dropShadow_903_3305" result="shape"/>
</filter>
<filter id="filter2_d_903_3305" x="92.7375" y="19.719" width="184.396" height="130.875" filterUnits="userSpaceOnUse" color-interpolation-filters="sRGB">
<feFlood flood-opacity="0" result="BackgroundImageFix"/>
<feColorMatrix in="SourceAlpha" type="matrix" values="0 0 0 0 0 0 0 0 0 0 0 0 0 0 0 0 0 0 127 0" result="hardAlpha"/>
<feOffset dy="7.47857"/>
<feGaussianBlur stdDeviation="19.6313"/>
<feComposite in2="hardAlpha" operator="out"/>
<feColorMatrix type="matrix" values="0 0 0 0 0 0 0 0 0 0 0 0 0 0 0 0 0 0 0.13 0"/>
<feBlend mode="normal" in2="BackgroundImageFix" result="effect1_dropShadow_903_3305"/>
<feBlend mode="normal" in="SourceGraphic" in2="effect1_dropShadow_903_3305" result="shape"/>
</filter>
<filter id="filter3_d_903_3305" x="427.737" y="19.719" width="266.396" height="130.875" filterUnits="userSpaceOnUse" color-interpolation-filters="sRGB">
<feFlood flood-opacity="0" result="BackgroundImageFix"/>
<feColorMatrix in="SourceAlpha" type="matrix" values="0 0 0 0 0 0 0 0 0 0 0 0 0 0 0 0 0 0 127 0" result="hardAlpha"/>
<feOffset dy="7.47857"/>
<feGaussianBlur stdDeviation="19.6313"/>
<feComposite in2="hardAlpha" operator="out"/>
<feColorMatrix type="matrix" values="0 0 0 0 0 0 0 0 0 0 0 0 0 0 0 0 0 0 0.13 0"/>
<feBlend mode="normal" in2="BackgroundImageFix" result="effect1_dropShadow_903_3305"/>
<feBlend mode="normal" in="SourceGraphic" in2="effect1_dropShadow_903_3305" result="shape"/>
</filter>
<linearGradient id="paint0_linear_903_3305" x1="234.879" y1="246.209" x2="234.879" y2="384" gradientUnits="userSpaceOnUse">
<stop stop-color="#CECECE"/>
<stop offset="1" stop-color="#CECECE" stop-opacity="0"/>
</linearGradient>
<clipPath id="clip0_903_3305">
<rect width="748" height="374" fill="white"/>
</clipPath>
</defs>
</svg>
